<svg xmlns="http://www.w3.org/2000/svg" xmlns:xlink="http://www.w3.org/1999/xlink" viewBox="0 0 266.01 166.94"><defs><style>.cls-1{fill:#ffec00;}.cls-2{fill:#00c3ff;}.cls-3{fill:#010f70;}.cls-4{fill:#ff0068;}.cls-5{clip-path:url(#clip-path);}.cls-6{clip-path:url(#clip-path-2);}.cls-7{clip-path:url(#clip-path-3);}.cls-8{clip-path:url(#clip-path-4);}.cls-9{clip-path:url(#clip-path-5);}</style><clipPath id="clip-path" transform="translate(13.16 6.71)"><rect class="cls-1" y="25.29" width="245.12" height="118.69"/></clipPath><clipPath id="clip-path-2" transform="translate(13.16 6.71)"><path class="cls-2" d="M153.36,111.59V64.76a15.64,15.64,0,1,1,31.28,0v46.83Z"/></clipPath><clipPath id="clip-path-3" transform="translate(13.16 6.71)"><path class="cls-2" d="M199.67,111.59V64.76a15.65,15.65,0,0,1,31.29,0v46.83Z"/></clipPath><clipPath id="clip-path-4" transform="translate(13.16 6.71)"><path class="cls-3" d="M40.19,44.12h0A20.64,20.64,0,0,1,60.83,64.76V150.1a0,0,0,0,1,0,0H19.54a0,0,0,0,1,0,0V64.76A20.64,20.64,0,0,1,40.19,44.12Z"/></clipPath><clipPath id="clip-path-5" transform="translate(13.16 6.71)"><polygon class="cls-4" points="208.74 0 36.37 0 0 25.29 245.12 25.29 208.74 0"/></clipPath></defs><g id="Capa_2" data-name="Capa 2"><g id="Espacios"><rect class="cls-1" x="13.16" y="31.99" width="245.12" height="118.69"/><g class="cls-5"><path class="cls-3" d="M182.16,50.83h0A20.64,20.64,0,0,1,202.8,71.47v48a0,0,0,0,1,0,0H161.52a0,0,0,0,1,0,0v-48A20.64,20.64,0,0,1,182.16,50.83Z"/><path class="cls-2" d="M153.36,111.59V64.76a15.64,15.64,0,1,1,31.28,0v46.83Z" transform="translate(13.16 6.71)"/><g class="cls-6"><rect class="cls-3" x="181.16" y="50.52" width="2" height="73.08"/><rect class="cls-3" x="145.62" y="71.61" width="73.08" height="2"/><rect class="cls-3" x="145.62" y="86.06" width="73.08" height="2"/><rect class="cls-3" x="145.62" y="100.52" width="73.08" height="2"/></g><polygon class="cls-3" points="183.61 54.31 180.71 54.31 178.21 45.09 186.11 45.09 183.61 54.31"/><path class="cls-3" d="M228.47,50.83h0a20.64,20.64,0,0,1,20.64,20.64v48a0,0,0,0,1,0,0H207.83a0,0,0,0,1,0,0v-48A20.64,20.64,0,0,1,228.47,50.83Z"/><path class="cls-2" d="M199.67,111.59V64.76a15.65,15.65,0,0,1,31.29,0v46.83Z" transform="translate(13.16 6.71)"/><g class="cls-7"><rect class="cls-3" x="227.47" y="50.52" width="2" height="73.08"/><rect class="cls-3" x="191.93" y="71.61" width="73.08" height="2"/><rect class="cls-3" x="191.93" y="86.06" width="73.08" height="2"/><rect class="cls-3" x="191.93" y="100.52" width="73.08" height="2"/></g><polygon class="cls-3" points="229.92 54.31 227.03 54.31 224.53 45.09 232.42 45.09 229.92 54.31"/><rect class="cls-4" y="115.33" width="266.01" height="13.67"/><rect class="cls-1" y="126.17" width="266.01" height="40.77"/><path class="cls-3" d="M53.34,50.83h0A20.64,20.64,0,0,1,74,71.47v85.34a0,0,0,0,1,0,0H32.7a0,0,0,0,1,0,0V71.47A20.64,20.64,0,0,1,53.34,50.83Z"/><g class="cls-8"><rect class="cls-4" x="25.48" y="132.81" width="55.73" height="10.26"/></g><polygon class="cls-1" points="54.79 54.31 51.9 54.31 49.4 45.09 57.29 45.09 54.79 54.31"/><polygon class="cls-3" points="54.79 54.31 51.9 54.31 49.4 45.09 57.29 45.09 54.79 54.31"/><path class="cls-2" d="M25.54,122.3V64.76a14.65,14.65,0,0,1,29.29,0V122.3Z" transform="translate(13.16 6.71)"/><rect class="cls-3" x="32.7" y="112.88" width="41.28" height="5.42"/><rect class="cls-3" x="32.7" y="74.95" width="41.28" height="5.42"/><rect class="cls-3" x="2.55" y="83.24" width="75.28" height="5.42" transform="translate(139.3 52.47) rotate(90)"/><path class="cls-3" d="M126.94,50.83h0a20.64,20.64,0,0,1,20.64,20.64v85.34a0,0,0,0,1,0,0H106.3a0,0,0,0,1,0,0V71.47A20.64,20.64,0,0,1,126.94,50.83Z"/><polygon class="cls-3" points="128.39 54.31 125.5 54.31 123 45.09 130.89 45.09 128.39 54.31"/><rect class="cls-2" x="112.3" y="132.81" width="29.28" height="10.26"/><path class="cls-2" d="M99.14,122.3V64.76a14.65,14.65,0,0,1,29.29,0V122.3Z" transform="translate(13.16 6.71)"/><path class="cls-3" d="M134.43,66.89H93.14s.08-3.86.16-4.5l.11-.92h40.76s.09.55.19,1.62S134.43,66.89,134.43,66.89Z" transform="translate(13.16 6.71)"/><rect class="cls-3" x="82.73" y="89.82" width="62.12" height="5.42" transform="translate(219.47 -14.55) rotate(90)"/></g><polygon class="cls-4" points="221.9 6.71 49.53 6.71 13.16 31.99 258.27 31.99 221.9 6.71"/><g class="cls-9"><rect class="cls-3" x="30.22" width="2" height="53.15"/><rect class="cls-3" x="40.67" width="2" height="53.15"/><rect class="cls-3" x="51.12" width="2" height="53.15"/><rect class="cls-3" x="61.57" width="2" height="53.15"/><rect class="cls-3" x="72.02" width="2" height="53.15"/><rect class="cls-3" x="82.47" width="2" height="53.15"/><rect class="cls-3" x="92.92" width="2" height="53.15"/><rect class="cls-3" x="103.37" width="2" height="53.15"/><rect class="cls-3" x="113.82" width="2" height="53.15"/><rect class="cls-3" x="124.27" width="2" height="53.15"/><rect class="cls-3" x="134.72" width="2" height="53.15"/><rect class="cls-3" x="145.17" width="2" height="53.15"/><rect class="cls-3" x="155.62" width="2" height="53.15"/><rect class="cls-3" x="166.07" width="2" height="53.15"/><rect class="cls-3" x="176.52" width="2" height="53.15"/><rect class="cls-3" x="186.96" width="2" height="53.15"/><rect class="cls-3" x="197.41" width="2" height="53.15"/><rect class="cls-3" x="207.86" width="2" height="53.15"/><rect class="cls-3" x="218.31" width="2" height="53.15"/><rect class="cls-3" x="228.76" width="2" height="53.15"/><rect class="cls-3" x="239.21" width="2" height="53.15"/></g></g></g></svg>