<svg xmlns="http://www.w3.org/2000/svg" xmlns:xlink="http://www.w3.org/1999/xlink" viewBox="0 0 93 54.59"><defs><style>.cls-1{fill:none;}.cls-2{fill:#ffeb00;}.cls-3{clip-path:url(#clip-path);}.cls-4{fill:#010f70;}.cls-5{fill:#00c2ff;}.cls-6{clip-path:url(#clip-path-2);}.cls-7{clip-path:url(#clip-path-3);}.cls-8{fill:#ff0068;}.cls-9{clip-path:url(#clip-path-4);}.cls-10{clip-path:url(#clip-path-5);}</style><clipPath id="clip-path" transform="translate(0)"><rect class="cls-1" y="9.57" width="92.73" height="44.9"></rect></clipPath><clipPath id="clip-path-2" transform="translate(0)"><path class="cls-1" d="M58,42.22V24.5A5.92,5.92,0,0,1,69.83,24a4,4,0,0,1,0,.49V42.22Z"></path></clipPath><clipPath id="clip-path-3" transform="translate(0)"><path class="cls-1" d="M75.54,42.22V24.5A5.92,5.92,0,0,1,87.37,24a4,4,0,0,1,0,.49V42.22Z"></path></clipPath><clipPath id="clip-path-4" transform="translate(0)"><path class="cls-1" d="M15.2,16.69h0A7.61,7.61,0,0,1,23,24.07V54.59H7.39V24.07A7.61,7.61,0,0,1,15.2,16.69Z"></path></clipPath><clipPath id="clip-path-5" transform="translate(0)"><polygon class="cls-1" points="78.97 0 13.76 0 0 9.57 92.73 9.57 78.97 0"></polygon></clipPath></defs><g id="Capa_2" data-name="Capa 2"><g id="Capa_1-2" data-name="Capa 1"><g id="Capa_2-2" data-name="Capa 2"><g id="Iconos"><rect class="cls-2" y="9.56" width="92.73" height="44.9"></rect><g class="cls-3"><path class="cls-4" d="M63.93,16.69h0a7.81,7.81,0,0,1,7.81,7.77V42.65H56.12V24.46A7.81,7.81,0,0,1,63.93,16.69Z" transform="translate(0)"></path><path class="cls-5" d="M58,42.22V24.5A5.92,5.92,0,0,1,69.83,24a4,4,0,0,1,0,.49V42.22Z" transform="translate(0)"></path><g class="cls-6"><rect class="cls-4" x="63.55" y="16.57" width="0.76" height="27.65"></rect><rect class="cls-4" x="50.11" y="24.55" width="27.65" height="0.76"></rect><rect class="cls-4" x="50.11" y="30.02" width="27.65" height="0.76"></rect><rect class="cls-4" x="50.11" y="35.49" width="27.65" height="0.76"></rect></g><polygon class="cls-4" points="64.48 18.01 63.38 18.01 62.44 14.52 65.42 14.52 64.48 18.01"></polygon><path class="cls-4" d="M81.45,16.69h0a7.81,7.81,0,0,1,7.81,7.77V42.65H73.64V24.46A7.81,7.81,0,0,1,81.45,16.69Z" transform="translate(0)"></path><path class="cls-5" d="M75.54,42.22V24.5A5.92,5.92,0,0,1,87.37,24a4,4,0,0,1,0,.49V42.22Z" transform="translate(0)"></path><g class="cls-7"><rect class="cls-4" x="81.07" y="16.57" width="0.76" height="27.65"></rect><rect class="cls-4" x="67.63" y="24.55" width="27.65" height="0.76"></rect><rect class="cls-4" x="67.63" y="30.02" width="27.65" height="0.76"></rect><rect class="cls-4" x="67.63" y="35.49" width="27.65" height="0.76"></rect></g><polygon class="cls-4" points="82 18.01 80.9 18.01 79.96 14.52 82.94 14.52 82 18.01"></polygon><rect class="cls-8" y="41.09" width="92.74" height="5.17"></rect><rect class="cls-2" y="45.19" width="92.74" height="9.4"></rect><path class="cls-4" d="M15.2,16.69h0A7.61,7.61,0,0,1,23,24V54.59H7.39V24A7.6,7.6,0,0,1,15.2,16.69Z" transform="translate(0)"></path><g class="cls-9"><rect class="cls-8" x="4.66" y="47.7" width="21.08" height="3.88"></rect></g><polygon class="cls-2" points="15.75 18.01 14.65 18.01 13.71 14.52 16.69 14.52 15.75 18.01"></polygon><polygon class="cls-4" points="15.75 18.01 14.65 18.01 13.71 14.52 16.69 14.52 15.75 18.01"></polygon><path class="cls-5" d="M9.66,46.27V24.5a5.54,5.54,0,0,1,11.08,0V46.27Z" transform="translate(0)"></path><rect class="cls-4" x="7.39" y="40.16" width="15.62" height="2.05"></rect><rect class="cls-4" x="7.39" y="25.82" width="15.62" height="2.05"></rect><rect class="cls-4" x="14.18" y="18.27" width="2.05" height="28.48"></rect><path class="cls-4" d="M43,16.69h0A7.61,7.61,0,0,1,50.85,24V54.59H35.23V24A7.61,7.61,0,0,1,43,16.69Z" transform="translate(0)"></path><polygon class="cls-4" points="43.59 18.01 42.5 18.01 41.55 14.52 44.54 14.52 43.59 18.01"></polygon><rect class="cls-5" x="37.5" y="47.7" width="11.08" height="3.88"></rect><path class="cls-5" d="M37.51,46.27V24.5A5.54,5.54,0,1,1,48.58,24a3.69,3.69,0,0,1,0,.47V46.27Z" transform="translate(0)"></path><path class="cls-4" d="M50.85,25.3H35.24s0-1.46.06-1.7v-.34H50.76a4.1,4.1,0,0,0,.07.61A10.13,10.13,0,0,1,50.85,25.3Z" transform="translate(0)"></path><rect class="cls-4" x="42.02" y="23.26" width="2.05" height="23.5"></rect></g><polygon class="cls-8" points="78.96 0 13.76 0 0 9.56 92.73 9.56 78.96 0"></polygon><g class="cls-10"><rect class="cls-4" x="6.45" width="0.76" height="17.57"></rect><rect class="cls-4" x="10.41" width="0.76" height="17.57"></rect><rect class="cls-4" x="14.36" width="0.76" height="17.57"></rect><rect class="cls-4" x="18.31" width="0.76" height="17.57"></rect><rect class="cls-4" x="22.26" width="0.76" height="17.57"></rect><rect class="cls-4" x="26.22" width="0.76" height="17.57"></rect><rect class="cls-4" x="30.17" width="0.76" height="17.57"></rect><rect class="cls-4" x="34.12" width="0.76" height="17.57"></rect><rect class="cls-4" x="38.08" width="0.76" height="17.57"></rect><rect class="cls-4" x="42.03" width="0.76" height="17.57"></rect><rect class="cls-4" x="45.98" width="0.76" height="17.57"></rect><rect class="cls-4" x="49.94" width="0.76" height="17.57"></rect><rect class="cls-4" x="53.89" width="0.76" height="17.57"></rect><rect class="cls-4" x="57.84" width="0.76" height="17.57"></rect><rect class="cls-4" x="61.8" width="0.76" height="17.57"></rect><rect class="cls-4" x="65.75" width="0.76" height="17.57"></rect><rect class="cls-4" x="69.7" width="0.76" height="17.57"></rect><rect class="cls-4" x="73.66" width="0.76" height="17.57"></rect><rect class="cls-4" x="77.61" width="0.76" height="17.57"></rect><rect class="cls-4" x="81.56" width="0.76" height="17.57"></rect><rect class="cls-4" x="85.51" width="0.76" height="17.57"></rect></g></g></g></g></g></svg>