<svg xmlns="http://www.w3.org/2000/svg" xmlns:xlink="http://www.w3.org/1999/xlink" viewBox="0 0 237.71 215.58"><defs><style>.cls-1{fill:#ff0068;}.cls-2{fill:#ffec00;}.cls-3{fill:#010f70;}.cls-4{clip-path:url(#clip-path);}.cls-5{clip-path:url(#clip-path-2);}.cls-6{clip-path:url(#clip-path-3);}</style><clipPath id="clip-path"><rect class="cls-1" x="67.45" y="174.1" width="131.84" height="25.65"/></clipPath><clipPath id="clip-path-2"><polygon class="cls-2" points="39.15 58.27 32.07 58.27 27.06 66.43 27.06 77.98 32.07 86.14 39.15 86.14 44.16 77.98 44.16 66.43 39.15 58.27"/></clipPath><clipPath id="clip-path-3"><polygon class="cls-2" points="205.65 58.27 198.56 58.27 193.56 66.43 193.56 77.98 198.56 86.14 205.65 86.14 210.66 77.98 210.66 66.43 205.65 58.27"/></clipPath></defs><g id="Capa_2" data-name="Capa 2"><g id="Espacios"><path class="cls-2" d="M167.05,26.05H148.94V14.81H131V6.25H104.13v8.56h-18V26.05H68A12.19,12.19,0,0,1,55.84,38.24H41.53v32.3h152V38.24H179.24A12.19,12.19,0,0,1,167.05,26.05Z"/><rect class="cls-2" x="30.33" y="63.57" width="178.74" height="114.32"/><rect class="cls-1" x="64.6" y="97.22" width="27.55" height="80.68"/><rect class="cls-3" x="60.66" y="110.98" width="35.43" height="17.74" transform="translate(198.22 41.47) rotate(90)"/><rect class="cls-1" x="92.15" y="97.22" width="27.55" height="80.68"/><rect class="cls-3" x="88.21" y="110.98" width="35.43" height="17.74" transform="translate(225.77 13.92) rotate(90)"/><rect class="cls-1" x="119.7" y="97.22" width="27.55" height="80.68"/><rect class="cls-3" x="115.76" y="110.98" width="35.43" height="17.74" transform="translate(253.32 -13.63) rotate(90)"/><rect class="cls-1" x="147.25" y="97.22" width="27.55" height="80.68"/><rect class="cls-3" x="143.32" y="110.98" width="35.43" height="17.74" transform="translate(280.88 -41.18) rotate(90)"/><path class="cls-3" d="M41,81.32,32.45,61c57.9-24.3,116.61-24.3,174.5,0L198.4,81.32C146.18,59.4,93.22,59.4,41,81.32Z"/><rect class="cls-1" x="67.45" y="174.1" width="131.84" height="25.65"/><g class="cls-4"><rect class="cls-3" x="65.24" y="183.37" width="151.38" height="2.46"/><rect class="cls-3" x="63.33" y="191.09" width="151.38" height="2.46"/></g><polygon class="cls-3" points="38.57 5.62 32.65 5.62 29.69 16.47 32.65 27.31 38.57 27.31 41.53 16.47 38.57 5.62"/><circle class="cls-1" cx="35.61" cy="35.19" r="12.21"/><path class="cls-3" d="M23.4,35.19V59.62H11.8v8.5A10.4,10.4,0,0,0,9.33,86.06H6v95.32H36.73V102a10.43,10.43,0,0,0,6.34-9.59c0-.17,0-.34,0-.51h4.78V35.19Z"/><rect class="cls-2" y="174.1" width="45.29" height="25.65"/><circle class="cls-1" cx="35.61" cy="2.81" r="2.81"/><polygon class="cls-3" points="199.15 5.62 205.06 5.62 208.02 16.47 205.06 27.31 199.15 27.31 196.19 16.47 199.15 5.62"/><circle class="cls-1" cx="202.11" cy="35.19" r="12.21"/><path class="cls-3" d="M214.32,35.19V59.62h11.6v8.5a10.39,10.39,0,0,1,2.46,17.94h3.32v95.32H201V102a10.43,10.43,0,0,1-6.35-9.59c0-.17,0-.34,0-.51h-4.78V35.19Z"/><rect class="cls-2" x="192.43" y="174.1" width="45.29" height="25.65" transform="translate(430.14 373.85) rotate(-180)"/><circle class="cls-1" cx="202.11" cy="2.81" r="2.81"/><polygon class="cls-3" points="71.89 215.58 34.2 215.58 41.21 174.1 71.89 174.1 71.89 215.58"/><polygon class="cls-2" points="39.15 58.27 32.07 58.27 27.06 66.43 27.06 77.98 32.07 86.14 39.15 86.14 44.16 77.98 44.16 66.43 39.15 58.27"/><g class="cls-5"><rect class="cls-1" x="21.83" y="53.12" width="25.49" height="15.76"/><rect class="cls-1" x="34.38" y="64.05" width="2.46" height="27.47"/><rect class="cls-1" x="21.32" y="74.06" width="27.47" height="2.46"/></g><polygon class="cls-2" points="205.65 58.27 198.56 58.27 193.56 66.43 193.56 77.98 198.56 86.14 205.65 86.14 210.66 77.98 210.66 66.43 205.65 58.27"/><g class="cls-6"><rect class="cls-1" x="188.33" y="53.12" width="25.49" height="15.76"/><rect class="cls-1" x="200.88" y="64.05" width="2.46" height="27.47"/><rect class="cls-1" x="187.81" y="74.06" width="27.47" height="2.46"/></g><circle class="cls-3" cx="117.54" cy="24.62" r="7.28"/><path class="cls-1" d="M148.2,17.94c4.79,4,10.1,4.87,16.06,3.55A4.37,4.37,0,1,1,166,30.05a31,31,0,0,1-6.39.05,24.17,24.17,0,0,1-15.56-7.63,3.08,3.08,0,0,1,4.14-4.53Z"/><path class="cls-1" d="M91,22.47a25.06,25.06,0,0,1-9.7,6.39,28.83,28.83,0,0,1-11.65,1.27,4.37,4.37,0,1,1,1.15-8.64,21,21,0,0,0,8.44.23,18,18,0,0,0,7.65-3.8A3.07,3.07,0,0,1,91,22.47Z"/><path class="cls-3" d="M155.28,18.82h-27V15.76c0-3-2.25-8.69-10.77-8.69s-10.77,5.46-10.77,8.69v3.06h-27V12.69H101c1.27-5.42,6-11.52,15.94-11.75h.6c9.42,0,15.12,5.62,16.55,11.76h21.19Z"/><rect class="cls-3" x="90.92" y="97.22" width="2.46" height="76.88"/><rect class="cls-3" x="118.48" y="97.22" width="2.46" height="76.88"/><rect class="cls-3" x="146.03" y="97.22" width="2.46" height="76.88"/><rect class="cls-3" x="71.89" y="174.12" width="120.54" height="2.46"/></g></g></svg>