<svg xmlns="http://www.w3.org/2000/svg" xmlns:xlink="http://www.w3.org/1999/xlink" viewBox="0 0 89.93 81.56"><defs><style>.cls-1{fill:#ff0068;}.cls-2{fill:#ffeb00;}.cls-3{fill:#010f70;}.cls-4{clip-path:url(#clip-path);}.cls-5{clip-path:url(#clip-path-2);}.cls-6{clip-path:url(#clip-path-3);}</style><clipPath id="clip-path"><rect class="cls-1" x="25.52" y="65.86" width="49.88" height="9.7"/></clipPath><clipPath id="clip-path-2"><polygon class="cls-2" points="14.81 22.04 12.13 22.04 10.24 25.13 10.24 29.5 12.13 32.59 14.81 32.59 16.7 29.5 16.7 25.13 14.81 22.04"/></clipPath><clipPath id="clip-path-3"><polygon class="cls-2" points="77.8 22.04 75.12 22.04 73.22 25.13 73.22 29.5 75.12 32.59 77.8 32.59 79.69 29.5 79.69 25.13 77.8 22.04"/></clipPath></defs><g id="Capa_2" data-name="Capa 2"><g id="Iconos"><path class="cls-2" d="M63.2,9.85H56.34V5.6h-6.8V2.37H39.39V5.6h-6.8V9.85H25.74a4.62,4.62,0,0,1-4.62,4.62H15.71V26.69H73.22V14.47H67.81A4.61,4.61,0,0,1,63.2,9.85Z"/><rect class="cls-2" x="11.48" y="24.05" width="67.62" height="43.25"/><rect class="cls-1" x="24.44" y="36.78" width="10.42" height="30.52"/><rect class="cls-3" x="22.95" y="41.98" width="13.4" height="6.71" transform="translate(74.99 15.69) rotate(90)"/><rect class="cls-1" x="34.86" y="36.78" width="10.42" height="30.52"/><rect class="cls-3" x="33.37" y="41.98" width="13.4" height="6.71" transform="translate(85.41 5.27) rotate(90)"/><rect class="cls-1" x="45.28" y="36.78" width="10.42" height="30.52"/><rect class="cls-3" x="43.79" y="41.98" width="13.4" height="6.71" transform="translate(95.83 -5.16) rotate(90)"/><rect class="cls-1" x="55.71" y="36.78" width="10.42" height="30.52"/><rect class="cls-3" x="54.22" y="41.98" width="13.4" height="6.71" transform="translate(106.26 -15.58) rotate(90)"/><path class="cls-3" d="M15.51,30.76l-3.23-7.7c21.9-9.2,44.11-9.2,66,0l-3.23,7.7C55.3,22.47,35.27,22.47,15.51,30.76Z"/><rect class="cls-1" x="25.52" y="65.86" width="49.88" height="9.7"/><g class="cls-4"><rect class="cls-3" x="24.68" y="69.37" width="57.27" height="0.93"/><rect class="cls-3" x="23.96" y="72.29" width="57.27" height="0.93"/></g><polygon class="cls-3" points="14.59 2.13 12.35 2.13 11.23 6.23 12.35 10.33 14.59 10.33 15.71 6.23 14.59 2.13"/><circle class="cls-1" cx="13.47" cy="13.31" r="4.62"/><path class="cls-3" d="M8.85,13.31v9.24H4.46v3.22a3.94,3.94,0,0,0-.93,6.79H2.28V68.62H13.89v-30A3.93,3.93,0,0,0,16.29,35a1.34,1.34,0,0,0,0-.2h1.81V13.31Z"/><rect class="cls-2" y="65.86" width="17.13" height="9.7"/><circle class="cls-1" cx="13.47" cy="1.06" r="1.06"/><polygon class="cls-3" points="75.34 2.13 77.58 2.13 78.7 6.23 77.58 10.33 75.34 10.33 74.22 6.23 75.34 2.13"/><circle class="cls-1" cx="76.46" cy="13.31" r="4.62"/><path class="cls-3" d="M81.08,13.31v9.24h4.38v3.22a3.94,3.94,0,0,1,.94,6.79h1.25V68.62H76v-30A3.93,3.93,0,0,1,73.63,35c0-.07,0-.13,0-.2h-1.8V13.31Z"/><rect class="cls-2" x="72.8" y="65.86" width="17.13" height="9.7" transform="translate(162.72 141.43) rotate(-180)"/><circle class="cls-1" cx="76.46" cy="1.06" r="1.06"/><polygon class="cls-3" points="27.2 81.56 12.94 81.56 15.59 65.86 27.2 65.86 27.2 81.56"/><polygon class="cls-2" points="14.81 22.04 12.13 22.04 10.24 25.13 10.24 29.5 12.13 32.59 14.81 32.59 16.7 29.5 16.7 25.13 14.81 22.04"/><g class="cls-5"><rect class="cls-1" x="8.26" y="20.1" width="9.64" height="5.96"/><rect class="cls-1" x="13.01" y="24.23" width="0.93" height="10.39"/><rect class="cls-1" x="8.06" y="28.02" width="10.39" height="0.93"/></g><polygon class="cls-2" points="77.8 22.04 75.12 22.04 73.22 25.13 73.22 29.5 75.12 32.59 77.8 32.59 79.69 29.5 79.69 25.13 77.8 22.04"/><g class="cls-6"><rect class="cls-1" x="71.25" y="20.1" width="9.64" height="5.96"/><rect class="cls-1" x="75.99" y="24.23" width="0.93" height="10.39"/><rect class="cls-1" x="71.05" y="28.02" width="10.39" height="0.93"/></g><circle class="cls-3" cx="44.47" cy="9.31" r="2.76"/><path class="cls-1" d="M56.07,6.79a6.7,6.7,0,0,0,6.07,1.34,1.65,1.65,0,1,1,.43,3.27A9.66,9.66,0,0,1,54.5,8.5a1.16,1.16,0,0,1,1.57-1.71Z"/><path class="cls-1" d="M34.43,8.5a9.65,9.65,0,0,1-8.07,2.9,1.65,1.65,0,1,1,.22-3.3,8.73,8.73,0,0,0,3.4.12,6.88,6.88,0,0,0,2.9-1.44A1.16,1.16,0,0,1,34.43,8.5Z"/><path class="cls-3" d="M58.74,7.12H48.54V6c0-1.14-.85-3.29-4.07-3.29S40.39,4.74,40.39,6V7.12H30.19V4.8h8c.48-2,2.25-4.36,6-4.45h.23c3.56,0,5.72,2.13,6.26,4.45h8Z"/><rect class="cls-3" x="34.4" y="36.78" width="0.93" height="29.08"/><rect class="cls-3" x="44.82" y="36.78" width="0.93" height="29.08"/><rect class="cls-3" x="55.24" y="36.78" width="0.93" height="29.08"/><rect class="cls-3" x="27.2" y="65.87" width="45.6" height="0.93"/></g></g></svg>