<svg xmlns="http://www.w3.org/2000/svg" xmlns:xlink="http://www.w3.org/1999/xlink" viewBox="0 0 175.89 61.59"><defs><style>.cls-1{fill:#010f70;}.cls-2{fill:#00c2ff;}.cls-3{fill:#ff0068;}.cls-4{clip-path:url(#clip-path);}.cls-5{clip-path:url(#clip-path-2);}.cls-6{clip-path:url(#clip-path-3);}.cls-7{clip-path:url(#clip-path-4);}.cls-8{clip-path:url(#clip-path-5);}.cls-9{clip-path:url(#clip-path-6);}.cls-10{clip-path:url(#clip-path-7);}.cls-11{clip-path:url(#clip-path-8);}.cls-12{clip-path:url(#clip-path-9);}.cls-13{clip-path:url(#clip-path-10);}.cls-14{clip-path:url(#clip-path-11);}.cls-15{clip-path:url(#clip-path-12);}.cls-16{clip-path:url(#clip-path-13);}.cls-17{clip-path:url(#clip-path-14);}.cls-18{fill:#ffeb00;}.cls-19{clip-path:url(#clip-path-15);}.cls-20{clip-path:url(#clip-path-16);}.cls-21{clip-path:url(#clip-path-17);}.cls-22{clip-path:url(#clip-path-18);}</style><clipPath id="clip-path" transform="translate(4.29)"><rect class="cls-1" x="136.49" y="17.81" width="9.3" height="14.13" transform="translate(282.28 49.76) rotate(-180)"/></clipPath><clipPath id="clip-path-2" transform="translate(4.29)"><rect class="cls-1" x="123.1" y="17.81" width="9.3" height="14.13" transform="translate(255.49 49.76) rotate(-180)"/></clipPath><clipPath id="clip-path-3" transform="translate(4.29)"><rect class="cls-3" x="122.54" y="31.04" width="39.43" height="28.4" transform="translate(284.5 90.48) rotate(-180)"/></clipPath><clipPath id="clip-path-4" transform="translate(4.29)"><path class="cls-2" d="M145,38.6c0-2.68,13-2.68,13,0v7.14H145Z"/></clipPath><clipPath id="clip-path-5" transform="translate(4.29)"><path class="cls-2" d="M129,38.6c0-2.68,13-2.68,13,0v7.14H129Z"/></clipPath><clipPath id="clip-path-6" transform="translate(4.29)"><rect class="cls-1" x="16.18" y="17.81" width="9.3" height="14.13"/></clipPath><clipPath id="clip-path-7" transform="translate(4.29)"><rect class="cls-1" x="29.58" y="17.81" width="9.3" height="14.13"/></clipPath><clipPath id="clip-path-8" transform="translate(4.29)"><rect class="cls-3" y="31.04" width="39.43" height="28.4"/></clipPath><clipPath id="clip-path-9" transform="translate(4.29)"><path class="cls-2" d="M17,38.6c0-2.68-13-2.68-13,0v7.14H17Z"/></clipPath><clipPath id="clip-path-10" transform="translate(4.29)"><path class="cls-2" d="M32.94,38.6c0-2.68-13-2.68-13,0v7.14h13Z"/></clipPath><clipPath id="clip-path-11" transform="translate(4.29)"><path class="cls-2" d="M113.45,27.34H100.76V17.81q6.8-7.09,12.69,0Z"/></clipPath><clipPath id="clip-path-12" transform="translate(4.29)"><path class="cls-2" d="M95.72,27.34H83V17.81q6.78-7.09,12.69,0Z"/></clipPath><clipPath id="clip-path-13" transform="translate(4.29)"><path class="cls-2" d="M78,27.34H65.3V17.81q6.78-7.09,12.69,0Z"/></clipPath><clipPath id="clip-path-14" transform="translate(4.29)"><path class="cls-2" d="M60.25,27.34H47.57V17.81q6.78-7.09,12.68,0Z"/></clipPath><clipPath id="clip-path-15" transform="translate(4.29)"><polygon class="cls-2" points="57 34.31 57 30.88 54.59 29.16 52.18 30.88 52.18 34.31 54.59 36.02 57 34.31"/></clipPath><clipPath id="clip-path-16" transform="translate(4.29)"><polygon class="cls-2" points="108.84 34.31 108.84 30.88 106.43 29.16 104.02 30.88 104.02 34.31 106.43 36.02 108.84 34.31"/></clipPath><clipPath id="clip-path-17" transform="translate(4.29)"><polygon class="cls-2" points="92.03 34.31 92.03 30.88 89.62 29.16 87.21 30.88 87.21 34.31 89.62 36.02 92.03 34.31"/></clipPath><clipPath id="clip-path-18" transform="translate(4.29)"><polygon class="cls-2" points="74.13 34.31 74.13 30.88 71.72 29.16 69.31 30.88 69.31 34.31 71.72 36.02 74.13 34.31"/></clipPath></defs><g id="Capa_2" data-name="Capa 2"><g id="Iconos"><path class="cls-1" d="M160.28,52.73h11.31a3.88,3.88,0,0,0-1.5-2.74c-1.42-1.06-3-.15-4.15-.7s-.46-4.72-4.92-4c-2.2.33-1.58,1.5-3,2.62s-3,.27-4.09,1.51a4.7,4.7,0,0,0-.78,3.36Z" transform="translate(4.29)"/><rect class="cls-2" x="112.19" y="12.59" width="38.56" height="28.4" transform="translate(267.23 53.59) rotate(-180)"/><polygon class="cls-3" points="112.29 12.59 155.04 12.59 150.84 7.91 112.29 7.91 112.29 12.59"/><rect class="cls-1" x="136.49" y="17.81" width="9.3" height="14.13" transform="translate(286.58 49.76) rotate(-180)"/><g class="cls-4"><rect class="cls-2" x="145.06" y="16.35" width="0.76" height="19.11"/><rect class="cls-2" x="139.36" y="20.44" width="12.14" height="0.76"/></g><rect class="cls-1" x="123.1" y="17.81" width="9.3" height="14.13" transform="translate(259.78 49.76) rotate(-180)"/><g class="cls-5"><rect class="cls-2" x="131.66" y="16.35" width="0.76" height="19.11"/><rect class="cls-2" x="125.97" y="20.44" width="12.14" height="0.76"/></g><rect class="cls-3" x="122.54" y="31.04" width="39.43" height="28.4" transform="translate(288.8 90.48) rotate(-180)"/><g class="cls-6"><rect class="cls-2" x="119.22" y="49.58" width="47.05" height="12.01" transform="translate(289.77 111.18) rotate(-180)"/></g><path class="cls-2" d="M145,38.6c0-2.68,13-2.68,13,0v7.14H145Z" transform="translate(4.29)"/><g class="cls-7"><rect class="cls-1" x="158.14" y="35.24" width="0.76" height="12.15"/><rect class="cls-1" x="152.87" y="35.24" width="0.76" height="12.15"/><rect class="cls-1" x="148.35" y="39.8" width="14.9" height="0.76"/></g><path class="cls-2" d="M129,38.6c0-2.68,13-2.68,13,0v7.14H129Z" transform="translate(4.29)"/><g class="cls-8"><rect class="cls-1" x="142.19" y="35.24" width="0.76" height="12.15"/><rect class="cls-1" x="136.91" y="35.24" width="0.76" height="12.15"/><rect class="cls-1" x="132.39" y="39.8" width="14.9" height="0.76"/></g><rect class="cls-2" x="15.52" y="12.59" width="38.56" height="28.4"/><polygon class="cls-3" points="58.27 12.59 15.52 12.59 19.72 7.91 58.27 7.91 58.27 12.59"/><rect class="cls-1" x="20.47" y="17.81" width="9.3" height="14.13"/><g class="cls-9"><rect class="cls-2" x="24.74" y="16.35" width="0.76" height="19.11"/><rect class="cls-2" x="19.05" y="20.44" width="12.14" height="0.76"/></g><rect class="cls-1" x="33.87" y="17.81" width="9.3" height="14.13"/><g class="cls-10"><rect class="cls-2" x="38.14" y="16.35" width="0.76" height="19.11"/><rect class="cls-2" x="32.45" y="20.44" width="12.14" height="0.76"/></g><rect class="cls-3" x="4.29" y="31.04" width="39.43" height="28.4"/><g class="cls-11"><rect class="cls-2" y="49.58" width="47.05" height="12.01"/></g><path class="cls-2" d="M17,38.6c0-2.68-13-2.68-13,0v7.14H17Z" transform="translate(4.29)"/><g class="cls-12"><rect class="cls-1" x="11.66" y="35.24" width="0.76" height="12.15"/><rect class="cls-1" x="16.93" y="35.24" width="0.76" height="12.15"/><rect class="cls-1" x="7.31" y="39.8" width="14.9" height="0.76"/></g><path class="cls-2" d="M32.94,38.6c0-2.68-13-2.68-13,0v7.14h13Z" transform="translate(4.29)"/><g class="cls-13"><rect class="cls-1" x="27.62" y="35.24" width="0.76" height="12.15"/><rect class="cls-1" x="32.89" y="35.24" width="0.76" height="12.15"/><rect class="cls-1" x="23.27" y="39.8" width="14.9" height="0.76"/></g><rect class="cls-3" x="46.62" y="4.49" width="76.37" height="45.68"/><path class="cls-2" d="M113.45,27.34H100.76V17.81q6.8-7.09,12.69,0Z" transform="translate(4.29)"/><g class="cls-14"><rect class="cls-1" x="111.02" y="13.68" width="0.76" height="15.26"/><rect class="cls-1" x="104.03" y="17.44" width="14.24" height="0.76"/></g><path class="cls-2" d="M95.72,27.34H83V17.81q6.78-7.09,12.69,0Z" transform="translate(4.29)"/><g class="cls-15"><rect class="cls-1" x="93.29" y="13.68" width="0.76" height="15.26"/><rect class="cls-1" x="86.3" y="17.44" width="14.24" height="0.76"/></g><path class="cls-2" d="M78,27.34H65.3V17.81q6.78-7.09,12.69,0Z" transform="translate(4.29)"/><g class="cls-16"><rect class="cls-1" x="75.56" y="13.68" width="0.76" height="15.26"/><rect class="cls-1" x="68.57" y="17.44" width="14.24" height="0.76"/></g><path class="cls-2" d="M60.25,27.34H47.57V17.81q6.78-7.09,12.68,0Z" transform="translate(4.29)"/><g class="cls-17"><rect class="cls-1" x="57.83" y="13.68" width="0.76" height="15.26"/><rect class="cls-1" x="50.84" y="17.44" width="14.24" height="0.76"/></g><path class="cls-1" d="M55.4,7.05h0A1.92,1.92,0,0,1,57.32,9v3.93a0,0,0,0,1,0,0H53.48a0,0,0,0,1,0,0V9A1.92,1.92,0,0,1,55.4,7.05Z"/><path class="cls-1" d="M61,7.05h0A1.92,1.92,0,0,1,62.93,9v3.93a0,0,0,0,1,0,0H59.09a0,0,0,0,1,0,0V9A1.92,1.92,0,0,1,61,7.05Z"/><path class="cls-1" d="M108.59,7.05h0A1.92,1.92,0,0,1,110.52,9v3.93a0,0,0,0,1,0,0h-3.84a0,0,0,0,1,0,0V9A1.92,1.92,0,0,1,108.59,7.05Z"/><path class="cls-1" d="M114.21,7.05h0A1.92,1.92,0,0,1,116.13,9v3.93a0,0,0,0,1,0,0h-3.84a0,0,0,0,1,0,0V9a1.92,1.92,0,0,1,1.92-1.92Z"/><rect class="cls-18" x="38.52" y="26.26" width="92.57" height="23.91"/><polygon class="cls-2" points="116.97 0 52.64 0 46.62 4.49 122.99 4.49 116.97 0"/><path class="cls-1" d="M52.18,52.37H38.27V41.24a7,7,0,0,1,6.95-7h0a7,7,0,0,1,7,7Z" transform="translate(4.29)"/><path class="cls-1" d="M69.82,52.37H55.91V41.24a7,7,0,0,1,7-7h0a7,7,0,0,1,6.95,7Z" transform="translate(4.29)"/><path class="cls-1" d="M87.46,52.37H73.55V41.24a7,7,0,0,1,7-7h0a7,7,0,0,1,6.95,7Z" transform="translate(4.29)"/><path class="cls-1" d="M105.11,52.37H91.2V41.24a7,7,0,0,1,7-7h0a7,7,0,0,1,7,7Z" transform="translate(4.29)"/><path class="cls-1" d="M122.75,52.37H108.84V41.24a7,7,0,0,1,7-7h0a7,7,0,0,1,7,7Z" transform="translate(4.29)"/><rect class="cls-3" x="36.71" y="49.58" width="96.19" height="3.68"/><rect class="cls-1" x="33.05" y="53.26" width="103.5" height="3.68"/><rect class="cls-3" x="30.91" y="56.94" width="107.8" height="3.68"/><path class="cls-1" d="M1.46,60.61H28.6s-.81-2.92-2.37-3.85-2.68-.12-3.19-.42-.27-1-1.69-1.66-3.41.52-4.59.2-2.83-3.12-5.68-2.76-2.83,2.64-3.54,3.22-3.2.42-4.81,2A3.84,3.84,0,0,0,1.46,60.61Z" transform="translate(4.29)"/><polygon class="cls-2" points="61.29 34.31 61.29 30.88 58.88 29.16 56.47 30.88 56.47 34.31 58.88 36.02 61.29 34.31"/><g class="cls-19"><rect class="cls-1" x="57.22" y="30.14" width="0.76" height="4.88"/><rect class="cls-1" x="59.79" y="30.14" width="0.76" height="4.88"/><rect class="cls-1" x="55.65" y="28.26" width="6.47" height="2.62"/><rect class="cls-1" x="55.65" y="34.28" width="6.47" height="2.62"/></g><polygon class="cls-2" points="113.13 34.31 113.13 30.88 110.72 29.16 108.31 30.88 108.31 34.31 110.72 36.02 113.13 34.31"/><g class="cls-20"><rect class="cls-1" x="109.06" y="30.14" width="0.76" height="4.88"/><rect class="cls-1" x="111.63" y="30.14" width="0.76" height="4.88"/><rect class="cls-1" x="107.49" y="28.26" width="6.47" height="2.62"/><rect class="cls-1" x="107.49" y="34.28" width="6.47" height="2.62"/></g><polygon class="cls-2" points="96.33 34.31 96.33 30.88 93.92 29.16 91.51 30.88 91.51 34.31 93.92 36.02 96.33 34.31"/><g class="cls-21"><rect class="cls-1" x="92.25" y="30.14" width="0.76" height="4.88"/><rect class="cls-1" x="94.83" y="30.14" width="0.76" height="4.88"/><rect class="cls-1" x="90.68" y="28.26" width="6.47" height="2.62"/><rect class="cls-1" x="90.68" y="34.28" width="6.47" height="2.62"/></g><polygon class="cls-2" points="78.43 34.31 78.43 30.88 76.02 29.16 73.61 30.88 73.61 34.31 76.02 36.02 78.43 34.31"/><g class="cls-22"><rect class="cls-1" x="74.35" y="30.14" width="0.76" height="4.88"/><rect class="cls-1" x="76.93" y="30.14" width="0.76" height="4.88"/><rect class="cls-1" x="72.79" y="28.26" width="6.47" height="2.62"/><rect class="cls-1" x="72.79" y="34.28" width="6.47" height="2.62"/></g><rect class="cls-1" x="72.29" y="6.44" width="5.92" height="5.92"/><rect class="cls-1" x="91.4" y="6.44" width="5.92" height="5.92"/><path class="cls-1" d="M134.11,60.57h22a9.49,9.49,0,0,0-3.05-4.28c-2.15-1.54-3.1-.18-4.2-.33s-2.41-4.54-5.49-4.54-3.4,3.26-4.54,4.1-2.52.73-3.81,2A3.64,3.64,0,0,0,134.11,60.57Z" transform="translate(4.29)"/></g></g></svg>