<svg xmlns="http://www.w3.org/2000/svg" xmlns:xlink="http://www.w3.org/1999/xlink" viewBox="0 0 268.37 159.3"><defs><style>.cls-1{fill:none;}.cls-2{fill:#ff0068;}.cls-3{fill:#ffeb00;}.cls-4{fill:#010f70;}.cls-5{fill:#00c2ff;}.cls-6{clip-path:url(#clip-path);}.cls-7{clip-path:url(#clip-path-2);}.cls-8{fill:#fff;}.cls-9{clip-path:url(#clip-path-3);}.cls-10{clip-path:url(#clip-path-4);}.cls-11{clip-path:url(#clip-path-5);}.cls-12{clip-path:url(#clip-path-6);}.cls-13{clip-path:url(#clip-path-7);}.cls-14{clip-path:url(#clip-path-8);}.cls-15{clip-path:url(#clip-path-9);}.cls-16{clip-path:url(#clip-path-10);}.cls-17{clip-path:url(#clip-path-11);}.cls-18{clip-path:url(#clip-path-12);}.cls-19{clip-path:url(#clip-path-13);}.cls-20{clip-path:url(#clip-path-14);}.cls-21{clip-path:url(#clip-path-15);}.cls-22{clip-path:url(#clip-path-16);}</style><clipPath id="clip-path"><path class="cls-1" d="M159.38,107.68c5.85.34,6.06,6.56,6.06,6.56l4.71,1.83a.67.67,0,0,1,.41.74c-.95,5-5.44,5-11.32,3l-1.56,1.93-6.71-9S155.25,107.42,159.38,107.68Z"/></clipPath><clipPath id="clip-path-2"><path class="cls-1" d="M151,112.74l-1.54,1.1c-12.56-.46-21-2.91-30.86-.46-7.88,2-12,7.05-10.32,14.42l9.56,3.73s17.3,1.95,26,1.78c7.23-.14,13.83-11.59,13.83-11.59l-.1-5.61Z"/></clipPath><clipPath id="clip-path-3"><path class="cls-1" d="M159.59,113.2a3.52,3.52,0,0,0,4.46,2.21c-.82-2.06-2.27-3-4.51-2.38A1.09,1.09,0,0,0,159.59,113.2Z"/></clipPath><clipPath id="clip-path-4"><path class="cls-1" d="M66.91,147.25H82.83a10.63,10.63,0,0,0-2.91-6.51l.58-3.63H77.76a2.3,2.3,0,1,0-4.59-.3,1.5,1.5,0,0,0,0,.3l-2-.19-.48,2.65C68,142.58,67,145.13,66.91,147.25Z"/></clipPath><clipPath id="clip-path-5"><path class="cls-1" d="M69.53,63.14c0-.11,2.46-8.33,2.46-8.33l5,.48.81,7.85Z"/></clipPath><clipPath id="clip-path-6"><path class="cls-1" d="M80.66,50.11c-1.67-1.24-2.82-.88-3.63.56A2.79,2.79,0,0,0,80.66,50.11Z"/></clipPath><clipPath id="clip-path-7"><path class="cls-1" d="M55.51,65.81c4.91-1.35,9.74-2.66,13.53-3.45a7.62,7.62,0,0,0,5.17.83c3-.54,3.88-1.69,3.88-1.69,11.61-1.39,14.23,2.34,15.15,8.29.46,3,.92,6.63,1.3,10.18l-9.17,7.18H63.17Z"/></clipPath><clipPath id="clip-path-8"><path class="cls-1" d="M45.44,112.3l25.91-3.43-2-9.2-6.07,1c-.66-1.4-1.91-1.68-3.65-1v2.58l-11.49,5.53a4.68,4.68,0,0,0-2.61,3.81Z"/></clipPath><clipPath id="clip-path-9"><path class="cls-1" d="M64.24,77.46c-19.85,9.62-18.28-2-12.69-18.83l6.35,1.23-.62,6Z"/></clipPath><clipPath id="clip-path-10"><path class="cls-1" d="M83.19,75.25c4.32,2.7,8.41,4.91,11.35,4.69,0,0,.86,6.36-1.69,9.34S82,99.4,82,99.4l-5.72-6.61,8.6-7.58Z"/></clipPath><clipPath id="clip-path-11"><path class="cls-1" d="M199.48,132.47l15.67.7a167.27,167.27,0,0,0,1.73-36.39c2.87,9.88,5,22.61,6.81,36.39L241,128.62C237.1,104,232.53,83.76,226,76.5L203.41,96.11C203.12,107.16,202.05,112.55,199.48,132.47Z"/></clipPath><clipPath id="clip-path-12"><path class="cls-1" d="M192.06,55.71l2.85,2.57c1.27,1.15,2.8,2.61,3.92,2.31s1.7-1.68,2.28-2.63a20.59,20.59,0,0,0,1-1.86l-6.82-5.84L192,53.39Z"/></clipPath><clipPath id="clip-path-13"><path class="cls-1" d="M195.88,55c.65.45.17,2-.77,2.34a1.69,1.69,0,0,1,.67-2.3Z"/></clipPath><clipPath id="clip-path-14"><path class="cls-1" d="M248,35.14h0a8.68,8.68,0,0,1,1.69,12.14l-61.08,80.88-14.31,7.52a2,2,0,0,1-2.67-.93,1.91,1.91,0,0,1-.17-1.22l3.32-15.82,61.08-80.87A8.65,8.65,0,0,1,248,35.14Z"/></clipPath><clipPath id="clip-path-15"><path class="cls-1" d="M214.37,137.45v13a.58.58,0,0,1-.58.58H193.4a.59.59,0,0,1-.59-.58v-3.23a3.2,3.2,0,0,1,1.82-2.89l9.78-4.72a2.29,2.29,0,0,0,1.28-2v-2.75c1.69-.07,2.73.64,2.82,2.46Z"/></clipPath><clipPath id="clip-path-16"><path class="cls-1" d="M237.74,132.47l4.92,12a.61.61,0,0,1-.32.76L223.46,153a.58.58,0,0,1-.76-.32h0l-1.23-3a3.2,3.2,0,0,1,.59-3.37l7.26-8.07a2.26,2.26,0,0,0,.43-2.33l-1-2.56c1.54-.71,2.76-.45,3.54,1.2Z"/></clipPath></defs><g id="Capa_2" data-name="Capa 2"><g id="Capa_1-2" data-name="Capa 1"><g id="Capa_2-2" data-name="Capa 2"><g id="Iconos"><circle class="cls-2" cx="42.01" cy="90.31" r="30.65"/><circle class="cls-2" cx="42.01" cy="60.65" r="25.16"/><circle class="cls-2" cx="42.01" cy="29.43" r="21.06"/><rect class="cls-3" x="40.74" y="26.69" width="2.54" height="125.09"/><rect class="cls-3" x="40.51" y="83" width="12.74" height="2.54" transform="translate(-43.19 49.84) rotate(-39.99)"/><rect class="cls-3" x="35.89" y="77.86" width="2.54" height="12.74" transform="translate(-51.23 58.49) rotate(-49.96)"/><rect class="cls-3" x="40.51" y="56.78" width="12.74" height="2.54" transform="translate(-26.34 43.7) rotate(-39.99)"/><rect class="cls-3" x="35.88" y="51.64" width="2.54" height="12.74" transform="translate(-31.16 49.14) rotate(-49.96)"/><rect class="cls-3" x="40.51" y="37.03" width="12.74" height="2.54" transform="translate(-13.65 39.08) rotate(-39.99)"/><rect class="cls-3" x="35.88" y="31.88" width="2.54" height="12.74" transform="translate(-16.03 42.09) rotate(-49.96)"/><rect class="cls-4" x="133.49" y="84.34" width="3" height="56.26"/><path class="cls-4" d="M138.4,112.35H135v-3h3.41a7.53,7.53,0,0,0,7.52-7.52V95.27h3v6.57A10.57,10.57,0,0,1,138.4,112.35Z"/><path class="cls-4" d="M135,119.56H132.1a14,14,0,0,1-14-14V96.69h3v8.89a11,11,0,0,0,11,11H135Z"/><path class="cls-3" d="M105.71,99.66h60a38.65,38.65,0,0,0,0-12c-1.1-5.73-4.95-6.56-6.31-9.71s2.35-8.31.23-13.21-5.05-3.09-8.69-6.46-1-20.18-14.1-19.61-8.92,11.25-13.62,16-5.51-.12-10,7.4.78,13.07-.78,16.45-6,2.83-8,9.54A14.61,14.61,0,0,0,105.71,99.66Z"/><path class="cls-5" d="M173,33.68h7.15c6.77,20.15,10.35,63.48,13.92,106.86H173C173.71,98.39,174.25,58,173,33.68Z"/><path class="cls-4" d="M199.78,4.71a39.8,39.8,0,0,1-23.23,29A39.8,39.8,0,0,1,199.78,4.71Z"/><path class="cls-4" d="M199.78,4.71a39.8,39.8,0,0,1-23.23,29A39.8,39.8,0,0,1,199.78,4.71Z"/><path class="cls-4" d="M213.25,29.35a39.42,39.42,0,0,1-36.7,4.33A39.44,39.44,0,0,1,213.25,29.35Z"/><path class="cls-4" d="M201,51a26.78,26.78,0,0,1-24.45-17.3A26.8,26.8,0,0,1,201,51Z"/><path class="cls-4" d="M158.19,53.81a22.62,22.62,0,0,1,18.36-20.13A22.63,22.63,0,0,1,158.19,53.81Z"/><path class="cls-4" d="M142.9,32.36a33.26,33.26,0,0,1,33.68,1.32A33.23,33.23,0,0,1,142.9,32.36Z"/><path class="cls-4" d="M150.77,10.54a35,35,0,0,1,25.78,23.14,35,35,0,0,1-25.78-23.14Z"/><path class="cls-4" d="M174.29,0a33.38,33.38,0,0,1,2.26,33.68A33.33,33.33,0,0,1,174.29,0Z"/><path class="cls-3" d="M117.11,153h90.68s-2.58-9.82-7.15-12-6.13.4-9.28-1.91.37-7.66-3.7-9.75-6.51.16-9.59-1.32-5.06-14.23-17.69-12.79-14.72,15.07-20.13,18.9-11.47.64-17.3,5S117.11,153,117.11,153Z"/><rect class="cls-5" x="177.59" y="60.55" width="0.71" height="3.15" transform="translate(-9.67 80.1) rotate(-24.72)"/><circle class="cls-5" cx="178.74" cy="63.79" r="0.98"/><rect class="cls-5" x="181.03" y="59.08" width="0.71" height="3.16" transform="translate(-8.75 81.41) rotate(-24.72)"/><circle class="cls-5" cx="182.15" cy="62.36" r="0.98"/><path class="cls-5" d="M134.19,129.71l3,20.06h9.32a4.76,4.76,0,0,0-3.86-2.71,1.62,1.62,0,0,1-1.4-1.61V127.72Z"/><path class="cls-5" d="M120.54,125.89l-7.45,3.43,1.83,8.08,1.91,13.85,8.78-.8c-.52-1.65-2-2.31-3.63-2.65a1.58,1.58,0,0,1-1.3-1.43l-.42-4.5c2.88-4.23,4-7.61,5.11-13.92Z"/><path class="cls-2" d="M110.7,123.36c-6.69-8-9.18-13.54-8-18,.78-3,3.15-5.21,7.15-6.67h0a1.76,1.76,0,0,1,1.23,3.3c-2.9,1.06-4.53,2.46-5,4.26-.83,3.15,1.57,8,7.33,14.81a1.77,1.77,0,0,1-1.34,2.9A1.74,1.74,0,0,1,110.7,123.36Z"/><path class="cls-2" d="M159.38,107.68c5.85.34,6.06,6.56,6.06,6.56l4.71,1.83a.67.67,0,0,1,.41.74c-.95,5-5.44,5-11.32,3l-1.56,1.93-6.71-9S155.25,107.42,159.38,107.68Z"/><g class="cls-6"><path class="cls-4" d="M166.84,117.8l.24-.26a6,6,0,0,0,3.65,1.55v.35A6.24,6.24,0,0,1,166.84,117.8Z"/><path class="cls-4" d="M171.36,116l-.32,2-1.88-.58a.82.82,0,0,1-.56-1l.35-1.59Z"/></g><path class="cls-2" d="M151,112.74l-1.54,1.1c-12.56-.46-21-2.91-30.86-.46-7.88,2-12,7.05-10.32,14.42l9.56,3.73s17.3,1.95,26,1.78c7.23-.14,13.83-11.59,13.83-11.59l-.1-5.61Z"/><g class="cls-7"><path class="cls-4" d="M145.31,136.94l-13.46.13-15.73-5.82c4.59-3.59,8.32-4.16,26.67-2.44Z"/></g><path class="cls-2" d="M147.62,126.26l-7.79-.52s1.73,8.65,3.13,9.5c1.15.69,7.95,3.87,10.39,5a1.65,1.65,0,0,1,.93,1.35c.31,4,.91,6,3.71,5.9l-.4-8.87-8.86-6.18Z"/><path class="cls-2" d="M116.76,125.52l2.12,3.77C116.66,134,113,139.31,108,142l-.53,4.95a1.59,1.59,0,0,0,.71,1.51,7.76,7.76,0,0,1,3.2,4.5L103,150.51l1.09-12.12c.19-2.59,5-7.31,4.19-10.59Z"/><path class="cls-8" d="M159.59,113.2a3.52,3.52,0,0,0,4.46,2.21c-.82-2.06-2.27-3-4.51-2.38A1.09,1.09,0,0,0,159.59,113.2Z"/><g class="cls-9"><circle class="cls-4" cx="160.48" cy="114.11" r="1.59"/></g><path class="cls-4" d="M155.17,115.27c-2.21-.22-2.26-4.54-2.21-6s6.47-2.39,6.85-1.24S157.38,115.49,155.17,115.27Z"/><path class="cls-5" d="M.29,153H52.65s1.21-26-9-26-8.06,5.13-11.7,5.85-5.28-2.79-10.2-.65-2.21,7.07-7.21,9.35S9.48,140.9,4,144.82.29,153,.29,153Z"/><polygon class="cls-3" points="73.21 126.38 71.07 137.46 80.26 138.02 83.45 126.21 73.21 126.38"/><path class="cls-2" d="M66.91,147.25H82.83a10.63,10.63,0,0,0-2.91-6.51l.58-3.63H77.76a2.3,2.3,0,1,0-4.59-.3,1.5,1.5,0,0,0,0,.3l-2-.19-.48,2.65C68,142.58,67,145.13,66.91,147.25Z"/><g class="cls-10"><circle class="cls-4" cx="74.72" cy="150.28" r="9.02"/></g><rect class="cls-5" x="65.22" y="146.68" width="19.27" height="5.7" rx="2.85"/><path class="cls-4" d="M78,139H72.45a.53.53,0,0,1,0-1.06H78A.53.53,0,0,1,78,139Z"/><path class="cls-4" d="M78,140.69H72.45a.53.53,0,1,1-.15-1.05H78a.53.53,0,0,1,.6.45.54.54,0,0,1-.46.6Z"/><rect class="cls-2" x="44.72" y="132.62" width="37.98" height="2.82" transform="translate(-80.23 170.14) rotate(-78.66)"/><rect class="cls-2" x="87.1" y="115.01" width="2.82" height="37.98" transform="translate(-24.62 20.02) rotate(-11.34)"/><path class="cls-2" d="M96.68,117.36H55.51a2.82,2.82,0,1,1,0-5.64H96.68a2.82,2.82,0,0,1,0,5.64Z"/><polygon class="cls-4" points="86.37 110.62 62.99 110.62 59.6 83.33 88.83 80.75 86.37 110.62"/><path class="cls-4" d="M65.9,133.37l17.65.54,12.52-30.35a8,8,0,0,0-4.39-10.43,7.77,7.77,0,0,0-2.42-.57h0a8,8,0,0,0-7.85,4.78Z"/><path class="cls-3" d="M68.51,62.52c2.49-.82,6.65-1,11.32-1s.24,2.9.24,2.9L69.9,66.7S66,63.34,68.51,62.52Z"/><path class="cls-3" d="M69.53,63.14c0-.11,2.46-8.33,2.46-8.33l5,.48.81,7.85Z"/><g class="cls-11"><polygon class="cls-4" points="77.78 60.2 73.38 58.45 74.02 57.04 77.25 56.81 77.78 60.2"/></g><path class="cls-3" d="M82,51.84c-.81,4.17-2.75,6.62-7.39,6C72.21,57.55,70,54,70.25,50.65a14.4,14.4,0,0,1,2.48-6.26l8,1.1S82.76,47.68,82,51.84Z"/><path class="cls-3" d="M80.82,55.36l-.44-.23,2-3.88.44.23a2.18,2.18,0,0,1,1,2.92h0a2.19,2.19,0,0,1-2.93,1Z"/><path class="cls-4" d="M82.06,52.17l-.8-.37s.67-3.27.09-3.83-1.18-.16-1.6-.43-.22-.81-.79-1.16-1.1,0-1.71-.29c-.78-.31-.61-1-1.3-1.17a2.72,2.72,0,0,0-1.33,0L73.9,41.5a2.9,2.9,0,0,1,2-1.16c1.38-.09,1.85.77,2.29,1s1.3-.3,2.25.33c.73.48.52,1.24.79,1.57s.82.17,1.42,1-.26,1.62,0,2.15A2.42,2.42,0,0,1,83.3,48,18.2,18.2,0,0,1,82.06,52.17Z"/><polygon class="cls-4" points="81.73 53.9 81.71 53.54 83.18 53.46 83.2 53.81 81.73 53.9"/><polygon class="cls-2" points="75.75 48.95 76.42 52.39 74.34 52.19 75.75 48.95"/><path class="cls-8" d="M80.66,50.11c-1.67-1.24-2.82-.88-3.63.56A2.79,2.79,0,0,0,80.66,50.11Z"/><g class="cls-12"><circle class="cls-4" cx="78.05" cy="50.1" r="1.15"/></g><path class="cls-4" d="M75.68,54.45A3.93,3.93,0,0,1,74,54.17l.14-.32a5,5,0,0,0,2.37.21v.35A8.32,8.32,0,0,1,75.68,54.45Z"/><path class="cls-5" d="M60.05,42.43l14.18-2.64a74.77,74.77,0,0,1,1.13,7.74c.35,4.78-1,9.68-6,10.36s-7.38-3.1-8.23-7.65C60.47,46.69,60.05,42.43,60.05,42.43Z"/><path class="cls-4" d="M66.08,52l5.24-1.07A3.65,3.65,0,0,1,68.74,53,2.35,2.35,0,0,1,66.08,52Z"/><path class="cls-4" d="M73.39,46a4.76,4.76,0,0,1-3.9,2.52Q69.76,44.88,73.39,46Z"/><path class="cls-4" d="M62.53,47.87A4.75,4.75,0,0,0,67,49C66,46.71,64.54,46.35,62.53,47.87Z"/><path class="cls-4" d="M67.81,48.13h.24s1.19,2,1.14,2.06a13.1,13.1,0,0,1-1.39.24Z"/><path class="cls-5" d="M55.51,65.81c4.91-1.35,9.74-2.66,13.53-3.45a7.62,7.62,0,0,0,5.17.83c3-.54,3.88-1.69,3.88-1.69,11.61-1.39,14.23,2.34,15.15,8.29.46,3,.92,6.63,1.3,10.18l-9.17,7.18H63.17Z"/><g class="cls-13"><path class="cls-2" d="M99.55,68.86c3.92-4.13-4.61-6.87-3.66-1.18-1-5.69-8.42-.73-3.2,2.13-5.22-2.86-6,6.07-.33,3.83-5.67,2.24.83,8.42,2.78,2.65-2,5.77,6.94,4.54,3.81-.53,3.13,5.07,7.7-2.64,2-3.3C106.65,73.12,103.47,64.73,99.55,68.86Z"/><path class="cls-2" d="M69,55.25c3.93-4.13-4.61-6.87-3.65-1.17-1-5.7-8.43-.74-3.21,2.12-5.22-2.86-6,6.08-.33,3.83-5.66,2.25.84,8.42,2.79,2.65-1.95,5.77,6.93,4.54,3.81-.53,3.12,5.07,7.7-2.64,2-3.3C76.11,59.47,72.93,51.08,69,55.25Z"/><path class="cls-2" d="M78.33,68.94c3.93-4.13-4.61-6.87-3.65-1.17-1-5.7-8.43-.74-3.21,2.12-5.22-2.86-6,6.08-.33,3.83-5.66,2.25.84,8.42,2.79,2.65-2,5.77,6.93,4.54,3.81-.53,3.12,5.07,7.7-2.64,2-3.3C85.44,73.25,82.26,64.81,78.33,68.94Z"/><path class="cls-2" d="M73.07,86.25c3.92-4.13-4.62-6.87-3.66-1.17-1-5.7-8.43-.74-3.2,2.12-5.23-2.86-6,6.07-.34,3.83-5.66,2.24.84,8.42,2.79,2.65-2,5.77,6.93,4.54,3.81-.53,3.12,5.07,7.7-2.64,2-3.3C80.17,90.53,77,82.14,73.07,86.25Z"/></g><polygon class="cls-3" points="59.19 95.13 59.94 102.78 68.57 101.45 66.94 94.11 59.19 95.13"/><path class="cls-2" d="M45.44,112.3l25.91-3.43-2-9.2-6.07,1c-.66-1.4-1.91-1.68-3.65-1v2.58l-11.49,5.53a4.68,4.68,0,0,0-2.61,3.81Z"/><g class="cls-14"><path class="cls-4" d="M60,106.35a.54.54,0,0,1-.44-.23L57,102.43a.53.53,0,0,1,.13-.74h0a.54.54,0,0,1,.74.14l2.52,3.69a.53.53,0,0,1-.14.74.5.5,0,0,1-.29.09Z"/><path class="cls-4" d="M62,103.31a.54.54,0,0,1-.25-.06l-3.3-1.73a.53.53,0,1,1,.49-.94l3.3,1.74a.51.51,0,0,1,.22.7h0A.53.53,0,0,1,62,103.31Z"/><circle class="cls-4" cx="49.41" cy="110.62" r="7.11"/></g><path class="cls-5" d="M72.31,110.11l.07.48a1.7,1.7,0,0,1-1.46,1.89L46.35,115.4a1.67,1.67,0,0,1-1.86-1.47v-.06h0a1.67,1.67,0,0,1,1.44-1.79l24.5-3.41a1.68,1.68,0,0,1,1.89,1.42Z"/><path class="cls-4" d="M53.46,99.91l16.07-2.66L62.26,75.81,50.32,77.65C48.49,78.48,50.76,88.75,53.46,99.91Z"/><path class="cls-3" d="M51.69,58.75l2.86,2.46,3.35-1.35.26-.6a4.38,4.38,0,0,0,3.43-3.37L64.72,53l-.61-.88-4.55,3.15-.12-.16L65,50.68l-.43-.89-6,3.9-.09-.22,6-4.16-.66-.68-6.55,3.62-.16-.14,6.07-3.79-.89-1.15-8,4.08Z"/><path class="cls-5" d="M64.24,77.46c-19.85,9.62-18.28-2-12.69-18.83l6.35,1.23-.62,6Z"/><g class="cls-15"><path class="cls-2" d="M53.65,75.25C57.58,71.12,49,68.37,50,74.07c-1-5.7-8.43-.73-3.21,2.13-5.22-2.86-6,6.07-.33,3.83-5.66,2.24.84,8.42,2.79,2.64-2,5.78,6.93,4.55,3.81-.52,3.12,5.07,7.7-2.65,2-3.31C60.76,79.52,57.58,71.14,53.65,75.25Z"/><path class="cls-2" d="M49.93,55.58c3.92-4.13-4.62-6.87-3.66-1.17-1-5.7-8.43-.74-3.2,2.12-5.23-2.86-6,6.07-.34,3.83-5.66,2.24.84,8.42,2.79,2.65-2,5.77,6.93,4.54,3.81-.53,3.12,5.07,7.7-2.64,2-3.3C57,59.84,53.85,51.45,49.93,55.58Z"/></g><path class="cls-3" d="M78.31,91.91l-3.06,3.8c-4,0-5.71,1.49-8,6l1.3,1,3.27-3.08.17.09-5.1,6.53,1.07,1,5.32-5.46.11.1-5.52,6.43,1,.75,5.92-5.78.13.12-5.49,6,.93.67,6-5.5.13.1-3.79,4.57.83,1c3.8-3,7.15-6.12,7.44-10.26l2.75-3.07Z"/><path class="cls-5" d="M83.19,75.25c4.32,2.7,8.41,4.91,11.35,4.69,0,0,.86,6.36-1.69,9.34S82,99.4,82,99.4l-5.72-6.61,8.6-7.58Z"/><g class="cls-16"><path class="cls-2" d="M86.9,82.32c3.92-4.13-4.61-6.88-3.66-1.18-1-5.7-8.42-.73-3.2,2.13-5.22-2.86-6,6.07-.33,3.83-5.67,2.24.83,8.42,2.78,2.65-2,5.77,6.93,4.54,3.81-.53,3.12,5.07,7.7-2.65,2-3.31C94,86.57,90.82,78.19,86.9,82.32Z"/></g><polygon class="cls-4" points="84.67 85.27 83.02 74.21 83.37 74.15 85.02 85.22 84.67 85.27"/><polygon class="cls-4" points="77.23 48 77.05 48.8 79.93 48.89 80.82 49.19 80.97 48.79 80.03 48.28 77.23 48"/><rect class="cls-3" x="232.34" y="130.61" width="7.93" height="9.12" transform="translate(-30.78 82.5) rotate(-18.62)"/><rect class="cls-3" x="206.05" y="130.72" width="7.91" height="9.1"/><path class="cls-5" d="M199.48,132.47l15.67.7a167.27,167.27,0,0,0,1.73-36.39c2.87,9.88,5,22.61,6.81,36.39L241,128.62C237.1,104,232.53,83.76,226,76.5L203.41,96.11C203.12,107.16,202.05,112.55,199.48,132.47Z"/><g class="cls-17"><path class="cls-4" d="M238.6,85.7c5.25-5.53-6.18-9.2-4.9-1.57-1.28-7.63-11.27-1-4.28,2.84-7-3.83-8,8.13-.45,5.13-7.58,3,1.12,11.26,3.73,3.54-2.61,7.72,9.28,6.07,5.09-.71,4.19,6.78,10.31-3.53,2.63-4.42C248.12,91.4,243.85,80.22,238.6,85.7Z"/><path class="cls-4" d="M222.75,108.53c7.68.89,3.43-10.33-1.82-4.81,3.8-4-1.15-7-3.68-5.49,1,6.63,1,13.57,1.94,20.23,1.63-.74,2.68-2.67.94-5.5C224.31,119.74,230.43,109.42,222.75,108.53Z"/><path class="cls-4" d="M247.46,123.38c5.26-5.52-6.17-9.2-4.89-1.57-1.28-7.63-11.27-1-4.28,2.85-7-3.83-8,8.12-.45,5.12-7.58,3,1.12,11.26,3.73,3.54-2.61,7.72,9.27,6.08,5.09-.71,4.18,6.79,10.31-3.53,2.63-4.42C257,129.08,252.72,117.86,247.46,123.38Z"/><path class="cls-4" d="M202.93,124.69c5.25-5.53-6.17-9.2-4.89-1.57-1.28-7.63-11.27-1-4.29,2.84-7-3.83-8,8.13-.44,5.13-7.58,3,1.12,11.26,3.73,3.54-2.61,7.72,9.27,6.07,5.09-.71,4.18,6.78,10.3-3.54,2.62-4.42C212.43,130.38,208.18,119.16,202.93,124.69Z"/><path class="cls-4" d="M207.52,98.35c5.25-5.52-6.17-9.19-4.9-1.57-1.27-7.62-11.27-1-4.28,2.85-7-3.83-8,8.12-.44,5.12-7.59,3,1.11,11.27,3.72,3.54-2.61,7.73,9.28,6.08,5.1-.7,4.18,6.78,10.3-3.54,2.62-4.43C217,104.05,212.77,92.83,207.52,98.35Z"/><path class="cls-4" d="M218.39,111.92c-2.89-.24-6.08,3.71-1.29,6.33-7-3.83-8,8.13-.45,5.13-6.78,2.68-.54,9.57,2.72,5.47A98.76,98.76,0,0,0,218.39,111.92Z"/></g><path class="cls-2" d="M192.17,55.74c2.17,2.89-1.14,7.93,2.78,10.84a3.11,3.11,0,0,1,.69-1.38c.51-.52.67-.21,1.34-.75s.55-1.17,1-1.53a5.42,5.42,0,0,0,1.53-1.25,11.1,11.1,0,0,0,1.08-2.82Z"/><polygon class="cls-4" points="194.27 57.36 194.27 59.9 196.15 58.98 194.27 57.36"/><polygon class="cls-3" points="200.5 58.67 203.55 64.03 208.96 58.67 202 54.66 200.5 58.67"/><path class="cls-3" d="M201.68,62.35a19.5,19.5,0,0,1,7.28-5c3.23-1.32,1.87,4.51,1.87,4.51l-7.37,5S200,64.22,201.68,62.35Z"/><path class="cls-3" d="M192.06,55.71l2.85,2.57c1.27,1.15,2.8,2.61,3.92,2.31s1.7-1.68,2.28-2.63a20.59,20.59,0,0,0,1-1.86l-6.82-5.84L192,53.39Z"/><g class="cls-18"><path class="cls-4" d="M196,60.11l-.22-.28a2.26,2.26,0,0,0,.81-1.55H197A2.63,2.63,0,0,1,196,60.11Z"/></g><polygon class="cls-2" points="193.37 55.92 193.75 56.29 194.6 55.3 195.78 54.46 195.54 54.24 194.2 54.97 193.37 55.92"/><path class="cls-2" d="M192,57l1.52-1.86-.69-1.32,1.29.72,1.45-1.73c4.21,1.94,3,4.78,6.29,7.13A7,7,0,0,1,203,58c.5-.46.74-.29,1.34-1s.51-1.15.89-1.53.89-.48,1.42-1a2.28,2.28,0,0,0,.47-1.63s-7.36-6.36-11.3-5.4c-2.4.59-5.4,5.07-5.4,6.89A3.12,3.12,0,0,0,192,57Z"/><path class="cls-8" d="M195.88,55c.65.45.17,2-.77,2.34a1.69,1.69,0,0,1,.67-2.3Z"/><g class="cls-19"><circle class="cls-4" cx="195.3" cy="56.71" r="0.81"/></g><polygon class="cls-3" points="195.46 81.5 197.68 91.05 207.08 83.78 204.73 75.5 195.46 81.5"/><path class="cls-2" d="M202.25,61.75s1.95,1.66,4.13-.64,1.25-3.21,1.25-3.21l16.52,2.81L206.48,81.64l-10.94,1.63c-.8-4.25-1-8,.18-11.44A29.25,29.25,0,0,1,202.25,61.75Z"/><path class="cls-4" d="M248,35.14h0a8.68,8.68,0,0,1,1.69,12.14l-61.08,80.88-14.31,7.52a2,2,0,0,1-2.67-.93,1.91,1.91,0,0,1-.17-1.22l3.32-15.82,61.08-80.87A8.65,8.65,0,0,1,248,35.14Z"/><g class="cls-20"><path class="cls-3" d="M190.17,132.4c-1.75-1.32-.26-3.29-2-4.61s-3.23.65-5-.67-.26-3.29-2-4.61-3.24.65-5-.67-.26-3.3-2-4.62L167.58,126l18.83,14.26Z"/><rect class="cls-3" x="240.73" y="25.07" width="12.71" height="31.33" transform="translate(65.67 213.36) rotate(-52.94)"/><polygon class="cls-3" points="182.32 128.41 182.04 128.19 245.91 43.63 246.19 43.84 182.32 128.41"/><polygon class="cls-3" points="175.35 123.14 175.07 122.93 238.94 38.36 239.22 38.58 175.35 123.14"/></g><path class="cls-3" d="M226.49,55.84s14,2.37,12.9,8.51-15.7,15.74-15.7,15.74l-3.81-4.59,9-9.69-8.32-3.87Z"/><path class="cls-2" d="M230.59,55.74l-6.44,9.75-8.91-2.56.41-1.77-8-3.26a19.72,19.72,0,0,1,9.81-5.24C222.44,51.66,226.58,53.87,230.59,55.74Z"/><path class="cls-3" d="M222.52,73.77l-2.64,1.73c-4.43.26-6.21,1.8-8.77,5.13l.83,1,4.56-3.51.12.12L210.42,84l.66,1,5.68-4.48.12.12-5.94,6.08.92,1,6.64-5.6.15.14-5.66,6,.84.86,6-5.06.12.12-4.29,4.36.75,1c4-2.59,7.58-5.77,7.7-9.39l2.5-2.07Z"/><path class="cls-3" d="M197.65,101.65l1-.8,2.66,3.39.32-.23-1.92-8.13.9-.72,2.2,5.71.12-.05L201.33,94l1-.6,2.33,6.28.14-.07-1.25-6.44,1-.41,2.13,6.08.17-.09-1-5.17,1-.39a18.42,18.42,0,0,1,2.82,7.22,7.34,7.34,0,0,1-2.21,6.6c-1.55,1.41-3.09,2.06-4.45,1.75C199.41,107.93,197.65,101.65,197.65,101.65Z"/><path class="cls-2" d="M214.37,137.45v13a.58.58,0,0,1-.58.58H193.4a.59.59,0,0,1-.59-.58v-3.23a3.2,3.2,0,0,1,1.82-2.89l9.78-4.72a2.29,2.29,0,0,0,1.28-2v-2.75c1.69-.07,2.73.64,2.82,2.46Z"/><g class="cls-21"><circle class="cls-4" cx="210.48" cy="142.25" r="1.75"/><path class="cls-4" d="M206.43,141a.61.61,0,0,1-.37-.15l-3.36-3.32a.54.54,0,0,1-.09-.75.53.53,0,0,1,.74-.09l.09.09,3.37,3.32a.53.53,0,0,1,0,.75A.56.56,0,0,1,206.43,141Z"/><path class="cls-4" d="M204,141.85a.5.5,0,0,1-.37-.15l-3.37-3.32a.51.51,0,0,1,0-.73h0a.53.53,0,0,1,.75,0h0L204.4,141a.54.54,0,0,1,0,.75h0A.57.57,0,0,1,204,141.85Z"/><path class="cls-4" d="M201.62,142.68a.56.56,0,0,1-.37-.15l-3.36-3.32a.54.54,0,0,1-.09-.75.53.53,0,0,1,.74-.09.76.76,0,0,1,.09.09l3.37,3.32a.53.53,0,0,1,0,.75A.56.56,0,0,1,201.62,142.68Z"/><circle class="cls-5" cx="191.77" cy="146.81" r="7"/><rect class="cls-4" x="190.72" y="147.86" width="25.38" height="4.73"/></g><path class="cls-2" d="M237.74,132.47l4.92,12a.61.61,0,0,1-.32.76L223.46,153a.58.58,0,0,1-.76-.32h0l-1.23-3a3.2,3.2,0,0,1,.59-3.37l7.26-8.07a2.26,2.26,0,0,0,.43-2.33l-1-2.56c1.54-.71,2.76-.45,3.54,1.2Z"/><g class="cls-22"><circle class="cls-4" cx="235.96" cy="138.38" r="1.75"/><path class="cls-4" d="M231.55,138.82a.67.67,0,0,1-.2,0L227,137a.53.53,0,0,1,.4-1l4.37,1.8a.5.5,0,0,1-.2,1Z"/><path class="cls-4" d="M229.64,140.5h-.2l-4.37-1.8a.53.53,0,0,1,.4-1l4.37,1.8a.53.53,0,0,1,.23.71.57.57,0,0,1-.43.29Z"/><path class="cls-4" d="M227.73,142.22h-.2l-4.38-1.8a.52.52,0,0,1-.29-.68h0a.53.53,0,0,1,.69-.29l4.37,1.8a.53.53,0,0,1,.23.71.57.57,0,0,1-.43.29Z"/><circle class="cls-5" cx="220.33" cy="148.8" r="7"/><rect class="cls-4" x="219.75" y="146.11" width="25.38" height="4.73" transform="translate(-38.91 99.07) rotate(-22.25)"/></g><path class="cls-4" d="M263.92,143.8c-6.13-4.38-6.26-1.1-11.78-3.66s-2.55-8-8-10.43-7.32,1.51-11.38.72-1.67-6.53-13.05-6.53-10,29.09-10,29.09h58.41S270.05,148.17,263.92,143.8Z"/></g></g></g></g></svg>