<svg xmlns="http://www.w3.org/2000/svg" xmlns:xlink="http://www.w3.org/1999/xlink" viewBox="0 0 1157.82 714.55"><defs><style>.cls-1{fill:#ff0068;}.cls-2{fill:#ffeb00;}.cls-3{fill:#fff;}.cls-4{fill:#010f70;}.cls-5{fill:#00c2ff;}.cls-6{fill:none;}.cls-7{clip-path:url(#clip-path);}.cls-8{clip-path:url(#clip-path-2);}.cls-9{clip-path:url(#clip-path-3);}.cls-10{clip-path:url(#clip-path-4);}.cls-11{clip-path:url(#clip-path-5);}.cls-12{clip-path:url(#clip-path-6);}.cls-13{clip-path:url(#clip-path-7);}.cls-14{clip-path:url(#clip-path-8);}.cls-15{clip-path:url(#clip-path-9);}.cls-16{clip-path:url(#clip-path-10);}.cls-17{clip-path:url(#clip-path-11);}.cls-18{clip-path:url(#clip-path-12);}.cls-19{clip-path:url(#clip-path-13);}.cls-20{clip-path:url(#clip-path-14);}.cls-21{clip-path:url(#clip-path-15);}.cls-22{clip-path:url(#clip-path-16);}.cls-23{clip-path:url(#clip-path-17);}.cls-24{clip-path:url(#clip-path-18);}.cls-25{clip-path:url(#clip-path-19);}.cls-26{clip-path:url(#clip-path-20);}.cls-27{clip-path:url(#clip-path-21);}.cls-28{clip-path:url(#clip-path-22);}.cls-29{clip-path:url(#clip-path-23);}.cls-30{clip-path:url(#clip-path-24);}.cls-31{clip-path:url(#clip-path-25);}.cls-32{clip-path:url(#clip-path-26);}.cls-33{clip-path:url(#clip-path-27);}.cls-34{clip-path:url(#clip-path-28);}.cls-35{clip-path:url(#clip-path-29);}.cls-36{clip-path:url(#clip-path-30);}.cls-37{clip-path:url(#clip-path-31);}.cls-38{clip-path:url(#clip-path-32);}.cls-39{clip-path:url(#clip-path-33);}.cls-40{clip-path:url(#clip-path-34);}.cls-41{clip-path:url(#clip-path-35);}.cls-42{clip-path:url(#clip-path-36);}.cls-43{clip-path:url(#clip-path-37);}.cls-44{clip-path:url(#clip-path-38);}.cls-45{clip-path:url(#clip-path-39);}.cls-46{clip-path:url(#clip-path-40);}.cls-47{clip-path:url(#clip-path-41);}.cls-48{clip-path:url(#clip-path-42);}.cls-49{clip-path:url(#clip-path-43);}.cls-50{clip-path:url(#clip-path-44);}.cls-51{clip-path:url(#clip-path-45);}.cls-52{clip-path:url(#clip-path-46);}.cls-53{clip-path:url(#clip-path-47);}.cls-54{clip-path:url(#clip-path-48);}.cls-55{clip-path:url(#clip-path-49);}</style><clipPath id="clip-path"><path class="cls-1" d="M1016.34,641.25l-10.63,14.21-2.47-3.05c-9.3,3.15-16.42,3.19-17.93-4.75a1.06,1.06,0,0,1,.65-1.18l7.47-2.89s.33-9.85,9.6-10.39C1009.59,632.82,1016.34,641.25,1016.34,641.25Z"/></clipPath><clipPath id="clip-path-2"><path class="cls-1" d="M1005.87,646.58l-.16,8.88s10.45,18.14,21.91,18.36c13.77.26,41.24-2.82,41.24-2.82l15.14-5.91c2.64-11.68-3.87-19.74-16.34-22.83-15.68-3.89-29,0-48.88.73l-2.44-1.74Z"/></clipPath><clipPath id="clip-path-3"><path class="cls-3" d="M1002.77,641.7c-3.54-.9-5.84.51-7.14,3.77C998.83,646.21,1001.33,645.25,1002.77,641.7Z"/></clipPath><clipPath id="clip-path-4"><polygon class="cls-2" points="120 97.13 125.36 87.45 127.33 88.05 126.15 98.23 120 97.13"/></clipPath><clipPath id="clip-path-5"><path class="cls-1" d="M122.37,104.1,133.2,92.62l5.91.09,3.46,3.18,6.1-.69,4.89,2.31L139,114.74s-7.65-1.49-7.77-1.68S122.37,104.1,122.37,104.1Z"/></clipPath><clipPath id="clip-path-6"><path class="cls-1" d="M133.51,160.31l4.19-1.57c-.17-1.15.24-2.06,1.86-2.46l.57,2.53a.61.61,0,0,0,.5.46l7,1a4.77,4.77,0,0,1,3.9,3.44l.35,1.25-8.49,3-.92-1.11v1.42l-6,1.83Z"/></clipPath><clipPath id="clip-path-7"><path class="cls-1" d="M103.14,156.93l4.13,1.72c.67-1,1.59-1.34,3-.52L109,160.36a.59.59,0,0,0,0,.67l4.39,5.54a4.77,4.77,0,0,1,.49,5.18l-.6,1.15-8.26-3.61.09-1.44-1,1-5.59-2.76Z"/></clipPath><clipPath id="clip-path-8"><path class="cls-2" d="M130.07,86.15c.51.47.34,2.06.08,3.63s-.62,3.11-1.3,3.42c-1.36.61-4.48-1.53-4.48-1.53l2.07-5.76S129,85.23,130.07,86.15Z"/></clipPath><clipPath id="clip-path-9"><path class="cls-3" d="M128.05,88.44a1.32,1.32,0,0,0,1.71,1.1A1.28,1.28,0,0,0,128.05,88.44Z"/></clipPath><clipPath id="clip-path-10"><path class="cls-4" d="M192.6,163.85h6.94l-.12,2.74a3,3,0,0,0,1.61,2.74L206.3,172A3.08,3.08,0,0,1,208,175l-.24,2.45H197.6l-1.14-1.67-.64,1.67h-3.24Z"/></clipPath><clipPath id="clip-path-11"><polygon class="cls-2" points="186.12 102.48 187.68 93.67 189.86 93.5 192.3 102.48 186.12 102.48"/></clipPath><clipPath id="clip-path-12"><path class="cls-2" d="M192.71,91.4c.17.61.26,1.51.41,2.43.27,1.6.5,3.29-.05,3.85-.87.89-4.73.51-4.73.51l-.89-6.11S192.22,89.71,192.71,91.4Z"/></clipPath><clipPath id="clip-path-13"><path class="cls-3" d="M190.78,93.35a1.32,1.32,0,0,0,1.91.44C192.35,93,191.72,92.84,190.78,93.35Z"/></clipPath><clipPath id="clip-path-14"><path class="cls-4" d="M171.43,156.89l4.85,5-2,1.83a2.92,2.92,0,0,0-.83,3.07l1.79,5.61a3.07,3.07,0,0,1-1,3.34l-1.91,1.53-7.1-7.26.4-2-1.64.7-2.26-2.32Z"/></clipPath><clipPath id="clip-path-15"><polygon class="cls-2" points="95.88 256.86 94.98 264.83 87.53 262.53 90.97 254.13 95.88 256.86"/></clipPath><clipPath id="clip-path-16"><path class="cls-5" d="M71.49,263.52a37.59,37.59,0,0,1,16-1.64s.5,2.27,3.87,2.5,4.23-1.25,4.23-1.25c10.73,2.12,12.38,6.84,13.92,11.53l-7.09,5.43-3.51,10.08-21.83.5-1.32-16.28-3.23-.18Z"/></clipPath><clipPath id="clip-path-17"><path class="cls-1" d="M105.32,342c4.28,0,3.31,3,4.57,3.07,1.53.06,1.43-3.24,3.14-3.75a5.33,5.33,0,0,1,2.62-.27s-.18,2.42.83,3.23,10.41,4.35,12.41,6.06a3.34,3.34,0,0,1,.64,4.11l-23.84-1.87Z"/></clipPath><clipPath id="clip-path-18"><path class="cls-1" d="M58,331.94c2,3.79-1.12,4.34-.57,5.48.68,1.38,3.54-.26,4.79,1a5.39,5.39,0,0,1,1.47,2.19s-2.22,1-2.46,2.24,1,11.24.46,13.81a3.34,3.34,0,0,1-3.34,2.49l-9.52-21.93Z"/></clipPath><clipPath id="clip-path-19"><path class="cls-2" d="M102.21,251.12a23.68,23.68,0,0,1-1.35,3.27c-.8,1.95-1.67,4.08-2.9,4.4-2.08.55-6.19-3.07-6.19-3.07l3.11-6.19S102.45,249.44,102.21,251.12Z"/></clipPath><clipPath id="clip-path-20"><path class="cls-1" d="M114.94,529.84l6,2.67c.71-1.47,1.87-2.12,4-.94l-1,2a2.42,2.42,0,0,0,.35,2.68l7.61,8.68a3.81,3.81,0,0,1,.55,4.21l-2.33,4.67-11.89-5.91-.24-1.65-1.14,1L108.42,543Z"/></clipPath><clipPath id="clip-path-21"><polygon class="cls-2" points="139.89 448.32 145.5 438.01 150.93 439.46 150.15 448.61 144.35 449.7 139.89 448.32"/></clipPath><clipPath id="clip-path-22"><path class="cls-2" d="M154.81,433.13a38.37,38.37,0,0,1-.46,5.61c-.29,2.18-.69,4.37-1.95,4.72a5.85,5.85,0,0,1-4.29-.79,13.2,13.2,0,0,1-2.44-1.63l.29-8.71,4.28-.68S154.65,431.45,154.81,433.13Z"/></clipPath><clipPath id="clip-path-23"><path class="cls-3" d="M151.21,435.56a2.22,2.22,0,0,1,2.68,1.8C152.5,437.49,151.57,437.53,151.21,435.56Z"/></clipPath><clipPath id="clip-path-24"><path class="cls-1" d="M146,537.05l6.55-.28c0-1.64.72-2.73,3.18-2.63v2.19a2.43,2.43,0,0,0,1.51,2.24L167.92,543a3.81,3.81,0,0,1,2.37,3.52v5.22H157l-.95-1.36-.59,1.36H146Z"/></clipPath><clipPath id="clip-path-25"><path class="cls-1" d="M964.16,528.4c.21-.64.45-1.42,3.41-1s.3,4.54,2.84,4.59c1.18,0,2.46-3,3.91-3.4,1.81,6.35,3,11.8,2.6,14.66l-28.23,1.2s-.63-5.88,3.1-7.78,10.11-3.73,11-5A10.46,10.46,0,0,0,964.16,528.4Z"/></clipPath><clipPath id="clip-path-26"><polygon class="cls-2" points="964.4 449.38 964.55 441.2 969.8 440.45 971.5 448.38 964.4 449.38"/></clipPath><clipPath id="clip-path-27"><path class="cls-4" d="M959.59,524,977,517.4c-2.71-10-5.56-19.4-9.06-25.62a171.63,171.63,0,0,0,1.5-21.6l-16.47,4s-2.76,8.15-2.6,11.29,1.54,4.07,1.3,6.23-2.79,3.83-2.3,8.51,6.24,6.36,6.71,8.5-2.38,5.13-1.5,8S959.59,524,959.59,524Z"/></clipPath><clipPath id="clip-path-28"><path class="cls-1" d="M927.76,505.77l17.27-.6a26.83,26.83,0,0,0,1.05-8.9c-.38-3.85-2.71-6.46-2.56-7.85s2-3.08,2.33-5.25-1.8-5-1.8-5c11.33,2,22.12,2.81,25.56-8.08,0,0-5.59-4.61-18.5-6.26-9.31-1.19-16.51-1.06-19.46,1.94-3.32,3.38-1.63,8.79-2.74,14.14-.62,3-2.2,3.67-2.13,7.27s2.37,5.48,2.18,7.28-2.63,3.57-2.93,6.61A5.44,5.44,0,0,0,927.76,505.77Z"/></clipPath><clipPath id="clip-path-29"><path class="cls-1" d="M931.31,509.93c.21-.64.45-1.42,3.41-1s.3,4.54,2.85,4.59c1.17,0,2.46-3,3.9-3.4,1.82,6.35,3,11.8,2.6,14.66L915.84,526s-.62-5.88,3.11-7.78,10.11-3.73,11-5A10.23,10.23,0,0,0,931.31,509.93Z"/></clipPath><clipPath id="clip-path-30"><path class="cls-1" d="M978.78,183.33H994.7a10.55,10.55,0,0,0-2.92-6.51l.58-3.62-2.71,0a2.31,2.31,0,1,0-4.6,0l-2-.19-.49,2.65C979.87,178.62,978.85,181.17,978.78,183.33Z"/></clipPath><clipPath id="clip-path-31"><path class="cls-2" d="M981.39,99.18c0-.1,2.46-8.32,2.46-8.32l5,.47.82,7.85Z"/></clipPath><clipPath id="clip-path-32"><path class="cls-3" d="M992.52,86.15c-1.67-1.24-2.82-.87-3.63.56A2.77,2.77,0,0,0,992.52,86.15Z"/></clipPath><clipPath id="clip-path-33"><path class="cls-5" d="M967.37,101.86c4.91-1.35,9.74-2.66,13.53-3.45a7.74,7.74,0,0,0,5.18.83c3-.55,3.87-1.7,3.87-1.7,11.61-1.39,14.23,2.35,15.15,8.29.46,3,.93,6.64,1.3,10.18l-9.17,7.19H975Z"/></clipPath><clipPath id="clip-path-34"><path class="cls-1" d="M957.31,148.34l25.9-3.42-2-9.2-6.08,1c-.65-1.39-1.9-1.67-3.65-1v2.55L960,143.81a4.61,4.61,0,0,0-2.61,3.8Z"/></clipPath><clipPath id="clip-path-35"><path class="cls-5" d="M976.1,113.51c-19.85,9.62-18.28-2.05-12.69-18.83l6.35,1.22-.62,6Z"/></clipPath><clipPath id="clip-path-36"><path class="cls-5" d="M995.05,111.32c4.32,2.7,8.41,4.91,11.35,4.69,0,0,.86,6.36-1.68,9.35s-10.89,10.12-10.89,10.12l-5.72-6.62,8.6-7.57Z"/></clipPath><clipPath id="clip-path-37"><path class="cls-1" d="M16.22,658.16,40,645l4.85,8.47a4.47,4.47,0,0,1-4.7-.22l-2.27,1.59c.73,2.25-.2,4.06-1.72,5.72l-2.31-3.1-13.48,2.3a4.2,4.2,0,0,1-3.94-1.46Z"/></clipPath><clipPath id="clip-path-38"><path class="cls-1" d="M33.4,666.35l16.93-10.46,5,14.61-6.43,24.23C46,692.59,39.39,682.33,33.4,666.35Z"/></clipPath><clipPath id="clip-path-39"><path class="cls-4" d="M102.28,678.23c-6.22-4.59-13-6.31-21.22,0l-12.9.84,10.67-21.58L58.2,652s-16.37,36-8.82,43.25,53.49,1.17,53.49,1.17l2.52-9.91Z"/></clipPath><clipPath id="clip-path-40"><polygon class="cls-2" points="121.25 674.83 127.75 668.19 133.42 670.24 127.83 683.16 121.25 674.83"/></clipPath><clipPath id="clip-path-41"><path class="cls-2" d="M136.46,661.14c1.39,1,1.09,3.5.89,5.94-.23,2.63,0,5.28-2.07,5.68-3.17.61-7-2.5-7-2.5l1.23-8.75Z"/></clipPath><clipPath id="clip-path-42"><path class="cls-3" d="M133.93,665.09a2.38,2.38,0,0,0,2.73,1.61A1.9,1.9,0,0,0,133.93,665.09Z"/></clipPath><clipPath id="clip-path-43"><path class="cls-1" d="M54.17,633.55l25.45,9.36-3.23,9.2a4.47,4.47,0,0,1-2.91-3.7l-2.69-.67c-1.22,2-3.2,2.51-5.45,2.44l.83-3.77-10.55-8.69a4.21,4.21,0,0,1-1.49-3.93Z"/></clipPath><clipPath id="clip-path-44"><path class="cls-5" d="M1068.47,331.59l15.67.71a165.76,165.76,0,0,0,1.73-36.39c2.88,9.88,5,22.61,6.82,36.39l17.29-4.55c-3.89-24.64-8.46-44.87-15-52.13l-22.58,19.61C1072.06,306.28,1071,311.68,1068.47,331.59Z"/></clipPath><clipPath id="clip-path-45"><path class="cls-2" d="M1061.06,254.84l2.84,2.57c1.27,1.15,2.8,2.61,3.93,2.31s1.7-1.68,2.28-2.63,1.05-1.86,1.05-1.86l-6.83-5.85-3.27,3.14Z"/></clipPath><clipPath id="clip-path-46"><path class="cls-3" d="M1064.88,254.15c.65.45.16,2-.78,2.33A1.69,1.69,0,0,1,1064.88,254.15Z"/></clipPath><clipPath id="clip-path-47"><path class="cls-4" d="M1117,234.27h0a8.65,8.65,0,0,1,1.69,12.13l-61.08,80.88-14.31,7.53a2,2,0,0,1-2.84-2.15l3.33-15.82L1104.83,236A8.66,8.66,0,0,1,1117,234.27Z"/></clipPath><clipPath id="clip-path-48"><path class="cls-1" d="M1083.37,336.58v13a.58.58,0,0,1-.59.59h-20.39a.58.58,0,0,1-.58-.59V346.3a3.21,3.21,0,0,1,1.82-2.9l9.77-4.71a2.27,2.27,0,0,0,1.28-2l0-2.74c1.69-.07,2.72.63,2.82,2.45Z"/></clipPath><clipPath id="clip-path-49"><path class="cls-1" d="M1106.74,331.59l4.91,12a.59.59,0,0,1-.32.76l-18.87,7.72a.58.58,0,0,1-.76-.32l-1.23-3a3.22,3.22,0,0,1,.58-3.37l7.27-8.07a2.27,2.27,0,0,0,.42-2.34l-1-2.56c1.54-.7,2.77-.44,3.54,1.21Z"/></clipPath></defs><g id="Capa_2" data-name="Capa 2"><g id="Iconos"><rect class="cls-6" x="277.34" width="603.51" height="58.08"/><rect class="cls-6" y="123.89" width="29.11" height="590.66"/><rect class="cls-6" x="1128.71" y="123.89" width="29.11" height="590.66"/><path class="cls-5" d="M1031.74,665l0,28.07a2.58,2.58,0,0,1-2.21,2.55,7.5,7.5,0,0,0-6.12,4.3l14.75.05,4.75-31.78Z"/><path class="cls-5" d="M1056.89,665.34c1.76,10,3.53,15.33,8.08,22l-.65,7.13a2.57,2.57,0,0,1-2.07,2.27c-2.65.53-4.92,1.52-5.75,4.19l13.91,1.27,3-21.94,2.91-12.8-11.8-5.41Z"/><path class="cls-1" d="M1078,659a2.79,2.79,0,0,1-2.13-4.6c9.13-10.78,12.93-18.45,11.62-23.44-.75-2.86-3.33-5.07-7.87-6.75a2.79,2.79,0,0,1,1.93-5.23c6.29,2.32,10.1,5.87,11.34,10.56,1.85,7.07-2.08,15.85-12.76,28.47A2.81,2.81,0,0,1,1078,659Z"/><path class="cls-1" d="M1016.34,641.25l-10.63,14.21-2.47-3.05c-9.3,3.15-16.42,3.19-17.93-4.75a1.06,1.06,0,0,1,.65-1.18l7.47-2.89s.33-9.85,9.6-10.39C1009.59,632.82,1016.34,641.25,1016.34,641.25Z"/><g class="cls-7"><path class="cls-4" d="M985.05,651.86l0-.56a9.43,9.43,0,0,0,5.77-2.46l.38.42A10,10,0,0,1,985.05,651.86Z"/><path class="cls-4" d="M987.86,644.68l.56,2.52a1.3,1.3,0,0,1-.88,1.53l-3,.93-.5-3.2Z"/></g><path class="cls-1" d="M1005.87,646.58l-.16,8.88s10.45,18.14,21.91,18.36c13.77.26,41.24-2.82,41.24-2.82l15.14-5.91c2.64-11.68-3.87-19.74-16.34-22.83-15.68-3.89-29,0-48.88.73l-2.44-1.74Z"/><g class="cls-8"><path class="cls-4" d="M1029.3,666.69c29.06-2.72,35-1.82,42.24,3.87l-24.93,9.22-21.31-.22Z"/></g><path class="cls-1" d="M1019.88,672.45l-14,9.78-.63,14c4.44.24,5.37-3.07,5.87-9.34a2.6,2.6,0,0,1,1.48-2.14c3.85-1.79,14.63-6.82,16.44-7.93,2.22-1.35,5-15.05,5-15.05l-12.33.82Z"/><path class="cls-1" d="M1084,665.09c-1.21,5.2,6.27,12.66,6.64,16.78l1.71,19.19L1079.12,705a12.25,12.25,0,0,1,5.06-7.12,2.57,2.57,0,0,0,1.14-2.39l-.85-7.84c-7.83-4.3-13.8-12.7-17.31-20.18l3.36-6Z"/><path class="cls-3" d="M1002.77,641.7c-3.54-.9-5.84.51-7.14,3.77C998.83,646.21,1001.33,645.25,1002.77,641.7Z"/><g class="cls-9"><circle class="cls-4" cx="1001.28" cy="643.41" r="2.52"/></g><path class="cls-4" d="M1002.35,633.79c.6-1.83,10.76-.36,10.84,2s.07,9.15-3.51,9.47S1001.74,635.61,1002.35,633.79Z"/><polygon class="cls-1" points="129.91 88.73 131.18 91.11 129.46 91.2 129.91 88.73"/><polygon class="cls-2" points="120 97.13 125.36 87.45 127.33 88.05 126.15 98.23 120 97.13"/><g class="cls-10"><polygon class="cls-4" points="127.05 94.29 124.93 92.66 125.81 91.34 127.36 91.65 127.05 94.29"/></g><path class="cls-1" d="M122.37,104.1,133.2,92.62l5.91.09,3.46,3.18,6.1-.69,4.89,2.31L139,114.74s-7.65-1.49-7.77-1.68S122.37,104.1,122.37,104.1Z"/><g class="cls-11"><rect class="cls-4" x="131.04" y="103.01" width="21.42" height="0.3" transform="translate(-29.11 142.43) rotate(-48.99)"/><rect class="cls-4" x="125.33" y="103.18" width="21.42" height="0.3" transform="translate(-31.2 138.18) rotate(-48.99)"/><polygon class="cls-4" points="127.02 106.27 126.8 106.07 140.46 91 140.68 91.2 127.02 106.27"/></g><polygon class="cls-2" points="132.08 155.44 133.84 160.32 136.99 160.67 139.51 156.58 137.87 152.05 132.08 155.44"/><path class="cls-1" d="M133.51,160.31l4.19-1.57c-.17-1.15.24-2.06,1.86-2.46l.57,2.53a.61.61,0,0,0,.5.46l7,1a4.77,4.77,0,0,1,3.9,3.44l.35,1.25-8.49,3-.92-1.11v1.42l-6,1.83Z"/><g class="cls-12"><polygon class="cls-4" points="134.46 168.4 154.45 162.33 154.84 165.55 134.83 171.94 134.46 168.4"/><rect class="cls-4" x="138.83" y="159.45" width="3.68" height="0.89" transform="translate(-67.09 206.67) rotate(-61.35)"/><rect class="cls-4" x="140.72" y="159.93" width="3.68" height="0.89" transform="translate(-66.48 208.81) rotate(-61.41)"/><rect class="cls-4" x="142.55" y="160.26" width="3.68" height="0.89" transform="translate(-65.81 210.58) rotate(-61.41)"/></g><polygon class="cls-2" points="105.44 152.4 103.37 157.16 105.44 159.57 110.07 158.31 111.97 153.89 105.44 152.4"/><polygon class="cls-5" points="101.58 152.97 114.8 157.16 126.05 116.09 115.26 121.44 101.58 152.97"/><path class="cls-4" d="M117.79,115.25c-5.33,6.53-3.88,13.15,1.73,17.87l10,25.57,14-5.59L129.79,123l-1.64-7.76Z"/><path class="cls-1" d="M103.14,156.93l4.13,1.72c.67-1,1.59-1.34,3-.52L109,160.36a.59.59,0,0,0,0,.67l4.39,5.54a4.77,4.77,0,0,1,.49,5.18l-.6,1.15-8.26-3.61.09-1.44-1,1-5.59-2.76Z"/><g class="cls-13"><polygon class="cls-4" points="98.29 163.47 117.02 172.73 115.1 175.34 96.14 166.31 98.29 163.47"/><rect class="cls-4" x="106.81" y="161.07" width="3.68" height="0.89" transform="translate(-44.92 41.9) rotate(-18.16)"/><rect class="cls-4" x="107.85" y="162.72" width="3.68" height="0.89" transform="translate(-45.38 42.31) rotate(-18.16)"/><rect class="cls-4" x="108.96" y="164.21" width="3.68" height="0.89" transform="translate(-45.79 42.73) rotate(-18.16)"/></g><path class="cls-1" d="M114.56,116.27l15.53,1.5c.49-9.35-1.11-18.33-3.74-20.77l-6.24-.49C117.48,97.51,115.45,105.6,114.56,116.27Z"/><path class="cls-2" d="M130.29,104.1l3,4.51,6.25-.68,6.37-3.1.94.85-.85.66a5.55,5.55,0,0,1,0,4.44,11.54,11.54,0,0,1-2.72,1.67,4.75,4.75,0,0,1-1.63-.43s-7.71,3.09-10.59,2-6.6-7.75-6.6-7.75Z"/><path class="cls-5" d="M131.24,104.84,125,108.3s-2.76-4.51-3.09-7.75a3.11,3.11,0,0,1,1.63-3.07,3.4,3.4,0,0,1,3.9.48C129.75,100.24,131.24,104.84,131.24,104.84Z"/><rect class="cls-4" x="143.46" y="106.67" width="3.81" height="0.3" transform="translate(-35.02 108.11) rotate(-36.72)"/><path class="cls-2" d="M130.07,86.15c.51.47.34,2.06.08,3.63s-.62,3.11-1.3,3.42c-1.36.61-4.48-1.53-4.48-1.53l2.07-5.76S129,85.23,130.07,86.15Z"/><g class="cls-14"><path class="cls-4" d="M130,91.86a1.79,1.79,0,0,1-1.28-.81l.24-.17a1.51,1.51,0,0,0,1.08.68Z"/></g><polygon class="cls-4" points="130.17 88.04 130.06 88.51 128.89 88.14 128.13 88.08 128.18 87.85 129.2 87.81 130.17 88.04"/><path class="cls-3" d="M128.05,88.44a1.32,1.32,0,0,0,1.71,1.1A1.28,1.28,0,0,0,128.05,88.44Z"/><g class="cls-15"><circle class="cls-4" cx="129.37" cy="89.28" r="0.5"/></g><path class="cls-4" d="M121.07,95.2l-4.61-2a2.89,2.89,0,0,1,.8-3.17c1.78-1.47,3.41-1.8,4.3-2.66s2-4.31,5.24-3.3a13.16,13.16,0,0,1,2.21.88,2.48,2.48,0,0,1,1.31,1.7c-.18.75-1.52,1.14-2.63,1.57s-2.23.89-2.23.89l-.77-.18Z"/><path class="cls-2" d="M126,90.75l-.9-.1A1.31,1.31,0,0,1,124,89.19h0A1.3,1.3,0,0,1,125.44,88a.85.85,0,0,1,.82.8Z"/><rect class="cls-4" x="124.98" y="88.83" width="0.3" height="1.11" transform="matrix(0.68, -0.74, 0.74, 0.68, -25.39, 120.87)"/><path class="cls-4" d="M187.94,96l-.16-.27a9.94,9.94,0,0,1-4.22.73c-4.09-.26-9.26-2.15-9,2.84.17,3.3,4.68,3.69,8.16,1.75A19,19,0,0,0,187.94,96Z"/><polygon class="cls-1" points="192.53 92.72 194.36 94.22 192.94 95.06 192.53 92.72"/><polygon class="cls-2" points="223.79 104.48 229.36 103.19 229.82 104.39 226.59 105.51 226.83 106.68 227 107.53 226.77 108.92 224.41 109.44 223.79 104.48"/><path class="cls-2" d="M200.64,103.87l5.78.89,12.58-.08s.88-1.59,1.95-1.9a19.47,19.47,0,0,1,3.57-.3l1.46,3-.5,3.61a8.81,8.81,0,0,1-5.91,0s-13.77,2.88-16.28,2.49-5.15-1.11-5.15-1.11Z"/><path class="cls-2" d="M179.9,112.33l-2,3.44,2.22,4-3.07,3.85c-3.79-3.42-6.51-7.22-2.51-13.39Z"/><path class="cls-2" d="M183.82,102c2.2-.42,10.28-.08,11.35.37s.55,2.61.55,2.61l-3.25,3.16-8-.28S181.88,102.39,183.82,102Z"/><polygon class="cls-2" points="200.03 134.99 199.01 164.51 195.41 165.18 192.75 165.18 190.64 136.09 200.03 134.99"/><path class="cls-4" d="M192.6,163.85h6.94l-.12,2.74a3,3,0,0,0,1.61,2.74L206.3,172A3.08,3.08,0,0,1,208,175l-.24,2.45H197.6l-1.14-1.67-.64,1.67h-3.24Z"/><g class="cls-16"><rect class="cls-5" x="189.47" y="175.59" width="20.26" height="4.62"/></g><path class="cls-2" d="M186.92,137.71a97,97,0,0,1-3,14.41c-.83,2.5-5.54,7.41-8.37,10.35l-3.34-1.5-1.85-2.68,6.64-8.63.68-14Z"/><path class="cls-1" d="M181.68,118.69l14.82-.38c4.46,7.19,5,13.48,5.56,19-8.6,2.2-17.19,2.16-25.79,1C176,130.87,178.11,125.05,181.68,118.69Z"/><path class="cls-5" d="M184.62,101.9l.5,2.25a2.22,2.22,0,0,0,2.17,1.75h3.51a2.24,2.24,0,0,0,2.18-1.77l.43-2,8.65.92v9l-4-.4-1.52,6.72-14.82.38-1.25-6.37-1.36,2.1-5.85-3.9C175.94,106.2,177.71,102.48,184.62,101.9Z"/><polygon class="cls-2" points="186.12 102.48 187.68 93.67 189.86 93.5 192.3 102.48 186.12 102.48"/><g class="cls-17"><polygon class="cls-4" points="191.67 99.42 189.07 98.85 189.33 97.68 191.57 97.68 191.67 99.42"/></g><path class="cls-2" d="M180.15,119.75l-3.4.82.33,3,2.59,2.51c-.08,1.7,1.23,3.64,3.37,6l.6-.62-2.14-2.8.2-.16,3.14,3.46.61-.44-2.55-3.59.08-.1,3.09,3.78.72-.56-3-4.26.17-.11,2.85,3.59.73-.66-3.13-4.47.17-.08,2.55,2.15.67-.53a6.32,6.32,0,0,0-5.24-3.88Z"/><polygon class="cls-4" points="224.24 105.84 223.06 104.22 223.29 104.05 224.35 105.51 225.61 105.08 224.8 103.39 225.06 103.27 226.01 105.25 224.24 105.84"/><polygon class="cls-4" points="222.29 107.52 221.94 106.22 226.56 105.37 226.61 105.65 222.3 106.45 222.5 107.2 226.81 106.54 226.85 106.83 222.29 107.52"/><polygon class="cls-4" points="222.75 108.46 222.42 107.5 222.69 107.4 222.94 108.14 227.01 107.51 227.05 107.8 222.75 108.46"/><polygon class="cls-4" points="223.19 109.36 222.96 108.43 223.24 108.36 223.41 109.05 226.81 108.79 226.84 109.08 223.19 109.36"/><path class="cls-2" d="M192.71,91.4c.17.61.26,1.51.41,2.43.27,1.6.5,3.29-.05,3.85-.87.89-4.73.51-4.73.51l-.89-6.11S192.22,89.71,192.71,91.4Z"/><g class="cls-18"><path class="cls-4" d="M193.11,95.74a4.46,4.46,0,0,1-.79-.1l.05-.28c.79.14,1,.15,1.47-.16l.16.24A1.43,1.43,0,0,1,193.11,95.74Z"/></g><path class="cls-4" d="M189.3,92.92,189,95l-2.73,1.22a4.11,4.11,0,0,1-.85-1.64Z"/><path class="cls-2" d="M187.5,94.41h0a1,1,0,0,1,1,1V97a0,0,0,0,1,0,0h-1a1.31,1.31,0,0,1-1.31-1.31v0a1.31,1.31,0,0,1,1.31-1.31Z" transform="translate(-7.7 16.86) rotate(-5.05)"/><polygon class="cls-4" points="187.7 95.98 186.87 95.44 187.02 95.2 187.86 95.74 187.7 95.98"/><polygon class="cls-4" points="192.47 91.81 192.56 92.39 190.15 92.72 190.2 92.16 192.47 91.81"/><path class="cls-3" d="M190.78,93.35a1.32,1.32,0,0,0,1.91.44C192.35,93,191.72,92.84,190.78,93.35Z"/><g class="cls-19"><circle class="cls-4" cx="192.31" cy="93.44" r="0.71"/></g><path class="cls-5" d="M184.32,95.11l9.17-4a.31.31,0,0,0,0-.59L192.11,90,191,88.88a1.53,1.53,0,0,0-1.64-.35l-3.59,1.37a1.54,1.54,0,0,0-1,1.3l-.17,2-.67,1.51A.32.32,0,0,0,184.32,95.11Z"/><path class="cls-4" d="M171.43,156.89l4.85,5-2,1.83a2.92,2.92,0,0,0-.83,3.07l1.79,5.61a3.07,3.07,0,0,1-1,3.34l-1.91,1.53-7.1-7.26.4-2-1.64.7-2.26-2.32Z"/><g class="cls-20"><rect class="cls-5" x="156.14" y="169.41" width="20.26" height="4.62" transform="translate(172.92 -67.22) rotate(45.67)"/></g><path class="cls-1" d="M110.91,267.66l-5.22,4.09-13-6.05,3.94-11.57,3.07,1.31s-.08,3.2,1.39,3.89,3,.17,4.16,1.09.53,3.88,1.29,4.41,2.77.4,3.48,1A3.45,3.45,0,0,1,110.91,267.66Z"/><polygon class="cls-1" points="100.91 253.16 101.64 256.58 99.88 256.11 100.91 253.16"/><polygon class="cls-2" points="95.88 256.86 94.98 264.83 87.53 262.53 90.97 254.13 95.88 256.86"/><g class="cls-21"><polygon class="cls-4" points="96.17 260.31 93.44 257.81 94.46 256.58 96.66 257.24 96.17 260.31"/></g><path class="cls-2" d="M87.45,261.88a42.83,42.83,0,0,1,8.1,1.25c1.94.62-.71,3.46-.71,3.46l-9.21-1.67S84.87,261.67,87.45,261.88Z"/><path class="cls-2" d="M75.49,271.23,62,278.33c-2.07-7,0-12.09,10.17-14.42Z"/><path class="cls-2" d="M107.88,273.57,113,285.29l.68,5.38c-10,5.69-10.38-6-12-14.65Z"/><path class="cls-5" d="M71.49,263.52a37.59,37.59,0,0,1,16-1.64s.5,2.27,3.87,2.5,4.23-1.25,4.23-1.25c10.73,2.12,12.38,6.84,13.92,11.53l-7.09,5.43-3.51,10.08-21.83.5-1.32-16.28-3.23-.18Z"/><g class="cls-22"><circle class="cls-4" cx="81.95" cy="273.1" r="1.24"/><circle class="cls-4" cx="75.88" cy="259.43" r="1.24"/><circle class="cls-4" cx="100.74" cy="264.3" r="1.24"/><circle class="cls-4" cx="106.03" cy="276.48" r="1.24"/><circle class="cls-4" cx="98.38" cy="283.71" r="1.24"/></g><polygon class="cls-2" points="105.69 335.43 105.94 342.32 111.15 349.55 115.38 341.23 115.38 334.75 105.69 335.43"/><path class="cls-1" d="M105.32,342c4.28,0,3.31,3,4.57,3.07,1.53.06,1.43-3.24,3.14-3.75a5.33,5.33,0,0,1,2.62-.27s-.18,2.42.83,3.23,10.41,4.35,12.41,6.06a3.34,3.34,0,0,1,.64,4.11l-23.84-1.87Z"/><g class="cls-23"><path class="cls-4" d="M118.43,349.31a.4.4,0,0,1-.15,0,.36.36,0,0,1-.17-.47l1.82-4.06a.35.35,0,0,1,.64.28l-1.82,4.07A.36.36,0,0,1,118.43,349.31Z"/><path class="cls-4" d="M114.67,347.81a.36.36,0,0,1-.27-.12.36.36,0,0,1,0-.5l3.75-3.14a.36.36,0,0,1,.5.05.35.35,0,0,1,0,.49l-3.75,3.14A.31.31,0,0,1,114.67,347.81Z"/><path class="cls-4" d="M112.33,345.13a.35.35,0,0,1-.1-.69L117,343a.35.35,0,1,1,.2.68l-4.77,1.45Z"/></g><path class="cls-4" d="M105.46,349.23c2.8-1.63,8.27,4.55,9.51,4.09s-.62-2.13,1.12-2.95,4.63,2.53,5.81,2.34.7-1.93,2.08-2.18,4.63,3.16,6,2.5c1,1.9-.31,3.16-1.82,3.76h-23.1C103.76,356.79,102.67,350.87,105.46,349.23Z"/><polygon class="cls-2" points="64.04 329.18 58.07 332.63 54.12 340.62 63.45 340.46 69.18 337.42 64.04 329.18"/><path class="cls-1" d="M58,331.94c2,3.79-1.12,4.34-.57,5.48.68,1.38,3.54-.26,4.79,1a5.39,5.39,0,0,1,1.47,2.19s-2.22,1-2.46,2.24,1,11.24.46,13.81a3.34,3.34,0,0,1-3.34,2.49l-9.52-21.93Z"/><g class="cls-24"><path class="cls-4" d="M58.05,347.13a.36.36,0,0,1-.35-.33.36.36,0,0,1,.33-.38l4.44-.3a.36.36,0,1,1,.05.71l-4.44.3Z"/><path class="cls-4" d="M62.15,345a.34.34,0,0,1-.14,0l-4.53-1.85a.34.34,0,0,1-.19-.45.36.36,0,0,1,.46-.2l4.53,1.85a.35.35,0,0,1-.13.67Z"/><path class="cls-4" d="M62.41,343.32a.35.35,0,0,1-.25-.1l-3.52-3.54a.35.35,0,0,1,.5-.5l3.52,3.54a.35.35,0,0,1-.25.6Z"/></g><path class="cls-4" d="M51.73,335.45c2.76,1.71-.14,9.44.85,10.32s1.59-1.55,3.13-.4-.06,5.27.65,6.23,2-.29,2.9.81-.62,5.57.61,6.48c-1.23,1.75-2.94,1.21-4.17.15L44.87,338.63C44.26,337.48,49,333.75,51.73,335.45Z"/><path class="cls-5" d="M59.87,327.55l9.31,14.6s17.71-14.23,19.19-18.27c2.11-5.75-.83-20.79-.83-20.79,3.55,4.85,12.46,12,13.79,13.78S103,336.79,103,336.79l18.29.14s-4.24-24.49-5.68-29-18.75-22.66-18.75-22.66l-24.42,9.2s1,22.14.54,23.47S59.87,327.55,59.87,327.55Z"/><path class="cls-4" d="M87.5,290.64l1.15,2.1a4.28,4.28,0,0,0,4.11,2.2c2.7-.24,5.35.05,5,2.91-.44,3.8-6,.88-10.65,3.06-5.52,2.58-4.81,10.62-15.83,12.23-5.36.78-9.87-4.08-12.55-10.32-2.77-6.47-3.44-14,2.27-16.47,8.87-3.84,12.74.11,17.38-1.06,2.74-.69,7-5.56,10.83-6.76a5.08,5.08,0,0,1,5.42,2,1.22,1.22,0,0,1-.45,1.86l-4.8,2.31A4.28,4.28,0,0,0,87.5,290.64Z"/><rect class="cls-5" x="139.07" y="260.52" width="0.71" height="3.15" transform="translate(-96.84 82.34) rotate(-24.72)"/><circle class="cls-5" cx="138.65" cy="260.4" r="0.98"/><rect class="cls-5" x="135.66" y="261.95" width="0.71" height="3.15" transform="translate(-97.7 80.98) rotate(-24.71)"/><circle class="cls-5" cx="135.24" cy="261.84" r="0.98"/><rect class="cls-5" x="139.27" y="269.65" width="0.71" height="3.15" transform="translate(-100.64 83.26) rotate(-24.72)"/><circle class="cls-5" cx="140.4" cy="272.92" r="0.98"/><rect class="cls-5" x="142.68" y="268.22" width="0.71" height="3.16" transform="translate(-99.71 84.53) rotate(-24.72)"/><rect class="cls-1" x="80.4" y="276.58" width="61.02" height="6.7" transform="translate(-107.68 72.86) rotate(-24.94)"/><rect class="cls-4" x="132.61" y="263.38" width="11.08" height="7.76" transform="translate(-99.79 83.15) rotate(-24.93)"/><circle class="cls-5" cx="143.81" cy="271.49" r="0.98"/><rect class="cls-1" x="64.57" y="294.88" width="4.83" height="10.93" transform="translate(-120.34 56.21) rotate(-24.93)"/><rect class="cls-1" x="72.85" y="292.33" width="2.3" height="9.52" transform="translate(-118.28 58.84) rotate(-24.92)"/><rect class="cls-1" x="78.01" y="292.82" width="1.97" height="3.88" transform="translate(-116.92 60.79) rotate(-24.94)"/><path class="cls-2" d="M109.47,285.49l7.14-4.55c.19-1.12,1.22-2.05,2.36-3.26v-5.21l1.14-.54.83,5.12.3-.1-.59-5.86,1.2-.51.82,5.84.23-.13v-6.07l1.33-.42.24,5.82.25-.06.39-6,1.19-.33s1.42,8.4-.32,10.31-12.29,11.09-12.29,11.09Z"/><path class="cls-2" d="M69.63,272l.31,12.76c3,1.3,3.61,4.75,4.4,8.45l-1.82.62-1.8-5.22-.21.1,1.5,8-1.41.35-1.82-7-.23.07,1.76,8.38-1.23.47-2.67-8.25-.19,0,2.11,7.49-1.29.54-2.79-7.26-.18,0,1.44,5.79-1.2.78c-1.92-5-3.25-9.52-1.44-13.37l-1.46-9.22Z"/><path class="cls-2" d="M102.21,251.12a23.68,23.68,0,0,1-1.35,3.27c-.8,1.95-1.67,4.08-2.9,4.4-2.08.55-6.19-3.07-6.19-3.07l3.11-6.19S102.45,249.44,102.21,251.12Z"/><g class="cls-25"><path class="cls-4" d="M100.05,257.17a2.05,2.05,0,0,1-1.26-1.41l.34-.08a1.71,1.71,0,0,0,1.06,1.17Z"/></g><path class="cls-4" d="M99.76,254.23c-.2-.75-.41-1.09-1.18-1.12v-.35c1.08,0,1.33.68,1.51,1.38Z"/><polygon class="cls-4" points="101.26 252.73 100.78 253.26 98.08 250.95 98.38 250.69 101.26 252.73"/><circle class="cls-1" cx="95.42" cy="244.7" r="2.32"/><path class="cls-1" d="M102.21,251.12a3.47,3.47,0,0,1-2.74.87c-1.74,0-2.86-.42-4.54.88s-1.39,4-2.66,5.64-2.35,1.55-3.59,3.13c-.56.72-.44,2.12-.8,3.19a6.8,6.8,0,0,1-1.29,2.23l-12.78-6.4s.86-4.18,3.41-5.51,4.45-.6,5.72-1.51,1-2.29,3.33-3.13,3.12.26,4.7-.69,1.72-2.29,4.19-3.12c1.56-.53,2.23-.21,4,.65C101.5,248.46,102.39,249.57,102.21,251.12Z"/><path class="cls-5" d="M110.09,255.94l-1-.25c1-3.92,0-5.89-.73-6.75a2.46,2.46,0,0,1-2,.75,1.24,1.24,0,0,1-1-1.15,1.33,1.33,0,0,1,.63-1.34,2.22,2.22,0,0,1,2.23.25.86.86,0,0,0,.1-.16c.52-.89,1.43-3.34-1.45-6.64l.79-.69c3.34,3.81,2.21,6.77,1.57,7.87l-.2.31C109.93,249.14,111.18,251.44,110.09,255.94Zm-3.3-7.88a.55.55,0,0,0-.28.06s-.13.07-.1.3.09.23.13.24a1.42,1.42,0,0,0,1-.4A1.6,1.6,0,0,0,106.79,248.06Z"/><path class="cls-5" d="M115.89,263.9l-.15-1c4-.56,5.47-2.18,6-3.18a2.44,2.44,0,0,1-1.44-1.58,1.25,1.25,0,0,1,.71-1.33,1.29,1.29,0,0,1,1.47.09,2.22,2.22,0,0,1,.6,2.16l.18,0c1,.16,3.63.1,5.63-3.8l.94.48c-2.31,4.52-5.47,4.56-6.73,4.37l-.36-.07C122.14,261.23,120.47,263.25,115.89,263.9Zm5.81-6.27a.49.49,0,0,0-.19.06c-.19.1-.18.18-.17.22a1.43,1.43,0,0,0,.72.74,1.16,1.16,0,0,0-.23-1A.2.2,0,0,0,121.7,257.63Z"/><path class="cls-5" d="M114.82,257.73l-.61-.86c3.29-2.34,3.86-4.45,3.87-5.58a2.34,2.34,0,0,1-2-.75,1.23,1.23,0,0,1,0-1.5,1.3,1.3,0,0,1,1.35-.6,2.24,2.24,0,0,1,1.52,1.65l.17-.05c1-.33,3.28-1.58,3.27-6h1c0,5.07-2.78,6.56-4,7l-.35.11C119.16,252.5,118.6,255.06,114.82,257.73Zm2.38-8.25s-.13,0-.22.16-.08.24,0,.27a1.34,1.34,0,0,0,1,.32,1.17,1.17,0,0,0-.66-.75Z"/><rect class="cls-2" x="219.83" y="467.54" width="4.58" height="83.09" transform="translate(-161.48 107.4) rotate(-20.11)"/><rect class="cls-2" x="168.89" y="519.4" width="60.85" height="4.58" transform="translate(-339.65 668) rotate(-84.28)"/><rect class="cls-2" x="143.73" y="516.81" width="59.4" height="4.58" transform="translate(-370.91 576.04) rotate(-77.5)"/><rect class="cls-4" x="187.49" y="442.69" width="25.16" height="4.58" transform="translate(-273.89 560.72) rotate(-79.51)"/><polygon class="cls-5" points="184.27 441.21 219.84 441.21 207.29 492.45 172.72 490.69 184.27 441.21"/><path class="cls-2" d="M162.49,454.49l6.11,7.1,5.12-5s-.07-5,2.41-7.14a4.57,4.57,0,0,1,4.51-1.09l4.09,3.77-.5,1.51-3.32-1.1s-3.15,6.28-6.36,11.32c-2.14,3.33-4.3,6.12-5.6,6.17-5.87.24-10-5.3-10-5.3Z"/><polygon class="cls-2" points="118 523.69 115.27 530.1 117.82 535.9 124.69 531.49 127 526.85 118 523.69"/><path class="cls-1" d="M114.94,529.84l6,2.67c.71-1.47,1.87-2.12,4-.94l-1,2a2.42,2.42,0,0,0,.35,2.68l7.61,8.68a3.81,3.81,0,0,1,.55,4.21l-2.33,4.67-11.89-5.91-.24-1.65-1.14,1L108.42,543Z"/><g class="cls-26"><circle class="cls-4" cx="130.9" cy="550.4" r="8.07"/><rect class="cls-5" x="105.62" y="544.93" width="27.75" height="4.82" transform="translate(256.35 4.08) rotate(26.46)"/><path class="cls-4" d="M121.51,537.53a.7.7,0,0,1-.67-.47.71.71,0,0,1,.43-.9l4.17-1.45a.71.71,0,0,1,.46,1.34l-4.16,1.44A.66.66,0,0,1,121.51,537.53Z"/><path class="cls-4" d="M123.58,539.5a.7.7,0,0,1-.23-1.37l4.16-1.45a.71.71,0,0,1,.9.44.7.7,0,0,1-.44.89l-4.16,1.45A.62.62,0,0,1,123.58,539.5Z"/><path class="cls-4" d="M125.65,541.47a.71.71,0,0,1-.23-1.38l4.16-1.44A.7.7,0,1,1,130,540l-4.16,1.45A.85.85,0,0,1,125.65,541.47Z"/></g><polygon class="cls-2" points="146 530.18 146.41 537.14 151.27 541.19 155.46 534.18 155.46 529 146 530.18"/><polygon class="cls-5" points="112.05 525.74 131.69 530.57 140.96 498.02 123.96 494.45 112.05 525.74"/><polygon class="cls-5" points="141.63 532.49 160.74 532.35 159.03 500.73 142.94 498.91 141.63 532.49"/><path class="cls-2" d="M124.6,468.53l-3.2,3.29-4.93-1.9c-1.47-3.83.66-6.91,3.14-11l7.83,3.17-3.25,4.44Z"/><polygon class="cls-1" points="154.26 435.94 156.09 439.77 153.79 439.77 154.26 435.94"/><polygon class="cls-2" points="139.89 448.32 145.5 438.01 150.93 439.46 150.15 448.61 144.35 449.7 139.89 448.32"/><g class="cls-27"><polygon class="cls-4" points="150.68 445.4 147.33 442.94 147.81 441.56 151.1 442.42 150.68 445.4"/></g><path class="cls-2" d="M141.12,446.4c2.84.33,5.32.29,9.17,1s-.44,3.93-.44,3.93l-9.64-1.77S138.27,446.08,141.12,446.4Z"/><path class="cls-2" d="M154.81,433.13a38.37,38.37,0,0,1-.46,5.61c-.29,2.18-.69,4.37-1.95,4.72a5.85,5.85,0,0,1-4.29-.79,13.2,13.2,0,0,1-2.44-1.63l.29-8.71,4.28-.68S154.65,431.45,154.81,433.13Z"/><g class="cls-28"><path class="cls-4" d="M155,440.69a6.24,6.24,0,0,1-2.59-.87l.17-.3a6,6,0,0,0,2.42.82Z"/></g><path class="cls-4" d="M144.12,440.57l1.75-3.26,2.75.14a4.44,4.44,0,0,0,.53-2.28c0-1.64.71-2.4,1.58-2.69,1.23-.41,3,1.24,4,.35.09-1.78-2-2.71-4.48-3.2-2.21-.44-5.44-.44-6.6,2.73a11,11,0,0,0-.64,6.35A3.84,3.84,0,0,0,144.12,440.57Z"/><path class="cls-2" d="M145.69,435.65h0a1.71,1.71,0,0,1,1.71,1.71v2.16a0,0,0,0,1,0,0h-1.25a2.16,2.16,0,0,1-2.16-2.16v0A1.71,1.71,0,0,1,145.69,435.65Z"/><polygon class="cls-4" points="146.12 438.29 145.09 437.01 145.36 436.79 146.39 438.06 146.12 438.29"/><path class="cls-3" d="M151.21,435.56a2.22,2.22,0,0,1,2.68,1.8C152.5,437.49,151.57,437.53,151.21,435.56Z"/><g class="cls-29"><circle class="cls-4" cx="153.3" cy="436.99" r="0.93"/></g><path class="cls-4" d="M154.43,434.76l-.17.74a18.85,18.85,0,0,0-3.34-.51v-.47A3.92,3.92,0,0,1,154.43,434.76Z"/><path class="cls-1" d="M140.82,446.35s1.3,1.91,4.73,2.07,4.77-1,4.77-1c9,1.44,14.06,5.59,18.6,12.33l-7.06,8.86-9.1-7.81-19-1.78-6.05,5.72-9.38-5.68C122.84,452,128.23,446.57,140.82,446.35Z"/><path class="cls-4" d="M134,446.88l3-.43,0,8.69L153.2,457l1.48-8.64,2.6.86c.07,17.31.86,32.47,2.05,55.91l-37-3.85C127.43,479.28,132.54,457.25,134,446.88Z"/><path class="cls-2" d="M130.12,483.23l-2.37,1.65-1.84-9.23C129.22,477.94,129.26,479.91,130.12,483.23Z"/><path class="cls-1" d="M110.25,484.2c6-6.55,9-1.13,14.31-2.32s10.35-4.77,14.35,1.65c4.85,7.79,2.65,20.52-12.68,23.17C107.05,510,105,490,110.25,484.2Z"/><path class="cls-2" d="M124.6,468.53l-8.13,1.39,3.61,8.47c-1.56,3.54,0,7.1,1.24,10.19l1.2-.24-1.3-6.09.12,0,2.23,7.32,1.13-.24-1.38-7.19.15-.05,2,7.52,1.33-.32-1.37-7.52.12,0,1.66,6.12,1.18-.28Z"/><ellipse class="cls-5" cx="113.54" cy="491.63" rx="3.27" ry="2.9" transform="translate(-387.73 549.2) rotate(-83.55)"/><ellipse class="cls-5" cx="134.44" cy="491.35" rx="3.27" ry="2.9" transform="translate(-368.9 569.72) rotate(-83.55)"/><ellipse class="cls-4" cx="129.04" cy="500.28" rx="3.27" ry="2.9" transform="translate(-189.12 93.21) rotate(-23.55)"/><ellipse class="cls-2" cx="117.67" cy="500.3" rx="2.9" ry="3.27" transform="translate(-391.69 431.77) rotate(-69.1)"/><path class="cls-1" d="M123.59,519.34a3.67,3.67,0,0,0-1.36,2.14,1.82,1.82,0,0,0,.12,1.28,1.46,1.46,0,0,0,1.41.63,2.46,2.46,0,0,0,1.4-.78c.4-.43.73-1,1.28-1.16.27-.09.57-.08.86-.15a1.52,1.52,0,0,0,1.09-1.15,1.54,1.54,0,0,0-.56-1.49,2.28,2.28,0,0,0-2-.13A6.17,6.17,0,0,0,123.59,519.34Z"/><path class="cls-2" d="M144.37,486.1a2.36,2.36,0,0,1,1.71-.33,15.14,15.14,0,0,1,1.74.41,3.33,3.33,0,0,0,1.77,0,7,7,0,0,1,1.31-.46,1.58,1.58,0,0,1,1.22.49,2.74,2.74,0,0,1,.64,1.17,4.23,4.23,0,0,1-5.23,5.25,2.18,2.18,0,0,1-.91-.46,1.17,1.17,0,0,1-.41-.9c0-.47.41-.89.36-1.36a1.15,1.15,0,0,0-.73-.87c-.37-.17-.77-.24-1.13-.41A1.47,1.47,0,0,1,144.37,486.1Z"/><path class="cls-1" d="M150.43,469.19a1.12,1.12,0,0,0,1,.7,1.22,1.22,0,0,0,1.05-1,2.92,2.92,0,0,0-.15-1.52c-.19-.66-.81-1.3-1.36-.57A2.56,2.56,0,0,0,150.43,469.19Z"/><path class="cls-5" d="M140.68,461.32a7.44,7.44,0,0,1-2.62.76,8.56,8.56,0,0,0-1.34,0,1.85,1.85,0,0,0-1.4,1.19,1.87,1.87,0,0,0,.35,1.8,3.19,3.19,0,0,0,1.53.83,6.59,6.59,0,0,1,1.63.64c.55.37.93.93,1.47,1.31a2.55,2.55,0,0,0,1.88.4,2.57,2.57,0,0,0,1.63-1,4,4,0,0,0,.61-2.41c0-.84-.13-1.68-.07-2.51s-.11-1.54-1-1.5A7.91,7.91,0,0,0,140.68,461.32Z"/><path class="cls-1" d="M146,537.05l6.55-.28c0-1.64.72-2.73,3.18-2.63v2.19a2.43,2.43,0,0,0,1.51,2.24L167.92,543a3.81,3.81,0,0,1,2.37,3.52v5.22H157l-.95-1.36-.59,1.36H146Z"/><g class="cls-30"><circle class="cls-4" cx="169.45" cy="548.35" r="8.07"/><rect class="cls-5" x="144" y="548.28" width="27.75" height="4.82"/><path class="cls-4" d="M155,541.08a.74.74,0,0,1-.5-.2.71.71,0,0,1,0-1l3.08-3.14a.7.7,0,1,1,1,1l-3.08,3.15A.7.7,0,0,1,155,541.08Z"/><path class="cls-4" d="M157.72,541.92a.74.74,0,0,1-.5-.2.72.72,0,0,1,0-1l3.09-3.15a.7.7,0,1,1,1,1l-3.08,3.15A.7.7,0,0,1,157.72,541.92Z"/><path class="cls-4" d="M160.45,542.76a.7.7,0,0,1-.5-1.2l3.08-3.15a.71.71,0,0,1,1,0,.72.72,0,0,1,0,1L161,542.55A.7.7,0,0,1,160.45,542.76Z"/></g><rect class="cls-4" x="178.61" y="439.12" width="1.41" height="21.47" transform="translate(-258.72 243.35) rotate(-43.03)"/><path class="cls-2" d="M175.7,458.58l.58.18c3.77,1.69,4.83-1.1,6.94-5.15l-1.52-.95Z"/><path class="cls-1" d="M189.52,456.35c.9,1.12,2.49,7,2.49,7s-6.2-2.14-7.09-3.26a3,3,0,0,1,4.6-3.7Z"/><rect class="cls-1" x="168.17" y="489.38" width="44.94" height="4.98" transform="translate(29.43 -10.41) rotate(3.39)"/><circle class="cls-4" cx="186.26" cy="479.78" r="1.6"/><path class="cls-2" d="M202.11,444.69c-.73,1.57-4.49,1.42-5.09-.21.6,1.63-2.16,4.18-3.73,3.45,1.57.73,1.42,4.49-.21,5.08,1.63-.59,4.18,2.17,3.45,3.74.73-1.57,4.49-1.42,5.08.2-.59-1.62,2.17-4.17,3.74-3.44-1.57-.73-1.42-4.49.21-5.09C203.93,449,201.38,446.26,202.11,444.69Z"/><path class="cls-1" d="M194.81,474.59l-.73-1.2a7.56,7.56,0,0,0,3.79-4.76,2.78,2.78,0,0,1-.89-.55,2.07,2.07,0,0,1-.34-2.95,1.23,1.23,0,0,1,1.33-.45c.71.2,1.22,1,1.38,2.19a5.09,5.09,0,0,1,0,.56,4.41,4.41,0,0,0,2.57-1.51,7.48,7.48,0,0,0,1.6-2.33,3.24,3.24,0,0,1-1.39-.69,1.76,1.76,0,0,1-.45-2.44,1.6,1.6,0,0,1,1.57-.54,2.35,2.35,0,0,1,1.76,1.64,3.1,3.1,0,0,1,.12.62,6.7,6.7,0,0,0,3.19-2.11l1,1a7.57,7.57,0,0,1-4.37,2.62,8.08,8.08,0,0,1-2,3.23,5.56,5.56,0,0,1-3.73,2A9,9,0,0,1,194.81,474.59Zm2.85-8.45a.74.74,0,0,0,.26.89l0,0A2.33,2.33,0,0,0,197.66,466.14Zm5.3-4.84a.16.16,0,0,0-.14.05s0,.27.27.49a1.85,1.85,0,0,0,.66.34c0-.07,0-.13,0-.18a1,1,0,0,0-.68-.7Z"/><path class="cls-4" d="M146.51,511.52a1.33,1.33,0,0,0,.07,1.3,1.7,1.7,0,0,0,1.25.54,2.69,2.69,0,0,0,1.13-.08,1.65,1.65,0,0,0,.27-3A2,2,0,0,0,146.51,511.52Z"/><polygon class="cls-2" points="960.29 521.61 964.46 528.37 969.26 536.02 974.32 528.62 970.2 517.42 960.29 521.61"/><path class="cls-1" d="M964.16,528.4c.21-.64.45-1.42,3.41-1s.3,4.54,2.84,4.59c1.18,0,2.46-3,3.91-3.4,1.81,6.35,3,11.8,2.6,14.66l-28.23,1.2s-.63-5.88,3.1-7.78,10.11-3.73,11-5A10.46,10.46,0,0,0,964.16,528.4Z"/><g class="cls-31"><circle class="cls-5" cx="978.42" cy="537.62" r="7.45"/><path class="cls-5" d="M949.9,535.89a25,25,0,0,0,10.67,3.85l-14,4.24-.26-8.09Z"/><path class="cls-4" d="M947.65,540.45s3.69.91,5.52.6,5.92-2.44,8.23-2.33,3.13.95,4.46.62,3.9-2.49,6.46-2.49,6,.38,6,.38l1.24,8.29-32.89,1Z"/><path class="cls-4" d="M965.13,530c-1.07-1.44-2.6-2-3.41-1.2a1.39,1.39,0,0,0-.36.55h-.05a1.88,1.88,0,0,0-1.07,1.47,1.54,1.54,0,0,0-1.51-.49c-1,.34-1.47,2.08-1,3.89s1.67,3,2.69,2.67a1.37,1.37,0,0,0,.77-.68.73.73,0,0,1,.94-.35,1.25,1.25,0,0,0,.87,0,1.62,1.62,0,0,0,.94-1,.79.79,0,0,1,.73-.52,1.32,1.32,0,0,0,.94-.35C966.42,533.2,966.21,531.4,965.13,530Z"/></g><polygon class="cls-2" points="930.71 503.69 931.61 509.9 936.42 517.55 941.47 510.15 940.42 502.31 930.71 503.69"/><path class="cls-2" d="M941.65,438.14l1.2.32,1.91,8.11,9.7-.09,2.33,6.24L953,455s-13.32-.8-14.37-2.27-1.39-11.07-1.39-11.07l1.76-3Z"/><path class="cls-2" d="M981.74,449.91l4.5,4.58,5.67-9.76,5.11,4.65s-6.23,14.72-9.57,15.24-13.29-6.76-13.29-6.76l2.59-8.48Z"/><circle class="cls-1" cx="989.14" cy="428.92" r="3.72"/><circle class="cls-4" cx="970.14" cy="417.36" r="3.72"/><circle class="cls-5" cx="947.54" cy="424.79" r="3.72"/><path class="cls-2" d="M959.52,446.83c2.72,0,12.53.42,15.91.67s-5.78,11.12-5.78,11.12l-13.06-3.23S956.79,446.83,959.52,446.83Z"/><polygon class="cls-2" points="964.4 449.38 964.55 441.2 969.8 440.45 971.5 448.38 964.4 449.38"/><g class="cls-32"><polygon class="cls-4" points="971.1 444.3 966.92 444.3 967.05 442.7 970.03 440.82 971.1 444.3"/></g><path class="cls-2" d="M960.77,435.29a38.88,38.88,0,0,0,1.45,5.63,4.64,4.64,0,0,0,5.5,2.83c2.65-.49,3.88-2.23,3.38-5.27-.44-2.64-1.67-6.79-1.67-6.79Z"/><path class="cls-4" d="M966.59,441.05a2.2,2.2,0,0,1-.81-.15l.12-.33a2.24,2.24,0,0,0,2.41-.66l.27.22A2.64,2.64,0,0,1,966.59,441.05Z"/><circle class="cls-1" cx="966.66" cy="438.62" r="1.08"/><polygon class="cls-4" points="966.3 435.22 966.52 436.06 969.29 435.29 969.15 434.79 966.3 435.22"/><polygon class="cls-4" points="964.94 435.63 965.15 436.44 962.38 437.21 962.23 436.71 964.94 435.63"/><path class="cls-4" d="M969.74,431.69a19.62,19.62,0,0,1,1.56,5.85l-.93.13-1.5-4.95-.26-.87Z"/><polygon class="cls-4" points="961.43 434.57 962.56 439.49 961.64 439.69 960.33 435.28 961.43 434.57"/><path class="cls-4" d="M961.12,439.7s-.45-1.22-.91-2.82c-.3-1.05-.63-2.15-.23-2.82s1.11-.72,1.7-1.33.13-1.18,1.18-1.84,1.35,0,2.32-.49c.6-.3.52-1.06,2.39-1.67a2.11,2.11,0,0,1,2.74,2.74c-.49,1.2-2.2,1-3,1.34s-1.12,1.3-2.18,1.76-2,.29-2.79.67S962,437,962,437l-.35,2.69Z"/><path class="cls-2" d="M961.27,441.67l1.5-.19-1.24-3-.65.13a1.55,1.55,0,0,0-1.34,1.72h0A1.55,1.55,0,0,0,961.27,441.67Z"/><polygon class="cls-4" points="961.72 440.4 960.38 440.32 960.4 439.97 961.74 440.05 961.72 440.4"/><path class="cls-2" d="M972.37,438.51l-1.29.49-.53-3.21.78-.18a1.55,1.55,0,0,1,2,.94h0A1.53,1.53,0,0,1,972.37,438.51Z"/><polygon class="cls-4" points="971.21 437.61 971.04 437.3 972.4 436.51 972.58 436.81 971.21 437.61"/><path class="cls-4" d="M968.23,437.51a1.26,1.26,0,0,1-.33-.05,1,1,0,0,1-.64-.74l.34-.07a.61.61,0,0,0,.41.47.83.83,0,0,0,.77-.17.55.55,0,0,0,.17-.57l.35-.08a.93.93,0,0,1-.29.91A1.15,1.15,0,0,1,968.23,437.51Z"/><path class="cls-4" d="M964,438.68a.92.92,0,0,1-.29,0,.91.91,0,0,1-.66-.69l.34-.08a.56.56,0,0,0,.41.43.81.81,0,0,0,.76-.2.58.58,0,0,0,.15-.6l.34-.09a.92.92,0,0,1-.24.94A1.16,1.16,0,0,1,964,438.68Z"/><path class="cls-5" d="M953,464.92s5.56,3.68,5.86,4,10.61,1.28,10.61,1.28l5.68-11.86c1.35-5.11,3.33-8.5,6.61-8.41a9.54,9.54,0,0,0-7-2.5s-5.16,8.25-11.14,6.95-3-7.63-3-7.63a53,53,0,0,0-6.12-.27c1.18,3.51.11,6.13-1.47,8.53Z"/><path class="cls-2" d="M991.91,444.73l1.17,5.44,3.94-.79c5.57,1.68,8.45,0,10.55-5.74l-1-1.08-3.11,3.93-.1-.13,3.57-5-.61-.61-3.92,4.64-.1-.11,3.95-4.91-.83-.73-4.2,4.65-.1-.09,3.65-4.35-.88-.77-4.17,4.06-1.14-.24,3-3.1-1.25-1-4.58,3.78C994.3,442.28,993,442.81,991.91,444.73Z"/><path class="cls-2" d="M942.85,438.46l-5.63,3.19-.45-2.57c-5.63-1.95-7.56-6.06-5.29-11.74l1.45-.15-.3,5,.16,0,.66-6.11.87-.05-.18,6.07h.15l.33-6.29h1.11l0,6.28h.13l.18-5.68h1.17l.4,5.81,1,.58-.15-4.3,1.59.11.89,5.87C942.27,435.18,942.81,436.47,942.85,438.46Z"/><path class="cls-4" d="M959.59,524,977,517.4c-2.71-10-5.56-19.4-9.06-25.62a171.63,171.63,0,0,0,1.5-21.6l-16.47,4s-2.76,8.15-2.6,11.29,1.54,4.07,1.3,6.23-2.79,3.83-2.3,8.51,6.24,6.36,6.71,8.5-2.38,5.13-1.5,8S959.59,524,959.59,524Z"/><g class="cls-33"><path class="cls-5" d="M962.63,494.22c-1.39,3-8.58,2.73-9.72-.39,1.14,3.12-4.14,8-7.15,6.6,3,1.39,2.72,8.58-.39,9.73,3.11-1.15,8,4.14,6.6,7.15,1.39-3,8.58-2.72,9.72.39-1.14-3.11,4.14-8,7.16-6.6-3-1.39-2.73-8.58.38-9.73C966.12,502.52,961.24,497.23,962.63,494.22Z"/><path class="cls-5" d="M980.09,474.1c-1.39,3-8.58,2.72-9.72-.39,1.14,3.11-4.14,8-7.16,6.6,3,1.39,2.73,8.58-.38,9.73,3.11-1.15,8,4.14,6.6,7.15,1.39-3,8.58-2.72,9.72.39-1.14-3.11,4.14-8,7.15-6.6-3-1.39-2.72-8.58.39-9.73C983.58,482.4,978.7,477.11,980.09,474.1Z"/></g><path class="cls-1" d="M927.76,505.77l17.27-.6a26.83,26.83,0,0,0,1.05-8.9c-.38-3.85-2.71-6.46-2.56-7.85s2-3.08,2.33-5.25-1.8-5-1.8-5c11.33,2,22.12,2.81,25.56-8.08,0,0-5.59-4.61-18.5-6.26-9.31-1.19-16.51-1.06-19.46,1.94-3.32,3.38-1.63,8.79-2.74,14.14-.62,3-2.2,3.67-2.13,7.27s2.37,5.48,2.18,7.28-2.63,3.57-2.93,6.61A5.44,5.44,0,0,0,927.76,505.77Z"/><g class="cls-34"><path class="cls-4" d="M969.11,449.17c-1.39,3-8.58,2.73-9.72-.39,1.14,3.12-4.14,8-7.16,6.61,3,1.39,2.73,8.57-.39,9.72,3.12-1.15,8,4.14,6.61,7.15,1.39-3,8.58-2.72,9.72.39-1.14-3.11,4.14-8,7.15-6.6-3-1.39-2.72-8.58.39-9.72C972.6,457.47,967.72,452.18,969.11,449.17Z"/><path class="cls-4" d="M949,446.76c-1.39,3-8.58,2.73-9.72-.39,1.14,3.12-4.14,8-7.15,6.6,3,1.4,2.72,8.58-.39,9.73,3.11-1.15,8,4.14,6.6,7.15,1.39-3,8.58-2.72,9.72.39-1.14-3.11,4.14-8,7.16-6.6-3-1.39-2.73-8.58.39-9.73C952.49,455.06,947.61,449.77,949,446.76Z"/><path class="cls-4" d="M936.24,473.06c-1.39,3-8.58,2.72-9.73-.39,1.15,3.11-4.14,8-7.15,6.6,3,1.39,2.73,8.58-.39,9.72,3.12-1.14,8,4.14,6.6,7.15,1.4-3,8.58-2.72,9.73.39-1.15-3.11,4.14-8,7.15-6.6-3-1.39-2.72-8.58.39-9.72C939.73,481.35,934.85,476.07,936.24,473.06Z"/></g><path class="cls-1" d="M931.31,509.93c.21-.64.45-1.42,3.41-1s.3,4.54,2.85,4.59c1.17,0,2.46-3,3.9-3.4,1.82,6.35,3,11.8,2.6,14.66L915.84,526s-.62-5.88,3.11-7.78,10.11-3.73,11-5A10.23,10.23,0,0,0,931.31,509.93Z"/><g class="cls-35"><circle class="cls-5" cx="945.57" cy="519.15" r="7.45"/><path class="cls-5" d="M917.06,517.42a25,25,0,0,0,10.66,3.85l-14,4.24-.27-8.09Z"/><path class="cls-4" d="M914.81,522s3.69.9,5.51.6,5.92-2.44,8.23-2.33,3.14,1,4.46.62,3.91-2.49,6.46-2.49,6,.38,6,.38l1.24,8.29-32.88,1Z"/><path class="cls-4" d="M932.29,511.49c-1.08-1.44-2.61-2-3.42-1.2a1.37,1.37,0,0,0-.35.55h-.06a1.9,1.9,0,0,0-1.07,1.47,1.53,1.53,0,0,0-1.51-.49c-1,.34-1.47,2.08-1,3.89s1.67,3,2.69,2.67a1.42,1.42,0,0,0,.78-.68.73.73,0,0,1,.94-.35,1.22,1.22,0,0,0,.86,0,1.66,1.66,0,0,0,1-1,.77.77,0,0,1,.73-.52,1.32,1.32,0,0,0,.93-.35C933.58,514.73,933.36,512.93,932.29,511.49Z"/></g><polygon class="cls-2" points="985.07 162.43 982.94 173.5 992.12 174.06 995.31 162.26 985.07 162.43"/><path class="cls-1" d="M978.78,183.33H994.7a10.55,10.55,0,0,0-2.92-6.51l.58-3.62-2.71,0a2.31,2.31,0,1,0-4.6,0l-2-.19-.49,2.65C979.87,178.62,978.85,181.17,978.78,183.33Z"/><g class="cls-36"><circle class="cls-4" cx="986.58" cy="186.32" r="9.02"/></g><rect class="cls-5" x="977.08" y="182.73" width="19.27" height="5.7" rx="2.85"/><path class="cls-4" d="M989.84,175h-5.53a.53.53,0,0,1,0-1.05h5.53a.53.53,0,1,1,0,1.05Z"/><path class="cls-4" d="M989.84,176.74h-5.53a.53.53,0,0,1,0-1.06h5.53a.53.53,0,0,1,0,1.06Z"/><rect class="cls-1" x="956.59" y="168.66" width="37.98" height="2.82" transform="translate(616.98 1093.16) rotate(-78.66)"/><rect class="cls-1" x="998.93" y="151.08" width="2.82" height="37.98" transform="translate(-13.92 199.94) rotate(-11.34)"/><path class="cls-1" d="M1008.54,153.4H967.37a2.82,2.82,0,0,1,0-5.64h41.17a2.82,2.82,0,1,1,0,5.64Z"/><polygon class="cls-4" points="998.23 146.67 974.85 146.67 971.46 119.38 1000.69 116.79 998.23 146.67"/><path class="cls-4" d="M977.76,169.41l17.65.55,12.53-30.36a8,8,0,0,0-6.82-11h0a8,8,0,0,0-7.85,4.79Z"/><path class="cls-2" d="M980.37,98.57c2.49-.82,6.65-1,11.32-1s.24,2.9.24,2.9l-10.16,2.29S977.88,99.38,980.37,98.57Z"/><path class="cls-2" d="M981.39,99.18c0-.1,2.46-8.32,2.46-8.32l5,.47.82,7.85Z"/><g class="cls-37"><polygon class="cls-4" points="989.65 96.25 985.25 94.49 985.88 93.08 989.11 92.86 989.65 96.25"/></g><path class="cls-2" d="M993.83,87.89c-.81,4.16-2.75,6.62-7.39,6-2.37-.3-4.59-3.87-4.33-7.2a14.55,14.55,0,0,1,2.49-6.26l7.95,1.1S994.65,83.73,993.83,87.89Z"/><path class="cls-2" d="M992.69,91.4l-.45-.23,2-3.88.44.23a2.18,2.18,0,0,1,1,2.92h0A2.18,2.18,0,0,1,992.69,91.4Z"/><path class="cls-4" d="M993.92,88.21l-.8-.37s.68-3.27.09-3.82-1.18-.17-1.6-.44-.22-.81-.79-1.16-1.1,0-1.71-.28c-.78-.32-.61-1-1.3-1.18a2.82,2.82,0,0,0-1.33,0l-.72-3.42a3,3,0,0,1,2.06-1.16c1.37-.08,1.84.77,2.28,1s1.3-.29,2.26.34c.72.48.51,1.23.78,1.56s.82.17,1.43,1-.27,1.62,0,2.15a2.38,2.38,0,0,1,.55,1.63A18.16,18.16,0,0,1,993.92,88.21Z"/><polygon class="cls-4" points="993.6 89.94 993.58 89.59 995.04 89.5 995.06 89.85 993.6 89.94"/><polygon class="cls-1" points="987.61 84.99 988.28 88.43 986.21 88.23 987.61 84.99"/><path class="cls-3" d="M992.52,86.15c-1.67-1.24-2.82-.87-3.63.56A2.77,2.77,0,0,0,992.52,86.15Z"/><g class="cls-38"><circle class="cls-4" cx="989.91" cy="86.14" r="1.15"/></g><path class="cls-4" d="M987.54,90.49a4,4,0,0,1-1.66-.28l.15-.32a4.87,4.87,0,0,0,2.36.21l0,.35C988.11,90.48,987.81,90.49,987.54,90.49Z"/><path class="cls-5" d="M971.91,78.47l14.18-2.63a72.45,72.45,0,0,1,1.13,7.73c.35,4.78-1,9.68-6,10.36s-7.38-3.1-8.23-7.64C972.33,82.74,971.91,78.47,971.91,78.47Z"/><path class="cls-4" d="M977.94,88.06,983.18,87a3.63,3.63,0,0,1-2.58,2.08A2.36,2.36,0,0,1,977.94,88.06Z"/><path class="cls-4" d="M985.25,82.08a4.76,4.76,0,0,1-3.89,2.52Q981.65,80.91,985.25,82.08Z"/><path class="cls-4" d="M974.39,83.92A4.76,4.76,0,0,0,978.9,85C977.91,82.76,976.4,82.39,974.39,83.92Z"/><path class="cls-4" d="M979.67,84.17l.24,0s1.19,2,1.14,2.07-1.39.23-1.39.23Z"/><path class="cls-5" d="M967.37,101.86c4.91-1.35,9.74-2.66,13.53-3.45a7.74,7.74,0,0,0,5.18.83c3-.55,3.87-1.7,3.87-1.7,11.61-1.39,14.23,2.35,15.15,8.29.46,3,.93,6.64,1.3,10.18l-9.17,7.19H975Z"/><g class="cls-39"><path class="cls-1" d="M1011.41,104.9c3.93-4.13-4.61-6.87-3.66-1.17-1-5.7-8.42-.74-3.2,2.13-5.22-2.87-6,6.07-.33,3.82-5.67,2.25.83,8.42,2.79,2.65-2,5.77,6.93,4.54,3.8-.53,3.13,5.07,7.7-2.64,2-3.3C1018.51,109.16,1015.34,100.77,1011.41,104.9Z"/><path class="cls-1" d="M980.87,91.26c3.92-4.14-4.62-6.88-3.66-1.18-1-5.7-8.43-.74-3.2,2.13-5.23-2.87-6,6.07-.34,3.83-5.66,2.24.84,8.42,2.79,2.64-2,5.78,6.93,4.54,3.81-.53,3.12,5.07,7.7-2.64,2-3.3C988,95.51,984.79,87.12,980.87,91.26Z"/><path class="cls-1" d="M990.2,105c3.92-4.13-4.62-6.88-3.66-1.18-1-5.7-8.43-.74-3.2,2.13-5.23-2.87-6,6.07-.34,3.83-5.66,2.24.84,8.42,2.79,2.64-1.95,5.78,6.93,4.54,3.81-.52,3.12,5.06,7.7-2.65,2-3.31C997.3,109.24,994.12,100.86,990.2,105Z"/><path class="cls-1" d="M984.93,122.31c3.92-4.13-4.61-6.87-3.66-1.17-.95-5.7-8.42-.74-3.2,2.13-5.22-2.87-6,6.07-.33,3.82-5.67,2.25.83,8.43,2.78,2.65-1.95,5.78,6.93,4.54,3.81-.53,3.12,5.07,7.7-2.64,2-3.3C992,126.57,988.85,118.18,984.93,122.31Z"/></g><polygon class="cls-2" points="971.05 131.18 971.8 138.82 980.44 137.49 978.8 130.16 971.05 131.18"/><path class="cls-1" d="M957.31,148.34l25.9-3.42-2-9.2-6.08,1c-.65-1.39-1.9-1.67-3.65-1v2.55L960,143.81a4.61,4.61,0,0,0-2.61,3.8Z"/><g class="cls-40"><path class="cls-4" d="M971.84,142.39a.53.53,0,0,1-.44-.23l-2.52-3.69a.51.51,0,0,1,.14-.73.52.52,0,0,1,.73.13l2.53,3.69a.54.54,0,0,1-.14.74A.55.55,0,0,1,971.84,142.39Z"/><path class="cls-4" d="M973.88,139.35a.54.54,0,0,1-.25-.06l-3.3-1.74a.53.53,0,0,1,.49-.94l3.3,1.74a.53.53,0,0,1,.22.72A.51.51,0,0,1,973.88,139.35Z"/><circle class="cls-4" cx="961.27" cy="146.67" r="7.11"/></g><path class="cls-5" d="M984.17,146.15l.07.48a1.68,1.68,0,0,1-1.46,1.89l-24.57,2.92a1.68,1.68,0,0,1-1.87-1.52h0a1.68,1.68,0,0,1,1.44-1.8l24.5-3.41A1.68,1.68,0,0,1,984.17,146.15Z"/><path class="cls-4" d="M965.32,136l16.07-2.64-7.27-21.44-11.94,1.84C960.35,114.52,962.65,124.8,965.32,136Z"/><path class="cls-2" d="M963.55,94.79l2.87,2.46,3.34-1.35.27-.6a4.37,4.37,0,0,0,3.42-3.37L976.58,89l-.6-.87-4.56,3.09-.12-.16,5.53-4.41-.43-.88-6,3.89-.09-.22,6-4.16-.66-.67-6.52,3.66-.16-.14L975,84.36l-.89-1.14-8,4.07Z"/><path class="cls-5" d="M976.1,113.51c-19.85,9.62-18.28-2.05-12.69-18.83l6.35,1.22-.62,6Z"/><g class="cls-41"><path class="cls-1" d="M965.52,111.31c3.92-4.13-4.62-6.87-3.66-1.18-1-5.69-8.43-.73-3.2,2.13-5.23-2.86-6,6.07-.34,3.83-5.66,2.24.84,8.42,2.79,2.65-2,5.77,6.93,4.54,3.81-.53,3.12,5.07,7.7-2.64,2-3.31C972.62,115.57,969.44,107.18,965.52,111.31Z"/><path class="cls-1" d="M961.79,91.62c3.92-4.13-4.62-6.87-3.66-1.17-1-5.7-8.42-.74-3.2,2.13-5.22-2.87-6,6.07-.34,3.82-5.66,2.25.84,8.43,2.79,2.65-2,5.78,6.93,4.54,3.81-.53,3.12,5.07,7.7-2.64,2-3.3C968.89,95.88,965.71,87.49,961.79,91.62Z"/></g><path class="cls-2" d="M990.17,128l-3,3.8c-4,0-5.72,1.5-8,6l1.31,1,3.26-3.08.17.09-5.09,6.54,1.06,1,5.32-5.46.11.1-5.52,6.43,1,.75,5.91-5.78.13.12-5.48,6,.92.67,6-5.49.13.09-3.83,4.4.83,1c3.81-3,7.15-6.12,7.45-10.26l2.75-3.07Z"/><path class="cls-5" d="M995.05,111.32c4.32,2.7,8.41,4.91,11.35,4.69,0,0,.86,6.36-1.68,9.35s-10.89,10.12-10.89,10.12l-5.72-6.62,8.6-7.57Z"/><g class="cls-42"><path class="cls-1" d="M998.76,118.36c3.93-4.13-4.61-6.87-3.66-1.17-1-5.7-8.42-.74-3.2,2.12-5.22-2.86-6,6.07-.33,3.83-5.67,2.24.83,8.42,2.78,2.65-2,5.77,6.94,4.54,3.81-.53,3.13,5.07,7.7-2.64,2-3.3C1005.86,122.62,1002.69,114.23,998.76,118.36Z"/></g><polygon class="cls-4" points="968.57 109.28 968.22 109.25 969.32 98.45 969.67 98.49 968.57 109.28"/><polygon class="cls-4" points="996.53 121.31 994.88 110.25 995.23 110.2 996.88 121.26 996.53 121.31"/><polygon class="cls-4" points="989.09 84.04 988.91 84.84 991.79 84.93 992.69 85.23 992.83 84.83 991.89 84.32 989.09 84.04"/><polygon class="cls-1" points="150.49 644.05 147.9 689.54 171.71 691.81 176.28 654.43 150.49 644.05"/><polygon class="cls-4" points="148.39 647.82 176.28 654.43 171.77 691.29 145.87 691.16 148.39 647.82"/><path class="cls-4" d="M34.76,641.35a3.31,3.31,0,0,0-1,1.61.75.75,0,0,1-.89.54,3.32,3.32,0,0,0-3.2,1.07,3.23,3.23,0,0,0-.68,1.26.76.76,0,0,1-.89.54,3.29,3.29,0,0,0-3.19,1.06,3.17,3.17,0,0,0-.68,1.26.75.75,0,0,1-.89.54,3.31,3.31,0,0,0-3.2,1.06,3.49,3.49,0,0,0-.68,1.27.74.74,0,0,1-.89.53,3.28,3.28,0,0,0-3.37,1.3,3.33,3.33,0,0,0,.44,4.36,3.29,3.29,0,0,0,4.73-.27L39.4,646a3.3,3.3,0,0,0-4.64-4.68Z"/><polygon class="cls-2" points="40.35 666.35 31.73 653.64 40.23 647.67 48.81 660.83 40.35 666.35"/><path class="cls-1" d="M16.22,658.16,40,645l4.85,8.47a4.47,4.47,0,0,1-4.7-.22l-2.27,1.59c.73,2.25-.2,4.06-1.72,5.72l-2.31-3.1-13.48,2.3a4.2,4.2,0,0,1-3.94-1.46Z"/><g class="cls-43"><circle class="cls-5" cx="27.45" cy="650.55" r="3.63"/><circle class="cls-5" cx="31.87" cy="648.54" r="3.63"/><circle class="cls-5" cx="38.52" cy="647.54" r="4.38"/><circle class="cls-5" cx="20.3" cy="659.88" r="5.38"/><path class="cls-5" d="M29.24,654.58H33a.78.78,0,0,1,.78.78v6.73a0,0,0,0,1,0,0H28.47a0,0,0,0,1,0,0v-6.73A.78.78,0,0,1,29.24,654.58Z" transform="translate(-138.98 21.59) rotate(-12.25)"/></g><path class="cls-4" d="M79,636.56a3.26,3.26,0,0,0-1.9.28.75.75,0,0,1-1-.33,3.31,3.31,0,0,0-4.3-1.4.76.76,0,0,1-1-.32,3.3,3.3,0,0,0-4.29-1.41.75.75,0,0,1-1-.32,3.31,3.31,0,0,0-4.3-1.41.73.73,0,0,1-1-.32,3.3,3.3,0,1,0-2.9,4.89l21.14,6.91a3.3,3.3,0,0,0,.5-6.57Z"/><polygon class="cls-2" points="63.77 657.15 67.74 642.32 77.81 644.83 73.48 659.93 63.77 657.15"/><path class="cls-1" d="M33.4,666.35l16.93-10.46,5,14.61-6.43,24.23C46,692.59,39.39,682.33,33.4,666.35Z"/><g class="cls-44"><path class="cls-5" d="M27.14,691.89l.26-2.59c0-.34.06-.69.09-1.06a14.34,14.34,0,0,1,.55-3.55,5,5,0,0,1,3.35-3.45c3-.9,5.2,1.22,6.66,2.62a13.84,13.84,0,0,0,1.37,1.2,14.57,14.57,0,0,0,.28-1.81,13.62,13.62,0,0,1,.6-3.12,5,5,0,0,1,3-3.18,5.14,5.14,0,0,1,4.66.67,15.88,15.88,0,0,1,2.64,2.27c.31.31.59.6.86.84l1.93,1.75-3.51,3.86L48,684.58c-.36-.32-.71-.67-1-1A14.07,14.07,0,0,0,45.17,682a14.43,14.43,0,0,0-.3,1.84,13.62,13.62,0,0,1-.6,3.12,4.89,4.89,0,0,1-7.36,2.67,13.78,13.78,0,0,1-2.46-2A12.06,12.06,0,0,0,33,686.35a13.68,13.68,0,0,0-.28,2.26c0,.4-.06.8-.1,1.21l-.26,2.59Z"/></g><path class="cls-4" d="M102.28,678.23c-6.22-4.59-13-6.31-21.22,0l-12.9.84,10.67-21.58L58.2,652s-16.37,36-8.82,43.25,53.49,1.17,53.49,1.17l2.52-9.91Z"/><g class="cls-45"><path class="cls-5" d="M57.44,685.54l2.52.68,1,.26a14.5,14.5,0,0,1,3.41,1.12,5,5,0,0,1,2.86,3.87c.4,3.09-2.05,4.93-3.68,6.15a13.34,13.34,0,0,0-1.4,1.14,12.67,12.67,0,0,0,1.74.57,13.87,13.87,0,0,1,3,1.11,5,5,0,0,1,2.64,3.5,5.17,5.17,0,0,1-1.42,4.49,15.72,15.72,0,0,1-2.67,2.23c-.36.25-.69.49-1,.71l-2,1.62-3.23-4.1,2-1.61c.38-.3.78-.59,1.17-.86a13.84,13.84,0,0,0,1.84-1.48,12.66,12.66,0,0,0-1.77-.59,13.87,13.87,0,0,1-3-1.11,4.9,4.9,0,0,1-1.44-7.69,13.48,13.48,0,0,1,2.39-2.1A14,14,0,0,0,62,692.2a13.18,13.18,0,0,0-2.19-.66c-.38-.09-.78-.18-1.17-.29l-2.52-.68Z"/><path class="cls-5" d="M69.09,661.41l-.68,2.52c-.09.32-.17.66-.26,1A14.35,14.35,0,0,1,67,668.36a5,5,0,0,1-3.87,2.87c-3.09.4-4.93-2.06-6.15-3.68a13.34,13.34,0,0,0-1.14-1.4,14.62,14.62,0,0,0-.58,1.73,14.1,14.1,0,0,1-1.1,3,5,5,0,0,1-3.5,2.64,5.2,5.2,0,0,1-4.49-1.42A15.78,15.78,0,0,1,44,669.41c-.25-.35-.49-.68-.71-1l-1.62-2.05,4.09-3.23,1.62,2.05c.3.38.58.78.86,1.17a13.84,13.84,0,0,0,1.48,1.84,14.69,14.69,0,0,0,.59-1.77,14.15,14.15,0,0,1,1.11-3A4.89,4.89,0,0,1,59.08,662a13.79,13.79,0,0,1,2.1,2.38,13.21,13.21,0,0,0,1.25,1.51,12.56,12.56,0,0,0,.65-2.19c.1-.39.19-.78.3-1.18l.68-2.51Z"/><path class="cls-5" d="M94.56,684.77,92,684.09l-1-.26a15,15,0,0,1-3.41-1.12,5,5,0,0,1-2.86-3.88c-.4-3.08,2.05-4.92,3.67-6.14a13.78,13.78,0,0,0,1.41-1.15,16.89,16.89,0,0,0-1.74-.57,13.83,13.83,0,0,1-3-1.1,5,5,0,0,1-2.64-3.5,5.16,5.16,0,0,1,1.42-4.49,15.72,15.72,0,0,1,2.67-2.23c.35-.26.69-.49,1-.71l2-1.62,3.23,4.09-2,1.62c-.38.29-.78.58-1.17.86a13.08,13.08,0,0,0-1.84,1.48,13.6,13.6,0,0,0,1.77.59,14.38,14.38,0,0,1,3,1.1,4.9,4.9,0,0,1,1.43,7.7,13.08,13.08,0,0,1-2.38,2.1,12.11,12.11,0,0,0-1.5,1.25,13.2,13.2,0,0,0,2.19.65l1.17.3,2.52.68Z"/><path class="cls-5" d="M81.38,713.41l-1.3-2.26c-.16-.29-.35-.59-.54-.91a14.58,14.58,0,0,1-1.62-3.2,5,5,0,0,1,.72-4.77c1.89-2.46,4.93-2,6.94-1.74a14.25,14.25,0,0,0,1.8.18,13.81,13.81,0,0,0-.82-1.63,13.92,13.92,0,0,1-1.33-2.89,4.93,4.93,0,0,1,.61-4.34A5.14,5.14,0,0,1,90,689.68a15.48,15.48,0,0,1,3.46.31c.43.07.84.14,1.19.18l2.59.3-.61,5.18-2.59-.3c-.48-.06-1-.14-1.44-.22a12.86,12.86,0,0,0-2.34-.25,13.52,13.52,0,0,0,.83,1.66,14.42,14.42,0,0,1,1.33,2.89A4.91,4.91,0,0,1,88,705.89a13.36,13.36,0,0,1-3.17-.2,12.51,12.51,0,0,0-2-.18,14.92,14.92,0,0,0,1.09,2c.21.34.42.68.62,1l1.3,2.26Z"/></g><polygon class="cls-1" points="137.19 665.26 138.99 668.58 137.09 668.9 137.19 665.26"/><path class="cls-2" d="M144,677.28l7.59-8.85-2.32-3.62C143.48,670.13,142.85,674,144,677.28Z"/><polygon class="cls-2" points="121.25 674.83 127.75 668.19 133.42 670.24 127.83 683.16 121.25 674.83"/><g class="cls-46"><path class="cls-4" d="M132.36,674.8c-.12-.08-2.84-2.44-2.84-2.44l2.84-2.24,1.73.92Z"/></g><path class="cls-2" d="M136.46,661.14c1.39,1,1.09,3.5.89,5.94-.23,2.63,0,5.28-2.07,5.68-3.17.61-7-2.5-7-2.5l1.23-8.75Z"/><g class="cls-47"><path class="cls-4" d="M137.73,670.33a14.87,14.87,0,0,1-2-1.45l.27-.3a15.86,15.86,0,0,0,1.95,1.41Z"/></g><path class="cls-4" d="M133.88,663.82l-.08.55a23.83,23.83,0,0,1,3.42.44l.13-.88A14.19,14.19,0,0,0,133.88,663.82Z"/><path class="cls-3" d="M133.93,665.09a2.38,2.38,0,0,0,2.73,1.61A1.9,1.9,0,0,0,133.93,665.09Z"/><g class="cls-48"><circle class="cls-4" cx="136.17" cy="666.11" r="0.88"/></g><path class="cls-4" d="M125.67,670.32c2.81.84,3.84-1.41,4.77-3.84h1.21l0-2.47a6.76,6.76,0,0,0,5-2.71s-3.37-4.56-9.32-1.16S125.67,670.32,125.67,670.32Z"/><path class="cls-2" d="M128.56,664.56H129a1.63,1.63,0,0,1,1.63,1.63v1.91a0,0,0,0,1,0,0h-2.11a1.54,1.54,0,0,1-1.54-1.54v-.47A1.54,1.54,0,0,1,128.56,664.56Z"/><polygon class="cls-4" points="129.68 667 128.22 666.33 128.39 665.96 129.84 666.63 129.68 667"/><circle class="cls-4" cx="117.56" cy="660.26" r="3.97"/><circle class="cls-4" cx="125.79" cy="657.27" r="5.18"/><polygon class="cls-1" points="176.28 654.43 149.75 660.6 147.86 701.29 171.36 694.7 176.28 654.43"/><polygon class="cls-4" points="153.3 662.45 176.28 654.43 171.36 694.7 150.97 702.37 153.3 662.45"/><path class="cls-2" d="M143.29,677.59l6.13,4.33,1.66-2c2.4.45,6.76-3,12.11-8.53l-.91-1.22-5.93,4.13-.19-.13,7.38-6.2-1.14-1.22-7.08,5.14-.18-.24,6.87-6.32-1.14-1.3-7.75,6.18-.27-.16,6.92-6-1.1-1.25C150.56,667.2,145.32,672.11,143.29,677.59Z"/><path class="cls-1" d="M127.78,680.3c-2.55-11.82-14.17-6.68-25.5-2.07l.59,18.15,7.19-.32a16,16,0,0,0,8.16.55c2.78-.63,4.43-3.67,6.62-6.94Z"/><path class="cls-2" d="M145.14,676.08l-1.85,1.51-9.79,9.82-7.27-9a5.87,5.87,0,0,0-7.28-1.55h0a5.88,5.88,0,0,0-2.42,8.13c3.94,7,11.22,18,17.07,16.41,8.47-2.29,15.82-19.44,15.82-19.44l-1.24-4.64Z"/><path class="cls-1" d="M54.17,633.55l25.45,9.36-3.23,9.2a4.47,4.47,0,0,1-2.91-3.7l-2.69-.67c-1.22,2-3.2,2.51-5.45,2.44l.83-3.77-10.55-8.69a4.21,4.21,0,0,1-1.49-3.93Z"/><g class="cls-49"><circle class="cls-5" cx="67.28" cy="637.06" r="3.63"/><circle class="cls-5" cx="71.68" cy="639.08" r="3.63"/><circle class="cls-5" cx="76.8" cy="643.46" r="4.38"/><circle class="cls-5" cx="55.54" cy="637.75" r="5.38"/><path class="cls-5" d="M61.92,641.16h3.72a.78.78,0,0,1,.78.78v6.73a0,0,0,0,1,0,0H61.14a0,0,0,0,1,0,0v-6.73A.78.78,0,0,1,61.92,641.16Z" transform="translate(399.7 90.72) rotate(36.87)"/></g><rect class="cls-2" x="1098.36" y="327.04" width="7.91" height="9.1" transform="matrix(0.95, -0.32, 0.32, 0.95, -48.07, 372.48)"/><rect class="cls-2" x="1075.04" y="329.84" width="7.91" height="9.1"/><path class="cls-5" d="M1068.47,331.59l15.67.71a165.76,165.76,0,0,0,1.73-36.39c2.88,9.88,5,22.61,6.82,36.39l17.29-4.55c-3.89-24.64-8.46-44.87-15-52.13l-22.58,19.61C1072.06,306.28,1071,311.68,1068.47,331.59Z"/><g class="cls-50"><path class="cls-4" d="M1107.59,284.83c5.25-5.53-6.17-9.2-4.9-1.58-1.27-7.62-11.27-1-4.28,2.85-7-3.83-8,8.12-.44,5.12-7.58,3,1.11,11.27,3.72,3.54-2.61,7.73,9.28,6.08,5.1-.7,4.18,6.78,10.3-3.54,2.62-4.42C1117.09,290.52,1112.84,279.3,1107.59,284.83Z"/><path class="cls-4" d="M1091.74,307.66c7.68.89,3.43-10.34-1.82-4.81,3.81-4-1.15-7-3.67-5.5,1,6.64,1,13.58,1.93,20.23,1.63-.73,2.68-2.67.94-5.5C1093.3,318.86,1099.42,308.55,1091.74,307.66Z"/><path class="cls-4" d="M1116.46,322.51c5.25-5.53-6.17-9.2-4.9-1.57-1.27-7.63-11.27-1-4.28,2.84-7-3.83-8,8.13-.44,5.12-7.58,3,1.11,11.27,3.72,3.55-2.61,7.72,9.28,6.07,5.1-.71,4.18,6.78,10.3-3.54,2.62-4.42C1126,328.2,1121.71,317,1116.46,322.51Z"/><path class="cls-4" d="M1071.93,323.82c5.25-5.53-6.18-9.2-4.9-1.58-1.28-7.62-11.27-1-4.28,2.85-7-3.83-8,8.12-.45,5.12-7.58,3,1.12,11.27,3.73,3.54-2.61,7.73,9.28,6.08,5.09-.7,4.19,6.78,10.31-3.54,2.63-4.42C1081.43,329.51,1077.18,318.29,1071.93,323.82Z"/><path class="cls-4" d="M1076.51,297.48c5.25-5.53-6.17-9.2-4.89-1.57-1.28-7.63-11.27-1-4.29,2.84-7-3.83-8,8.13-.44,5.13-7.58,3,1.12,11.26,3.73,3.54-2.61,7.72,9.27,6.07,5.09-.71,4.18,6.78,10.31-3.53,2.63-4.42C1086,303.18,1081.76,292,1076.51,297.48Z"/><path class="cls-4" d="M1087.38,311c-2.89-.23-6.08,3.71-1.29,6.34-7-3.83-8,8.12-.44,5.12-6.78,2.69-.54,9.58,2.72,5.48A98.83,98.83,0,0,0,1087.38,311Z"/></g><path class="cls-1" d="M1061.16,254.86c2.17,2.89-1.14,7.94,2.79,10.85a3.2,3.2,0,0,1,.69-1.38c.51-.52.67-.22,1.33-.76s.56-1.16,1-1.53a5,5,0,0,0,1.54-1.24,11.41,11.41,0,0,0,1.08-2.82Z"/><polygon class="cls-4" points="1063.27 256.48 1063.27 259.02 1065.15 258.11 1063.27 256.48"/><polygon class="cls-2" points="1069.49 257.79 1072.54 263.16 1077.95 257.79 1071 253.79 1069.49 257.79"/><path class="cls-2" d="M1070.68,261.48a19.71,19.71,0,0,1,7.27-5.05c3.23-1.32,1.87,4.5,1.87,4.5l-7.37,5S1069,263.39,1070.68,261.48Z"/><path class="cls-2" d="M1061.06,254.84l2.84,2.57c1.27,1.15,2.8,2.61,3.93,2.31s1.7-1.68,2.28-2.63,1.05-1.86,1.05-1.86l-6.83-5.85-3.27,3.14Z"/><g class="cls-51"><path class="cls-4" d="M1065,259.23l-.23-.27a2.23,2.23,0,0,0,.81-1.56h.35A2.56,2.56,0,0,1,1065,259.23Z"/></g><polygon class="cls-1" points="1062.36 255.04 1062.74 255.41 1063.6 254.42 1064.78 253.59 1064.53 253.37 1063.19 254.1 1062.36 255.04"/><path class="cls-1" d="M1061,256.09l1.52-1.86-.69-1.32,1.3.71,1.44-1.72c4.21,1.94,3,4.77,6.3,7.13a7.1,7.1,0,0,1,1.1-1.88c.5-.45.73-.28,1.33-1s.51-1.15.89-1.54.9-.47,1.42-1.05a2.26,2.26,0,0,0,.48-1.63s-7.37-6.35-11.3-5.39c-2.41.59-5.4,5.07-5.4,6.89A3.12,3.12,0,0,0,1061,256.09Z"/><path class="cls-3" d="M1064.88,254.15c.65.45.16,2-.78,2.33A1.69,1.69,0,0,1,1064.88,254.15Z"/><g class="cls-52"><circle class="cls-4" cx="1064.3" cy="255.84" r="0.81"/></g><polygon class="cls-2" points="1064.45 280.63 1066.67 290.18 1076.08 282.9 1073.72 274.62 1064.45 280.63"/><path class="cls-1" d="M1071.25,260.88s2,1.66,4.13-.65,1.24-3.2,1.24-3.2l16.53,2.81-17.68,20.93-10.94,1.63c-.79-4.25-1-7.95.18-11.44A29.61,29.61,0,0,1,1071.25,260.88Z"/><path class="cls-4" d="M1117,234.27h0a8.65,8.65,0,0,1,1.69,12.13l-61.08,80.88-14.31,7.53a2,2,0,0,1-2.84-2.15l3.33-15.82L1104.83,236A8.66,8.66,0,0,1,1117,234.27Z"/><g class="cls-53"><path class="cls-2" d="M1059.17,331.53c-1.75-1.32-.27-3.29-2-4.61s-3.24.65-5-.68-.26-3.29-2-4.61-3.23.65-5-.67-.27-3.29-2-4.61l-6.6,8.73,18.84,14.23Z"/><rect class="cls-2" x="1100.43" y="233.5" width="31.33" height="12.71" transform="translate(1862.17 1103.89) rotate(-142.94)"/><polygon class="cls-2" points="1051.32 327.53 1051.03 327.32 1114.9 242.75 1115.18 242.97 1051.32 327.53"/><polygon class="cls-2" points="1044.35 322.27 1044.06 322.06 1107.93 237.49 1108.21 237.7 1044.35 322.27"/></g><path class="cls-2" d="M1095.49,255s13.94,2.38,12.9,8.52-15.7,15.74-15.7,15.74l-3.82-4.6,9-9.69-8.33-3.87Z"/><path class="cls-1" d="M1099.58,254.86l-6.43,9.75-8.91-2.56.4-1.76-8-3.26a19.82,19.82,0,0,1,9.82-5.24C1091.44,250.78,1095.58,253,1099.58,254.86Z"/><path class="cls-2" d="M1091.51,272.9l-2.64,1.72c-4.43.27-6.21,1.81-8.76,5.13l.83,1,4.55-3.51.13.13-6.21,5.77.66.95,5.69-4.48.11.12-5.94,6.08.92,1,6.65-5.6.14.14-5.65,6,.83.86,6-5.06.12.12-4.29,4.36.74,1c4-2.59,7.58-5.77,7.71-9.39l2.5-2.07Z"/><path class="cls-2" d="M1066.65,300.77l1-.79,2.66,3.39.32-.24L1068.7,295l.9-.72,2.21,5.7.12-.05-1.61-6.85,1-.6,2.33,6.28.15-.07-1.25-6.45,1-.4,2.12,6.08.17-.1-1-5.17.94-.38a18.29,18.29,0,0,1,2.83,7.21,7.37,7.37,0,0,1-2.22,6.61c-1.54,1.41-3.08,2.06-4.45,1.75C1068.4,307.06,1066.65,300.77,1066.65,300.77Z"/><path class="cls-1" d="M1083.37,336.58v13a.58.58,0,0,1-.59.59h-20.39a.58.58,0,0,1-.58-.59V346.3a3.21,3.21,0,0,1,1.82-2.9l9.77-4.71a2.27,2.27,0,0,0,1.28-2l0-2.74c1.69-.07,2.72.63,2.82,2.45Z"/><g class="cls-54"><circle class="cls-4" cx="1079.48" cy="341.37" r="1.75"/><path class="cls-4" d="M1075.43,340.15a.51.51,0,0,1-.37-.15l-3.37-3.32a.53.53,0,0,1,0-.75.51.51,0,0,1,.74,0l3.37,3.32a.51.51,0,0,1,0,.74A.49.49,0,0,1,1075.43,340.15Z"/><path class="cls-4" d="M1073,341a.55.55,0,0,1-.37-.15l-3.36-3.32a.53.53,0,0,1,0-.75.53.53,0,0,1,.75,0l3.37,3.32a.52.52,0,0,1,0,.74A.51.51,0,0,1,1073,341Z"/><path class="cls-4" d="M1070.62,341.81a.53.53,0,0,1-.37-.15l-3.37-3.32a.53.53,0,0,1,0-.75.51.51,0,0,1,.74,0l3.37,3.32a.52.52,0,0,1-.37.9Z"/><circle class="cls-5" cx="1060.76" cy="345.94" r="7"/><rect class="cls-4" x="1059.72" y="346.99" width="25.38" height="4.73"/></g><path class="cls-1" d="M1106.74,331.59l4.91,12a.59.59,0,0,1-.32.76l-18.87,7.72a.58.58,0,0,1-.76-.32l-1.23-3a3.22,3.22,0,0,1,.58-3.37l7.27-8.07a2.27,2.27,0,0,0,.42-2.34l-1-2.56c1.54-.7,2.77-.44,3.54,1.21Z"/><g class="cls-55"><circle class="cls-4" cx="1104.96" cy="337.51" r="1.75"/><path class="cls-4" d="M1100.55,338a.78.78,0,0,1-.21,0l-4.37-1.8a.53.53,0,1,1,.4-1l4.38,1.8a.53.53,0,0,1,.29.69A.55.55,0,0,1,1100.55,338Z"/><path class="cls-4" d="M1098.63,339.63a.79.79,0,0,1-.2,0l-4.37-1.8a.53.53,0,0,1,.4-1l4.38,1.8a.53.53,0,0,1,.28.69A.53.53,0,0,1,1098.63,339.63Z"/><path class="cls-4" d="M1096.72,341.31a.79.79,0,0,1-.2,0l-4.37-1.8a.53.53,0,0,1,.4-1l4.37,1.8a.53.53,0,0,1-.2,1Z"/><circle class="cls-5" cx="1089.32" cy="347.93" r="7"/><rect class="cls-4" x="1088.74" y="345.21" width="25.38" height="4.73" transform="translate(-49.59 442.98) rotate(-22.25)"/></g><path class="cls-4" d="M1065,369.32a16.5,16.5,0,0,1-11.16-4l-.36-.33a14.66,14.66,0,0,1-12.19,2.25,11.23,11.23,0,0,1-8.24-7.35c-2.36-6.57.24-15.34,3.89-20.24l2.83,2.1c-3.14,4.23-5.27,11.73-3.4,16.95a7.76,7.76,0,0,0,5.77,5.12,10.89,10.89,0,0,0,9-1.54c-2.2-3.27-3-7.14-1.86-10a4.88,4.88,0,0,1,4.91-3.24,5.18,5.18,0,0,1,4.86,3c1.23,2.74.16,6.85-2.66,10.22l-.33.38.06.05c2.94,2.58,9.7,5.91,22-.86l1.7,3.08C1073.89,368.16,1069,369.32,1065,369.32Zm-11-16.79a1.38,1.38,0,0,0-1.43,1c-.53,1.33-.25,3.86,1.22,6.31,2.06-2.53,2.6-5.18,2.05-6.41-.1-.23-.39-.86-1.75-.9Z"/></g></g></svg>