<svg xmlns="http://www.w3.org/2000/svg" xmlns:xlink="http://www.w3.org/1999/xlink" viewBox="0 0 1123.45 697.33"><defs><style>.cls-1{fill:#ffeb00;}.cls-2{fill:#ff0068;}.cls-3{fill:#010f70;}.cls-4{fill:#00c2ff;}.cls-5{fill:#fff;}.cls-6{clip-path:url(#clip-path);}.cls-7{clip-path:url(#clip-path-2);}.cls-8{clip-path:url(#clip-path-3);}.cls-9{clip-path:url(#clip-path-4);}.cls-10{clip-path:url(#clip-path-5);}.cls-11{clip-path:url(#clip-path-6);}.cls-12{clip-path:url(#clip-path-7);}.cls-13{clip-path:url(#clip-path-8);}.cls-14{clip-path:url(#clip-path-9);}.cls-15{clip-path:url(#clip-path-10);}.cls-16{clip-path:url(#clip-path-11);}.cls-17{clip-path:url(#clip-path-12);}.cls-18{clip-path:url(#clip-path-13);}.cls-19{clip-path:url(#clip-path-14);}.cls-20{clip-path:url(#clip-path-15);}.cls-21{clip-path:url(#clip-path-16);}.cls-22{clip-path:url(#clip-path-17);}.cls-23{clip-path:url(#clip-path-18);}.cls-24{clip-path:url(#clip-path-19);}.cls-25{clip-path:url(#clip-path-20);}.cls-26{clip-path:url(#clip-path-21);}.cls-27{clip-path:url(#clip-path-22);}.cls-28{clip-path:url(#clip-path-23);}.cls-29{clip-path:url(#clip-path-24);}.cls-30{clip-path:url(#clip-path-25);}.cls-31{clip-path:url(#clip-path-26);}.cls-32{clip-path:url(#clip-path-27);}.cls-33{clip-path:url(#clip-path-28);}.cls-34{clip-path:url(#clip-path-29);}.cls-35{clip-path:url(#clip-path-30);}.cls-36{clip-path:url(#clip-path-31);}.cls-37{clip-path:url(#clip-path-32);}.cls-38{clip-path:url(#clip-path-33);}.cls-39{clip-path:url(#clip-path-34);}.cls-40{clip-path:url(#clip-path-35);}.cls-41{clip-path:url(#clip-path-36);}.cls-42{clip-path:url(#clip-path-37);}.cls-43{clip-path:url(#clip-path-38);}.cls-44{clip-path:url(#clip-path-39);}.cls-45{clip-path:url(#clip-path-40);}.cls-46{clip-path:url(#clip-path-41);}.cls-47{clip-path:url(#clip-path-42);}.cls-48{clip-path:url(#clip-path-43);}.cls-49{clip-path:url(#clip-path-44);}.cls-50{clip-path:url(#clip-path-45);}.cls-51{clip-path:url(#clip-path-46);}.cls-52{clip-path:url(#clip-path-47);}.cls-53{clip-path:url(#clip-path-48);}.cls-54{clip-path:url(#clip-path-49);}</style><clipPath id="clip-path"><polygon class="cls-1" points="149.92 13.27 155.27 3.59 157.25 4.19 156.06 14.37 149.92 13.27"/></clipPath><clipPath id="clip-path-2"><path class="cls-2" d="M152.28,20.24,163.11,8.76l5.92.09L172.49,12l6.09-.69,4.89,2.31L168.86,30.88s-7.65-1.49-7.76-1.68S152.28,20.24,152.28,20.24Z"/></clipPath><clipPath id="clip-path-3"><path class="cls-2" d="M163.43,76.45l4.19-1.57c-.17-1.15.24-2.06,1.86-2.46l.57,2.52a.57.57,0,0,0,.49.46l7,1a4.77,4.77,0,0,1,3.91,3.44l.35,1.25-8.5,3L172.37,83v1.42l-6,1.83Z"/></clipPath><clipPath id="clip-path-4"><path class="cls-2" d="M133.06,73.07l4.13,1.72c.66-1,1.58-1.34,3-.52l-1.32,2.23a.61.61,0,0,0,.05.67l4.39,5.54a4.79,4.79,0,0,1,.49,5.18l-.6,1.15L135,85.43l.08-1.44-1,1-5.59-2.76Z"/></clipPath><clipPath id="clip-path-5"><path class="cls-1" d="M160,2.29c.51.47.34,2.06.08,3.63s-.62,3.11-1.31,3.42c-1.36.61-4.48-1.53-4.48-1.53L156.36,2S159,1.36,160,2.29Z"/></clipPath><clipPath id="clip-path-6"><path class="cls-5" d="M158,4.58a1.32,1.32,0,0,0,1.7,1.1A1.27,1.27,0,0,0,158,4.58Z"/></clipPath><clipPath id="clip-path-7"><path class="cls-3" d="M225,77H232l-.11,2.74a2.93,2.93,0,0,0,1.61,2.74l5.27,2.64a3.06,3.06,0,0,1,1.68,3l-.24,2.44H230L228.88,89l-.64,1.66H225Z"/></clipPath><clipPath id="clip-path-8"><polygon class="cls-1" points="218.53 15.66 220.1 6.85 222.28 6.68 224.72 15.66 218.53 15.66"/></clipPath><clipPath id="clip-path-9"><path class="cls-1" d="M225.12,4.58A24.42,24.42,0,0,1,225.54,7c.27,1.6.49,3.29-.06,3.85-.87.89-4.73.5-4.73.5l-.89-6.1S224.64,2.89,225.12,4.58Z"/></clipPath><clipPath id="clip-path-10"><path class="cls-5" d="M223.19,6.53a1.34,1.34,0,0,0,1.92.44C224.76,6.18,224.14,6,223.19,6.53Z"/></clipPath><clipPath id="clip-path-11"><path class="cls-3" d="M203.85,70.07l4.85,5-2,1.83a2.93,2.93,0,0,0-.84,3.07l1.79,5.61a3.08,3.08,0,0,1-1,3.34l-1.92,1.53-7.09-7.26.4-2-1.64.7-2.27-2.32Z"/></clipPath><clipPath id="clip-path-12"><polygon class="cls-1" points="98.21 278.9 97.31 286.87 89.85 284.57 93.3 276.17 98.21 278.9"/></clipPath><clipPath id="clip-path-13"><path class="cls-4" d="M73.81,285.56a37.63,37.63,0,0,1,16-1.64s.5,2.27,3.87,2.5,4.23-1.25,4.23-1.25c10.73,2.12,12.37,6.84,13.91,11.53l-7.08,5.43-3.51,10.08-21.84.5L78,296.43l-3.23-.18Z"/></clipPath><clipPath id="clip-path-14"><path class="cls-2" d="M107.64,364.05c4.29,0,3.31,3,4.58,3.07,1.53.06,1.43-3.24,3.13-3.75a5.37,5.37,0,0,1,2.63-.27s-.19,2.42.83,3.23,10.41,4.35,12.41,6.06a3.33,3.33,0,0,1,.63,4.11L108,374.63Z"/></clipPath><clipPath id="clip-path-15"><path class="cls-2" d="M60.37,354c2,3.79-1.12,4.34-.57,5.48.67,1.38,3.53-.26,4.79,1a5.39,5.39,0,0,1,1.47,2.19s-2.23,1-2.47,2.24,1,11.24.46,13.81a3.33,3.33,0,0,1-3.33,2.49L51.2,359.27Z"/></clipPath><clipPath id="clip-path-16"><path class="cls-1" d="M104.54,273.16a23.68,23.68,0,0,1-1.35,3.27c-.8,1.95-1.68,4.08-2.9,4.4-2.08.55-6.19-3.07-6.19-3.07l3.1-6.19S104.78,271.48,104.54,273.16Z"/></clipPath><clipPath id="clip-path-17"><path class="cls-2" d="M81.23,211.34l6,2.67c.72-1.47,1.87-2.13,4-.94l-1,2a2.42,2.42,0,0,0,.35,2.68l7.62,8.68a3.82,3.82,0,0,1,.55,4.21l-2.33,4.67-11.89-5.91-.25-1.65-1.14,1-8.47-4.22Z"/></clipPath><clipPath id="clip-path-18"><polygon class="cls-1" points="106.17 129.81 111.78 119.51 117.21 120.96 116.44 130.1 110.63 131.2 106.17 129.81"/></clipPath><clipPath id="clip-path-19"><path class="cls-1" d="M121.09,114.63a38,38,0,0,1-.45,5.61c-.29,2.18-.7,4.37-2,4.72a5.86,5.86,0,0,1-4.29-.79,13.2,13.2,0,0,1-2.44-1.63l.3-8.71,4.27-.68S120.93,113,121.09,114.63Z"/></clipPath><clipPath id="clip-path-20"><path class="cls-5" d="M117.5,117.06a2.22,2.22,0,0,1,2.68,1.8C118.79,119,117.85,119,117.5,117.06Z"/></clipPath><clipPath id="clip-path-21"><path class="cls-2" d="M112.28,218.55l6.55-.28c0-1.64.73-2.74,3.19-2.64v2.2a2.42,2.42,0,0,0,1.5,2.24l10.69,4.38a3.79,3.79,0,0,1,2.36,3.52v5.22H123.29l-1-1.36-.59,1.36h-9.46Z"/></clipPath><clipPath id="clip-path-22"><path class="cls-2" d="M894.43,587.64c.22-.64.45-1.42,3.41-1s.3,4.54,2.85,4.59c1.18,0,2.46-3,3.9-3.4,1.82,6.36,3,11.8,2.61,14.67L879,603.72s-.63-5.88,3.1-7.79,10.11-3.73,11-5A10.28,10.28,0,0,0,894.43,587.64Z"/></clipPath><clipPath id="clip-path-23"><polygon class="cls-1" points="894.67 508.61 894.82 500.43 900.08 499.68 901.78 507.61 894.67 508.61"/></clipPath><clipPath id="clip-path-24"><path class="cls-3" d="M889.87,583.24l17.42-6.6c-2.71-10.06-5.56-19.4-9.06-25.63a173.42,173.42,0,0,0,1.5-21.6l-16.47,4s-2.76,8.15-2.6,11.29,1.54,4.07,1.3,6.22-2.79,3.83-2.3,8.51,6.24,6.37,6.7,8.51-2.37,5.13-1.5,8S889.87,583.24,889.87,583.24Z"/></clipPath><clipPath id="clip-path-25"><path class="cls-2" d="M858,565l17.27-.6a26.54,26.54,0,0,0,1.05-8.9c-.37-3.85-2.7-6.46-2.55-7.84s2-3.08,2.33-5.26-1.8-5-1.8-5c11.33,2,22.12,2.82,25.56-8.08,0,0-5.59-4.6-18.51-6.26-9.3-1.19-16.5-1.05-19.45,1.94-3.32,3.38-1.63,8.79-2.74,14.15-.63,3-2.21,3.66-2.13,7.26s2.36,5.49,2.17,7.29-2.62,3.56-2.92,6.6A5.43,5.43,0,0,0,858,565Z"/></clipPath><clipPath id="clip-path-26"><path class="cls-2" d="M861.59,569.17c.21-.64.45-1.42,3.41-1s.3,4.54,2.84,4.59c1.18,0,2.47-3,3.91-3.4,1.81,6.36,3,11.8,2.6,14.67l-28.23,1.2s-.62-5.88,3.1-7.79,10.12-3.73,11-5A10.52,10.52,0,0,0,861.59,569.17Z"/></clipPath><clipPath id="clip-path-27"><path class="cls-2" d="M272.15,585h15.92a10.59,10.59,0,0,0-2.91-6.51l.58-3.63H283a2.3,2.3,0,1,0-4.59,0l-2-.19-.48,2.65C273.24,580.33,272.23,582.88,272.15,585Z"/></clipPath><clipPath id="clip-path-28"><path class="cls-1" d="M274.77,500.89c0-.11,2.46-8.33,2.46-8.33l5,.48.81,7.85Z"/></clipPath><clipPath id="clip-path-29"><path class="cls-5" d="M285.9,487.86c-1.67-1.24-2.82-.88-3.63.56A2.79,2.79,0,0,0,285.9,487.86Z"/></clipPath><clipPath id="clip-path-30"><path class="cls-4" d="M260.75,503.56c4.91-1.35,9.74-2.66,13.53-3.45a7.65,7.65,0,0,0,5.17.83c3-.54,3.88-1.69,3.88-1.69,11.61-1.39,14.23,2.34,15.15,8.29.46,3,.92,6.63,1.3,10.18l-9.17,7.18h-22.2Z"/></clipPath><clipPath id="clip-path-31"><path class="cls-2" d="M250.68,550.05l25.91-3.43-2-9.2-6.07,1c-.66-1.4-1.91-1.68-3.65-1V540l-11.49,5.53a4.68,4.68,0,0,0-2.61,3.81Z"/></clipPath><clipPath id="clip-path-32"><path class="cls-4" d="M269.48,515.21c-19.85,9.62-18.28-2-12.69-18.83l6.35,1.23-.62,5.95Z"/></clipPath><clipPath id="clip-path-33"><path class="cls-4" d="M288.43,513c4.32,2.7,8.41,4.91,11.35,4.69,0,0,.86,6.36-1.69,9.34s-10.88,10.12-10.88,10.12l-5.72-6.61,8.6-7.58Z"/></clipPath><clipPath id="clip-path-34"><path class="cls-4" d="M1019.36,219.25l15.67.7a166.35,166.35,0,0,0,1.73-36.39c2.87,9.88,5,22.61,6.81,36.39l17.29-4.55c-3.88-24.64-8.45-44.86-15-52.12l-22.57,19.61C1023,193.94,1021.93,199.33,1019.36,219.25Z"/></clipPath><clipPath id="clip-path-35"><path class="cls-1" d="M1011.94,142.49l2.85,2.57c1.27,1.15,2.8,2.61,3.92,2.31s1.7-1.68,2.28-2.63,1-1.86,1-1.86l-6.82-5.84-3.28,3.13Z"/></clipPath><clipPath id="clip-path-36"><path class="cls-5" d="M1015.76,141.8c.65.45.17,2-.77,2.34A1.69,1.69,0,0,1,1015.76,141.8Z"/></clipPath><clipPath id="clip-path-37"><path class="cls-3" d="M1067.85,121.92h0a8.68,8.68,0,0,1,1.69,12.14l-61.08,80.88-14.31,7.52a2,2,0,0,1-2.84-2.15l3.32-15.82,61.08-80.87A8.67,8.67,0,0,1,1067.85,121.92Z"/></clipPath><clipPath id="clip-path-38"><path class="cls-2" d="M1034.25,224.23v13a.58.58,0,0,1-.58.58h-20.39a.59.59,0,0,1-.59-.58V234a3.21,3.21,0,0,1,1.82-2.89l9.78-4.72a2.28,2.28,0,0,0,1.28-2l0-2.75c1.69-.07,2.73.64,2.82,2.46Z"/></clipPath><clipPath id="clip-path-39"><path class="cls-2" d="M1057.62,219.25l4.92,12a.59.59,0,0,1-.32.76l-18.88,7.72a.58.58,0,0,1-.76-.32l-1.23-3a3.21,3.21,0,0,1,.59-3.37l7.26-8.07a2.26,2.26,0,0,0,.43-2.33l-1-2.56c1.54-.71,2.76-.45,3.54,1.2Z"/></clipPath><clipPath id="clip-path-40"><path class="cls-2" d="M1051.28,456.87l-6.71,9-1.56-1.93c-5.88,2-10.37,2-11.32-3a.66.66,0,0,1,.41-.74l4.71-1.83s.21-6.22,6.06-6.56C1047,451.55,1051.28,456.87,1051.28,456.87Z"/></clipPath><clipPath id="clip-path-41"><path class="cls-2" d="M1044.67,460.24l-.1,5.61s6.6,11.45,13.83,11.59c8.7.17,26-1.78,26-1.78l9.56-3.73c1.67-7.37-2.44-12.46-10.32-14.42-9.9-2.45-18.3,0-30.86.46l-1.54-1.1Z"/></clipPath><clipPath id="clip-path-42"><path class="cls-5" d="M1042.71,457.16c-2.24-.57-3.69.32-4.51,2.38A3.52,3.52,0,0,0,1042.71,457.16Z"/></clipPath><clipPath id="clip-path-43"><path class="cls-2" d="M1025.71,56.46,1005,45.09l-4.23,7.34a3.92,3.92,0,0,0,4.1-.19l2,1.39c-.64,1.94.17,3.51,1.5,4.95l2-2.68,11.76,2a3.68,3.68,0,0,0,3.44-1.26Z"/></clipPath><clipPath id="clip-path-44"><path class="cls-2" d="M1010.72,63.57,995.94,54.5l-4.39,12.67,5.6,21C999.76,86.33,1005.49,77.43,1010.72,63.57Z"/></clipPath><clipPath id="clip-path-45"><path class="cls-3" d="M950.61,73.88c5.42-4,11.32-5.48,18.52,0l11.25.73-9.31-18.72,18-4.8s14.29,31.24,7.7,37.52-46.69,1-46.69,1l-2.2-8.6Z"/></clipPath><clipPath id="clip-path-46"><polygon class="cls-1" points="934.05 70.92 928.38 65.17 923.43 66.94 928.31 78.16 934.05 70.92"/></clipPath><clipPath id="clip-path-47"><path class="cls-1" d="M920.78,59.05c-1.21.84-.95,3-.77,5.15.19,2.29,0,4.59,1.8,4.93,2.76.53,6.08-2.17,6.08-2.17l-1.07-7.59Z"/></clipPath><clipPath id="clip-path-48"><path class="cls-5" d="M923,62.48a2.08,2.08,0,0,1-2.38,1.39A1.65,1.65,0,0,1,923,62.48Z"/></clipPath><clipPath id="clip-path-49"><path class="cls-2" d="M992.59,35.12l-22.21,8.11,2.82,8A3.89,3.89,0,0,0,975.74,48l2.35-.58c1.06,1.75,2.79,2.17,4.75,2.12l-.72-3.28,9.21-7.53a3.64,3.64,0,0,0,1.29-3.42Z"/></clipPath></defs><g id="Capa_2" data-name="Capa 2"><g id="Iconos"><polygon class="cls-2" points="159.82 4.87 161.1 7.25 159.38 7.34 159.82 4.87"/><polygon class="cls-1" points="149.92 13.27 155.27 3.59 157.25 4.19 156.06 14.37 149.92 13.27"/><g class="cls-6"><polygon class="cls-3" points="156.96 10.43 154.84 8.8 155.73 7.48 157.27 7.79 156.96 10.43"/></g><path class="cls-2" d="M152.28,20.24,163.11,8.76l5.92.09L172.49,12l6.09-.69,4.89,2.31L168.86,30.88s-7.65-1.49-7.76-1.68S152.28,20.24,152.28,20.24Z"/><g class="cls-7"><rect class="cls-3" x="160.96" y="19.15" width="21.42" height="0.3" transform="translate(44.46 136.17) rotate(-48.99)"/><rect class="cls-3" x="155.24" y="19.31" width="21.42" height="0.3" transform="translate(42.37 131.92) rotate(-48.99)"/><polygon class="cls-3" points="156.94 22.41 156.72 22.21 170.38 7.14 170.6 7.34 156.94 22.41"/></g><polygon class="cls-1" points="162 71.58 163.75 76.46 166.91 76.81 169.43 72.72 167.79 68.19 162 71.58"/><path class="cls-2" d="M163.43,76.45l4.19-1.57c-.17-1.15.24-2.06,1.86-2.46l.57,2.52a.57.57,0,0,0,.49.46l7,1a4.77,4.77,0,0,1,3.91,3.44l.35,1.25-8.5,3L172.37,83v1.42l-6,1.83Z"/><g class="cls-8"><polygon class="cls-3" points="164.37 84.54 184.37 78.47 184.75 81.69 164.75 88.08 164.37 84.54"/><rect class="cls-3" x="168.74" y="75.58" width="3.68" height="0.89" transform="translate(22.08 189.27) rotate(-61.35)"/><rect class="cls-3" x="170.64" y="76.07" width="3.68" height="0.89" transform="translate(22.75 191.35) rotate(-61.41)"/><rect class="cls-3" x="172.46" y="76.39" width="3.68" height="0.89" transform="translate(23.42 193.12) rotate(-61.41)"/></g><polygon class="cls-1" points="135.35 68.53 133.28 73.3 135.35 75.7 139.99 74.45 141.89 70.03 135.35 68.53"/><polygon class="cls-4" points="131.5 69.11 144.72 73.3 155.96 32.23 145.18 37.58 131.5 69.11"/><path class="cls-3" d="M147.7,31.39c-5.32,6.52-3.88,13.15,1.73,17.87l10,25.57,14-5.59L159.71,39.15l-1.65-7.76Z"/><path class="cls-2" d="M133.06,73.07l4.13,1.72c.66-1,1.58-1.34,3-.52l-1.32,2.23a.61.61,0,0,0,.05.67l4.39,5.54a4.79,4.79,0,0,1,.49,5.18l-.6,1.15L135,85.43l.08-1.44-1,1-5.59-2.76Z"/><g class="cls-9"><polygon class="cls-3" points="128.21 79.61 146.94 88.87 145.01 91.48 126.06 82.44 128.21 79.61"/><rect class="cls-3" x="136.72" y="77.21" width="3.68" height="0.89" transform="translate(-17.3 47.04) rotate(-18.16)"/><rect class="cls-3" x="137.77" y="78.86" width="3.68" height="0.89" transform="translate(-17.76 47.45) rotate(-18.16)"/><rect class="cls-3" x="138.88" y="80.35" width="3.68" height="0.89" transform="translate(-18.17 47.87) rotate(-18.16)"/></g><path class="cls-2" d="M144.47,32.41,160,33.91c.49-9.36-1.11-18.33-3.75-20.77L150,12.65C147.39,13.65,145.36,21.74,144.47,32.41Z"/><path class="cls-1" d="M160.21,20.24l3,4.51,6.25-.68L175.87,21l.94.86-.85.66a5.57,5.57,0,0,1,0,4.43,11.13,11.13,0,0,1-2.73,1.68,4.82,4.82,0,0,1-1.63-.43s-7.71,3.09-10.58,2-6.6-7.75-6.6-7.75Z"/><path class="cls-4" d="M161.16,21l-6.26,3.46s-2.76-4.51-3.09-7.75a3.11,3.11,0,0,1,1.63-3.07,3.4,3.4,0,0,1,3.9.48C159.66,16.38,161.16,21,161.16,21Z"/><rect class="cls-3" x="173.38" y="22.81" width="3.81" height="0.3" transform="translate(21.06 109.35) rotate(-36.72)"/><path class="cls-1" d="M160,2.29c.51.47.34,2.06.08,3.63s-.62,3.11-1.31,3.42c-1.36.61-4.48-1.53-4.48-1.53L156.36,2S159,1.36,160,2.29Z"/><g class="cls-10"><path class="cls-3" d="M160,8a1.81,1.81,0,0,1-1.29-.82l.25-.17A1.47,1.47,0,0,0,160,7.7Z"/></g><polygon class="cls-3" points="160.08 4.18 159.98 4.65 158.81 4.28 158.05 4.22 158.1 3.99 159.12 3.95 160.08 4.18"/><path class="cls-5" d="M158,4.58a1.32,1.32,0,0,0,1.7,1.1A1.27,1.27,0,0,0,158,4.58Z"/><g class="cls-11"><circle class="cls-3" cx="159.29" cy="5.42" r="0.5"/></g><path class="cls-3" d="M151,11.34l-4.61-2a2.92,2.92,0,0,1,.8-3.18c1.78-1.46,3.42-1.8,4.31-2.65s2-4.31,5.23-3.3a12.82,12.82,0,0,1,2.21.88,2.48,2.48,0,0,1,1.32,1.7c-.18.75-1.53,1.14-2.64,1.57s-2.22.89-2.22.89l-.78-.18Z"/><path class="cls-1" d="M156,6.89l-.9-.1a1.32,1.32,0,0,1-1.16-1.46h0a1.31,1.31,0,0,1,1.46-1.15.85.85,0,0,1,.82.8Z"/><rect class="cls-3" x="154.9" y="4.97" width="0.3" height="1.11" transform="matrix(0.68, -0.74, 0.74, 0.68, 45.95, 115.83)"/><path class="cls-3" d="M220.35,9.16l-.15-.27a9.94,9.94,0,0,1-4.22.73c-4.1-.26-9.26-2.15-9,2.84.16,3.3,4.67,3.69,8.16,1.75A18.88,18.88,0,0,0,220.35,9.16Z"/><polygon class="cls-2" points="224.95 5.9 226.78 7.39 225.36 8.24 224.95 5.9"/><polygon class="cls-1" points="256.21 17.66 261.78 16.36 262.24 17.57 259 18.69 259.24 19.86 259.42 20.71 259.19 22.1 256.82 22.62 256.21 17.66"/><path class="cls-1" d="M233.05,17.05l5.78.89,12.59-.08s.88-1.59,2-1.9a19.41,19.41,0,0,1,3.57-.3l1.46,3-.51,3.61a8.78,8.78,0,0,1-5.9,0s-13.78,2.88-16.28,2.49-5.16-1.11-5.16-1.11Z"/><path class="cls-1" d="M212.32,25.51l-2,3.44,2.22,4-3.07,3.85c-3.79-3.42-6.52-7.22-2.51-13.39Z"/><path class="cls-1" d="M216.23,15.2c2.2-.42,10.28-.08,11.36.37s.55,2.61.55,2.61l-3.26,3.16-8-.28S214.3,15.57,216.23,15.2Z"/><polygon class="cls-1" points="232.45 48.17 231.43 77.69 227.82 78.36 225.16 78.36 223.06 49.27 232.45 48.17"/><path class="cls-3" d="M225,77H232l-.11,2.74a2.93,2.93,0,0,0,1.61,2.74l5.27,2.64a3.06,3.06,0,0,1,1.68,3l-.24,2.44H230L228.88,89l-.64,1.66H225Z"/><g class="cls-12"><rect class="cls-4" x="221.89" y="88.77" width="20.26" height="4.62"/></g><path class="cls-1" d="M219.33,50.89a94.49,94.49,0,0,1-3,14.41c-.82,2.49-5.54,7.41-8.36,10.35l-3.35-1.5-1.84-2.68,6.63-8.64.69-14Z"/><path class="cls-2" d="M214.1,31.86l14.82-.37c4.45,7.19,5,13.48,5.56,19-8.6,2.2-17.2,2.17-25.79,1C208.37,44.05,210.53,38.23,214.1,31.86Z"/><path class="cls-4" d="M217,15.08l.5,2.25a2.21,2.21,0,0,0,2.17,1.74h3.51a2.21,2.21,0,0,0,2.17-1.76l.44-2,8.65.92v9l-4-.39-1.52,6.72-14.82.37-1.25-6.36-1.36,2.1-5.86-3.9C208.35,19.37,210.13,15.66,217,15.08Z"/><polygon class="cls-1" points="218.53 15.66 220.1 6.85 222.28 6.68 224.72 15.66 218.53 15.66"/><g class="cls-13"><polygon class="cls-3" points="224.09 12.6 221.49 12.03 221.75 10.86 223.99 10.86 224.09 12.6"/></g><path class="cls-1" d="M212.57,32.93l-3.4.82.33,3,2.59,2.51c-.08,1.7,1.23,3.64,3.36,6l.61-.63-2.14-2.79.2-.16,3.14,3.46.61-.44-2.56-3.6.09-.09,3.09,3.77.72-.55-3-4.26.17-.11,2.85,3.59.73-.67-3.13-4.46.16-.08,2.56,2.15.67-.53A6.36,6.36,0,0,0,215,36Z"/><polygon class="cls-3" points="256.66 19.02 255.47 17.4 255.71 17.23 256.77 18.69 258.03 18.26 257.22 16.57 257.48 16.45 258.43 18.43 256.66 19.02"/><polygon class="cls-3" points="254.71 20.7 254.36 19.4 258.98 18.55 259.03 18.83 254.71 19.63 254.92 20.38 259.22 19.72 259.26 20 254.71 20.7"/><polygon class="cls-3" points="255.16 21.64 254.83 20.68 255.1 20.58 255.36 21.32 259.43 20.69 259.47 20.98 255.16 21.64"/><polygon class="cls-3" points="255.61 22.54 255.38 21.61 255.66 21.54 255.83 22.23 259.23 21.97 259.25 22.25 255.61 22.54"/><path class="cls-1" d="M225.12,4.58A24.42,24.42,0,0,1,225.54,7c.27,1.6.49,3.29-.06,3.85-.87.89-4.73.5-4.73.5l-.89-6.1S224.64,2.89,225.12,4.58Z"/><g class="cls-14"><path class="cls-3" d="M225.53,8.92a4.67,4.67,0,0,1-.8-.1l.06-.28c.78.14,1,.15,1.46-.16l.17.24A1.45,1.45,0,0,1,225.53,8.92Z"/></g><path class="cls-3" d="M221.72,6.1l-.28,2.07-2.72,1.22a4.11,4.11,0,0,1-.85-1.64Z"/><path class="cls-1" d="M219.92,7.59h0a1,1,0,0,1,1,1V10.2a0,0,0,0,1,0,0h-1a1.31,1.31,0,0,1-1.31-1.31v0A1.31,1.31,0,0,1,219.92,7.59Z" transform="translate(0.07 19.38) rotate(-5.05)"/><polygon class="cls-3" points="220.12 9.16 219.28 8.62 219.44 8.38 220.28 8.92 220.12 9.16"/><polygon class="cls-3" points="224.89 4.99 224.98 5.57 222.57 5.9 222.62 5.34 224.89 4.99"/><path class="cls-5" d="M223.19,6.53a1.34,1.34,0,0,0,1.92.44C224.76,6.18,224.14,6,223.19,6.53Z"/><g class="cls-15"><circle class="cls-3" cx="224.73" cy="6.62" r="0.71"/></g><path class="cls-4" d="M216.74,8.28l9.17-4a.32.32,0,0,0,0-.59l-1.36-.45-1.14-1.14a1.53,1.53,0,0,0-1.64-.35l-3.59,1.37a1.55,1.55,0,0,0-1,1.3l-.17,2-.67,1.5A.32.32,0,0,0,216.74,8.28Z"/><path class="cls-3" d="M203.85,70.07l4.85,5-2,1.83a2.93,2.93,0,0,0-.84,3.07l1.79,5.61a3.08,3.08,0,0,1-1,3.34l-1.92,1.53-7.09-7.26.4-2-1.64.7-2.27-2.32Z"/><g class="cls-16"><rect class="cls-4" x="188.56" y="82.59" width="20.26" height="4.62" transform="translate(120.58 -116.56) rotate(45.67)"/></g><path class="cls-2" d="M113.24,289.7,108,293.79l-13-6.05,3.93-11.57,3.07,1.31s-.07,3.2,1.39,3.89,3.06.17,4.16,1.09.54,3.88,1.3,4.41,2.77.4,3.48,1A3.45,3.45,0,0,1,113.24,289.7Z"/><polygon class="cls-2" points="103.24 275.2 103.96 278.62 102.21 278.15 103.24 275.2"/><polygon class="cls-1" points="98.21 278.9 97.31 286.87 89.85 284.57 93.3 276.17 98.21 278.9"/><g class="cls-17"><polygon class="cls-3" points="98.5 282.35 95.77 279.85 96.79 278.62 98.99 279.28 98.5 282.35"/></g><path class="cls-1" d="M89.78,283.92a42.83,42.83,0,0,1,8.1,1.25c1.93.62-.71,3.46-.71,3.46L88,287S87.2,283.71,89.78,283.92Z"/><path class="cls-1" d="M77.82,293.27l-13.47,7.1c-2.06-7,0-12.09,10.18-14.42Z"/><path class="cls-1" d="M110.2,295.61l5.14,11.72.68,5.38c-10,5.69-10.37-6-12-14.65Z"/><path class="cls-4" d="M73.81,285.56a37.63,37.63,0,0,1,16-1.64s.5,2.27,3.87,2.5,4.23-1.25,4.23-1.25c10.73,2.12,12.37,6.84,13.91,11.53l-7.08,5.43-3.51,10.08-21.84.5L78,296.43l-3.23-.18Z"/><g class="cls-18"><circle class="cls-3" cx="84.27" cy="295.14" r="1.24"/><circle class="cls-3" cx="78.2" cy="281.47" r="1.24"/><circle class="cls-3" cx="103.06" cy="286.34" r="1.24"/><circle class="cls-3" cx="108.35" cy="298.52" r="1.24"/><circle class="cls-3" cx="100.71" cy="305.75" r="1.24"/></g><polygon class="cls-1" points="108.02 357.47 108.27 364.36 113.48 371.59 117.71 363.27 117.71 356.79 108.02 357.47"/><path class="cls-2" d="M107.64,364.05c4.29,0,3.31,3,4.58,3.07,1.53.06,1.43-3.24,3.13-3.75a5.37,5.37,0,0,1,2.63-.27s-.19,2.42.83,3.23,10.41,4.35,12.41,6.06a3.33,3.33,0,0,1,.63,4.11L108,374.63Z"/><g class="cls-19"><path class="cls-3" d="M120.75,371.35l-.14,0a.36.36,0,0,1-.18-.47l1.82-4.06a.36.36,0,0,1,.47-.18.35.35,0,0,1,.18.46l-1.82,4.07A.36.36,0,0,1,120.75,371.35Z"/><path class="cls-3" d="M117,369.85a.36.36,0,0,1-.27-.12.36.36,0,0,1,0-.5l3.75-3.14a.36.36,0,0,1,.5.05.35.35,0,0,1,0,.49l-3.75,3.14A.34.34,0,0,1,117,369.85Z"/><path class="cls-3" d="M114.66,367.17a.36.36,0,0,1-.34-.25.36.36,0,0,1,.24-.44l4.77-1.46a.36.36,0,0,1,.21.68l-4.78,1.45Z"/></g><path class="cls-3" d="M107.79,371.27c2.8-1.63,8.27,4.55,9.51,4.09s-.62-2.13,1.11-2.95,4.64,2.53,5.81,2.34.7-1.93,2.08-2.18,4.63,3.16,6,2.5c1,1.9-.31,3.16-1.82,3.76H107.38C106.09,378.83,105,372.91,107.79,371.27Z"/><polygon class="cls-1" points="66.36 351.22 60.39 354.67 56.44 362.66 65.78 362.5 71.51 359.46 66.36 351.22"/><path class="cls-2" d="M60.37,354c2,3.79-1.12,4.34-.57,5.48.67,1.38,3.53-.26,4.79,1a5.39,5.39,0,0,1,1.47,2.19s-2.23,1-2.47,2.24,1,11.24.46,13.81a3.33,3.33,0,0,1-3.33,2.49L51.2,359.27Z"/><g class="cls-20"><path class="cls-3" d="M60.38,369.17a.36.36,0,0,1-.35-.33.35.35,0,0,1,.33-.38l4.44-.3a.36.36,0,1,1,0,.71l-4.45.3Z"/><path class="cls-3" d="M64.47,367a.3.3,0,0,1-.13,0l-4.53-1.85a.34.34,0,0,1-.19-.45.36.36,0,0,1,.46-.2l4.53,1.85a.33.33,0,0,1,.19.45A.35.35,0,0,1,64.47,367Z"/><path class="cls-3" d="M64.74,365.36a.35.35,0,0,1-.25-.1L61,361.72a.35.35,0,0,1,.5-.5L65,364.76a.35.35,0,0,1-.25.6Z"/></g><path class="cls-3" d="M54.06,357.49c2.76,1.71-.14,9.44.85,10.32s1.59-1.55,3.12-.4-.06,5.27.66,6.23,2-.29,2.9.81-.62,5.57.6,6.48c-1.22,1.75-2.93,1.21-4.16.15L47.2,360.67C46.59,359.52,51.3,355.79,54.06,357.49Z"/><path class="cls-4" d="M62.19,349.59l9.32,14.6S89.22,350,90.7,345.92c2.1-5.75-.83-20.79-.83-20.79,3.55,4.85,12.45,12,13.78,13.78s1.64,19.92,1.64,19.92l18.29.14s-4.25-24.49-5.68-29-18.75-22.66-18.75-22.66l-24.43,9.2s1,22.14.55,23.47S62.19,349.59,62.19,349.59Z"/><path class="cls-3" d="M89.82,312.68l1.16,2.1a4.26,4.26,0,0,0,4.11,2.2c2.7-.24,5.35,0,5,2.91-.44,3.8-6,.88-10.65,3.06-5.53,2.58-4.82,10.62-15.83,12.23-5.36.78-9.88-4.08-12.55-10.32-2.77-6.47-3.44-14,2.27-16.47,8.86-3.84,12.74.11,17.38-1.06,2.74-.69,7-5.56,10.82-6.76a5.09,5.09,0,0,1,5.43,2,1.22,1.22,0,0,1-.45,1.86l-4.8,2.31A4.29,4.29,0,0,0,89.82,312.68Z"/><rect class="cls-4" x="141.4" y="282.56" width="0.71" height="3.15" transform="translate(-105.85 85.33) rotate(-24.72)"/><circle class="cls-4" cx="140.98" cy="282.44" r="0.98"/><rect class="cls-4" x="137.99" y="283.99" width="0.71" height="3.15" transform="translate(-106.7 83.97) rotate(-24.71)"/><circle class="cls-4" cx="137.56" cy="283.88" r="0.98"/><rect class="cls-4" x="141.6" y="291.69" width="0.71" height="3.15" transform="translate(-109.65 86.26) rotate(-24.72)"/><circle class="cls-4" cx="142.73" cy="294.96" r="0.98"/><rect class="cls-4" x="145.01" y="290.26" width="0.71" height="3.16" transform="translate(-108.71 87.52) rotate(-24.72)"/><rect class="cls-2" x="82.73" y="298.62" width="61.02" height="6.7" transform="translate(-116.75 75.89) rotate(-24.94)"/><rect class="cls-3" x="134.94" y="285.42" width="11.08" height="7.76" transform="translate(-108.86 86.18) rotate(-24.93)"/><circle class="cls-4" cx="146.14" cy="293.53" r="0.98"/><rect class="cls-2" x="66.9" y="316.92" width="4.83" height="10.93" transform="translate(-129.41 59.24) rotate(-24.93)"/><rect class="cls-2" x="75.18" y="314.37" width="2.3" height="9.52" transform="translate(-127.35 61.87) rotate(-24.92)"/><rect class="cls-2" x="80.34" y="314.86" width="1.97" height="3.88" transform="translate(-125.99 63.83) rotate(-24.94)"/><path class="cls-1" d="M111.79,307.53l7.15-4.55c.19-1.12,1.22-2.05,2.36-3.26v-5.21l1.13-.54.84,5.12.3-.1-.59-5.86,1.19-.51.83,5.84.22-.13v-6.07l1.34-.42.24,5.82.24-.06.4-6,1.18-.33s1.43,8.4-.31,10.31S116,312.71,116,312.71Z"/><path class="cls-1" d="M72,294.05l.31,12.76c3,1.3,3.6,4.75,4.4,8.45l-1.82.62-1.8-5.22-.21.1,1.5,8-1.41.35-1.82-7-.23.07,1.75,8.38-1.22.47-2.68-8.25-.18,0,2.1,7.49-1.29.54-2.78-7.26-.18,0,1.44,5.79-1.2.78c-1.93-5-3.26-9.52-1.45-13.37l-1.45-9.22Z"/><path class="cls-1" d="M104.54,273.16a23.68,23.68,0,0,1-1.35,3.27c-.8,1.95-1.68,4.08-2.9,4.4-2.08.55-6.19-3.07-6.19-3.07l3.1-6.19S104.78,271.48,104.54,273.16Z"/><g class="cls-21"><path class="cls-3" d="M102.38,279.21a2,2,0,0,1-1.26-1.41l.34-.08a1.71,1.71,0,0,0,1.06,1.17Z"/></g><path class="cls-3" d="M102.08,276.27c-.19-.75-.4-1.09-1.17-1.12v-.35c1.07,0,1.32.68,1.5,1.38Z"/><polygon class="cls-3" points="103.59 274.77 103.11 275.3 100.41 272.99 100.7 272.73 103.59 274.77"/><circle class="cls-2" cx="97.75" cy="266.74" r="2.32"/><path class="cls-2" d="M104.54,273.16a3.48,3.48,0,0,1-2.75.87c-1.73,0-2.85-.42-4.53.88s-1.39,4-2.66,5.64-2.35,1.55-3.59,3.13c-.56.72-.44,2.12-.8,3.19a6.73,6.73,0,0,1-1.3,2.23l-12.78-6.4s.87-4.18,3.41-5.51,4.46-.6,5.72-1.51,1-2.29,3.34-3.13,3.11.26,4.7-.69,1.72-2.29,4.19-3.12c1.56-.53,2.23-.21,4,.65C103.83,270.5,104.72,271.61,104.54,273.16Z"/><path class="cls-4" d="M112.42,278l-1-.25c1-3.92,0-5.89-.74-6.75a2.43,2.43,0,0,1-2,.75,1.23,1.23,0,0,1-1-1.15,1.31,1.31,0,0,1,.63-1.34,2.22,2.22,0,0,1,2.23.25l.1-.16c.52-.89,1.43-3.34-1.46-6.64l.8-.69c3.34,3.81,2.21,6.77,1.57,7.87l-.2.31C112.25,271.18,113.51,273.48,112.42,278Zm-3.3-7.88a.55.55,0,0,0-.28.06s-.13.07-.11.3.1.23.14.24a1.39,1.39,0,0,0,.95-.4A1.54,1.54,0,0,0,109.12,270.1Z"/><path class="cls-4" d="M118.21,285.94l-.15-1.05c4-.56,5.47-2.18,6-3.18a2.39,2.39,0,0,1-1.44-1.58,1.24,1.24,0,0,1,.71-1.33,1.29,1.29,0,0,1,1.47.09,2.22,2.22,0,0,1,.6,2.16l.18,0c1,.16,3.63.1,5.63-3.8l.94.48c-2.31,4.52-5.48,4.56-6.73,4.37l-.36-.07C124.47,283.27,122.8,285.29,118.21,285.94Zm5.82-6.27a.45.45,0,0,0-.19.06c-.19.1-.18.18-.17.22,0,.2.29.49.72.74a1.13,1.13,0,0,0-.24-1A.17.17,0,0,0,124,279.67Z"/><path class="cls-4" d="M117.14,279.77l-.61-.86c3.3-2.34,3.87-4.45,3.88-5.58a2.34,2.34,0,0,1-2-.75,1.23,1.23,0,0,1,0-1.5,1.3,1.3,0,0,1,1.35-.6,2.26,2.26,0,0,1,1.52,1.65l.17-.05c1-.33,3.28-1.58,3.27-6h1c0,5.07-2.78,6.56-4,7l-.36.11C121.49,274.54,120.92,277.1,117.14,279.77Zm2.39-8.25s-.13,0-.22.16-.08.24-.06.27a1.38,1.38,0,0,0,1,.32,1.13,1.13,0,0,0-.65-.75Z"/><rect class="cls-1" x="186.11" y="149.04" width="4.58" height="83.09" transform="translate(-54.04 76.39) rotate(-20.11)"/><rect class="cls-1" x="135.18" y="200.9" width="60.85" height="4.58" transform="translate(-53.09 347.71) rotate(-84.28)"/><rect class="cls-1" x="110.02" y="198.31" width="59.4" height="4.58" transform="translate(-86.37 293.57) rotate(-77.5)"/><rect class="cls-3" x="153.78" y="124.19" width="25.16" height="4.58" transform="translate(11.71 267.03) rotate(-79.51)"/><polygon class="cls-4" points="150.56 122.71 186.13 122.71 173.57 173.94 139.01 172.19 150.56 122.71"/><path class="cls-1" d="M128.77,136l6.12,7.1,5.12-5s-.08-5,2.41-7.14a4.55,4.55,0,0,1,4.5-1.09l4.09,3.77-.5,1.5-3.32-1.09s-3.14,6.28-6.36,11.32c-2.13,3.33-4.29,6.12-5.59,6.17-5.88.24-10-5.3-10-5.3Z"/><polygon class="cls-1" points="84.29 205.19 81.55 211.6 84.11 217.4 90.97 212.99 93.28 208.34 84.29 205.19"/><path class="cls-2" d="M81.23,211.34l6,2.67c.72-1.47,1.87-2.13,4-.94l-1,2a2.42,2.42,0,0,0,.35,2.68l7.62,8.68a3.82,3.82,0,0,1,.55,4.21l-2.33,4.67-11.89-5.91-.25-1.65-1.14,1-8.47-4.22Z"/><g class="cls-22"><circle class="cls-3" cx="97.19" cy="231.9" r="8.07"/><rect class="cls-4" x="71.9" y="226.43" width="27.75" height="4.82" transform="translate(110.93 -14.25) rotate(26.46)"/><path class="cls-3" d="M87.79,219a.71.71,0,0,1-.23-1.37l4.16-1.45a.71.71,0,0,1,.47,1.34L88,219A.59.59,0,0,1,87.79,219Z"/><path class="cls-3" d="M89.86,221a.71.71,0,0,1-.66-.48.69.69,0,0,1,.43-.89l4.16-1.45a.71.71,0,0,1,.9.44.69.69,0,0,1-.43.89L90.09,221A.85.85,0,0,1,89.86,221Z"/><path class="cls-3" d="M91.94,223a.71.71,0,0,1-.23-1.38l4.16-1.44a.7.7,0,0,1,.46,1.33l-4.16,1.45A1,1,0,0,1,91.94,223Z"/></g><polygon class="cls-1" points="112.28 211.68 112.69 218.64 117.56 222.69 121.74 215.68 121.74 210.5 112.28 211.68"/><polygon class="cls-4" points="78.33 207.24 97.97 212.07 107.24 179.52 90.25 175.95 78.33 207.24"/><polygon class="cls-4" points="107.91 213.99 127.02 213.85 125.31 182.23 109.22 180.41 107.91 213.99"/><path class="cls-1" d="M90.88,150l-3.2,3.29-4.92-1.9c-1.48-3.83.66-6.91,3.13-11l7.84,3.18L90.48,148Z"/><polygon class="cls-2" points="120.55 117.44 122.37 121.27 120.07 121.27 120.55 117.44"/><polygon class="cls-1" points="106.17 129.81 111.78 119.51 117.21 120.96 116.44 130.1 110.63 131.2 106.17 129.81"/><g class="cls-23"><polygon class="cls-3" points="116.97 126.9 113.62 124.44 114.09 123.06 117.39 123.92 116.97 126.9"/></g><path class="cls-1" d="M107.4,127.9c2.85.33,5.33.29,9.18,1s-.45,3.93-.45,3.93l-9.64-1.77S104.55,127.58,107.4,127.9Z"/><path class="cls-1" d="M121.09,114.63a38,38,0,0,1-.45,5.61c-.29,2.18-.7,4.37-2,4.72a5.86,5.86,0,0,1-4.29-.79,13.2,13.2,0,0,1-2.44-1.63l.3-8.71,4.27-.68S120.93,113,121.09,114.63Z"/><g class="cls-24"><path class="cls-3" d="M121.25,122.19a6.36,6.36,0,0,1-2.58-.87l.17-.3a6,6,0,0,0,2.41.82Z"/></g><path class="cls-3" d="M110.4,122.07l1.76-3.26,2.75.14a4.55,4.55,0,0,0,.52-2.28c0-1.64.71-2.4,1.59-2.69,1.23-.41,3,1.24,4,.35.1-1.78-2-2.71-4.47-3.2-2.21-.45-5.44-.44-6.61,2.73a11,11,0,0,0-.64,6.35A3.93,3.93,0,0,0,110.4,122.07Z"/><path class="cls-1" d="M112,117.15h0a1.71,1.71,0,0,1,1.71,1.71V121a0,0,0,0,1,0,0h-1.25a2.16,2.16,0,0,1-2.16-2.16v0a1.71,1.71,0,0,1,1.71-1.71Z"/><polygon class="cls-3" points="112.41 119.78 111.37 118.51 111.65 118.29 112.68 119.56 112.41 119.78"/><path class="cls-5" d="M117.5,117.06a2.22,2.22,0,0,1,2.68,1.8C118.79,119,117.85,119,117.5,117.06Z"/><g class="cls-25"><circle class="cls-3" cx="119.59" cy="118.49" r="0.93"/></g><path class="cls-3" d="M120.71,116.26l-.16.74a19.14,19.14,0,0,0-3.34-.51V116A3.87,3.87,0,0,1,120.71,116.26Z"/><path class="cls-2" d="M107.1,127.85s1.3,1.91,4.73,2.07,4.78-1,4.78-1c9,1.44,14,5.59,18.59,12.33l-7.06,8.86-9.09-7.81-19-1.78-6,5.72-9.38-5.68C89.12,133.51,94.52,128.07,107.1,127.85Z"/><path class="cls-3" d="M100.31,128.37l3-.42,0,8.69,16.18,1.83,1.49-8.65,2.6.87c.07,17.31.86,32.47,2,55.91l-36.95-3.85C93.71,160.78,98.83,138.75,100.31,128.37Z"/><path class="cls-1" d="M96.4,164.73,94,166.38l-1.84-9.23C95.5,159.44,95.54,161.41,96.4,164.73Z"/><path class="cls-2" d="M76.53,165.7c6-6.56,9-1.13,14.32-2.32s10.35-4.77,14.34,1.65c4.85,7.79,2.65,20.51-12.68,23.17C73.34,191.53,71.24,171.53,76.53,165.7Z"/><path class="cls-1" d="M90.88,150l-8.12,1.39,3.61,8.47c-1.57,3.54,0,7.1,1.24,10.19l1.19-.24-1.29-6.09.12,0,2.23,7.32,1.12-.24-1.37-7.2.15,0,2,7.52,1.34-.32-1.37-7.52.11,0,1.66,6.12,1.19-.28Z"/><ellipse class="cls-4" cx="79.82" cy="173.12" rx="3.27" ry="2.9" transform="translate(-101.17 232.99) rotate(-83.55)"/><ellipse class="cls-4" cx="100.73" cy="172.85" rx="3.27" ry="2.9" transform="translate(-82.34 253.51) rotate(-83.55)"/><ellipse class="cls-3" cx="95.32" cy="181.78" rx="3.27" ry="2.9" transform="translate(-64.69 53.22) rotate(-23.55)"/><ellipse class="cls-1" cx="83.96" cy="181.8" rx="2.9" ry="3.27" transform="translate(-115.83 195.38) rotate(-69.1)"/><path class="cls-2" d="M89.88,200.84A3.74,3.74,0,0,0,88.51,203a1.77,1.77,0,0,0,.13,1.28,1.43,1.43,0,0,0,1.4.63,2.43,2.43,0,0,0,1.4-.78c.4-.43.73-1,1.28-1.16.28-.09.58-.08.86-.15a1.49,1.49,0,0,0,.53-2.64,2.24,2.24,0,0,0-2-.13A6,6,0,0,0,89.88,200.84Z"/><path class="cls-1" d="M110.65,167.6a2.4,2.4,0,0,1,1.72-.33,15.14,15.14,0,0,1,1.74.41,3.29,3.29,0,0,0,1.76,0,6.47,6.47,0,0,1,1.32-.46,1.54,1.54,0,0,1,1.21.49,2.64,2.64,0,0,1,.64,1.17,4.23,4.23,0,0,1-5.23,5.25,2.14,2.14,0,0,1-.9-.46,1.14,1.14,0,0,1-.41-.9c0-.47.4-.89.36-1.36a1.18,1.18,0,0,0-.74-.87c-.36-.17-.76-.24-1.13-.41A1.48,1.48,0,0,1,110.65,167.6Z"/><path class="cls-2" d="M116.71,150.68a1.13,1.13,0,0,0,1,.71,1.21,1.21,0,0,0,1-1,3,3,0,0,0-.14-1.53c-.2-.65-.81-1.29-1.36-.56A2.54,2.54,0,0,0,116.71,150.68Z"/><path class="cls-4" d="M107,142.82a7.38,7.38,0,0,1-2.61.76,8.69,8.69,0,0,0-1.35,0,1.81,1.81,0,0,0-1,3,3.13,3.13,0,0,0,1.52.84,6.28,6.28,0,0,1,1.64.64c.54.37.92.93,1.47,1.3a2.49,2.49,0,0,0,1.87.41,2.52,2.52,0,0,0,1.63-1,3.93,3.93,0,0,0,.61-2.4c0-.84-.13-1.68-.07-2.52s-.1-1.53-1-1.49A8,8,0,0,0,107,142.82Z"/><path class="cls-2" d="M112.28,218.55l6.55-.28c0-1.64.73-2.74,3.19-2.64v2.2a2.42,2.42,0,0,0,1.5,2.24l10.69,4.38a3.79,3.79,0,0,1,2.36,3.52v5.22H123.29l-1-1.36-.59,1.36h-9.46Z"/><g class="cls-26"><circle class="cls-3" cx="135.73" cy="229.85" r="8.07"/><rect class="cls-4" x="110.28" y="229.78" width="27.75" height="4.82"/><path class="cls-3" d="M121.27,222.58a.7.7,0,0,1-.5-1.2l3.08-3.15a.72.72,0,0,1,1,0,.71.71,0,0,1,0,1l-3.09,3.15A.69.69,0,0,1,121.27,222.58Z"/><path class="cls-3" d="M124,223.42a.73.73,0,0,1-.49-.2.71.71,0,0,1,0-1l3.08-3.15a.71.71,0,1,1,1,1l-3.08,3.15A.71.71,0,0,1,124,223.42Z"/><path class="cls-3" d="M126.73,224.26a.73.73,0,0,1-.49-.2.71.71,0,0,1,0-1l3.08-3.15a.71.71,0,0,1,1,1l-3.08,3.15A.71.71,0,0,1,126.73,224.26Z"/></g><rect class="cls-3" x="144.9" y="120.62" width="1.41" height="21.47" transform="translate(-50.46 134.68) rotate(-43.03)"/><path class="cls-1" d="M142,140.08l.59.18c3.77,1.68,4.83-1.1,6.93-5.16l-1.51-.94Z"/><path class="cls-2" d="M155.81,137.85c.9,1.12,2.49,7,2.49,7s-6.2-2.14-7.1-3.26a3,3,0,0,1,4.61-3.7Z"/><rect class="cls-2" x="134.46" y="170.88" width="44.94" height="4.98" transform="translate(10.53 -8.98) rotate(3.39)"/><circle class="cls-3" cx="152.54" cy="161.28" r="1.6"/><path class="cls-1" d="M168.39,126.19c-.73,1.57-4.48,1.42-5.08-.21.6,1.63-2.16,4.18-3.74,3.45,1.58.73,1.43,4.48-.2,5.08,1.63-.6,4.18,2.17,3.45,3.74.73-1.57,4.48-1.42,5.08.2-.6-1.62,2.16-4.17,3.74-3.45-1.58-.72-1.43-4.48.2-5.08C170.21,130.52,167.66,127.76,168.39,126.19Z"/><path class="cls-2" d="M161.1,156.09l-.74-1.2a7.53,7.53,0,0,0,3.79-4.76,3.24,3.24,0,0,1-.89-.55,2.08,2.08,0,0,1-.33-3,1.24,1.24,0,0,1,1.33-.46,2.44,2.44,0,0,1,1.37,2.2,5.07,5.07,0,0,1,.05.56,4.41,4.41,0,0,0,2.57-1.52,7.52,7.52,0,0,0,1.6-2.32,3.22,3.22,0,0,1-1.4-.69A1.76,1.76,0,0,1,168,142a1.59,1.59,0,0,1,1.56-.54,2.34,2.34,0,0,1,1.76,1.64,3.05,3.05,0,0,1,.13.62,6.64,6.64,0,0,0,3.18-2.12l1,1a7.58,7.58,0,0,1-4.36,2.62,8.19,8.19,0,0,1-2,3.23,5.58,5.58,0,0,1-3.73,2A9,9,0,0,1,161.1,156.09Zm2.84-8.45a.75.75,0,0,0,.26.89l0,0A2.15,2.15,0,0,0,163.94,147.64Zm5.3-4.84a.15.15,0,0,0-.13,0c0,.05,0,.26.27.48a1.58,1.58,0,0,0,.66.35c0-.07,0-.13,0-.18a1,1,0,0,0-.67-.7Z"/><path class="cls-3" d="M112.79,193a1.31,1.31,0,0,0,.08,1.3,1.7,1.7,0,0,0,1.24.54,2.69,2.69,0,0,0,1.13-.08,1.65,1.65,0,0,0,.27-3A2,2,0,0,0,112.79,193Z"/><polygon class="cls-1" points="890.57 580.84 894.73 587.6 899.54 595.26 904.6 587.85 900.48 576.65 890.57 580.84"/><path class="cls-2" d="M894.43,587.64c.22-.64.45-1.42,3.41-1s.3,4.54,2.85,4.59c1.18,0,2.46-3,3.9-3.4,1.82,6.36,3,11.8,2.61,14.67L879,603.72s-.63-5.88,3.1-7.79,10.11-3.73,11-5A10.28,10.28,0,0,0,894.43,587.64Z"/><g class="cls-27"><circle class="cls-4" cx="908.69" cy="596.85" r="7.45"/><path class="cls-4" d="M880.18,595.12A24.89,24.89,0,0,0,890.84,599l-14,4.25-.26-8.1Z"/><path class="cls-3" d="M877.93,599.69s3.69.9,5.52.6,5.91-2.45,8.23-2.34,3.13,1,4.46.62,3.9-2.49,6.45-2.49,6,.38,6,.38l1.24,8.3-32.89,1Z"/><path class="cls-3" d="M895.41,589.2c-1.07-1.45-2.6-2-3.42-1.21a1.57,1.57,0,0,0-.35.55h0a1.91,1.91,0,0,0-1.08,1.47,1.49,1.49,0,0,0-1.5-.48c-1,.33-1.47,2.07-1,3.89s1.67,3,2.69,2.66a1.44,1.44,0,0,0,.77-.68.74.74,0,0,1,.94-.35,1.2,1.2,0,0,0,.87.05,1.6,1.6,0,0,0,.94-1,.78.78,0,0,1,.73-.52,1.3,1.3,0,0,0,.94-.35C896.7,592.44,896.49,590.64,895.41,589.2Z"/></g><polygon class="cls-1" points="860.99 562.92 861.89 569.13 866.69 576.79 871.75 569.38 870.7 561.54 860.99 562.92"/><path class="cls-1" d="M871.92,497.38l1.2.31L875,505.8l9.7-.09,2.33,6.25-3.81,2.26s-13.33-.8-14.38-2.26-1.39-11.08-1.39-11.08l1.77-3Z"/><path class="cls-1" d="M912,509.14l4.5,4.58,5.67-9.76,5.11,4.65s-6.24,14.72-9.58,15.25-13.29-6.76-13.29-6.76l2.59-8.49Z"/><circle class="cls-2" cx="919.41" cy="488.15" r="3.72"/><circle class="cls-3" cx="900.42" cy="476.59" r="3.72"/><circle class="cls-4" cx="877.82" cy="484.03" r="3.72"/><path class="cls-1" d="M889.79,506.06c2.73,0,12.54.43,15.92.68s-5.78,11.11-5.78,11.11l-13.07-3.23S887.06,506.06,889.79,506.06Z"/><polygon class="cls-1" points="894.67 508.61 894.82 500.43 900.08 499.68 901.78 507.61 894.67 508.61"/><g class="cls-28"><polygon class="cls-3" points="901.37 503.53 897.2 503.53 897.33 501.93 900.3 500.06 901.37 503.53"/></g><path class="cls-1" d="M891,494.52a39.52,39.52,0,0,0,1.46,5.63A4.64,4.64,0,0,0,898,503c2.64-.49,3.88-2.23,3.37-5.27-.44-2.64-1.67-6.79-1.67-6.79Z"/><path class="cls-3" d="M896.87,500.28a2.28,2.28,0,0,1-.82-.14l.13-.33a2.25,2.25,0,0,0,2.4-.67l.28.23A2.63,2.63,0,0,1,896.87,500.28Z"/><circle class="cls-2" cx="896.93" cy="497.85" r="1.08"/><polygon class="cls-3" points="896.58 494.46 896.79 495.29 899.56 494.52 899.42 494.02 896.58 494.46"/><polygon class="cls-3" points="895.21 494.86 895.43 495.68 892.66 496.44 892.5 495.95 895.21 494.86"/><path class="cls-3" d="M900,490.92a19.92,19.92,0,0,1,1.57,5.85l-.93.14-1.5-5-.26-.86Z"/><polygon class="cls-3" points="891.71 493.8 892.83 498.72 891.91 498.93 890.61 494.52 891.71 493.8"/><path class="cls-3" d="M891.4,498.93s-.46-1.21-.91-2.82c-.3-1.05-.63-2.14-.23-2.82s1.11-.72,1.7-1.33.12-1.18,1.18-1.84,1.35,0,2.32-.49c.6-.29.51-1.06,2.39-1.66a2.11,2.11,0,0,1,2.74,2.74c-.49,1.19-2.2,1-3,1.33s-1.11,1.3-2.17,1.76-2,.3-2.79.67-.32,1.78-.32,1.78l-.36,2.68Z"/><path class="cls-1" d="M891.54,500.9l1.51-.19-1.24-3-.66.13a1.54,1.54,0,0,0-1.33,1.73h0A1.54,1.54,0,0,0,891.54,500.9Z"/><polygon class="cls-3" points="892 499.63 890.66 499.56 890.68 499.21 892.02 499.28 892 499.63"/><path class="cls-1" d="M902.64,497.75l-1.28.48-.53-3.21.78-.17a1.54,1.54,0,0,1,2,.93h0A1.55,1.55,0,0,1,902.64,497.75Z"/><polygon class="cls-3" points="901.49 496.84 901.31 496.54 902.68 495.74 902.86 496.05 901.49 496.84"/><path class="cls-3" d="M898.51,496.74a1.26,1.26,0,0,1-.33-.05.94.94,0,0,1-.64-.73l.34-.08a.61.61,0,0,0,.41.48.84.84,0,0,0,.76-.17.58.58,0,0,0,.18-.58l.34-.07a.91.91,0,0,1-.28.91A1.18,1.18,0,0,1,898.51,496.74Z"/><path class="cls-3" d="M894.29,497.91a.92.92,0,0,1-.29,0,.91.91,0,0,1-.67-.68l.34-.09a.58.58,0,0,0,.42.43.81.81,0,0,0,.76-.19.6.6,0,0,0,.15-.61l.34-.09a.94.94,0,0,1-.24.95A1.2,1.2,0,0,1,894.29,497.91Z"/><path class="cls-4" d="M883.26,524.16s5.56,3.67,5.86,4,10.61,1.28,10.61,1.28l5.68-11.86c1.34-5.11,3.32-8.5,6.61-8.41a9.6,9.6,0,0,0-7-2.5s-5.17,8.26-11.15,7-3-7.63-3-7.63a52.78,52.78,0,0,0-6.12-.27c1.18,3.51.11,6.13-1.46,8.53Z"/><path class="cls-1" d="M922.19,504l1.16,5.44,3.95-.79c5.56,1.68,8.45,0,10.54-5.74l-1-1.08-3.12,3.93-.1-.12,3.58-5-.61-.62-3.92,4.64-.1-.11,3.94-4.9-.82-.74-4.21,4.65-.1-.08,3.66-4.36-.88-.76L930,502.38l-1.15-.24,3-3.1-1.25-1L926,501.84C924.58,501.52,923.28,502,922.19,504Z"/><path class="cls-1" d="M873.12,497.69l-5.63,3.19-.45-2.56c-5.63-1.95-7.55-6.07-5.28-11.75l1.45-.15-.3,5,.15,0,.67-6.11.86-.05-.18,6.08.15,0,.34-6.29H866l0,6.27h.14l.18-5.68h1.16l.41,5.81,1,.59-.15-4.3,1.58.1.89,5.87C872.54,494.41,873.09,495.7,873.12,497.69Z"/><path class="cls-3" d="M889.87,583.24l17.42-6.6c-2.71-10.06-5.56-19.4-9.06-25.63a173.42,173.42,0,0,0,1.5-21.6l-16.47,4s-2.76,8.15-2.6,11.29,1.54,4.07,1.3,6.22-2.79,3.83-2.3,8.51,6.24,6.37,6.7,8.51-2.37,5.13-1.5,8S889.87,583.24,889.87,583.24Z"/><g class="cls-29"><path class="cls-4" d="M892.91,553.46c-1.39,3-8.58,2.72-9.72-.39,1.14,3.11-4.15,8-7.16,6.6,3,1.39,2.73,8.58-.39,9.72,3.12-1.14,8,4.14,6.61,7.15,1.39-3,8.57-2.72,9.72.39-1.15-3.11,4.14-8,7.15-6.6-3-1.39-2.72-8.58.39-9.72C896.4,561.75,891.52,556.47,892.91,553.46Z"/><path class="cls-4" d="M910.37,533.33c-1.39,3-8.58,2.73-9.73-.39,1.15,3.12-4.14,8-7.15,6.61,3,1.39,2.73,8.57-.39,9.72,3.12-1.15,8,4.14,6.6,7.15,1.4-3,8.58-2.72,9.73.39-1.15-3.11,4.14-8,7.15-6.6-3-1.39-2.72-8.58.39-9.72C913.86,541.63,909,536.35,910.37,533.33Z"/></g><path class="cls-2" d="M858,565l17.27-.6a26.54,26.54,0,0,0,1.05-8.9c-.37-3.85-2.7-6.46-2.55-7.84s2-3.08,2.33-5.26-1.8-5-1.8-5c11.33,2,22.12,2.82,25.56-8.08,0,0-5.59-4.6-18.51-6.26-9.3-1.19-16.5-1.05-19.45,1.94-3.32,3.38-1.63,8.79-2.74,14.15-.63,3-2.21,3.66-2.13,7.26s2.36,5.49,2.17,7.29-2.62,3.56-2.92,6.6A5.43,5.43,0,0,0,858,565Z"/><g class="cls-30"><path class="cls-3" d="M899.39,508.41c-1.39,3-8.58,2.72-9.73-.39,1.15,3.11-4.14,8-7.15,6.6,3,1.39,2.73,8.58-.39,9.72,3.12-1.14,8,4.14,6.6,7.16,1.39-3,8.58-2.73,9.73.39-1.15-3.12,4.14-8,7.15-6.61-3-1.39-2.72-8.58.39-9.72C902.88,516.7,898,511.42,899.39,508.41Z"/><path class="cls-3" d="M879.28,506c-1.39,3-8.58,2.72-9.72-.39,1.14,3.11-4.14,8-7.16,6.6,3,1.39,2.73,8.58-.39,9.72,3.12-1.14,8,4.14,6.61,7.16,1.39-3,8.57-2.73,9.72.38-1.15-3.11,4.14-8,7.15-6.6-3-1.39-2.72-8.58.39-9.72C882.77,514.29,877.89,509,879.28,506Z"/><path class="cls-3" d="M866.52,532.29c-1.39,3-8.58,2.72-9.73-.39,1.15,3.11-4.14,8-7.15,6.6,3,1.39,2.72,8.58-.39,9.73,3.11-1.15,8,4.14,6.6,7.15,1.39-3,8.58-2.73,9.73.39-1.15-3.12,4.14-8,7.15-6.6-3-1.4-2.72-8.58.39-9.73C870,540.59,865.13,535.3,866.52,532.29Z"/></g><path class="cls-2" d="M861.59,569.17c.21-.64.45-1.42,3.41-1s.3,4.54,2.84,4.59c1.18,0,2.47-3,3.91-3.4,1.81,6.36,3,11.8,2.6,14.67l-28.23,1.2s-.62-5.88,3.1-7.79,10.12-3.73,11-5A10.52,10.52,0,0,0,861.59,569.17Z"/><g class="cls-31"><circle class="cls-4" cx="875.85" cy="578.38" r="7.45"/><path class="cls-4" d="M847.33,576.65A24.88,24.88,0,0,0,858,580.5l-14,4.25-.26-8.1Z"/><path class="cls-3" d="M845.08,581.22s3.69.9,5.52.6,5.92-2.45,8.23-2.34,3.13,1,4.46.62,3.9-2.49,6.46-2.49,6,.38,6,.38l1.24,8.3-32.89,1Z"/><path class="cls-3" d="M862.56,570.73c-1.07-1.45-2.6-2-3.41-1.21a1.46,1.46,0,0,0-.36.55h0a1.88,1.88,0,0,0-1.07,1.47,1.51,1.51,0,0,0-1.51-.48c-1,.33-1.47,2.07-1,3.88s1.67,3,2.69,2.67a1.37,1.37,0,0,0,.77-.68.75.75,0,0,1,1-.35,1.17,1.17,0,0,0,.86,0,1.6,1.6,0,0,0,.94-1,.79.79,0,0,1,.73-.52,1.28,1.28,0,0,0,.94-.35C863.85,574,863.64,572.17,862.56,570.73Z"/></g><polygon class="cls-1" points="278.45 564.13 276.31 575.21 285.5 575.77 288.69 563.96 278.45 564.13"/><path class="cls-2" d="M272.15,585h15.92a10.59,10.59,0,0,0-2.91-6.51l.58-3.63H283a2.3,2.3,0,1,0-4.59,0l-2-.19-.48,2.65C273.24,580.33,272.23,582.88,272.15,585Z"/><g class="cls-32"><circle class="cls-3" cx="279.96" cy="588.03" r="9.02"/></g><rect class="cls-4" x="270.46" y="584.43" width="19.27" height="5.7" rx="2.85"/><path class="cls-3" d="M283.22,576.74h-5.53a.53.53,0,0,1,0-1.06h5.53a.53.53,0,1,1,0,1.06Z"/><path class="cls-3" d="M283.22,578.44h-5.53a.53.53,0,1,1,0-1.05h5.53a.53.53,0,1,1,0,1.05Z"/><rect class="cls-2" x="249.96" y="570.37" width="37.98" height="2.82" transform="translate(-344.55 723.05) rotate(-78.66)"/><rect class="cls-2" x="292.3" y="552.79" width="2.82" height="37.98" transform="translate(-106.66 68.89) rotate(-11.34)"/><path class="cls-2" d="M301.92,555.11H260.75a2.82,2.82,0,0,1,0-5.64h41.17a2.82,2.82,0,1,1,0,5.64Z"/><polygon class="cls-3" points="291.61 548.37 268.23 548.37 264.84 521.08 294.07 518.5 291.61 548.37"/><path class="cls-3" d="M271.14,571.12l17.65.54,12.52-30.35a8,8,0,0,0-6.81-11h0a8,8,0,0,0-7.85,4.78Z"/><path class="cls-1" d="M273.75,500.27c2.49-.82,6.65-1,11.32-1s.24,2.9.24,2.9l-10.17,2.28S271.26,501.09,273.75,500.27Z"/><path class="cls-1" d="M274.77,500.89c0-.11,2.46-8.33,2.46-8.33l5,.48.81,7.85Z"/><g class="cls-33"><polygon class="cls-3" points="283.02 497.95 278.62 496.2 279.26 494.79 282.49 494.56 283.02 497.95"/></g><path class="cls-1" d="M287.21,489.59c-.81,4.17-2.75,6.62-7.39,6-2.37-.29-4.59-3.87-4.33-7.19a14.53,14.53,0,0,1,2.48-6.26l7.95,1.1S288,485.43,287.21,489.59Z"/><path class="cls-1" d="M286.06,493.11l-.44-.23,2-3.88.44.23a2.18,2.18,0,0,1,1,2.92h0A2.19,2.19,0,0,1,286.06,493.11Z"/><path class="cls-3" d="M287.3,489.92l-.8-.37s.67-3.27.09-3.83-1.18-.16-1.6-.43-.22-.81-.79-1.16-1.1,0-1.71-.29c-.78-.31-.61-1-1.3-1.17a2.68,2.68,0,0,0-1.33,0l-.72-3.42a2.92,2.92,0,0,1,2.05-1.16c1.38-.09,1.85.77,2.29,1s1.3-.3,2.25.33c.73.48.52,1.24.79,1.57s.82.17,1.42,1-.26,1.62.05,2.15a2.43,2.43,0,0,1,.55,1.63A18.33,18.33,0,0,1,287.3,489.92Z"/><polygon class="cls-3" points="286.97 491.65 286.95 491.29 288.42 491.21 288.44 491.56 286.97 491.65"/><polygon class="cls-2" points="280.99 486.7 281.66 490.14 279.58 489.94 280.99 486.7"/><path class="cls-5" d="M285.9,487.86c-1.67-1.24-2.82-.88-3.63.56A2.79,2.79,0,0,0,285.9,487.86Z"/><g class="cls-34"><circle class="cls-3" cx="283.29" cy="487.85" r="1.15"/></g><path class="cls-3" d="M280.92,492.2a4,4,0,0,1-1.66-.28l.14-.32a5.06,5.06,0,0,0,2.37.21l0,.35C281.48,492.19,281.19,492.2,280.92,492.2Z"/><path class="cls-4" d="M265.29,480.18l14.18-2.64a72.84,72.84,0,0,1,1.13,7.74c.35,4.78-1,9.68-6,10.36s-7.38-3.1-8.23-7.65C265.71,484.44,265.29,480.18,265.29,480.18Z"/><path class="cls-3" d="M271.32,489.76l5.24-1.07a3.63,3.63,0,0,1-2.58,2.08A2.35,2.35,0,0,1,271.32,489.76Z"/><path class="cls-3" d="M278.63,483.78a4.76,4.76,0,0,1-3.9,2.52Q275,482.63,278.63,483.78Z"/><path class="cls-3" d="M267.77,485.62a4.74,4.74,0,0,0,4.51,1.1C271.28,484.46,269.78,484.1,267.77,485.62Z"/><path class="cls-3" d="M273.05,485.88l.24,0s1.19,2,1.14,2.06-1.39.24-1.39.24Z"/><path class="cls-4" d="M260.75,503.56c4.91-1.35,9.74-2.66,13.53-3.45a7.65,7.65,0,0,0,5.17.83c3-.54,3.88-1.69,3.88-1.69,11.61-1.39,14.23,2.34,15.15,8.29.46,3,.92,6.63,1.3,10.18l-9.17,7.18h-22.2Z"/><g class="cls-35"><path class="cls-2" d="M304.79,506.61c3.92-4.13-4.61-6.87-3.66-1.18-.95-5.69-8.42-.73-3.2,2.13-5.22-2.86-6,6.07-.33,3.83-5.67,2.24.83,8.42,2.78,2.65-1.95,5.77,6.94,4.54,3.81-.53,3.13,5.07,7.7-2.64,2-3.3C311.89,510.87,308.71,502.48,304.79,506.61Z"/><path class="cls-2" d="M274.24,493c3.93-4.13-4.61-6.87-3.65-1.17-1-5.7-8.43-.74-3.21,2.12-5.22-2.86-6,6.08-.33,3.83-5.66,2.25.84,8.42,2.79,2.65-1.95,5.77,6.93,4.54,3.81-.53,3.12,5.07,7.7-2.64,2-3.3C281.35,497.22,278.17,488.83,274.24,493Z"/><path class="cls-2" d="M283.57,506.69c3.93-4.13-4.61-6.87-3.65-1.17-1-5.7-8.43-.74-3.21,2.12-5.22-2.86-6,6.08-.33,3.83-5.66,2.25.84,8.42,2.79,2.65-1.95,5.77,6.93,4.54,3.81-.53,3.12,5.07,7.7-2.64,2-3.3C290.68,511,287.5,502.56,283.57,506.69Z"/><path class="cls-2" d="M278.31,524c3.92-4.13-4.62-6.87-3.66-1.17-1-5.7-8.43-.74-3.2,2.12-5.23-2.86-6,6.07-.34,3.83-5.66,2.24.84,8.42,2.79,2.65-1.95,5.77,6.93,4.54,3.81-.53,3.12,5.07,7.7-2.64,2-3.3C285.41,528.28,282.23,519.89,278.31,524Z"/></g><polygon class="cls-1" points="264.43 532.88 265.18 540.53 273.81 539.2 272.18 531.86 264.43 532.88"/><path class="cls-2" d="M250.68,550.05l25.91-3.43-2-9.2-6.07,1c-.66-1.4-1.91-1.68-3.65-1V540l-11.49,5.53a4.68,4.68,0,0,0-2.61,3.81Z"/><g class="cls-36"><path class="cls-3" d="M265.22,544.1a.53.53,0,0,1-.44-.23l-2.52-3.69a.53.53,0,0,1,.13-.74.54.54,0,0,1,.74.14l2.52,3.69a.53.53,0,0,1-.43.83Z"/><path class="cls-3" d="M267.25,541.06A.44.44,0,0,1,267,541l-3.3-1.73a.53.53,0,0,1,.49-.94l3.3,1.74a.52.52,0,0,1,.22.71A.53.53,0,0,1,267.25,541.06Z"/><circle class="cls-3" cx="254.65" cy="548.37" r="7.11"/></g><path class="cls-4" d="M277.55,547.86l.07.48a1.7,1.7,0,0,1-1.46,1.89l-24.57,2.92a1.68,1.68,0,0,1-1.87-1.53h0a1.67,1.67,0,0,1,1.44-1.79l24.5-3.41A1.67,1.67,0,0,1,277.55,547.86Z"/><path class="cls-3" d="M258.7,537.66,274.77,535l-7.27-21.44-11.94,1.84C253.73,516.23,256,526.5,258.7,537.66Z"/><path class="cls-1" d="M256.93,496.5l2.86,2.46,3.35-1.35.26-.6a4.38,4.38,0,0,0,3.43-3.37l3.13-2.91-.61-.88L264.8,493l-.12-.16,5.53-4.41-.43-.89-6,3.9-.09-.22,6-4.16-.66-.68L262.48,490l-.16-.14,6.07-3.79-.89-1.15-8,4.08Z"/><path class="cls-4" d="M269.48,515.21c-19.85,9.62-18.28-2-12.69-18.83l6.35,1.23-.62,5.95Z"/><g class="cls-37"><path class="cls-2" d="M258.89,513c3.93-4.13-4.61-6.88-3.65-1.18-1-5.7-8.43-.73-3.21,2.13-5.22-2.86-6,6.07-.33,3.83-5.66,2.24.84,8.42,2.79,2.64-2,5.78,6.93,4.55,3.81-.52,3.12,5.07,7.7-2.65,2-3.31C266,517.27,262.82,508.89,258.89,513Z"/><path class="cls-2" d="M255.17,493.33c3.92-4.13-4.62-6.87-3.66-1.17-1-5.7-8.43-.74-3.2,2.12-5.23-2.86-6,6.07-.34,3.83-5.66,2.24.84,8.42,2.79,2.65-1.95,5.77,6.93,4.54,3.81-.53,3.12,5.07,7.7-2.64,2-3.3C262.27,497.59,259.09,489.2,255.17,493.33Z"/></g><path class="cls-1" d="M283.55,529.66l-3.06,3.8c-4,0-5.71,1.49-8,6l1.3,1,3.27-3.08.17.09-5.1,6.53,1.07,1,5.32-5.46.11.1-5.52,6.43,1,.75,5.92-5.78.13.12-5.49,6,.93.67,6-5.5.13.1L277.94,547l.83,1c3.8-3,7.15-6.12,7.44-10.26l2.75-3.07Z"/><path class="cls-4" d="M288.43,513c4.32,2.7,8.41,4.91,11.35,4.69,0,0,.86,6.36-1.69,9.34s-10.88,10.12-10.88,10.12l-5.72-6.61,8.6-7.58Z"/><g class="cls-38"><path class="cls-2" d="M292.14,520.07c3.92-4.13-4.61-6.88-3.66-1.18-1-5.7-8.42-.73-3.2,2.13-5.22-2.86-6,6.07-.33,3.83-5.67,2.24.83,8.42,2.78,2.65-2,5.77,6.93,4.54,3.81-.53,3.12,5.07,7.7-2.65,2-3.31C299.24,524.32,296.06,515.94,292.14,520.07Z"/></g><polygon class="cls-3" points="261.95 510.99 261.6 510.95 262.69 500.16 263.05 500.19 261.95 510.99"/><polygon class="cls-3" points="289.91 523.02 288.26 511.96 288.61 511.9 290.26 522.97 289.91 523.02"/><polygon class="cls-3" points="282.47 485.75 282.29 486.55 285.17 486.64 286.06 486.94 286.21 486.54 285.27 486.03 282.47 485.75"/><path class="cls-1" d="M898.12,233c-2.69,7.44-6.9,15.23-3,14.7l3,28.82h-3.8s-13.41-15.34-13.05-25.4,12.62-28.25,12.62-28.25Z"/><path class="cls-3" d="M892.2,296h-15a2,2,0,0,1,.65-1.43c.67-.56,1.46.07,2.17-.4s-.08-2.23,1.4-3.6,2.37-.51,3.29-1.37.43-3.41,3.39-4.48,2.58.9,6.17.94,1.59,3.19,1.62,5c0,1,1.39,1.91,1.64,3.1.22,1-.84,2.24-.84,2.24Z"/><path class="cls-3" d="M904,250l5.91-1.82,6.85-16.34,7.61,2.89-7.78,16.1c.81,6.25-.76,9.7-2.73,12.67Z"/><path class="cls-4" d="M918.94,241.28l28-47.17a3.09,3.09,0,0,1-1.08-4.23l-2.56-1.52a3.09,3.09,0,0,1-5.3-3.16l-2.56-1.52a3.08,3.08,0,1,1-5.3-3.15L927.63,179a3.08,3.08,0,0,1-5.3-3.15l-2.56-1.52a3.09,3.09,0,0,1-4.23,1.07l-28,47.17a3.09,3.09,0,0,1,1.07,4.23l2.56,1.52a3.08,3.08,0,1,1,5.3,3.15L899,233a3.09,3.09,0,0,1,5.31,3.16l2.55,1.52a3.09,3.09,0,1,1,5.31,3.15l2.56,1.52A3.08,3.08,0,0,1,918.94,241.28Z"/><path class="cls-5" d="M919.15,231.83l19.63-33a3.09,3.09,0,0,1-1.07-4.23l-18.14-10.79a3.09,3.09,0,0,1-4.23,1.08l-19.64,33a3.08,3.08,0,0,1,1.08,4.23l18.14,10.78A3.09,3.09,0,0,1,919.15,231.83Z"/><rect class="cls-4" x="923.36" y="187.54" width="0.56" height="20.08" transform="matrix(0.51, -0.86, 0.86, 0.51, 281.8, 890.54)"/><rect class="cls-4" x="919.05" y="194.8" width="0.56" height="20.08" transform="matrix(0.51, -0.86, 0.86, 0.51, 273.45, 890.38)"/><path class="cls-4" d="M918.38,212.18c-1.51,1-4.83-1.13-4.49-2.93-.34,1.8-4.22,2.62-5.25,1.12,1,1.5-1.13,4.83-2.92,4.49,1.79.34,2.62,4.21,1.11,5.25,1.51-1,4.83,1.12,4.5,2.92.33-1.8,4.21-2.62,5.24-1.11-1-1.51,1.13-4.83,2.92-4.5C917.7,217.09,916.87,213.21,918.38,212.18Z"/><circle class="cls-4" cx="921.62" cy="201.29" r="3.12"/><circle class="cls-4" cx="927.77" cy="204.95" r="0.98"/><path class="cls-4" d="M917.26,197.15c2.14-.6-.18-3.22-1-1.12.81-2.1-2.68-1.93-1.5.07-1.18-2-3.22.84-.87,1.22-2.35-.38-1.4,3,.4,1.44-1.8,1.54,1.42,2.9,1.38.58,0,2.32,3.11.65,1.32-.72C918.79,200,919.4,196.55,917.26,197.15Z"/><path class="cls-4" d="M930.87,200.14a3.23,3.23,0,0,1-1.34-2.29,3.48,3.48,0,0,1-4.54-2.28,4.27,4.27,0,0,1-4.63-2.94,3.23,3.23,0,0,1-2.43-.18l.29-.48a2.65,2.65,0,0,0,2,.11c0-.14,0-.27,0-.41a2.68,2.68,0,0,1,1.11-2.29,1.24,1.24,0,0,1,1.3,0,1,1,0,0,1,.54.87c0,.71-.82,1.42-1.57,1.84a6.18,6.18,0,0,1-.73.34,3.69,3.69,0,0,0,4,2.58,3.83,3.83,0,0,1,.4-2.49,1.22,1.22,0,0,1,2.33.53,2.71,2.71,0,0,1-1.5,2.1,3,3,0,0,1-.55.25,2.93,2.93,0,0,0,3.93,1.86c0-.15,0-.3,0-.45,0-.9.26-2,.89-2.34a.9.9,0,0,1,.95,0,1.07,1.07,0,0,1,.54.94,2.81,2.81,0,0,1-1.6,2.07l-.16.08a2.75,2.75,0,0,0,1.09,2Zm-.11-5.21a.26.26,0,0,0-.14,0,2.42,2.42,0,0,0-.61,1.87V197a2.29,2.29,0,0,0,1.26-1.55A.51.51,0,0,0,931,195,.45.45,0,0,0,930.76,194.93Zm-4.39-2.58a.81.81,0,0,0-.63.48,3.16,3.16,0,0,0-.33,2,2.61,2.61,0,0,0,.41-.2,2.14,2.14,0,0,0,1.21-1.62.65.65,0,0,0-.34-.61A.62.62,0,0,0,926.37,192.35ZM922,189.77a.64.64,0,0,0-.35.1,2.13,2.13,0,0,0-.83,1.81v.2a5.64,5.64,0,0,0,.55-.26c.75-.42,1.27-1,1.28-1.36,0-.09,0-.23-.27-.38A.76.76,0,0,0,922,189.77Z"/><path class="cls-2" d="M934.1,232.37,906.42,185a3.08,3.08,0,0,1-4.22-1.1l-2.57,1.5a3.08,3.08,0,1,1-5.32,3.11l-2.57,1.5a3.09,3.09,0,0,1-5.33,3.11l-2.57,1.5a3.09,3.09,0,0,1-5.33,3.12l-2.57,1.5a3.08,3.08,0,0,1-1.11,4.22l27.68,47.38a3.08,3.08,0,0,1,4.22,1.11l2.57-1.5a3.09,3.09,0,1,1,5.33-3.11l2.57-1.51a3.09,3.09,0,1,1,5.33-3.11l2.57-1.5a3.09,3.09,0,0,1,5.33-3.11l2.57-1.5A3.08,3.08,0,0,1,934.1,232.37Z"/><path class="cls-5" d="M925.94,227.61l-19.39-33.18a3.07,3.07,0,0,1-4.21-1.1L884.11,204a3.09,3.09,0,0,1-1.11,4.22l19.38,33.18a3.08,3.08,0,0,1,4.22,1.11l18.23-10.65A3.09,3.09,0,0,1,925.94,227.61Z"/><rect class="cls-2" x="888.12" y="206.81" width="20.08" height="0.56" transform="translate(17.93 480.54) rotate(-30.24)"/><rect class="cls-2" x="892.37" y="214.1" width="20.08" height="0.56" transform="translate(14.84 483.68) rotate(-30.24)"/><path class="cls-2" d="M908.08,215.69c.25,2.62-4.79,5.3-6.82,3.63,2,1.67.36,7.13-2.26,7.38,2.62-.25,5.3,4.79,3.63,6.82,1.67-2,7.13-.36,7.38,2.26-.25-2.62,4.79-5.3,6.82-3.62-2-1.68-.36-7.14,2.26-7.39-2.62.25-5.3-4.79-3.63-6.82C913.79,220,908.33,218.31,908.08,215.69Z"/><circle class="cls-2" cx="900.42" cy="210.66" r="3.12"/><circle class="cls-2" cx="906.6" cy="207.05" r="0.98"/><path class="cls-2" d="M894.68,212.46c.51-2.16-2.9-1.4-1.46.33-1.44-1.73-3,1.41-.66,1.34-2.32.07-.82,3.22.64,1.36-1.46,1.86,1.94,2.66,1.46.34.48,2.32,3.23.16,1.18-.93,2,1.09,2.07-2.4,0-1.49C897.91,212.5,895.19,210.3,894.68,212.46Z"/><path class="cls-2" d="M890.9,209.6l-.28-.48a2.63,2.63,0,0,0,1.08-1.74l-.36-.18a2.71,2.71,0,0,1-1.47-2.09,1.24,1.24,0,0,1,.66-1.12.92.92,0,0,1,1-.05,2.69,2.69,0,0,1,.85,2.26,5.77,5.77,0,0,1,0,.81,3.43,3.43,0,0,0,2.61-.42,3.46,3.46,0,0,0,1.56-1.8,3.81,3.81,0,0,1-2-1.55,1.19,1.19,0,0,1,.33-1.78,1.4,1.4,0,0,1,2,.72,3.38,3.38,0,0,1,.37,2.21,2.93,2.93,0,0,0,3.52-2.54l-.4-.21c-.78-.44-1.61-1.18-1.62-1.91a.93.93,0,0,1,.5-.81,1.07,1.07,0,0,1,1.08,0,2.84,2.84,0,0,1,1,2.41,1.09,1.09,0,0,1,0,.18,2.81,2.81,0,0,0,2.32,0l.28.48a3.24,3.24,0,0,1-2.66.07,3.47,3.47,0,0,1-1.68,2.47,3.54,3.54,0,0,1-2.51.4,3.92,3.92,0,0,1-1.82,2.13,4,4,0,0,1-3,.49A3.22,3.22,0,0,1,890.9,209.6Zm.2-5.22a.56.56,0,0,0-.29.09.71.71,0,0,0-.38.64,2.18,2.18,0,0,0,1.19,1.6l.18.1c0-.21,0-.42,0-.61a2.25,2.25,0,0,0-.57-1.78A.34.34,0,0,0,891.1,204.38Zm4.4-2.55a.68.68,0,0,0-.36.11c-.44.26-.31.69-.13,1a3.28,3.28,0,0,0,1.64,1.27,2.82,2.82,0,0,0-.31-1.77C896.24,202.29,895.93,201.83,895.5,201.83Zm4.25-2.51a.54.54,0,0,0-.28.09.36.36,0,0,0-.22.32c0,.33.46.93,1.34,1.43l.16.08a2.29,2.29,0,0,0-.75-1.85A.45.45,0,0,0,899.75,199.32Z"/><path class="cls-1" d="M886.4,296h30.88V265.12c0-1.94-9.51-15.42-9.51-15.42,1.66-8.07,3.81-15.57,4.31-23.51l-6.6-2.16c-4.48,9.27-8.49,18-10.61,24.46l-.21,27.17Z"/><path class="cls-3" d="M899.08,296h25.77a6.39,6.39,0,0,0-2.23-3.74c-1.81-1.26-3.83-.6-5.34-1.11s-1.3-4.52-5.7-4.26-4.83,4-6.28,4.66-2.58.21-4.4,1.54A4,4,0,0,0,899.08,296Z"/><circle class="cls-3" cx="904.99" cy="236.96" r="2.65"/><polygon class="cls-3" points="904.27 230.81 909.37 232.53 910.57 227.85 906.16 226.3 904.27 230.81"/><rect class="cls-1" x="1049.25" y="214.7" width="7.91" height="9.1" transform="matrix(0.95, -0.32, 0.32, 0.95, -14.52, 350.69)"/><rect class="cls-1" x="1025.93" y="217.5" width="7.91" height="9.1"/><path class="cls-4" d="M1019.36,219.25l15.67.7a166.35,166.35,0,0,0,1.73-36.39c2.87,9.88,5,22.61,6.81,36.39l17.29-4.55c-3.88-24.64-8.45-44.86-15-52.12l-22.57,19.61C1023,193.94,1021.93,199.33,1019.36,219.25Z"/><g class="cls-39"><path class="cls-3" d="M1058.48,172.48c5.25-5.53-6.18-9.2-4.9-1.57-1.28-7.63-11.27-1-4.28,2.84-7-3.83-8,8.13-.45,5.13-7.58,3,1.12,11.26,3.73,3.54-2.61,7.72,9.28,6.07,5.09-.71,4.19,6.78,10.31-3.53,2.63-4.42C1068,178.18,1063.73,167,1058.48,172.48Z"/><path class="cls-3" d="M1042.63,195.31c7.68.89,3.43-10.33-1.82-4.81,3.8-4-1.15-7-3.68-5.49,1,6.63,1,13.57,1.94,20.23,1.63-.74,2.68-2.67.94-5.5C1044.19,206.52,1050.31,196.2,1042.63,195.31Z"/><path class="cls-3" d="M1067.34,210.16c5.26-5.52-6.17-9.2-4.89-1.57-1.28-7.63-11.27-1-4.28,2.85-7-3.83-8,8.12-.45,5.12-7.58,3,1.12,11.26,3.73,3.54-2.61,7.72,9.27,6.08,5.09-.71,4.18,6.79,10.31-3.53,2.63-4.42C1076.85,215.86,1072.6,204.64,1067.34,210.16Z"/><path class="cls-3" d="M1022.81,211.47c5.25-5.53-6.17-9.2-4.89-1.57-1.28-7.63-11.27-1-4.29,2.84-7-3.83-8,8.13-.44,5.13-7.58,3,1.12,11.26,3.73,3.54-2.61,7.72,9.27,6.07,5.09-.71,4.18,6.78,10.3-3.54,2.62-4.42C1032.31,217.16,1028.06,205.94,1022.81,211.47Z"/><path class="cls-3" d="M1027.4,185.13c5.25-5.52-6.17-9.19-4.9-1.57-1.27-7.62-11.27-1-4.28,2.85-7-3.83-8,8.12-.44,5.12-7.59,3,1.11,11.27,3.72,3.54-2.61,7.73,9.28,6.08,5.1-.7,4.18,6.78,10.3-3.54,2.62-4.43C1036.9,190.83,1032.65,179.61,1027.4,185.13Z"/><path class="cls-3" d="M1038.27,198.7c-2.89-.24-6.08,3.71-1.29,6.33-7-3.83-8,8.13-.45,5.13-6.78,2.68-.54,9.57,2.72,5.47A98.7,98.7,0,0,0,1038.27,198.7Z"/></g><path class="cls-2" d="M1012.05,142.52c2.17,2.89-1.14,7.93,2.78,10.84a3.2,3.2,0,0,1,.69-1.38c.51-.52.67-.21,1.34-.75s.55-1.17,1-1.53a5.21,5.21,0,0,0,1.53-1.25,10.87,10.87,0,0,0,1.08-2.82Z"/><polygon class="cls-3" points="1014.15 144.14 1014.15 146.68 1016.03 145.76 1014.15 144.14"/><polygon class="cls-1" points="1020.38 145.45 1023.43 150.81 1028.84 145.45 1021.88 141.44 1020.38 145.45"/><path class="cls-1" d="M1021.56,149.13a19.67,19.67,0,0,1,7.28-5c3.23-1.32,1.87,4.51,1.87,4.51l-7.37,4.95S1019.83,151,1021.56,149.13Z"/><path class="cls-1" d="M1011.94,142.49l2.85,2.57c1.27,1.15,2.8,2.61,3.92,2.31s1.7-1.68,2.28-2.63,1-1.86,1-1.86l-6.82-5.84-3.28,3.13Z"/><g class="cls-40"><path class="cls-3" d="M1015.92,146.89l-.22-.28a2.21,2.21,0,0,0,.81-1.55h.35A2.59,2.59,0,0,1,1015.92,146.89Z"/></g><polygon class="cls-2" points="1013.25 142.7 1013.63 143.07 1014.48 142.08 1015.66 141.24 1015.42 141.02 1014.08 141.75 1013.25 142.7"/><path class="cls-2" d="M1011.88,143.74l1.52-1.86-.69-1.32,1.29.72,1.45-1.73c4.21,1.94,3,4.78,6.29,7.13a7.4,7.4,0,0,1,1.1-1.87c.5-.46.74-.29,1.34-1s.51-1.15.89-1.53.89-.48,1.42-1.05a2.23,2.23,0,0,0,.47-1.63s-7.36-6.36-11.3-5.4c-2.4.59-5.4,5.07-5.4,6.89A3.12,3.12,0,0,0,1011.88,143.74Z"/><path class="cls-5" d="M1015.76,141.8c.65.45.17,2-.77,2.34A1.69,1.69,0,0,1,1015.76,141.8Z"/><g class="cls-41"><circle class="cls-3" cx="1015.18" cy="143.49" r="0.81"/></g><polygon class="cls-1" points="1015.34 168.28 1017.56 177.83 1026.96 170.56 1024.61 162.28 1015.34 168.28"/><path class="cls-2" d="M1022.13,148.53s1.95,1.66,4.13-.64,1.25-3.21,1.25-3.21l16.52,2.81-17.67,20.93-10.94,1.63c-.8-4.25-1-8,.18-11.44A29.57,29.57,0,0,1,1022.13,148.53Z"/><path class="cls-3" d="M1067.85,121.92h0a8.68,8.68,0,0,1,1.69,12.14l-61.08,80.88-14.31,7.52a2,2,0,0,1-2.84-2.15l3.32-15.82,61.08-80.87A8.67,8.67,0,0,1,1067.85,121.92Z"/><g class="cls-42"><path class="cls-1" d="M1010.05,219.18c-1.75-1.32-.26-3.29-2-4.61s-3.23.65-5-.67-.26-3.29-2-4.61-3.24.65-5-.67-.26-3.3-2-4.62l-6.59,8.74L1006.29,227Z"/><rect class="cls-1" x="1051.31" y="121.16" width="31.33" height="12.71" transform="translate(1841.57 872.29) rotate(-142.94)"/><polygon class="cls-1" points="1002.2 215.19 1001.92 214.97 1065.79 130.41 1066.07 130.62 1002.2 215.19"/><polygon class="cls-1" points="995.23 209.92 994.95 209.71 1058.82 125.14 1059.1 125.36 995.23 209.92"/></g><path class="cls-1" d="M1046.37,142.62s14,2.37,12.9,8.51-15.7,15.74-15.7,15.74l-3.81-4.59,9-9.69-8.32-3.87Z"/><path class="cls-2" d="M1050.47,142.52l-6.44,9.75-8.91-2.56.41-1.77-8-3.26a19.83,19.83,0,0,1,9.81-5.24C1042.32,138.44,1046.46,140.65,1050.47,142.52Z"/><path class="cls-1" d="M1042.4,160.55l-2.64,1.73c-4.43.26-6.21,1.8-8.77,5.13l.83,1,4.56-3.51.12.12-6.2,5.77.66,1,5.68-4.48.12.12-5.94,6.08.92,1,6.64-5.6.15.14-5.66,6,.84.86,6-5.06.12.12-4.29,4.36.75,1c4-2.59,7.58-5.77,7.7-9.39l2.5-2.07Z"/><path class="cls-1" d="M1017.53,188.43l1-.8,2.66,3.39.32-.23-1.92-8.13.9-.72,2.2,5.71.12-.05-1.6-6.86,1-.6,2.33,6.28.14-.07-1.25-6.44,1-.41,2.13,6.08.17-.09-1-5.17.95-.39a18.35,18.35,0,0,1,2.82,7.22,7.32,7.32,0,0,1-2.21,6.6c-1.55,1.41-3.09,2.06-4.45,1.75C1019.29,194.71,1017.53,188.43,1017.53,188.43Z"/><path class="cls-2" d="M1034.25,224.23v13a.58.58,0,0,1-.58.58h-20.39a.59.59,0,0,1-.59-.58V234a3.21,3.21,0,0,1,1.82-2.89l9.78-4.72a2.28,2.28,0,0,0,1.28-2l0-2.75c1.69-.07,2.73.64,2.82,2.46Z"/><g class="cls-43"><circle class="cls-3" cx="1030.36" cy="229.03" r="1.75"/><path class="cls-3" d="M1026.31,227.8a.55.55,0,0,1-.37-.15l-3.36-3.32a.53.53,0,1,1,.74-.75l3.37,3.32a.53.53,0,0,1-.38.9Z"/><path class="cls-3" d="M1023.91,228.63a.49.49,0,0,1-.37-.15l-3.37-3.32a.51.51,0,0,1,0-.74.53.53,0,0,1,.75,0l3.36,3.32a.53.53,0,0,1,0,.75A.55.55,0,0,1,1023.91,228.63Z"/><path class="cls-3" d="M1021.5,229.46a.51.51,0,0,1-.37-.15l-3.36-3.32a.53.53,0,1,1,.74-.75l3.37,3.32a.53.53,0,0,1-.38.9Z"/><circle class="cls-4" cx="1011.65" cy="233.59" r="7"/><rect class="cls-3" x="1010.6" y="234.64" width="25.38" height="4.73"/></g><path class="cls-2" d="M1057.62,219.25l4.92,12a.59.59,0,0,1-.32.76l-18.88,7.72a.58.58,0,0,1-.76-.32l-1.23-3a3.21,3.21,0,0,1,.59-3.37l7.26-8.07a2.26,2.26,0,0,0,.43-2.33l-1-2.56c1.54-.71,2.76-.45,3.54,1.2Z"/><g class="cls-44"><circle class="cls-3" cx="1055.84" cy="225.16" r="1.75"/><path class="cls-3" d="M1051.43,225.6a.48.48,0,0,1-.2,0l-4.37-1.8a.53.53,0,0,1-.29-.69.54.54,0,0,1,.69-.29l4.37,1.8a.53.53,0,0,1,.29.69A.52.52,0,0,1,1051.43,225.6Z"/><path class="cls-3" d="M1049.52,227.28a.45.45,0,0,1-.2,0l-4.37-1.8a.53.53,0,0,1-.29-.69.54.54,0,0,1,.69-.29l4.37,1.8a.53.53,0,0,1-.2,1Z"/><path class="cls-3" d="M1047.61,229a.45.45,0,0,1-.2,0l-4.38-1.8a.52.52,0,0,1-.28-.69.54.54,0,0,1,.69-.29l4.37,1.8a.53.53,0,0,1-.2,1Z"/><circle class="cls-4" cx="1040.21" cy="235.58" r="7"/><rect class="cls-3" x="1039.63" y="232.86" width="25.38" height="4.73" transform="translate(-10.71 416.01) rotate(-22.25)"/></g><path class="cls-3" d="M1015.91,257a16.49,16.49,0,0,1-11.15-4l-.36-.33a14.66,14.66,0,0,1-12.19,2.26,11.25,11.25,0,0,1-8.24-7.35c-2.36-6.58.24-15.34,3.88-20.25l2.83,2.1c-3.14,4.23-5.27,11.73-3.39,17a7.75,7.75,0,0,0,5.77,5.12,10.89,10.89,0,0,0,9-1.54c-2.19-3.28-3-7.14-1.85-10a4.86,4.86,0,0,1,4.9-3.23,5.15,5.15,0,0,1,4.86,3c1.23,2.74.16,6.85-2.66,10.22-.1.13-.21.26-.32.38l.06,0c2.93,2.59,9.69,5.91,21.94-.86l1.71,3.09C1024.78,255.81,1019.87,257,1015.91,257ZM1005,240.18a1.39,1.39,0,0,0-1.44,1c-.52,1.33-.25,3.86,1.22,6.31,2.07-2.53,2.61-5.18,2.06-6.4-.11-.24-.39-.87-1.76-.91Z"/><path class="cls-4" d="M1061,471.85l0,17.73a1.63,1.63,0,0,1-1.4,1.61,4.74,4.74,0,0,0-3.86,2.71l9.32,0,3-20.06Z"/><path class="cls-4" d="M1076.88,472.08c1.12,6.31,2.23,9.69,5.11,13.92l-.42,4.5a1.59,1.59,0,0,1-1.3,1.43c-1.67.34-3.11,1-3.63,2.65l8.78.8,1.91-13.85,1.83-8.08-7.45-3.43Z"/><path class="cls-2" d="M1090.18,468.09a1.76,1.76,0,0,1-1.34-2.9c5.76-6.81,8.16-11.66,7.33-14.81-.47-1.8-2.1-3.2-5-4.26a1.76,1.76,0,1,1,1.23-3.3c4,1.46,6.37,3.71,7.15,6.67,1.18,4.46-1.31,10-8,18A1.75,1.75,0,0,1,1090.18,468.09Z"/><path class="cls-2" d="M1051.28,456.87l-6.71,9-1.56-1.93c-5.88,2-10.37,2-11.32-3a.66.66,0,0,1,.41-.74l4.71-1.83s.21-6.22,6.06-6.56C1047,451.55,1051.28,456.87,1051.28,456.87Z"/><g class="cls-45"><path class="cls-3" d="M1031.52,463.57l0-.35a6,6,0,0,0,3.65-1.55l.24.26A6.25,6.25,0,0,1,1031.52,463.57Z"/><path class="cls-3" d="M1033.3,459l.35,1.59a.83.83,0,0,1-.56,1l-1.88.58-.32-2Z"/></g><path class="cls-2" d="M1044.67,460.24l-.1,5.61s6.6,11.45,13.83,11.59c8.7.17,26-1.78,26-1.78l9.56-3.73c1.67-7.37-2.44-12.46-10.32-14.42-9.9-2.45-18.3,0-30.86.46l-1.54-1.1Z"/><g class="cls-46"><path class="cls-3" d="M1059.46,472.94c18.35-1.72,22.08-1.15,26.67,2.44l-15.73,5.82-13.46-.13Z"/></g><path class="cls-2" d="M1053.52,476.57l-8.86,6.18-.4,8.87c2.8.15,3.4-1.94,3.71-5.9a1.63,1.63,0,0,1,.93-1.35c2.44-1.13,9.24-4.31,10.39-5,1.4-.85,3.13-9.5,3.13-9.5l-7.79.52Z"/><path class="cls-2" d="M1094,471.93c-.76,3.28,4,8,4.19,10.59l1.09,12.12-8.36,2.48a7.73,7.73,0,0,1,3.2-4.5,1.62,1.62,0,0,0,.71-1.51l-.53-4.95c-5-2.72-8.71-8-10.93-12.74l2.12-3.77Z"/><path class="cls-5" d="M1042.71,457.16c-2.24-.57-3.69.32-4.51,2.38A3.52,3.52,0,0,0,1042.71,457.16Z"/><g class="cls-47"><circle class="cls-3" cx="1041.77" cy="458.24" r="1.59"/></g><path class="cls-3" d="M1042.44,452.16c.38-1.15,6.8-.22,6.85,1.24s0,5.78-2.21,6S1042.06,453.31,1042.44,452.16Z"/><path class="cls-1" d="M71,518.68H60.86v-2.95H71a7.9,7.9,0,0,0,7.9-7.89v-3.76h3v3.76A10.86,10.86,0,0,1,71,518.68Z"/><path class="cls-1" d="M59.72,510.41H49.14a10.07,10.07,0,0,1-10.06-10.06v-5h3v5a7.12,7.12,0,0,0,7.11,7.11H59.72Z"/><path class="cls-4" d="M36.14,486.11H45a5.33,5.33,0,0,1,5.33,5.33v7.41a0,0,0,0,1,0,0H30.81a0,0,0,0,1,0,0v-7.41A5.33,5.33,0,0,1,36.14,486.11Z"/><polygon class="cls-1" points="56.29 554.29 58.58 477.08 63.14 477.08 65.42 554.29 56.29 554.29 56.29 554.29"/><path class="cls-4" d="M57,506.05h45.65s-.07-3.68-3.68-7.86-9.47-2.93-12.75-3.24-1.45-10.71-9.31-10.2-5.45,6.53-9,8.87-5.57.13-8.87,4.69S57,506.05,57,506.05Z"/><path class="cls-4" d="M32.71,482.88h66s-.16-5.36-3.43-8.09-8-.63-9.63-1.49.31-3.58-2.54-6.87-7.93-.05-10-1.48-2.44-14.14-13.66-11.77-9.86,12.45-12.33,15-5.8,1.42-10.37,6.08S32.71,482.88,32.71,482.88Z"/><path class="cls-2" d="M205.17,387.59a8.53,8.53,0,0,0-4-15.74,8.54,8.54,0,0,0-6.58-14H177.89a8.54,8.54,0,0,0-6.58,14,8.53,8.53,0,0,0-4.07,15.69,12,12,0,0,0-7.6,11.19v11.69h53V398.73A12.07,12.07,0,0,0,205.17,387.59Z"/><rect class="cls-3" x="184.45" y="377.89" width="3.81" height="75.88"/><rect class="cls-3" x="184.41" y="384.77" width="13.07" height="3.81" transform="translate(-218.43 251.07) rotate(-45.39)"/><rect class="cls-3" x="179.86" y="380.14" width="3.81" height="13.07" transform="translate(-219.2 239.08) rotate(-44.61)"/><rect class="cls-3" x="184.41" y="396.29" width="13.07" height="3.81" transform="translate(-226.64 254.5) rotate(-45.39)"/><rect class="cls-3" x="179.86" y="391.66" width="3.81" height="13.07" transform="translate(-227.29 242.4) rotate(-44.61)"/><path class="cls-3" d="M182.77,471.1a67.63,67.63,0,0,0,8.36-19.67l-16.7,7.37c.26-8-3.06-14.25-6.26-21.14l-.15.76-.16-.76c-3.19,6.89-6.52,13.17-6.25,21.14l-16.7-7.37a67.63,67.63,0,0,0,8.36,19.67L141,468.31c1.47,5.06,7.76,13.55,13.94,22h26.22c6.18-8.41,12.47-16.9,13.93-22Z"/><circle class="cls-2" cx="121.35" cy="631.82" r="30.65"/><circle class="cls-2" cx="121.35" cy="602.16" r="25.16"/><circle class="cls-2" cx="121.35" cy="570.94" r="21.06"/><rect class="cls-1" x="120.08" y="568.2" width="2.54" height="125.09"/><rect class="cls-1" x="119.86" y="624.49" width="12.74" height="2.54" transform="translate(-372.64 227.47) rotate(-39.99)"/><rect class="cls-1" x="115.21" y="619.39" width="2.54" height="12.74" transform="translate(-437.52 312.35) rotate(-49.96)"/><rect class="cls-1" x="119.86" y="598.27" width="12.74" height="2.54" transform="translate(-355.79 221.34) rotate(-39.99)"/><rect class="cls-1" x="115.21" y="593.17" width="2.54" height="12.74" transform="translate(-417.45 303) rotate(-49.96)"/><rect class="cls-1" x="119.86" y="578.52" width="12.74" height="2.54" transform="translate(-343.1 216.72) rotate(-39.99)"/><rect class="cls-1" x="115.21" y="573.42" width="2.54" height="12.74" transform="translate(-402.33 295.95) rotate(-49.96)"/><rect class="cls-3" x="211.35" y="608.34" width="2.55" height="47.89"/><path class="cls-3" d="M215.53,632.19h-2.91v-2.55h2.91a6.41,6.41,0,0,0,6.4-6.4v-5.59h2.55v5.59A9,9,0,0,1,215.53,632.19Z"/><path class="cls-3" d="M212.62,638.32h-2.46a11.92,11.92,0,0,1-11.9-11.9v-7.56h2.54v7.56a9.36,9.36,0,0,0,9.36,9.35h2.46Z"/><path class="cls-1" d="M187.7,621.38h51.06a32.73,32.73,0,0,0,0-10.25c-.93-4.88-4.21-5.59-5.37-8.27s2-7.07.2-11.24-4.3-2.63-7.4-5.5-.85-17.18-12-16.69S206.6,579,202.6,583.08s-4.69-.1-8.55,6.3.66,11.12-.66,14-5.14,2.41-6.8,8.12A12.47,12.47,0,0,0,187.7,621.38Z"/><path class="cls-4" d="M66.62,97.74H95.19c1.56-6.45,6.85-16.56,11.33-24-8,3.34-11.2,5.91-15.92,10.76.9-6.86.91-8.5,2-16.11C85.92,72.92,81.48,78.64,80,83.78c-2.89-6.51-6.73-12-12.54-15.43l2.62,16c-6-2.85-10.65-5.75-17.38-6.57C58.44,86,63,91.85,66.62,97.74Z"/><path class="cls-3" d="M.32,393.78H60.47s1.39-29.91-10.33-29.91-9.26,5.9-13.44,6.72-6.06-3.2-11.72-.74-2.54,8.11-8.27,10.74-5.82-.74-12.13,3.77S.32,393.78.32,393.78Z"/><path class="cls-4" d="M1008.07,377.81h7.15c6.77,20.15,10.35,63.48,13.92,106.86h-21.07C1008.81,442.52,1009.35,402.08,1008.07,377.81Z"/><path class="cls-3" d="M1034.88,348.84a39.8,39.8,0,0,1-23.23,29,39.79,39.79,0,0,1,23.23-29Z"/><path class="cls-3" d="M1034.88,348.84a39.8,39.8,0,0,1-23.23,29,39.79,39.79,0,0,1,23.23-29Z"/><path class="cls-3" d="M1048.35,373.48a39.42,39.42,0,0,1-36.7,4.33,39.44,39.44,0,0,1,36.7-4.33Z"/><path class="cls-3" d="M1036.1,395.11a26.79,26.79,0,0,1-24.45-17.3,26.81,26.81,0,0,1,24.45,17.3Z"/><path class="cls-3" d="M993.29,397.94a22.62,22.62,0,0,1,18.36-20.13,22.63,22.63,0,0,1-18.36,20.13Z"/><path class="cls-3" d="M978,376.49a33.26,33.26,0,0,1,33.68,1.32A33.24,33.24,0,0,1,978,376.49Z"/><path class="cls-3" d="M985.87,354.67a35,35,0,0,1,25.78,23.14,35,35,0,0,1-25.78-23.14Z"/><path class="cls-3" d="M1009.39,344.13a33.36,33.36,0,0,1,2.26,33.68,33.33,33.33,0,0,1-2.26-33.68Z"/><path class="cls-1" d="M952.21,497.12h90.68s-2.58-9.82-7.15-12-6.13.4-9.28-1.91.37-7.66-3.7-9.75-6.51.16-9.59-1.32-5.06-14.23-17.69-12.79-14.72,15.07-20.13,18.9-11.47.64-17.3,5S952.21,497.12,952.21,497.12Z"/><path class="cls-4" d="M1040.84,588.72a51.77,51.77,0,0,0,6.42-15.1l-12.82,5.66c.2-6.12-2.35-10.94-4.8-16.24l-.12.59-.12-.59c-2.46,5.3-5,10.12-4.8,16.24l-12.83-5.66a52,52,0,0,0,6.42,15.1l-9.44-2.14c1.12,3.88,6,10.41,10.7,16.86h20.14c4.74-6.45,9.57-13,10.69-16.86Z"/><circle class="cls-3" cx="960.37" cy="650.13" r="23.53"/><circle class="cls-3" cx="960.37" cy="627.35" r="19.32"/><circle class="cls-3" cx="960.37" cy="603.38" r="16.17"/><rect class="cls-2" x="959.4" y="601.28" width="1.95" height="96.05"/><rect class="cls-2" x="959.23" y="644.5" width="9.78" height="1.95" transform="translate(-189.36 770.58) rotate(-39.99)"/><rect class="cls-2" x="955.65" y="640.59" width="1.95" height="9.78" transform="translate(-152.98 962.58) rotate(-49.96)"/><rect class="cls-2" x="959.23" y="624.37" width="9.78" height="1.95" transform="translate(-176.42 765.87) rotate(-39.99)"/><rect class="cls-2" x="955.65" y="620.45" width="1.95" height="9.78" transform="translate(-137.56 955.4) rotate(-49.96)"/><rect class="cls-2" x="959.23" y="609.2" width="9.78" height="1.95" transform="translate(-166.67 762.32) rotate(-39.99)"/><rect class="cls-2" x="955.65" y="605.28" width="1.95" height="9.78" transform="translate(-125.95 949.99) rotate(-49.96)"/><rect class="cls-4" x="1067.6" y="307.56" width="2.93" height="55"/><path class="cls-4" d="M1072.41,335h-3.34V332h3.34a7.36,7.36,0,0,0,7.35-7.35v-6.41h2.92v6.41A10.28,10.28,0,0,1,1072.41,335Z"/><path class="cls-4" d="M1069.07,342h-2.82a13.69,13.69,0,0,1-13.68-13.67v-8.68h2.93v8.68a10.76,10.76,0,0,0,10.75,10.75h2.82Z"/><path class="cls-2" d="M1040.44,322.53h58.65a37.85,37.85,0,0,0,0-11.76c-1.07-5.6-4.84-6.42-6.16-9.5s2.29-8.12.22-12.9-4.94-3-8.5-6.33-1-19.73-13.75-19.16-8.75,10.95-13.34,15.67-5.38-.11-9.82,7.23.76,12.78-.75,16.11-5.9,2.76-7.81,9.32A14.33,14.33,0,0,0,1040.44,322.53Z"/><path class="cls-3" d="M882.69,414.7h46.19s1.07-23-7.93-23-7.11,4.53-10.32,5.16-4.66-2.46-9-.57-2,6.23-6.36,8.25-4.46-.57-9.31,2.89S882.69,414.7,882.69,414.7Z"/><path class="cls-3" d="M1117.73,556.94a6.54,6.54,0,0,0-3.06-12.08,6.56,6.56,0,0,0-5.05-10.75h-12.84a6.56,6.56,0,0,0-5,10.75,6.55,6.55,0,0,0-3.13,12,9.27,9.27,0,0,0-5.83,8.6v9h40.68v-9A9.27,9.27,0,0,0,1117.73,556.94Z"/><rect class="cls-4" x="1101.82" y="549.49" width="2.93" height="58.27"/><rect class="cls-4" x="1101.79" y="554.78" width="10.03" height="2.93" transform="translate(-66.45 953.59) rotate(-45.39)"/><rect class="cls-4" x="1098.3" y="551.22" width="2.93" height="10.04" transform="translate(-73.72 932.81) rotate(-44.62)"/><rect class="cls-4" x="1101.79" y="563.62" width="10.03" height="2.93" transform="translate(-72.75 956.23) rotate(-45.39)"/><rect class="cls-4" x="1098.3" y="560.07" width="2.93" height="10.04" transform="translate(-79.94 935.36) rotate(-44.62)"/><path class="cls-4" d="M256.12,301.81a51.9,51.9,0,0,0,6.41-15.08l-12.81,5.66c.2-6.11-2.35-10.93-4.8-16.21l-.12.59-.12-.59c-2.45,5.28-5,10.1-4.79,16.21l-12.81-5.66a51.63,51.63,0,0,0,6.41,15.08l-9.43-2.14c1.12,3.88,5.95,10.39,10.68,16.83h20.12c4.74-6.44,9.56-12.95,10.69-16.83Z"/><ellipse class="cls-4" cx="215.7" cy="264.42" rx="24.63" ry="24.6"/><ellipse class="cls-4" cx="215.7" cy="240.6" rx="20.22" ry="20.2"/><ellipse class="cls-4" cx="215.7" cy="215.54" rx="16.92" ry="16.91"/><rect class="cls-3" x="214.68" y="213.34" width="2.04" height="100.41"/><rect class="cls-3" x="214.51" y="258.53" width="10.23" height="2.04" transform="translate(-115.49 202.13) rotate(-40.04)"/><rect class="cls-3" x="210.77" y="254.44" width="2.04" height="10.23" transform="matrix(0.64, -0.77, 0.77, 0.64, -123.17, 254.86)"/><rect class="cls-3" x="214.51" y="237.48" width="10.23" height="2.04" transform="translate(-101.95 197.19) rotate(-40.04)"/><rect class="cls-3" x="210.77" y="233.38" width="2.04" height="10.23" transform="translate(-107.05 247.34) rotate(-49.98)"/><rect class="cls-3" x="214.51" y="221.63" width="10.23" height="2.04" transform="translate(-91.75 193.48) rotate(-40.04)"/><rect class="cls-3" x="210.77" y="217.53" width="2.04" height="10.23" transform="matrix(0.64, -0.77, 0.77, 0.64, -94.91, 241.68)"/><path class="cls-4" d="M113.26,692.81h52.36s1.21-26-9-26-8.06,5.13-11.7,5.85-5.28-2.79-10.2-.65-2.21,7.07-7.21,9.35-5.06-.64-10.56,3.28S113.26,692.81,113.26,692.81Z"/><polygon class="cls-2" points="908.54 44.22 910.79 83.69 890.02 85.66 886.02 53.23 908.54 44.22"/><polygon class="cls-3" points="910.37 47.5 886.02 53.23 889.96 85.21 912.57 85.09 910.37 47.5"/><path class="cls-3" d="M1009.53,41.88a2.77,2.77,0,0,1,.9,1.41.65.65,0,0,0,.78.46,2.86,2.86,0,0,1,3.38,2,.67.67,0,0,0,.78.47,2.86,2.86,0,0,1,2.78.92,2.77,2.77,0,0,1,.6,1.1.66.66,0,0,0,.78.46,2.88,2.88,0,0,1,2.78.92,2.84,2.84,0,0,1,.6,1.1.65.65,0,0,0,.78.46,2.87,2.87,0,1,1-1.58,4.68l-16.63-9.94a2.85,2.85,0,0,1,.56-4.25A2.91,2.91,0,0,1,1009.53,41.88Z"/><polygon class="cls-1" points="1004.65 63.57 1012.17 52.55 1004.76 47.37 997.27 58.78 1004.65 63.57"/><path class="cls-2" d="M1025.71,56.46,1005,45.09l-4.23,7.34a3.92,3.92,0,0,0,4.1-.19l2,1.39c-.64,1.94.17,3.51,1.5,4.95l2-2.68,11.76,2a3.68,3.68,0,0,0,3.44-1.26Z"/><g class="cls-48"><ellipse class="cls-4" cx="1015.91" cy="49.86" rx="3.17" ry="3.15"/><ellipse class="cls-4" cx="1012.05" cy="48.12" rx="3.17" ry="3.15"/><ellipse class="cls-4" cx="1006.25" cy="47.25" rx="3.82" ry="3.8"/><ellipse class="cls-4" cx="1022.15" cy="57.96" rx="4.69" ry="4.67"/><path class="cls-4" d="M1009.78,59.32l4.5,1,1.22-5.61a.78.78,0,0,0-.6-.92l-3-.64a.77.77,0,0,0-.93.59Z"/></g><path class="cls-3" d="M970.91,37.73a2.88,2.88,0,0,1,1.66.24.65.65,0,0,0,.86-.28A2.88,2.88,0,0,1,976,36.2a2.94,2.94,0,0,1,1.22.27.65.65,0,0,0,.86-.28A2.89,2.89,0,0,1,981.79,35a.65.65,0,0,0,.86-.28,2.89,2.89,0,0,1,3.75-1.22.65.65,0,0,0,.86-.28,2.88,2.88,0,1,1,2.53,4.25l-18.44,6a2.87,2.87,0,0,1-.44-5.7Z"/><polygon class="cls-1" points="984.21 55.59 980.75 42.72 971.96 44.91 975.74 58.01 984.21 55.59"/><path class="cls-2" d="M1010.72,63.57,995.94,54.5l-4.39,12.67,5.6,21C999.76,86.33,1005.49,77.43,1010.72,63.57Z"/><g class="cls-49"><path class="cls-4" d="M1016.18,85.73l-.23-2.25c0-.29-.05-.6-.07-.92a13,13,0,0,0-.48-3.08,4.34,4.34,0,0,0-2.93-3c-2.6-.79-4.53,1.05-5.81,2.27a12.47,12.47,0,0,1-1.19,1,15.14,15.14,0,0,1-.25-1.57,11.66,11.66,0,0,0-.52-2.71,4.3,4.3,0,0,0-2.64-2.75,4.53,4.53,0,0,0-4.07.58,13.46,13.46,0,0,0-2.3,2c-.27.26-.52.52-.75.72l-1.68,1.53,3.06,3.34L998,79.39c.31-.28.62-.59.91-.88a12.94,12.94,0,0,1,1.54-1.37,11.16,11.16,0,0,1,.25,1.6,12.13,12.13,0,0,0,.53,2.71,4.28,4.28,0,0,0,6.42,2.32A11.86,11.86,0,0,0,1009.8,82a10.49,10.49,0,0,1,1.29-1.11,11.38,11.38,0,0,1,.25,2c0,.34,0,.7.09,1.05l.22,2.25Z"/></g><path class="cls-3" d="M950.61,73.88c5.42-4,11.32-5.48,18.52,0l11.25.73-9.31-18.72,18-4.8s14.29,31.24,7.7,37.52-46.69,1-46.69,1l-2.2-8.6Z"/><g class="cls-50"><path class="cls-4" d="M989.74,80.22l-2.2.59-.9.22a13.07,13.07,0,0,0-3,1,4.32,4.32,0,0,0-2.5,3.36c-.35,2.68,1.79,4.28,3.21,5.33a12.28,12.28,0,0,1,1.22,1,11.6,11.6,0,0,1-1.51.49,12.52,12.52,0,0,0-2.61,1,4.3,4.3,0,0,0-2.3,3,4.44,4.44,0,0,0,1.24,3.89,14,14,0,0,0,2.33,1.94c.31.22.6.42.84.61l1.79,1.41,2.82-3.55-1.79-1.4c-.33-.26-.68-.51-1-.75a11.56,11.56,0,0,1-1.6-1.29,12.08,12.08,0,0,1,1.54-.51,12.17,12.17,0,0,0,2.61-1,4.27,4.27,0,0,0,2.3-3,4.34,4.34,0,0,0-1-3.64,11.46,11.46,0,0,0-2.08-1.82A10.64,10.64,0,0,1,985.79,86a11.5,11.5,0,0,1,1.92-.56l1-.26,2.2-.59Z"/><path class="cls-4" d="M979.57,59.29l.6,2.18c.07.28.14.58.22.89a12.54,12.54,0,0,0,1,3,4.34,4.34,0,0,0,3.38,2.48c2.69.35,4.3-1.78,5.36-3.19a13.69,13.69,0,0,1,1-1.21,13.19,13.19,0,0,1,.5,1.5,11.87,11.87,0,0,0,1,2.59,4.3,4.3,0,0,0,3,2.29,4.55,4.55,0,0,0,3.92-1.23,13.81,13.81,0,0,0,1.94-2.32c.22-.31.43-.6.63-.84l1.4-1.77-3.57-2.8-1.4,1.77c-.27.33-.52.68-.76,1a11,11,0,0,1-1.29,1.6,11.43,11.43,0,0,1-.51-1.53,12.2,12.2,0,0,0-1-2.59,4.3,4.3,0,0,0-3-2.29,4.35,4.35,0,0,0-3.67,1,12.29,12.29,0,0,0-1.83,2.07,10.38,10.38,0,0,1-1.09,1.3,11.9,11.9,0,0,1-.57-1.9c-.08-.33-.16-.67-.25-1L984,58.1Z"/><path class="cls-4" d="M957.35,79.55l2.19-.59.9-.23a12.82,12.82,0,0,0,3-1,4.31,4.31,0,0,0,2.49-3.36c.36-2.68-1.79-4.27-3.2-5.33a12.36,12.36,0,0,1-1.23-1,13.53,13.53,0,0,1,1.52-.5,11.9,11.9,0,0,0,2.6-1,4.31,4.31,0,0,0,2.31-3,4.5,4.5,0,0,0-1.24-3.9,13.85,13.85,0,0,0-2.34-1.93c-.3-.22-.6-.43-.84-.62l-1.78-1.4-2.82,3.55,1.78,1.4c.33.26.68.51,1,.75a11,11,0,0,1,1.61,1.28,11.26,11.26,0,0,1-1.55.51,12.44,12.44,0,0,0-2.6,1,4.23,4.23,0,0,0-1.25,6.68A12.29,12.29,0,0,0,960,72.69a11.43,11.43,0,0,1,1.31,1.08,11.64,11.64,0,0,1-1.91.57l-1,.25-2.19.59Z"/><path class="cls-4" d="M968.85,104.4l1.13-2c.14-.25.3-.51.47-.78a13,13,0,0,0,1.42-2.78,4.32,4.32,0,0,0-.63-4.14c-1.65-2.13-4.3-1.76-6.06-1.51a12.29,12.29,0,0,1-1.57.16,12.65,12.65,0,0,1,.72-1.42,12.57,12.57,0,0,0,1.16-2.51,4.29,4.29,0,0,0-.53-3.76,4.51,4.51,0,0,0-3.65-1.88,13.57,13.57,0,0,0-3,.27c-.37.06-.72.12-1,.15L955,84.5l.53,4.49,2.26-.27c.42,0,.84-.12,1.25-.18a10.69,10.69,0,0,1,2.05-.22,10.27,10.27,0,0,1-.73,1.44,12,12,0,0,0-1.15,2.51,4.28,4.28,0,0,0,.52,3.77,4.37,4.37,0,0,0,3.34,1.83,12.7,12.7,0,0,0,2.77-.17,11.7,11.7,0,0,1,1.69-.16,10.71,10.71,0,0,1-.94,1.74l-.55.9-1.13,2Z"/></g><polygon class="cls-2" points="920.14 62.62 918.57 65.5 920.23 65.78 920.14 62.62"/><path class="cls-1" d="M914.17,73.05l-6.63-7.67,2-3.14C914.66,66.85,915.2,70.18,914.17,73.05Z"/><polygon class="cls-1" points="934.05 70.92 928.38 65.17 923.43 66.94 928.31 78.16 934.05 70.92"/><g class="cls-51"><path class="cls-3" d="M924.36,70.9c.1-.07,2.47-2.11,2.47-2.11l-2.47-2-1.51.8Z"/></g><path class="cls-1" d="M920.78,59.05c-1.21.84-.95,3-.77,5.15.19,2.29,0,4.59,1.8,4.93,2.76.53,6.08-2.17,6.08-2.17l-1.07-7.59Z"/><g class="cls-52"><path class="cls-3" d="M919.67,67a14.12,14.12,0,0,0,1.75-1.26l-.23-.27a14.09,14.09,0,0,1-1.7,1.23Z"/></g><path class="cls-3" d="M923,61.37l.07.49a21.13,21.13,0,0,0-3,.38l-.11-.76A12,12,0,0,1,923,61.37Z"/><path class="cls-5" d="M923,62.48a2.08,2.08,0,0,1-2.38,1.39A1.65,1.65,0,0,1,923,62.48Z"/><g class="cls-53"><ellipse class="cls-3" cx="921.03" cy="63.36" rx="0.77" ry="0.76"/></g><path class="cls-3" d="M930.2,67c-2.45.72-3.36-1.23-4.17-3.33h-1l-.05-2.15a5.86,5.86,0,0,1-4.32-2.35s2.94-4,8.13-1S930.2,67,930.2,67Z"/><path class="cls-1" d="M927.37,62H929a0,0,0,0,1,0,0v1.44a1.63,1.63,0,0,1-1.63,1.63h0a1.54,1.54,0,0,1-1.54-1.54v0A1.54,1.54,0,0,1,927.37,62Z" transform="translate(1854.85 127.11) rotate(180)"/><polygon class="cls-3" points="926.7 64.14 927.97 63.56 927.82 63.24 926.55 63.82 926.7 64.14"/><ellipse class="cls-3" cx="937.28" cy="58.29" rx="3.47" ry="3.45"/><ellipse class="cls-3" cx="930.09" cy="55.7" rx="4.52" ry="4.49"/><polygon class="cls-2" points="886.02 53.23 909.18 58.58 910.83 93.88 890.33 88.16 886.02 53.23"/><polygon class="cls-3" points="906.08 60.19 886.02 53.23 890.33 88.16 908.12 94.81 906.08 60.19"/><path class="cls-1" d="M914.82,73.32l-5.35,3.76L908,75.37c-2.09.39-5.9-2.64-10.57-7.4l.79-1.06,5.19,3.58.16-.11L897.14,65l1-1.06,6.18,4.46.16-.2-6-5.49,1-1.12,6.76,5.35.24-.13-6-5.22,1-1.09C908.48,64.31,913.05,68.56,914.82,73.32Z"/><path class="cls-2" d="M928.35,75.67c2.23-10.25,12.37-5.79,22.26-1.79l-.52,15.74-6.27-.27a14.16,14.16,0,0,1-7.13.47c-2.42-.55-3.86-3.19-5.77-6Z"/><path class="cls-1" d="M913.21,72l1.61,1.3,8.55,8.52L929.71,74a5.13,5.13,0,0,1,6.35-1.34h0a5.08,5.08,0,0,1,2.11,7c-3.43,6-9.79,15.61-14.9,14.23-7.39-2-13.8-16.86-13.8-16.86l1.08-4Z"/><path class="cls-2" d="M992.59,35.12l-22.21,8.11,2.82,8A3.89,3.89,0,0,0,975.74,48l2.35-.58c1.06,1.75,2.79,2.17,4.75,2.12l-.72-3.28,9.21-7.53a3.64,3.64,0,0,0,1.29-3.42Z"/><g class="cls-54"><ellipse class="cls-4" cx="981.15" cy="38.16" rx="3.17" ry="3.15"/><ellipse class="cls-4" cx="977.31" cy="39.92" rx="3.17" ry="3.15"/><ellipse class="cls-4" cx="972.85" cy="43.71" rx="3.82" ry="3.8"/><ellipse class="cls-4" cx="991.4" cy="38.77" rx="4.69" ry="4.67"/><path class="cls-4" d="M984.34,49,988,46.21l-3.47-4.59a.78.78,0,0,0-1.09-.15L981,43.28a.78.78,0,0,0-.16,1.08Z"/></g><path class="cls-3" d="M1028.85,94.53H1075s1.07-23-7.93-23-7.11,4.53-10.32,5.16-4.65-2.45-9-.57-2,6.23-6.36,8.25-4.47-.57-9.31,2.89S1028.85,94.53,1028.85,94.53Z"/></g></g></svg>