<svg xmlns="http://www.w3.org/2000/svg" xmlns:xlink="http://www.w3.org/1999/xlink" viewBox="0 0 94.11 132.86"><defs><style>.cls-1{fill:#ff0068;}.cls-2{fill:#ffeb00;}.cls-3{fill:#010f70;}.cls-4{clip-path:url(#clip-path);}.cls-5{fill:#00c2ff;}.cls-6{clip-path:url(#clip-path-2);}.cls-7{clip-path:url(#clip-path-3);}.cls-8{clip-path:url(#clip-path-4);}.cls-9{clip-path:url(#clip-path-5);}</style><clipPath id="clip-path" transform="translate(2.35)"><path class="cls-1" d="M48.35,114.76c.22-.64.45-1.42,3.41-1s.3,4.54,2.85,4.59c1.17,0,2.46-3,3.9-3.41,1.82,6.36,3,11.81,2.61,14.67l-28.23,1.2s-.63-5.88,3.1-7.78,10.11-3.73,11-5A10.23,10.23,0,0,0,48.35,114.76Z"/></clipPath><clipPath id="clip-path-2" transform="translate(2.35)"><polygon class="cls-2" points="48.59 35.74 48.74 27.55 54 26.8 55.7 34.74 48.59 35.74"/></clipPath><clipPath id="clip-path-3" transform="translate(2.35)"><path class="cls-3" d="M43.79,110.37l17.42-6.61c-2.71-10.05-5.56-19.4-9.06-25.63a171.25,171.25,0,0,0,1.49-21.59l-16.46,4s-2.76,8.15-2.6,11.29,1.54,4.07,1.3,6.22-2.79,3.83-2.3,8.51,6.24,6.37,6.7,8.51-2.37,5.13-1.5,8S43.79,110.37,43.79,110.37Z"/></clipPath><clipPath id="clip-path-4" transform="translate(2.35)"><path class="cls-1" d="M12,92.12l17.27-.6a26.46,26.46,0,0,0,1.05-8.89c-.37-3.85-2.7-6.46-2.55-7.85s2-3.08,2.33-5.26-1.81-5-1.81-5c11.34,2,22.13,2.81,25.57-8.08,0,0-5.59-4.61-18.51-6.26C26,49,18.79,49.17,15.85,52.17c-3.32,3.37-1.63,8.79-2.74,14.14-.63,3-2.21,3.67-2.13,7.27s2.36,5.48,2.17,7.28-2.62,3.57-2.92,6.61A5.42,5.42,0,0,0,12,92.12Z"/></clipPath><clipPath id="clip-path-5" transform="translate(2.35)"><path class="cls-1" d="M15.51,96.29c.21-.64.45-1.42,3.41-1s.3,4.54,2.84,4.59c1.18,0,2.46-3,3.91-3.41,1.81,6.36,3,11.81,2.6,14.67L0,112.37s-.63-5.88,3.1-7.78,10.11-3.73,11-5A10.3,10.3,0,0,0,15.51,96.29Z"/></clipPath></defs><g id="Capa_2" data-name="Capa 2"><g id="Iconos"><polygon class="cls-2" points="46.84 107.97 51 114.72 55.81 122.38 60.86 114.97 56.75 103.78 46.84 107.97"/><path class="cls-1" d="M48.35,114.76c.22-.64.45-1.42,3.41-1s.3,4.54,2.85,4.59c1.17,0,2.46-3,3.9-3.41,1.82,6.36,3,11.81,2.61,14.67l-28.23,1.2s-.63-5.88,3.1-7.78,10.11-3.73,11-5A10.23,10.23,0,0,0,48.35,114.76Z" transform="translate(2.35)"/><g class="cls-4"><circle class="cls-5" cx="64.96" cy="123.98" r="7.45"/><path class="cls-5" d="M34.1,122.25a25.1,25.1,0,0,0,10.66,3.85l-14,4.24-.26-8.09Z" transform="translate(2.35)"/><path class="cls-3" d="M31.85,126.81s3.69.9,5.52.6,5.91-2.45,8.23-2.33,3.13,1,4.46.61,3.9-2.48,6.45-2.48,6.05.37,6.05.37l1.23,8.3-32.88,1Z" transform="translate(2.35)"/><path class="cls-3" d="M49.33,116.32c-1.08-1.44-2.6-2-3.42-1.21a1.52,1.52,0,0,0-.35.56h-.05a1.89,1.89,0,0,0-1.08,1.47,1.52,1.52,0,0,0-1.5-.49c-1,.34-1.47,2.08-1,3.89s1.68,3,2.7,2.67a1.52,1.52,0,0,0,.77-.68.73.73,0,0,1,.94-.35,1.25,1.25,0,0,0,.87,0,1.66,1.66,0,0,0,.94-1,.77.77,0,0,1,.73-.51,1.34,1.34,0,0,0,.94-.35C50.62,119.56,50.4,117.76,49.33,116.32Z" transform="translate(2.35)"/></g><polygon class="cls-2" points="17.26 90.05 18.16 96.25 22.96 103.91 28.02 96.5 26.97 88.67 17.26 90.05"/><path class="cls-2" d="M25.84,24.5l1.2.31L29,32.92l9.7-.08L41,39.08l-3.81,2.26s-13.33-.8-14.38-2.26S21.41,28,21.41,28l1.77-3Z" transform="translate(2.35)"/><path class="cls-2" d="M65.94,36.26l4.5,4.58,5.67-9.76,5.1,4.66S75,50.45,71.64,51s-13.29-6.76-13.29-6.76l2.59-8.48Z" transform="translate(2.35)"/><circle class="cls-1" cx="75.68" cy="15.28" r="3.72"/><circle class="cls-3" cx="56.69" cy="3.72" r="3.72"/><circle class="cls-5" cx="34.09" cy="11.15" r="3.72"/><path class="cls-2" d="M43.71,33.19c2.73,0,12.54.42,15.92.67S53.85,45,53.85,45L40.78,41.74S41,33.19,43.71,33.19Z" transform="translate(2.35)"/><polygon class="cls-2" points="50.94 35.74 51.09 27.55 56.35 26.8 58.05 34.74 50.94 35.74"/><g class="cls-6"><polygon class="cls-3" points="57.64 30.66 53.47 30.66 53.59 29.06 56.57 27.18 57.64 30.66"/></g><path class="cls-2" d="M45,21.65a40.74,40.74,0,0,0,1.45,5.63,4.66,4.66,0,0,0,5.51,2.83c2.64-.5,3.88-2.24,3.37-5.27-.44-2.64-1.67-6.8-1.67-6.8Z" transform="translate(2.35)"/><path class="cls-3" d="M50.79,27.41a2.25,2.25,0,0,1-.82-.15l.13-.33a2.23,2.23,0,0,0,2.4-.67l.27.23A2.62,2.62,0,0,1,50.79,27.41Z" transform="translate(2.35)"/><circle class="cls-1" cx="53.2" cy="24.97" r="1.08"/><polygon class="cls-3" points="52.85 21.58 53.06 22.42 55.83 21.65 55.69 21.15 52.85 21.58"/><polygon class="cls-3" points="51.48 21.98 51.7 22.8 48.93 23.57 48.77 23.07 51.48 21.98"/><path class="cls-3" d="M53.93,18a20.1,20.1,0,0,1,1.57,5.85l-.94.14-1.49-5-.26-.86Z" transform="translate(2.35)"/><polygon class="cls-3" points="47.98 20.93 49.1 25.85 48.18 26.05 46.88 21.64 47.98 20.93"/><path class="cls-3" d="M45.32,26.05s-.46-1.21-.91-2.81c-.3-1.06-.63-2.15-.23-2.82s1.1-.72,1.7-1.33.12-1.18,1.18-1.84,1.34,0,2.32-.5c.6-.29.51-1.05,2.39-1.66a2.11,2.11,0,0,1,2.74,2.74c-.49,1.19-2.2,1-3,1.33s-1.11,1.31-2.17,1.77-2,.29-2.79.67-.32,1.77-.32,1.77l-.36,2.68Z" transform="translate(2.35)"/><path class="cls-2" d="M45.46,28,47,27.84l-1.24-3-.66.13a1.54,1.54,0,0,0-1.33,1.72h0A1.54,1.54,0,0,0,45.46,28Z" transform="translate(2.35)"/><polygon class="cls-3" points="48.27 26.76 46.93 26.68 46.95 26.33 48.29 26.41 48.27 26.76"/><path class="cls-2" d="M56.56,24.87l-1.28.48-.53-3.2.78-.18a1.53,1.53,0,0,1,2,.94h0A1.53,1.53,0,0,1,56.56,24.87Z" transform="translate(2.35)"/><polygon class="cls-3" points="57.76 23.97 57.58 23.66 58.95 22.87 59.13 23.17 57.76 23.97"/><path class="cls-3" d="M52.43,23.87a.92.92,0,0,1-.33-.06.9.9,0,0,1-.64-.73L51.8,23a.61.61,0,0,0,.41.47.81.81,0,0,0,.76-.17.57.57,0,0,0,.18-.58l.34-.07a.91.91,0,0,1-.28.91A1.19,1.19,0,0,1,52.43,23.87Z" transform="translate(2.35)"/><path class="cls-3" d="M48.21,25a1.35,1.35,0,0,1-.29,0,.94.94,0,0,1-.67-.69l.34-.09a.58.58,0,0,0,.42.44.82.82,0,0,0,.76-.2.58.58,0,0,0,.15-.6l.34-.09a1,1,0,0,1-.24.94A1.18,1.18,0,0,1,48.21,25Z" transform="translate(2.35)"/><path class="cls-5" d="M37.18,51.28s5.56,3.68,5.86,4,10.6,1.28,10.6,1.28l5.69-11.87c1.34-5.1,3.32-8.5,6.61-8.41a9.6,9.6,0,0,0-7-2.49S53.77,42,47.79,40.72s-3-7.63-3-7.63a55.45,55.45,0,0,0-6.12-.28c1.18,3.51.11,6.13-1.46,8.53Z" transform="translate(2.35)"/><path class="cls-2" d="M76.11,31.08l1.16,5.45,3.94-.79c5.57,1.68,8.46,0,10.55-5.75l-1-1.07-3.12,3.93-.1-.13,3.58-5-.61-.61-3.92,4.64-.1-.11,3.94-4.91L89.64,26l-4.21,4.66-.1-.09L89,26.22l-.88-.77-4.17,4.06-1.15-.24,3-3.1-1.25-1L79.94,29C78.5,28.64,77.19,29.16,76.11,31.08Z" transform="translate(2.35)"/><path class="cls-2" d="M27,24.81,21.41,28,21,25.44c-5.63-2-7.55-6.06-5.28-11.74l1.44-.16-.3,5,.16,0,.67-6.1.86-.05-.18,6.07.15,0,.34-6.28h1.11l0,6.27h.14l.18-5.68,1.16,0,.41,5.8,1,.59-.15-4.3,1.58.11.89,5.87C26.46,21.53,27,22.82,27,24.81Z" transform="translate(2.35)"/><path class="cls-3" d="M43.79,110.37l17.42-6.61c-2.71-10.05-5.56-19.4-9.06-25.63a171.25,171.25,0,0,0,1.49-21.59l-16.46,4s-2.76,8.15-2.6,11.29,1.54,4.07,1.3,6.22-2.79,3.83-2.3,8.51,6.24,6.37,6.7,8.51-2.37,5.13-1.5,8S43.79,110.37,43.79,110.37Z" transform="translate(2.35)"/><g class="cls-7"><path class="cls-5" d="M46.83,80.58c-1.39,3-8.58,2.72-9.73-.39,1.15,3.11-4.14,8-7.15,6.6,3,1.39,2.73,8.58-.39,9.73,3.12-1.15,8,4.14,6.6,7.15,1.39-3,8.58-2.73,9.73.39-1.15-3.12,4.14-8,7.15-6.6-3-1.39-2.72-8.58.39-9.73C50.32,88.88,45.44,83.59,46.83,80.58Z" transform="translate(2.35)"/><path class="cls-5" d="M64.29,60.46c-1.39,3-8.58,2.72-9.73-.39,1.15,3.11-4.14,8-7.15,6.6,3,1.39,2.72,8.58-.39,9.72,3.11-1.14,8,4.15,6.6,7.16,1.39-3,8.58-2.73,9.73.39-1.15-3.12,4.14-8,7.15-6.6-3-1.4-2.72-8.58.39-9.73C67.78,68.76,62.9,63.47,64.29,60.46Z" transform="translate(2.35)"/></g><path class="cls-1" d="M12,92.12l17.27-.6a26.46,26.46,0,0,0,1.05-8.89c-.37-3.85-2.7-6.46-2.55-7.85s2-3.08,2.33-5.26-1.81-5-1.81-5c11.34,2,22.13,2.81,25.57-8.08,0,0-5.59-4.61-18.51-6.26C26,49,18.79,49.17,15.85,52.17c-3.32,3.37-1.63,8.79-2.74,14.14-.63,3-2.21,3.67-2.13,7.27s2.36,5.48,2.17,7.28-2.62,3.57-2.92,6.61A5.42,5.42,0,0,0,12,92.12Z" transform="translate(2.35)"/><g class="cls-8"><path class="cls-3" d="M53.31,35.53c-1.39,3-8.58,2.72-9.73-.39,1.15,3.11-4.14,8-7.15,6.6,3,1.39,2.72,8.58-.39,9.73,3.11-1.15,8,4.14,6.6,7.15,1.39-3,8.58-2.72,9.73.39-1.15-3.11,4.14-8,7.15-6.6-3-1.39-2.72-8.58.39-9.73C56.8,43.83,51.92,38.54,53.31,35.53Z" transform="translate(2.35)"/><path class="cls-3" d="M33.2,33.12c-1.39,3-8.58,2.72-9.73-.39,1.15,3.11-4.14,8-7.15,6.6,3,1.39,2.73,8.58-.39,9.73,3.12-1.15,8,4.14,6.6,7.15,1.4-3,8.58-2.72,9.73.39-1.15-3.11,4.14-8,7.15-6.6-3-1.39-2.72-8.58.39-9.73C36.69,41.42,31.81,36.13,33.2,33.12Z" transform="translate(2.35)"/><path class="cls-3" d="M20.44,59.41c-1.4,3-8.58,2.73-9.73-.39,1.15,3.12-4.14,8-7.15,6.6,3,1.4,2.72,8.58-.39,9.73,3.11-1.15,8,4.14,6.6,7.15,1.39-3,8.58-2.72,9.73.39-1.15-3.11,4.14-8,7.15-6.6-3-1.39-2.73-8.58.39-9.72C23.92,67.71,19,62.42,20.44,59.41Z" transform="translate(2.35)"/></g><path class="cls-1" d="M15.51,96.29c.21-.64.45-1.42,3.41-1s.3,4.54,2.84,4.59c1.18,0,2.46-3,3.91-3.41,1.81,6.36,3,11.81,2.6,14.67L0,112.37s-.63-5.88,3.1-7.78,10.11-3.73,11-5A10.3,10.3,0,0,0,15.51,96.29Z" transform="translate(2.35)"/><g class="cls-9"><circle class="cls-5" cx="32.12" cy="105.51" r="7.45"/><path class="cls-5" d="M1.25,103.78a25.15,25.15,0,0,0,10.66,3.85l-14,4.24-.26-8.09Z" transform="translate(2.35)"/><path class="cls-3" d="M-1,108.34s3.69.9,5.52.6,5.91-2.45,8.23-2.33,3.13,1,4.46.61,3.9-2.48,6.45-2.48,6.05.37,6.05.37l1.24,8.3-32.89,1Z" transform="translate(2.35)"/><path class="cls-3" d="M16.48,97.85c-1.07-1.44-2.6-2-3.41-1.21a1.42,1.42,0,0,0-.36.56h-.05a1.89,1.89,0,0,0-1.08,1.47,1.52,1.52,0,0,0-1.5-.49c-1,.34-1.47,2.08-1,3.89s1.67,3,2.69,2.67a1.45,1.45,0,0,0,.77-.68.73.73,0,0,1,.94-.35,1.25,1.25,0,0,0,.87,0,1.64,1.64,0,0,0,.94-1,.78.78,0,0,1,.73-.51,1.34,1.34,0,0,0,.94-.35C17.77,101.09,17.56,99.29,16.48,97.85Z" transform="translate(2.35)"/></g></g></g></svg>