<svg xmlns="http://www.w3.org/2000/svg" viewBox="0 0 920 920"><defs><clipPath id="clip-path"><path d="M892 453v-54H758c-24-44-65-67-116-67-37 0-72 13-97 38a130 130 0 0 0-14 16 90 90 0 0 0-15-19c-21-21-51-31-93-31H296v131l-56-132H137L28 596h130l10-28h40l11 28h197v-24l16 24h141l-15-22a135 135 0 0 0 81 26c29 0 54-6 76-20 18-12 33-28 45-49l3-6 75-1c14 0 27-4 37-11 12-9 17-22 17-37v-23Z" class="cls-1"/></clipPath><pattern id="Nueva_muestra_de_motivo_5" width="200" height="200" data-name="Nueva muestra de motivo 5" patternTransform="translate(-80 -50)" patternUnits="userSpaceOnUse"><path d="M0 0h200v200H0z" class="cls-1"/><path d="m190 95-6 4a47 47 0 0 1-8 4 2 2 0 0 0-1 2c-1 2 1 5 3 4 6-2 11-1 16-2a7 7 0 0 0 6-5v-2a6 6 0 0 0 0-1c-2-4-7-6-10-4ZM195 123l-1-9c1-4-4-5-6-1-1 4 0 11 3 15a34 34 0 0 0-4 8 30 30 0 0 0-1 14c1 5 3 7 6 11 3 3 7-1 4-4l-4-5a18 18 0 0 1 0-7 26 26 0 0 1 8-19v-8a40 40 0 0 1-5 5ZM181 132c4-5 4-15-2-18-7-3-12 5-10 11 2 3 7 0 5-3-1-3 3-2 4 0a7 7 0 0 1 0 4c-2 5-8 4-12 2-5-2-7-8-12-11-10-7-18 4-15 13 1 4 6 2 5-2-1-5 2-10 7-6l8 9c6 4 17 7 22 1Z" class="cls-2"/><path d="M175 139c-3 2-9 1-12 0a48 48 0 0 1-7-2l-7-4c-3-2-6 4-3 5l7 5a48 48 0 0 0 11 2c5 1 10 1 14-1s1-7-3-5ZM197 135v10a25 25 0 0 0 2 8 3 3 0 0 0 1 1v-21a3 3 0 0 0-3 2ZM174 163a6 6 0 0 0 8-4l-1-7a3 3 0 0 0-3-3c-3 0-6 3-8 5a6 6 0 0 0 4 9ZM0 100v2a6 6 0 0 0 0-2ZM3 109a14 14 0 0 1-3 9v8a42 42 0 0 0 5-5c3-4 4-7 4-12 0-4-6-4-6 0ZM0 133v21a3 3 0 0 0 4-4c-2-5-1-10-1-15a3 3 0 0 0-3-2ZM18 36c-2-5-6-11-7-17-1-4-8-2-7 2l5 13 6 12c2 6 6 10 12 12-2 7-2 14 2 20 5 8 16 5 15-4 0-5-7-5-7 0 1 3-1 5-3-2a18 18 0 0 1-1-6 57 57 0 0 1 1-8l2-17c0-9-2-15-8-21-2-3-7 1-4 5 7 8 6 17 4 26-6-2-8-9-10-15Z" class="cls-2"/><path d="M60 52c-1-6-2-13-8-14-15-5-15 18-14 27 1 4 7 2 7-2-1-3-2-16 2-18 1 0 4-2 5 3a26 26 0 0 1 1 5v7c0 7 0 14 4 20 6 9 20 13 20-1 1-5-5-4-6 0-3 7-9-5-9-6a22 22 0 0 1-2-8V52Z" class="cls-2"/><path d="M63 54c0 6-1 12 3 18 2 4 8 0 5-4-2-4-2-9-2-14s-6-5-6 0ZM52 93c3 4 0 9 1 14a6 6 0 0 0 9 4c6-3 2-15-1-19l-5-6-3-5a7 7 0 0 0-1-1 3 3 0 0 0-3-1 4 4 0 0 0-3 1 5 5 0 0 0-1 4c0 5 4 6 7 9Z" class="cls-2"/><path d="M40 94a6 6 0 0 0-3 6 7 7 0 0 0 8 4c4 0 5-4 5-8a5 5 0 0 0-5-4 6 6 0 0 0-1 1 6 6 0 0 0-4 1ZM56 19c-6-5-14-7-22-4-4 1-2 7 2 6 7-2 13 0 17 5-4-1-9-1-13 1-3 2 0 8 4 6 3-2 8-1 11 1s5 5 6 8a11 11 0 0 0 1 2c2 3 8 1 6-2v-1l-2-7a38 38 0 0 0-3-5 42 42 0 0 0-7-10ZM85 54c-2-2-2-7-3-10a38 38 0 0 0-4-11 25 25 0 0 0-2-4l-1-1a3 3 0 0 0-2-2c-3-3-8 2-5 5a20 20 0 0 1 2 2 53 53 0 0 1 4 7c2 7 0 15 1 23s4 13 11 13c5 1 5-6 0-6-3-1-4-5-5-10a10 10 0 0 0 3 2c3 2 8 1 10-2s1-8 0-11c-1-4-8-3-7 2a16 16 0 0 1 1 2 11 11 0 0 1 0 3c-1 1-2-1-3-2Z" class="cls-2"/><path d="M92 71c1 2 3 6 1 8-2 1-6 2-8 0-3-2-8 2-5 5 5 4 12 4 17 0s4-12 1-17c-3-3-9 0-6 4ZM72 103c4 1 7-2 9-4s4-7 1-10a3 3 0 0 0-2-1 5 5 0 0 0-2 0 12 12 0 0 0-8 6c-2 3-2 8 2 9ZM63 21a4 4 0 0 0 2 1 9 9 0 0 0 7-2 6 6 0 0 0 0-8 7 7 0 0 0-9-1c-2 2-2 5-2 8a3 3 0 0 0 2 2ZM15 1c-7 4-2 14 5 13 7 0 11-6 17-7 6 0 11 5 16 4 6-1 6-7 3-11H16a9 9 0 0 0-1 1Z" class="cls-2"/><path d="M65 6c7-1 12 1 13 8v10c1 6 6 12 9 17 2 4 8 1 6-3l-4-6a8 8 0 0 1 11 0 7 7 0 0 1 2 4c0 3-1 5-3 6-4 3 1 8 4 5s5-5 5-10a13 13 0 0 0-4-10 15 15 0 0 0-18-1 17 17 0 0 1-2-6c0-4 1-8-1-12a15 15 0 0 0-8-8H62c-2 2 0 6 3 6Z" class="cls-2"/><path d="M91 20a9 9 0 0 1 8 2 4 4 0 0 0 5 0 3 3 0 0 0 0-5 16 16 0 0 0-15-3c-4 1-2 8 2 6ZM116 78c4-3 4-10 0-13l-6-5c-2-2-2-5-5-7-2 0-4 0-5 2a3 3 0 0 0-1 1 10 10 0 0 0 1 8 29 29 0 0 0 2 4 10 10 0 0 1 3 5c1 6 6 9 11 5ZM107 52a8 8 0 0 0 1 1 15 15 0 0 0 2 3l5 4c6 1 7-6 5-10-2-3-7-7-11-5a5 5 0 0 0-2 7ZM109 89v-6a4 4 0 0 0-3-2 3 3 0 0 0-3 1 5 5 0 0 0 2 9 3 3 0 0 0 4-2ZM0 48v1a3 3 0 0 0 0 1 85 85 0 0 0 1 14 25 25 0 0 0 5 12 3 3 0 0 0 6-3L7 62a51 51 0 0 1 0-6l2 2c4 5 5 10 5 16v3c1 6 1 12 5 17 3 5 10 7 13 1a7 7 0 0 0-1-8l-4-3c-6-3-6-7-6-13 0-5 1-9-3-14-3-4-9-7-12-12-2-4-7-1-6 3ZM0 40c2 1 6-1 5-4l-1-2a46 46 0 0 1-3-12c0-6 2-9 6-13 3-2 0-6-3-5a11 11 0 0 0-4 1ZM100 99c3 1 4-1 4-3a3 3 0 0 0-1-3c-9-6-13 3-19 8-3 3-7 4-11 6a6 6 0 0 0-4 7c2 6 10 6 15 3l6-8c1-2 6-11 10-10Z" class="cls-2"/><path d="M121 47c5 8 1 15 2 23 1 12-1 18-13 24-3 2 0 8 4 6a37 37 0 0 0 9-6 9 9 0 0 1-2 7c-4 5-10 3-14 3-7 0-12 3-16 8-2 4 3 7 6 4 4-7 10-5 16-5a17 17 0 0 0 11-4c7-5 6-12 4-20a24 24 0 0 0 2-10l1-19c1-5 0-9-4-14-2-3-8 0-6 3Z" class="cls-2"/><path d="M102 116c-3 4-7 8-12 5-3-2-7 4-3 6 8 5 16-1 20-7 3-4-3-7-5-4ZM121 26l-4-7c-2-2-6-2-7 1a5 5 0 0 0 0 3 5 5 0 0 0 1 1c0 5-1 11 4 14 4 2 11-1 10-7l-4-5Z" class="cls-2"/><path d="M92 3c-4 1-4 8 0 7 17-2 37 3 36 24 0 4 7 4 7 0 0-22-18-31-37-31a21 21 0 0 0 0-3h-7a11 11 0 0 1 1 3ZM28 109l9 5a24 24 0 0 0 12 1c4-2 2-8-2-7-6 1-10-1-14-4-3-3-8 2-5 5ZM60 128a17 17 0 0 1 9 1 16 16 0 0 0 9 2c3-1 3-5 0-6a3 3 0 0 0-2-2c-6 0-10-7-16-8-5 0-10 1-10 7 1 5 5 7 10 6ZM23 104a5 5 0 0 0-4-4c-6-1-7 8-2 10a5 5 0 0 0 6-6ZM0 95c1 1 3 3 5 3 8 1 8-8 5-12L0 74ZM194 16c-1 7 1 13 3 20l1 1a4 4 0 0 0 0 1 3 3 0 0 0 2 2V5c-3 3-5 7-6 11ZM196 43c0-3-2-4-5-3a3 3 0 0 0-2 3c0 12-3 23 3 34l8 17v1-20a21 21 0 0 1-3-6c-3-9-1-17-1-26Z" class="cls-2"/><path d="M120 1a67 67 0 0 0 6 5l8 6a56 56 0 0 1 4 8 17 17 0 0 1 1 2 22 22 0 0 1 0 12c-1 5-5 10-3 17 2 4 6 5 10 3s5-7 4-11c0-4-2-7-3-11l-2-11a16 16 0 0 0-1-2l-1-3a25 25 0 0 0-2-5 17 17 0 0 0-3-3l-7-6-3-2h-9ZM169 0a22 22 0 0 0 0 2c1 9 7 15 16 16a22 22 0 0 1-2 4l-3 8c-2 5-2 10-2 15v13c2 4 7 2 6-1V40c0-7 4-12 6-18 1-5 3-15 0-22h-7c3 3 3 8 2 12-5 0-9-3-10-9a18 18 0 0 1 0-3Z" class="cls-2"/><path d="M173 40c5-2 4-10 3-15-1-8-9-13-11-22-1-2-3-2-4-1a3 3 0 0 0-2 2c0 6 3 9 5 14s3 7 2 12c-1 4 0 13 7 10ZM139 0l7 11c3 4 6 10 6 15a3 3 0 0 0 2 3c2 1 5 0 5-3 0-4-2-8-4-12-2-5-1-9 0-14ZM54 198a3 3 0 0 0-2 0 7 7 0 0 0-1 0c-7-1-17-1-25 1l-10 1h40a7 7 0 0 0-2-2ZM64 199a3 3 0 0 0-2 1h13a22 22 0 0 0-11-1ZM88 189c-5-2-10-2-15-2-3 0-12 2-14-1-3-3-8 2-5 5 8 8 32-3 37 9h7c-1-5-4-9-10-11ZM123 195a1 1 0 0 0-1 0c-3-2-7 2-4 4l1 1h9l-5-4v-1ZM187 195c-3-2-7 2-4 4a6 6 0 0 1 1 1h7a11 11 0 0 0-4-5ZM179 190c4 0 4-6 0-6-7 1-10 9-10 16h6c0-4 1-9 4-10ZM147 186c-7 0-11 6-9 13l1 1h16l1-1c2-7-2-13-9-13ZM155 40a3 3 0 0 0 0 1v10a11 11 0 0 0 2 7 9 9 0 0 0 11 2 10 10 0 0 0 4-11l-5-5a35 35 0 0 1-7-6c-1-2-5-1-5 2ZM139 69c3 1 7 2 10 0s2-7-1-9c-3-3-8-4-10 0a5 5 0 0 0-2 5 6 6 0 0 0 3 4ZM136 96a14 14 0 0 0 13 3c5-1 8-5 10-10 3-5 6-11 11-15 2-2 5-3 7 0 2 4-2 8-6 9s-4 6 0 6c6-1 12-5 12-12a10 10 0 0 0-10-11c-7 1-11 7-14 12-4 6-10 22-19 14-3-2-7 2-4 4Z" class="cls-2"/><path d="M137 84a8 8 0 0 0 7 4c6 0 9-7 9-12 0-4-6-4-6 0l-2 6a2 2 0 0 1-3 0 5 5 0 0 1-1-3 6 6 0 0 1 1-1c2-3-3-6-5-3s-2 6 0 9ZM184 180c6 0 9-7 9-12 0-4-6-4-6 0 0 2-1 5-3 6a2 2 0 0 1-2-1 6 6 0 0 1-1-2 6 6 0 0 1 1-1c2-3-3-6-5-3s-2 6 0 9a8 8 0 0 0 7 4ZM184 85c-3 8-13 8-19 7-4 0-4 6 0 6 10 1 21 0 25-11 1-4-5-5-6-2ZM157 70c4 0 4-6 0-6s-4 6 0 6ZM131 107a32 32 0 0 1-9 6l-7 5c-3 4-4 10 0 13s9 1 12-2c4-5 5-11 9-16 2-3 4-3 7-3l6 2a44 44 0 0 0 10 2c3 0 9 1 10-3 2-5-4-9-8-10l-10 2h-13a3 3 0 0 0-3 1 11 11 0 0 0-4 3ZM7 143c6 14 37 16 36-3-1-8-9-12-16-12-3 0-7-1-9 2s-1 8 2 9c2 1 3 0 5-1 3-1 6-2 9 1 2 2 3 5 0 7h-8c-5-1-8-2-11-6-1-2-3-5-2-7 0-4 3-9 7-10a24 24 0 0 1 8-1 49 49 0 0 1 5 2c2 1 3 3 5 3 4 1 8 0 8-4 0-5-8-6-11-7a36 36 0 0 0-15 0 15 15 0 0 0-3 0 3 3 0 0 0-1 1 14 14 0 0 0-4 3c-6 6-9 15-5 23ZM169 164c-4-6-12-5-18-2-3 1-6 2-6 6 0 2 2 6 5 6l4-3c2-3 4-4 7-4 3 1 5 3 3 6-1 2-4 3-6 3-4 2-7 2-11 0l-5-4c-2-3-2-9 1-12a22 22 0 0 1 7-4 43 43 0 0 1 4 0 20 20 0 0 0 6 0c3 0 6-4 4-7-3-4-9-2-12-1a32 32 0 0 0-12 7 13 13 0 0 0-2 2 3 3 0 0 0-1 1 13 13 0 0 0-2 3c-2 8 0 17 7 21 11 8 36-3 27-18ZM50 133c-4 4 0 10 3 13 3 4 8 5 11 0 2-3 2-9-1-12a2 2 0 0 0 0-1 6 6 0 0 0-1 0 8 8 0 0 0-4-1c-3-1-7-1-8 1ZM99 132H86a15 15 0 0 0-3 2 89 89 0 0 1-10 0c-4 0-4 6 0 6a3 3 0 0 0 1 1 19 19 0 0 0 7 0 11 11 0 0 0 3-1l2-1 14 2c4 0 11 0 11-6 0-8-9-3-12-3ZM134 135a5 5 0 0 0 0-1 4 4 0 0 0-5-3l-4 4c-2 2-5 2-8 2-2 1-3 5-1 6 6 3 15 0 18-6a3 3 0 0 0 0-2ZM141 140a3 3 0 0 0-1-1 3 3 0 0 0-4 1c-2 3-1 9 3 9a4 4 0 0 0 5-4 8 8 0 0 0-3-5ZM165 187a3 3 0 0 0-4 2 18 18 0 0 0 0 2 5 5 0 0 0 1 2 3 3 0 0 0 2 2 3 3 0 0 0 3-2v-1a3 3 0 0 0 0-4 3 3 0 0 0-2-1ZM200 173a4 4 0 0 0-1 1c-3 3-10 8-10 13s3 8 7 10a9 9 0 0 0 4 1ZM4 176c1-2-2-4-4-3v25c7-1 5-16 4-22ZM12 159c4-1 2-7-1-6a10 10 0 0 0-7 13l5 10a3 3 0 0 0 0 2c1 4 2 10 0 13-2 4 3 7 5 3a19 19 0 0 0 2-6 14 14 0 0 0 5 1c8 2 17-1 25 1 4 1 5-5 1-6-6-2-12-1-19 0-3 0-7 0-10-2l-3-6a41 41 0 0 0-2-6c-2-3-7-9-1-11Z" class="cls-2"/><path d="M21 160a4 4 0 0 0-1 1c-2 1-3 4-3 6l4 9c2 3 5 5 9 5s4-6 3-9l-5-9c-2-2-4-5-7-3ZM44 150v1a3 3 0 0 1-1 0l-1 1-5 2c-2 2-5 4-5 7a6 6 0 0 0 8 5l5-5a45 45 0 0 0 4-7 3 3 0 0 0 0-1c1-3-3-6-5-3ZM56 161l5-1a13 13 0 0 0 6-2 17 17 0 0 0 6-11c1-3-4-5-5-1-1 5-5 8-10 9-2 0-4 0-6 2s-2 4-3 6c-1 5-3 9-8 10-4 1-3 7 1 6a15 15 0 0 0 10-7 25 25 0 0 0 3-6l1-5ZM70 184h19c7 2 11 6 15 12 2 3 7 0 5-3-5-8-12-13-21-15H74l-7-1c-2-1-3-5-2-7 2-4-3-7-5-3-2 3-2 8 0 12 2 3 6 5 10 5Z" class="cls-2"/><path d="M70 167c-3 3 1 7 4 4a47 47 0 0 0 7-11c2-4 2-8 2-12s-6-4-6 0 0 7-1 10a42 42 0 0 1-6 9ZM114 148c2-4-4-7-5-3l-8 1a45 45 0 0 0-7 0c-3 0-6 2-7 5-4 8 6 14 12 10 3-3 0-8-3-6-1 2-2 2-4 2s0-3 0-4l4-2 8 1c3-1 8 0 10-4Z" class="cls-2"/><path d="M128 147c-5 5-14 8-20 8-4 0-4 6 0 6 8 0 18-4 24-10 2-3-2-7-4-4ZM131 164a3 3 0 0 0 0-3c0-2-2-4-4-2l-9 3a13 13 0 0 0-5 1c-3 2-5 6-2 9 2 3 6 2 9 1 4-2 8-5 11-9ZM103 165a3 3 0 0 0-2 0H86c-3 0-7 3-6 6 1 4 5 4 8 4l6-2 9-2c4-1 3-6 0-6ZM118 188a10 10 0 0 0-3-4 33 33 0 0 0-7-8 4 4 0 0 0-1 0v-1c-3-2-6 3-3 5l4 5 2 2a11 11 0 0 1 2 3c1 3 6 2 6-1a7 7 0 0 0 0-1ZM131 184c-1 1-2 3-3 2l-1-2c0-1 0-4 2-5 3 0 4-6 0-6-7 1-10 8-8 14 2 3 4 5 7 5a9 9 0 0 0 8-6c1-4-5-6-5-2Z" class="cls-2"/></pattern><style>.cls-1{fill:none}.cls-2{fill:#fff}.cls-9{fill:#eafc00}</style></defs><g id="Capa_2" data-name="Capa 2"><g id="Capa_1-2" data-name="Capa 1"><circle cx="460" cy="460" r="460" style="fill:#db458c"/><path d="M892 453v-54H758c-24-44-65-67-116-67-37 0-72 13-97 38a130 130 0 0 0-14 16 90 90 0 0 0-15-19c-21-21-51-31-93-31H296v131l-56-132H137L28 596h130l10-28h40l11 28h197v-24l16 24h141l-15-22a135 135 0 0 0 81 26c29 0 54-6 76-20 18-12 33-28 45-49l3-6 75-1c14 0 27-4 37-11 12-9 17-22 17-37v-23Z" style="fill:#45989e"/><g style="opacity:.77"><g style="clip-path:url(#clip-path)"><g style="opacity:.09"><path d="M11 323h899v278H11z" style="fill:url(#Nueva_muestra_de_motivo_5)"/></g></g></g><path d="M154 360h69l89 211h-76l-11-28h-74l-11 28H65Zm53 133-19-51-19 51ZM321 361h102c38 0 61 9 76 24 13 13 19 28 19 50 0 31-16 52-42 65l49 71h-80l-39-60h-15v60h-70Zm100 100c17 0 27-8 27-21 0-14-10-20-27-20h-30v41ZM530 467v-1c0-63 49-109 112-109 46 0 77 22 95 54l-58 34c-8-15-19-25-38-25-24 0-39 20-39 45v1c0 27 16 46 39 46 20 0 31-10 39-26l58 33c-17 31-47 56-99 56-58 0-109-43-109-108ZM740 480l31-22c4-4 6-6 6-9 0-4-2-6-6-6s-8 3-15 9l-16-13c9-11 17-17 33-17 17 0 29 10 29 24v1c0 11-6 17-15 23l-13 8h29v20h-63ZM804 486l15-15c6 5 11 8 17 8s9-3 9-6c0-4-3-6-10-6h-10l-4-11 17-13h-28v-19h57v17l-16 12c11 3 18 9 18 21 0 16-14 25-30 25s-27-5-35-13Z" class="cls-9"/></g></g></svg>