<svg xmlns="http://www.w3.org/2000/svg" xmlns:xlink="http://www.w3.org/1999/xlink" viewBox="0 0 100.24 143.97"><defs><style>.cls-1{fill:#00c2ff;}.cls-2{fill:#ffeb00;}.cls-3{fill:#fff;}.cls-4{fill:#010f70;}.cls-5{fill:#ff0068;}.cls-6{clip-path:url(#clip-path);}.cls-7{clip-path:url(#clip-path-2);}.cls-8{clip-path:url(#clip-path-3);}.cls-9{clip-path:url(#clip-path-4);}.cls-10{clip-path:url(#clip-path-5);}.cls-11{clip-path:url(#clip-path-6);}</style><clipPath id="clip-path" transform="translate(0 7.18)"><path class="cls-1" d="M36.29,99.07,52,99.78a165.76,165.76,0,0,0,1.73-36.39c2.88,9.88,5,22.61,6.82,36.39L77.8,95.23c-3.89-24.64-8.45-44.87-15-52.13L40.21,62.71C39.88,73.76,38.86,79.16,36.29,99.07Z"/></clipPath><clipPath id="clip-path-2" transform="translate(0 7.18)"><path class="cls-2" d="M28.88,22.32l2.84,2.57C33,26,34.52,27.5,35.65,27.2s1.7-1.68,2.28-2.63,1-1.86,1-1.86l-6.83-5.85L28.88,20Z"/></clipPath><clipPath id="clip-path-3" transform="translate(0 7.18)"><path class="cls-3" d="M32.7,21.63c.65.45.16,2-.78,2.33A1.69,1.69,0,0,1,32.7,21.63Z"/></clipPath><clipPath id="clip-path-4" transform="translate(0 7.18)"><path class="cls-4" d="M84.78,1.75h0a8.65,8.65,0,0,1,1.69,12.13L25.39,94.76l-14.31,7.53a2,2,0,0,1-2.84-2.15l3.33-15.82L72.65,3.44A8.66,8.66,0,0,1,84.78,1.75Z"/></clipPath><clipPath id="clip-path-5" transform="translate(0 7.18)"><path class="cls-5" d="M51.19,104.06v13a.58.58,0,0,1-.59.59H30.21a.58.58,0,0,1-.58-.59v-3.24a3.21,3.21,0,0,1,1.82-2.9l9.77-4.71a2.27,2.27,0,0,0,1.28-2l0-2.74c1.69-.07,2.72.63,2.82,2.45Z"/></clipPath><clipPath id="clip-path-6" transform="translate(0 7.18)"><path class="cls-5" d="M74.56,99.07l4.91,12a.59.59,0,0,1-.32.76l-18.87,7.72a.58.58,0,0,1-.76-.32l-1.23-3a3.22,3.22,0,0,1,.58-3.37l7.27-8.07a2.27,2.27,0,0,0,.42-2.34l-1-2.56c1.54-.7,2.77-.44,3.54,1.21Z"/></clipPath></defs><g id="Capa_2" data-name="Capa 2"><g id="Iconos"><rect class="cls-2" x="66.18" y="94.52" width="7.91" height="9.1" transform="matrix(0.95, -0.32, 0.32, 0.95, -28.16, 35.03)"/><rect class="cls-2" x="42.86" y="104.5" width="7.91" height="9.1"/><path class="cls-1" d="M36.29,99.07,52,99.78a165.76,165.76,0,0,0,1.73-36.39c2.88,9.88,5,22.61,6.82,36.39L77.8,95.23c-3.89-24.64-8.45-44.87-15-52.13L40.21,62.71C39.88,73.76,38.86,79.16,36.29,99.07Z" transform="translate(0 7.18)"/><g class="cls-6"><path class="cls-4" d="M75.41,52.31c5.25-5.53-6.17-9.2-4.89-1.58-1.28-7.62-11.27-1-4.29,2.85-7-3.83-8,8.12-.44,5.12-7.58,3,1.12,11.27,3.73,3.54-2.61,7.73,9.27,6.08,5.09-.7,4.18,6.78,10.3-3.54,2.62-4.42C84.91,58,80.66,46.78,75.41,52.31Z" transform="translate(0 7.18)"/><path class="cls-4" d="M59.56,75.14C67.24,76,63,64.8,57.74,70.33c3.81-4-1.15-7-3.67-5.5,1,6.64,1,13.58,1.93,20.23,1.63-.73,2.69-2.67.94-5.5C61.12,86.34,67.24,76,59.56,75.14Z" transform="translate(0 7.18)"/><path class="cls-4" d="M84.28,90c5.25-5.53-6.17-9.2-4.9-1.57-1.27-7.63-11.27-1-4.28,2.84-7-3.83-8,8.13-.44,5.12-7.58,3,1.11,11.27,3.72,3.55-2.61,7.72,9.28,6.07,5.1-.71,4.18,6.78,10.3-3.54,2.62-4.42C93.78,95.68,89.53,84.46,84.28,90Z" transform="translate(0 7.18)"/><path class="cls-4" d="M39.75,91.3c5.25-5.53-6.18-9.2-4.9-1.58-1.28-7.62-11.27-1-4.28,2.85-7-3.83-8,8.12-.45,5.12-7.58,3,1.12,11.27,3.73,3.54-2.61,7.73,9.28,6.08,5.1-.7,4.18,6.78,10.3-3.54,2.62-4.42C49.25,97,45,85.77,39.75,91.3Z" transform="translate(0 7.18)"/><path class="cls-4" d="M44.33,65c5.25-5.53-6.17-9.2-4.89-1.57-1.28-7.63-11.27-1-4.28,2.84-7-3.83-8,8.13-.45,5.13-7.58,3,1.12,11.26,3.73,3.54-2.61,7.72,9.27,6.07,5.09-.71,4.18,6.78,10.31-3.54,2.63-4.42C53.84,70.65,49.58,59.43,44.33,65Z" transform="translate(0 7.18)"/><path class="cls-4" d="M55.2,78.52c-2.89-.23-6.08,3.71-1.29,6.34-7-3.83-8,8.12-.44,5.12-6.78,2.69-.54,9.58,2.72,5.48A98.83,98.83,0,0,0,55.2,78.52Z" transform="translate(0 7.18)"/></g><path class="cls-5" d="M29,22.34c2.17,2.89-1.14,7.94,2.79,10.85a3.2,3.2,0,0,1,.69-1.38c.51-.52.67-.22,1.33-.76s.56-1.16,1-1.53a5.17,5.17,0,0,0,1.54-1.24,11.41,11.41,0,0,0,1.08-2.82Z" transform="translate(0 7.18)"/><polygon class="cls-4" points="31.09 31.14 31.09 33.68 32.97 32.76 31.09 31.14"/><polygon class="cls-2" points="37.31 32.45 40.36 37.82 45.78 32.45 38.82 28.45 37.31 32.45"/><path class="cls-2" d="M38.5,29a19.67,19.67,0,0,1,7.28-5.05c3.23-1.32,1.86,4.5,1.86,4.5l-7.37,5S36.77,30.87,38.5,29Z" transform="translate(0 7.18)"/><path class="cls-2" d="M28.88,22.32l2.84,2.57C33,26,34.52,27.5,35.65,27.2s1.7-1.68,2.28-2.63,1-1.86,1-1.86l-6.83-5.85L28.88,20Z" transform="translate(0 7.18)"/><g class="cls-7"><path class="cls-4" d="M32.86,26.71l-.23-.27a2.23,2.23,0,0,0,.81-1.56h.35A2.52,2.52,0,0,1,32.86,26.71Z" transform="translate(0 7.18)"/></g><polygon class="cls-5" points="30.18 29.7 30.57 30.07 31.42 29.08 32.6 28.24 32.35 28.02 31.02 28.75 30.18 29.7"/><path class="cls-5" d="M28.81,23.57l1.52-1.86-.69-1.32,1.3.71,1.44-1.73c4.21,1.95,3,4.78,6.3,7.13a7.09,7.09,0,0,1,1.1-1.87c.5-.45.73-.28,1.33-1s.51-1.15.89-1.54.9-.47,1.42-1.05a2.26,2.26,0,0,0,.48-1.63S36.53,13.07,32.6,14c-2.4.59-5.4,5.07-5.4,6.89A3.12,3.12,0,0,0,28.81,23.57Z" transform="translate(0 7.18)"/><path class="cls-3" d="M32.7,21.63c.65.45.16,2-.78,2.33A1.69,1.69,0,0,1,32.7,21.63Z" transform="translate(0 7.18)"/><g class="cls-8"><circle class="cls-4" cx="32.12" cy="30.49" r="0.81"/></g><polygon class="cls-2" points="32.27 55.28 34.49 64.83 43.9 57.56 41.55 49.28 32.27 55.28"/><path class="cls-5" d="M39.07,28.36s2,1.66,4.13-.65,1.24-3.2,1.24-3.2L61,27.32,43.29,48.25,32.35,49.88c-.79-4.25-1-8,.19-11.44A29.42,29.42,0,0,1,39.07,28.36Z" transform="translate(0 7.18)"/><path class="cls-4" d="M84.78,1.75h0a8.65,8.65,0,0,1,1.69,12.13L25.39,94.76l-14.31,7.53a2,2,0,0,1-2.84-2.15l3.33-15.82L72.65,3.44A8.66,8.66,0,0,1,84.78,1.75Z" transform="translate(0 7.18)"/><g class="cls-9"><path class="cls-2" d="M27,99c-1.75-1.32-.26-3.29-2-4.61s-3.24.65-5-.68-.26-3.29-2-4.61-3.23.65-5-.67-.26-3.29-2-4.61l-6.6,8.73,18.84,14.23Z" transform="translate(0 7.18)"/><rect class="cls-2" x="68.25" y="0.98" width="31.33" height="12.71" transform="translate(146.45 70.93) rotate(-142.94)"/><polygon class="cls-2" points="19.14 102.19 18.85 101.97 82.72 17.41 83 17.62 19.14 102.19"/><polygon class="cls-2" points="12.17 96.92 11.88 96.71 75.75 12.15 76.03 12.36 12.17 96.92"/></g><path class="cls-2" d="M63.31,22.44S77.25,24.82,76.21,31,60.51,46.7,60.51,46.7l-3.82-4.6,9-9.69-8.33-3.87Z" transform="translate(0 7.18)"/><path class="cls-5" d="M67.4,22.34,61,32.09l-8.91-2.56.4-1.76-8-3.26a19.82,19.82,0,0,1,9.82-5.24C59.26,18.26,63.4,20.48,67.4,22.34Z" transform="translate(0 7.18)"/><path class="cls-2" d="M59.33,40.38,56.69,42.1c-4.43.27-6.21,1.81-8.76,5.13l.83,1,4.55-3.51.13.13-6.21,5.77.66,1,5.69-4.48.11.12-5.94,6.08.92,1,6.65-5.6.14.14-5.65,6,.83.86,6-5.06.12.12-4.29,4.36.74,1c4-2.59,7.58-5.77,7.71-9.39l2.5-2.07Z" transform="translate(0 7.18)"/><path class="cls-2" d="M34.47,68.25l1-.79,2.66,3.39.32-.24-1.92-8.12.9-.72,2.21,5.7.12,0-1.61-6.85,1-.6,2.33,6.28.15-.07-1.25-6.45,1-.4,2.12,6.08.17-.1-1-5.17.94-.38A18.29,18.29,0,0,1,46.38,67a7.37,7.37,0,0,1-2.22,6.61c-1.54,1.41-3.08,2.06-4.44,1.75C36.22,74.54,34.47,68.25,34.47,68.25Z" transform="translate(0 7.18)"/><path class="cls-5" d="M51.19,104.06v13a.58.58,0,0,1-.59.59H30.21a.58.58,0,0,1-.58-.59v-3.24a3.21,3.21,0,0,1,1.82-2.9l9.77-4.71a2.27,2.27,0,0,0,1.28-2l0-2.74c1.69-.07,2.72.63,2.82,2.45Z" transform="translate(0 7.18)"/><g class="cls-10"><circle class="cls-4" cx="47.3" cy="116.03" r="1.75"/><path class="cls-4" d="M43.25,107.63a.53.53,0,0,1-.37-.15l-3.37-3.32a.53.53,0,0,1,0-.75.53.53,0,0,1,.75,0l3.36,3.32a.52.52,0,0,1-.37.9Z" transform="translate(0 7.18)"/><path class="cls-4" d="M40.85,108.46a.55.55,0,0,1-.38-.15L37.11,105a.53.53,0,0,1,0-.75.53.53,0,0,1,.75,0l3.37,3.32a.52.52,0,0,1,0,.74A.5.5,0,0,1,40.85,108.46Z" transform="translate(0 7.18)"/><path class="cls-4" d="M38.44,109.29a.53.53,0,0,1-.37-.15l-3.37-3.32a.53.53,0,0,1,0-.75.51.51,0,0,1,.74,0l3.37,3.32a.52.52,0,0,1-.37.9Z" transform="translate(0 7.18)"/><circle class="cls-1" cx="28.58" cy="120.59" r="7"/><rect class="cls-4" x="27.54" y="121.65" width="25.38" height="4.73"/></g><path class="cls-5" d="M74.56,99.07l4.91,12a.59.59,0,0,1-.32.76l-18.87,7.72a.58.58,0,0,1-.76-.32l-1.23-3a3.22,3.22,0,0,1,.58-3.37l7.27-8.07a2.27,2.27,0,0,0,.42-2.34l-1-2.56c1.54-.7,2.77-.44,3.54,1.21Z" transform="translate(0 7.18)"/><g class="cls-11"><circle class="cls-4" cx="72.78" cy="112.16" r="1.75"/><path class="cls-4" d="M68.37,105.43a.65.65,0,0,1-.2,0l-4.38-1.8a.53.53,0,0,1-.29-.69.54.54,0,0,1,.69-.29l4.38,1.8a.53.53,0,0,1,.29.69A.55.55,0,0,1,68.37,105.43Z" transform="translate(0 7.18)"/><path class="cls-4" d="M66.45,107.11a.79.79,0,0,1-.2,0l-4.37-1.8a.53.53,0,1,1,.4-1l4.38,1.8a.52.52,0,0,1,.28.69A.53.53,0,0,1,66.45,107.11Z" transform="translate(0 7.18)"/><path class="cls-4" d="M64.54,108.79a.79.79,0,0,1-.2,0L60,107a.53.53,0,1,1,.4-1l4.37,1.8a.53.53,0,0,1-.2,1Z" transform="translate(0 7.18)"/><circle class="cls-1" cx="57.14" cy="122.58" r="7"/><rect class="cls-4" x="56.56" y="112.69" width="25.38" height="4.73" transform="translate(-38.41 41.97) rotate(-22.25)"/></g><path class="cls-4" d="M32.85,136.8a16.52,16.52,0,0,1-11.16-4l-.36-.33a14.64,14.64,0,0,1-12.18,2.25A11.23,11.23,0,0,1,.9,127.34c-2.36-6.57.24-15.34,3.89-20.24l2.83,2.1c-3.14,4.23-5.27,11.73-3.4,17A7.76,7.76,0,0,0,10,131.27a10.89,10.89,0,0,0,9-1.54c-2.19-3.27-3-7.14-1.86-10a4.88,4.88,0,0,1,4.91-3.24,5.18,5.18,0,0,1,4.86,3c1.23,2.74.16,6.85-2.66,10.22l-.33.38.06.05c2.94,2.58,9.7,5.91,22-.86l1.7,3.08C41.71,135.64,36.8,136.8,32.85,136.8ZM21.89,120a1.38,1.38,0,0,0-1.43,1c-.53,1.33-.25,3.86,1.22,6.31,2.06-2.53,2.6-5.18,2.05-6.41-.1-.23-.38-.86-1.75-.9Z" transform="translate(0 7.18)"/></g></g></svg>