<svg xmlns="http://www.w3.org/2000/svg" viewBox="0 0 898.4 277.6">
	<g id="logo">
		<path d="M864 122V67H731C707 24 665 0 614 0c-37 0-71 14-97 38a131 131 0 0 0-14 17 90 90 0 0 0-14-19c-21-21-52-31-94-31H268v131L212 3H109L0 264h130l11-28h39l11 28h197v-24l16 24h141l-15-22a135 135 0 0 0 81 27c29 0 55-7 76-21 18-11 33-28 45-48l4-6 75-1c13 0 26-4 36-12 12-9 17-22 17-37v-22Z" style="fill:#fff" transform="translate(16 9)" />
		<path d="M142 37h70l88 211h-76l-11-28h-73l-11 28H54Zm54 133-19-51-20 51ZM309 38h103c37 0 61 9 75 24 13 13 19 28 19 50v1c0 30-15 51-41 64l49 71h-80l-40-60h-15v60h-70Zm101 100c16 0 27-7 27-20v-1c0-13-11-20-27-20h-31v41ZM519 144v-1c0-63 49-109 111-109 47 0 78 22 95 54l-57 34c-9-15-19-25-39-25-23 0-39 20-39 46 0 27 16 47 39 47 21 0 31-11 40-27l58 33c-18 31-47 57-99 57-59 0-109-44-109-109ZM729 157l30-22c5-3 7-6 7-9s-3-6-7-6-8 3-14 10l-16-14c8-11 17-17 32-17 17 0 30 11 30 25 0 11-6 17-15 23l-14 9h29v19h-62ZM793 163l15-15c5 5 11 8 17 8s9-2 9-6-3-6-10-6h-11l-3-11 16-13h-27v-19h57v17l-17 12c11 3 19 10 19 21v1c0 16-14 24-31 24-15 0-26-4-34-13Z" class="fill-purple" style="fill:transparent" />
	</g>
</svg>
