<svg xmlns="http://www.w3.org/2000/svg" xmlns:xlink="http://www.w3.org/1999/xlink" viewBox="0 0 39 33.91"><defs><style>.cls-1{fill:#ffeb00;}.cls-2{fill:#ff0068;}.cls-3{fill:#fff;}.cls-4{clip-path:url(#clip-path);}.cls-5{fill:#010f70;}.cls-6{clip-path:url(#clip-path-2);}.cls-7{fill:#00c2ff;}.cls-8{clip-path:url(#clip-path-3);}.cls-9{clip-path:url(#clip-path-4);}</style><clipPath id="clip-path"><polygon class="cls-1" points="5.45 13.27 10.8 3.59 12.77 4.19 11.59 14.37 5.45 13.27"/></clipPath><clipPath id="clip-path-2"><path class="cls-2" d="M7.81,20.24,18.64,8.76l5.92.09L28,12l6.09-.69L39,13.65,24.39,30.88s-7.65-1.49-7.76-1.68S7.81,20.24,7.81,20.24Z"/></clipPath><clipPath id="clip-path-3"><path class="cls-1" d="M15.52,2.29c.51.47.34,2.06.08,3.63S15,9,14.29,9.34C12.93,10,9.81,7.81,9.81,7.81L11.89,2S14.49,1.36,15.52,2.29Z"/></clipPath><clipPath id="clip-path-4"><path class="cls-3" d="M13.5,4.58a1.32,1.32,0,0,0,1.7,1.1A1.27,1.27,0,0,0,13.5,4.58Z"/></clipPath></defs><g id="Capa_2" data-name="Capa 2"><g id="map-icon"><g id="map-icon-2" data-name="map-icon"><polygon class="cls-2" points="15.35 4.87 16.63 7.25 14.9 7.34 15.35 4.87"/><polygon class="cls-1" points="5.45 13.27 10.8 3.59 12.77 4.19 11.59 14.37 5.45 13.27"/><g class="cls-4"><polygon class="cls-5" points="12.49 10.43 10.37 8.8 11.26 7.48 12.8 7.79 12.49 10.43"/></g><path class="cls-2" d="M7.81,20.24,18.64,8.76l5.92.09L28,12l6.09-.69L39,13.65,24.39,30.88s-7.65-1.49-7.76-1.68S7.81,20.24,7.81,20.24Z"/><g class="cls-6"><rect class="cls-5" x="16.48" y="19.15" width="21.42" height="0.3" transform="translate(-5.21 27.16) rotate(-48.99)"/><rect class="cls-5" x="10.77" y="19.31" width="21.42" height="0.3" transform="translate(-7.3 22.9) rotate(-48.99)"/><polygon class="cls-5" points="12.47 22.41 12.25 22.21 25.91 7.14 26.13 7.34 12.47 22.41"/></g><path class="cls-2" d="M0,32.41l15.54,1.5c.49-9.36-1.11-18.33-3.75-20.77l-6.23-.49C2.92,13.65.89,21.74,0,32.41Z"/><path class="cls-1" d="M15.74,20.24l3,4.51L25,24.07,31.4,21l.93.86-.84.66a5.57,5.57,0,0,1,0,4.43,11.51,11.51,0,0,1-2.73,1.68,4.82,4.82,0,0,1-1.63-.43s-7.71,3.09-10.58,2-6.6-7.75-6.6-7.75Z"/><path class="cls-7" d="M16.69,21l-6.26,3.46s-2.77-4.51-3.09-7.75A3.08,3.08,0,0,1,9,13.62a3.4,3.4,0,0,1,3.9.48C15.19,16.38,16.69,21,16.69,21Z"/><rect class="cls-5" x="28.91" y="22.81" width="3.81" height="0.3" transform="translate(-7.61 22.98) rotate(-36.72)"/><path class="cls-1" d="M15.52,2.29c.51.47.34,2.06.08,3.63S15,9,14.29,9.34C12.93,10,9.81,7.81,9.81,7.81L11.89,2S14.49,1.36,15.52,2.29Z"/><g class="cls-8"><path class="cls-5" d="M15.48,8a1.81,1.81,0,0,1-1.29-.82L14.44,7a1.47,1.47,0,0,0,1.08.69Z"/></g><polygon class="cls-5" points="15.61 4.18 15.51 4.65 14.34 4.28 13.58 4.22 13.63 3.99 14.64 3.95 15.61 4.18"/><path class="cls-3" d="M13.5,4.58a1.32,1.32,0,0,0,1.7,1.1A1.27,1.27,0,0,0,13.5,4.58Z"/><g class="cls-9"><circle class="cls-5" cx="14.82" cy="5.42" r="0.5"/></g><path class="cls-5" d="M6.51,11.34l-4.61-2a2.92,2.92,0,0,1,.8-3.18C4.48,4.68,6.12,4.34,7,3.49S9-.82,12.24.19a12.82,12.82,0,0,1,2.21.88,2.48,2.48,0,0,1,1.32,1.7c-.19.75-1.53,1.14-2.64,1.57s-2.23.89-2.23.89l-.77-.18Z"/><path class="cls-1" d="M11.48,6.89l-.9-.1A1.32,1.32,0,0,1,9.43,5.33h0a1.31,1.31,0,0,1,1.46-1.15.85.85,0,0,1,.82.8Z"/><rect class="cls-5" x="10.43" y="4.97" width="0.3" height="1.11" transform="matrix(0.68, -0.74, 0.74, 0.68, -0.65, 9.56)"/></g></g></g></svg>