<svg xmlns="http://www.w3.org/2000/svg" xmlns:xlink="http://www.w3.org/1999/xlink" viewBox="0 0 100 120.07"><defs><style>.cls-1{fill:#ffeb00;}.cls-2{fill:#00c2ff;}.cls-3{fill:#ff0068;}.cls-4{clip-path:url(#clip-path);}.cls-5{fill:#010f70;}.cls-6{clip-path:url(#clip-path-2);}.cls-7{clip-path:url(#clip-path-3);}.cls-8{clip-path:url(#clip-path-4);}.cls-9{clip-path:url(#clip-path-5);}</style><clipPath id="clip-path"><polygon class="cls-1" points="51.07 16.91 50.16 24.87 42.71 22.57 46.15 14.18 51.07 16.91"/></clipPath><clipPath id="clip-path-2"><path class="cls-2" d="M26.67,23.56a37.6,37.6,0,0,1,16-1.64s.5,2.28,3.87,2.5,4.23-1.25,4.23-1.25C61.47,25.29,63.11,30,64.65,34.7l-7.09,5.44L54.05,50.21l-21.83.5L30.9,34.43l-3.23-.18Z"/></clipPath><clipPath id="clip-path-3"><path class="cls-3" d="M60.5,102.06c4.28,0,3.31,3,4.57,3.07,1.54.05,1.43-3.24,3.14-3.76a5.38,5.38,0,0,1,2.63-.27s-.19,2.42.82,3.23,10.41,4.36,12.41,6.06a3.35,3.35,0,0,1,.64,4.12l-23.84-1.87Z"/></clipPath><clipPath id="clip-path-4"><path class="cls-3" d="M13.23,92c2,3.79-1.13,4.34-.57,5.48.67,1.38,3.53-.26,4.78,1a5.39,5.39,0,0,1,1.47,2.19s-2.22,1-2.46,2.25,1,11.23.46,13.8a3.34,3.34,0,0,1-3.34,2.49L4.05,97.27Z"/></clipPath><clipPath id="clip-path-5"><path class="cls-1" d="M57.39,11.16a22.39,22.39,0,0,1-1.34,3.27c-.81,1.95-1.68,4.08-2.9,4.4-2.08.55-6.19-3.07-6.19-3.07l3.1-6.19S57.63,9.49,57.39,11.16Z"/></clipPath></defs><g id="Capa_2" data-name="Capa 2"><g id="Iconos"><path class="cls-3" d="M66.09,27.7l-5.22,4.09-13-6.05L51.8,14.18l3.07,1.3s-.07,3.21,1.39,3.89,3.06.17,4.16,1.1.53,3.87,1.3,4.4,2.76.4,3.48,1A3.35,3.35,0,0,1,66.09,27.7Z"/><polygon class="cls-3" points="56.09 13.2 56.82 16.62 55.06 16.15 56.09 13.2"/><polygon class="cls-1" points="51.07 16.91 50.16 24.87 42.71 22.57 46.15 14.18 51.07 16.91"/><g class="cls-4"><polygon class="cls-5" points="51.35 20.35 48.62 17.85 49.65 16.62 51.84 17.28 51.35 20.35"/></g><path class="cls-1" d="M42.63,21.92a44.37,44.37,0,0,1,8.1,1.25c1.94.63-.7,3.46-.7,3.46L40.81,25S40.05,21.72,42.63,21.92Z"/><path class="cls-1" d="M30.67,31.27l-13.46,7.1c-2.07-7,0-12.09,10.18-14.41Z"/><path class="cls-1" d="M63.06,33.61,68.2,45.33l.68,5.38c-10,5.69-10.37-6-12-14.64Z"/><path class="cls-2" d="M26.67,23.56a37.6,37.6,0,0,1,16-1.64s.5,2.28,3.87,2.5,4.23-1.25,4.23-1.25C61.47,25.29,63.11,30,64.65,34.7l-7.09,5.44L54.05,50.21l-21.83.5L30.9,34.43l-3.23-.18Z"/><g class="cls-6"><circle class="cls-5" cx="37.13" cy="33.14" r="1.24"/><circle class="cls-5" cx="31.06" cy="19.47" r="1.24"/><circle class="cls-5" cx="55.92" cy="24.34" r="1.24"/><circle class="cls-5" cx="61.21" cy="36.53" r="1.24"/><circle class="cls-5" cx="53.57" cy="43.75" r="1.24"/></g><polygon class="cls-1" points="60.87 95.47 61.12 102.36 66.33 109.59 70.56 101.27 70.56 94.79 60.87 95.47"/><path class="cls-3" d="M60.5,102.06c4.28,0,3.31,3,4.57,3.07,1.54.05,1.43-3.24,3.14-3.76a5.38,5.38,0,0,1,2.63-.27s-.19,2.42.82,3.23,10.41,4.36,12.41,6.06a3.35,3.35,0,0,1,.64,4.12l-23.84-1.87Z"/><g class="cls-7"><path class="cls-5" d="M73.61,109.35a.32.32,0,0,1-.14,0,.35.35,0,0,1-.18-.46l1.82-4.07a.35.35,0,0,1,.46-.18.36.36,0,0,1,.18.47l-1.82,4.06A.34.34,0,0,1,73.61,109.35Z"/><path class="cls-5" d="M69.86,107.86a.37.37,0,0,1-.27-.13.35.35,0,0,1,0-.5l3.75-3.14a.36.36,0,0,1,.5,0,.34.34,0,0,1,0,.49l-3.76,3.14A.31.31,0,0,1,69.86,107.86Z"/><path class="cls-5" d="M67.52,105.17a.35.35,0,0,1-.34-.25.36.36,0,0,1,.23-.44L72.19,103a.35.35,0,0,1,.44.23.36.36,0,0,1-.24.44l-4.77,1.46Z"/></g><path class="cls-5" d="M60.65,109.28c2.79-1.64,8.26,4.54,9.51,4.08s-.63-2.13,1.11-3,4.63,2.53,5.81,2.34.7-1.93,2.08-2.18,4.63,3.16,6,2.51c1,1.9-.31,3.16-1.82,3.75H60.24C58.94,116.83,57.85,110.91,60.65,109.28Z"/><polygon class="cls-1" points="19.22 89.23 13.25 92.67 9.3 100.67 18.63 100.5 24.36 97.47 19.22 89.23"/><path class="cls-3" d="M13.23,92c2,3.79-1.13,4.34-.57,5.48.67,1.38,3.53-.26,4.78,1a5.39,5.39,0,0,1,1.47,2.19s-2.22,1-2.46,2.25,1,11.23.46,13.8a3.34,3.34,0,0,1-3.34,2.49L4.05,97.27Z"/><g class="cls-8"><path class="cls-5" d="M13.23,107.17a.35.35,0,0,1,0-.7l4.45-.3a.35.35,0,1,1,0,.7l-4.44.3Z"/><path class="cls-5" d="M17.33,105a.31.31,0,0,1-.13,0l-4.53-1.84a.35.35,0,1,1,.26-.66l4.53,1.85a.36.36,0,0,1,.2.46A.37.37,0,0,1,17.33,105Z"/><path class="cls-5" d="M17.6,103.36a.35.35,0,0,1-.25-.1l-3.53-3.54a.35.35,0,0,1,.5-.5l3.53,3.54a.37.37,0,0,1,0,.5A.35.35,0,0,1,17.6,103.36Z"/></g><path class="cls-5" d="M6.92,95.49c2.75,1.71-.15,9.44.84,10.32s1.59-1.55,3.13-.4-.06,5.28.66,6.23,2-.29,2.9.82-.63,5.57.6,6.47c-1.23,1.75-2.94,1.21-4.17.15L.05,98.67C-.55,97.53,4.16,93.79,6.92,95.49Z"/><path class="cls-2" d="M15.05,87.59l9.31,14.6S42.07,88,43.55,83.92c2.11-5.75-.83-20.79-.83-20.79,3.55,4.85,12.46,12,13.79,13.78s1.63,19.93,1.63,19.93L76.43,97s-4.24-24.49-5.67-29S52,45.33,52,45.33l-24.42,9.2s1,22.14.54,23.48S15.05,87.59,15.05,87.59Z"/><path class="cls-5" d="M42.68,50.68l1.15,2.1A4.3,4.3,0,0,0,47.94,55c2.7-.24,5.36,0,5,2.91-.43,3.79-6,.87-10.64,3.05-5.53,2.59-4.82,10.63-15.83,12.23-5.36.79-9.88-4.08-12.56-10.32-2.77-6.47-3.44-14,2.28-16.47,8.86-3.84,12.73.12,17.37-1.06,2.74-.69,7-5.56,10.83-6.76a5.08,5.08,0,0,1,5.42,2,1.23,1.23,0,0,1-.45,1.87l-4.8,2.3A4.28,4.28,0,0,0,42.68,50.68Z"/><rect class="cls-2" x="94.25" y="20.56" width="0.71" height="3.15" transform="translate(-0.59 41.6) rotate(-24.72)"/><circle class="cls-2" cx="93.83" cy="20.45" r="0.98"/><rect class="cls-2" x="90.84" y="21.99" width="0.71" height="3.15" transform="translate(-1.5 40.28) rotate(-24.71)"/><circle class="cls-2" cx="90.42" cy="21.88" r="0.98"/><rect class="cls-2" x="94.45" y="29.69" width="0.71" height="3.15" transform="translate(-4.39 42.52) rotate(-24.72)"/><circle class="cls-2" cx="95.58" cy="32.96" r="0.98"/><rect class="cls-2" x="97.87" y="28.26" width="0.71" height="3.16" transform="translate(-3.48 43.8) rotate(-24.72)"/><rect class="cls-3" x="35.58" y="36.62" width="61.02" height="6.7" transform="translate(-10.69 31.59) rotate(-24.94)"/><rect class="cls-5" x="87.79" y="23.43" width="11.08" height="7.76" transform="translate(-2.81 41.89) rotate(-24.93)"/><circle class="cls-2" cx="98.99" cy="31.53" r="0.98"/><rect class="cls-3" x="19.75" y="54.92" width="4.83" height="10.93" transform="translate(-23.38 14.97) rotate(-24.93)"/><rect class="cls-3" x="28.03" y="52.37" width="2.3" height="9.52" transform="translate(-21.35 17.61) rotate(-24.92)"/><rect class="cls-3" x="33.19" y="52.86" width="1.97" height="3.88" transform="translate(-19.92 19.52) rotate(-24.94)"/><path class="cls-1" d="M64.65,45.53,71.79,41c.19-1.12,1.22-2,2.36-3.25V32.52L75.29,32l.83,5.12.3-.1-.59-5.86,1.2-.51.82,5.85.23-.14V30.26l1.33-.42.24,5.82.25-.06.39-6,1.19-.33s1.42,8.41-.32,10.32S68.88,50.71,68.88,50.71Z"/><path class="cls-1" d="M24.81,32.05l.31,12.76c3.06,1.3,3.61,4.75,4.41,8.46l-1.83.61-1.79-5.21-.22.09,1.5,8-1.41.35-1.82-7-.23.06,1.76,8.39-1.22.46-2.68-8.25-.18,0,2.1,7.48-1.29.54L19.44,51.6l-.19,0,1.44,5.79-1.2.78c-1.92-5-3.25-9.52-1.44-13.37L16.59,35.6Z"/><path class="cls-1" d="M57.39,11.16a22.39,22.39,0,0,1-1.34,3.27c-.81,1.95-1.68,4.08-2.9,4.4-2.08.55-6.19-3.07-6.19-3.07l3.1-6.19S57.63,9.49,57.39,11.16Z"/><g class="cls-9"><path class="cls-5" d="M55.23,17.21A2,2,0,0,1,54,15.8l.34-.08a1.7,1.7,0,0,0,1.07,1.17Z"/></g><path class="cls-5" d="M54.94,14.27c-.19-.75-.41-1.09-1.18-1.11l0-.36c1.07,0,1.32.68,1.5,1.39Z"/><polygon class="cls-5" points="56.45 12.77 55.97 13.3 53.26 10.99 53.56 10.73 56.45 12.77"/><circle class="cls-3" cx="50.6" cy="4.75" r="2.32"/><path class="cls-3" d="M57.39,11.16a3.46,3.46,0,0,1-2.74.87c-1.74,0-2.86-.42-4.54.88s-1.39,4-2.65,5.65-2.36,1.55-3.6,3.13c-.56.71-.43,2.11-.79,3.18a7,7,0,0,1-1.3,2.24L29,20.71s.86-4.18,3.41-5.52,4.46-.59,5.72-1.51,1-2.29,3.33-3.13,3.12.26,4.7-.68,1.72-2.3,4.2-3.13c1.55-.52,2.22-.21,4,.66C56.69,8.5,57.58,9.61,57.39,11.16Z"/><path class="cls-2" d="M65.27,16l-1-.25c1-3.92,0-5.89-.73-6.75a2.41,2.41,0,0,1-2,.75,1.23,1.23,0,0,1-1-1.15,1.27,1.27,0,0,1,.63-1.33,2.2,2.2,0,0,1,2.23.24l.09-.16C64,6.44,64.93,4,62,.7l.8-.7C66.18,3.82,65,6.78,64.4,7.87c-.06.11-.13.21-.19.31C65.11,9.18,66.37,11.48,65.27,16ZM62,8.1a.58.58,0,0,0-.28.06s-.13.08-.1.3.1.23.13.24a1.41,1.41,0,0,0,1-.4A1.57,1.57,0,0,0,62,8.1Z"/><path class="cls-2" d="M71.07,23.94l-.15-1.05c4-.56,5.47-2.18,6-3.18a2.42,2.42,0,0,1-1.44-1.58,1.25,1.25,0,0,1,.71-1.33,1.33,1.33,0,0,1,1.48.09,2.23,2.23,0,0,1,.59,2.16l.18,0c1,.15,3.64.09,5.63-3.81l.94.48c-2.31,4.52-5.47,4.56-6.72,4.37l-.37-.07C77.33,21.27,75.65,23.29,71.07,23.94Zm5.81-6.27a.55.55,0,0,0-.19.06c-.19.11-.17.18-.17.22a1.39,1.39,0,0,0,.73.74,1.17,1.17,0,0,0-.24-1A.18.18,0,0,0,76.88,17.67Z"/><path class="cls-2" d="M70,17.77l-.61-.86c3.3-2.33,3.86-4.44,3.88-5.58a2.34,2.34,0,0,1-2-.74,1.25,1.25,0,0,1,0-1.51,1.28,1.28,0,0,1,1.35-.59,2.21,2.21,0,0,1,1.52,1.65l.18-.06c1-.33,3.27-1.57,3.26-6h1.06c0,5.07-2.78,6.56-4,7l-.35.11C74.34,12.54,73.78,15.1,70,17.77Zm2.39-8.25c-.06,0-.14,0-.23.16s-.08.24,0,.27a1.36,1.36,0,0,0,1,.33,1.17,1.17,0,0,0-.66-.76Z"/></g></g></svg>