<svg xmlns="http://www.w3.org/2000/svg" xmlns:xlink="http://www.w3.org/1999/xlink" viewBox="0 0 65.24 119.51"><defs><style>.cls-1{fill:#ff0068;}.cls-2{fill:#ffeb00;}.cls-3{fill:#fff;}.cls-4{fill:#00c2ff;}.cls-5{clip-path:url(#clip-path);}.cls-6{fill:#010f70;}.cls-7{clip-path:url(#clip-path-2);}.cls-8{clip-path:url(#clip-path-3);}.cls-9{clip-path:url(#clip-path-4);}.cls-10{clip-path:url(#clip-path-5);}.cls-11{clip-path:url(#clip-path-6);}.cls-12{clip-path:url(#clip-path-7);}</style><clipPath id="clip-path" transform="translate(5.67)"><path class="cls-1" d="M22.44,107.49H38.36a10.59,10.59,0,0,0-2.91-6.5L36,97.36H33.31a2.31,2.31,0,1,0-4.6,0l-2-.19-.49,2.65C23.53,102.79,22.51,105.34,22.44,107.49Z"/></clipPath><clipPath id="clip-path-2" transform="translate(5.67)"><path class="cls-2" d="M25.05,23.34c0-.1,2.46-8.32,2.46-8.32l5,.48.82,7.84Z"/></clipPath><clipPath id="clip-path-3" transform="translate(5.67)"><path class="cls-3" d="M36.18,10.32c-1.67-1.24-2.82-.88-3.63.56A2.79,2.79,0,0,0,36.18,10.32Z"/></clipPath><clipPath id="clip-path-4" transform="translate(5.67)"><path class="cls-4" d="M11,26c4.91-1.35,9.74-2.66,13.53-3.45a7.67,7.67,0,0,0,5.18.83c3-.55,3.87-1.69,3.87-1.69C45.22,20.32,47.84,24.05,48.76,30c.46,3,.93,6.64,1.3,10.18l-9.17,7.19H18.7Z"/></clipPath><clipPath id="clip-path-5" transform="translate(5.67)"><path class="cls-1" d="M1,72.5l25.9-3.42-2-9.2-6.07,1c-.66-1.39-1.91-1.67-3.66-1v2.56L3.64,68A4.64,4.64,0,0,0,1,71.78Z"/></clipPath><clipPath id="clip-path-6" transform="translate(5.67)"><path class="cls-4" d="M19.76,37.67c-19.85,9.62-18.28-2-12.69-18.83l6.35,1.23L12.8,26Z"/></clipPath><clipPath id="clip-path-7" transform="translate(5.67)"><path class="cls-4" d="M38.71,35.49c4.32,2.69,8.41,4.91,11.35,4.68,0,0,.86,6.36-1.68,9.35S37.5,59.64,37.5,59.64L31.77,53l8.6-7.57Z"/></clipPath></defs><g id="Capa_2" data-name="Capa 2"><g id="Iconos"><polygon class="cls-2" points="34.41 86.59 32.27 97.67 41.46 98.23 44.65 86.42 34.41 86.59"/><path class="cls-1" d="M22.44,107.49H38.36a10.59,10.59,0,0,0-2.91-6.5L36,97.36H33.31a2.31,2.31,0,1,0-4.6,0l-2-.19-.49,2.65C23.53,102.79,22.51,105.34,22.44,107.49Z" transform="translate(5.67)"/><g class="cls-5"><circle class="cls-6" cx="35.91" cy="110.49" r="9.02"/></g><rect class="cls-4" x="26.41" y="106.89" width="19.27" height="5.7" rx="2.85"/><path class="cls-6" d="M33.5,99.2H28a.53.53,0,0,1,0-1.06H33.5a.53.53,0,1,1,0,1.06Z" transform="translate(5.67)"/><path class="cls-6" d="M33.5,100.9H28a.53.53,0,0,1,0-1.05H33.5a.53.53,0,1,1,0,1.05Z" transform="translate(5.67)"/><rect class="cls-1" x="0.25" y="92.83" width="37.98" height="2.82" transform="translate(-71.27 94.57) rotate(-78.66)"/><rect class="cls-1" x="42.59" y="75.25" width="2.82" height="37.98" transform="translate(-11.99 10.49) rotate(-11.34)"/><path class="cls-1" d="M52.2,77.56H11a2.82,2.82,0,0,1,0-5.64H52.2a2.82,2.82,0,1,1,0,5.64Z" transform="translate(5.67)"/><polygon class="cls-6" points="47.56 70.83 24.18 70.83 20.79 43.54 50.02 40.96 47.56 70.83"/><path class="cls-6" d="M21.42,93.57l17.65.55L51.6,63.77a8,8,0,0,0-6.82-11h0a8,8,0,0,0-7.84,4.79Z" transform="translate(5.67)"/><path class="cls-2" d="M24,22.73c2.49-.82,6.65-1,11.32-1s.24,2.9.24,2.9L25.43,26.89S21.54,23.55,24,22.73Z" transform="translate(5.67)"/><path class="cls-2" d="M25.05,23.34c0-.1,2.46-8.32,2.46-8.32l5,.48.82,7.84Z" transform="translate(5.67)"/><g class="cls-7"><polygon class="cls-6" points="38.98 20.41 34.58 18.66 35.22 17.25 38.45 17.02 38.98 20.41"/></g><path class="cls-2" d="M37.5,12.05c-.81,4.16-2.76,6.62-7.4,6-2.37-.3-4.59-3.87-4.33-7.19a14.49,14.49,0,0,1,2.49-6.26l8,1.1S38.31,7.89,37.5,12.05Z" transform="translate(5.67)"/><path class="cls-2" d="M36.35,15.56l-.44-.22,2-3.88.44.22a2.19,2.19,0,0,1,1,2.93h0A2.16,2.16,0,0,1,36.35,15.56Z" transform="translate(5.67)"/><path class="cls-6" d="M37.58,12.38l-.8-.37s.68-3.28.09-3.83-1.18-.16-1.6-.44-.21-.8-.79-1.15-1.1,0-1.71-.29c-.78-.31-.6-1-1.3-1.18a2.77,2.77,0,0,0-1.33,0l-.72-3.43A3,3,0,0,1,31.48.57c1.37-.08,1.84.78,2.28,1s1.3-.3,2.26.33c.72.48.51,1.23.78,1.57s.83.17,1.43,1.05-.27,1.61,0,2.14a2.41,2.41,0,0,1,.55,1.64A18.33,18.33,0,0,1,37.58,12.38Z" transform="translate(5.67)"/><polygon class="cls-6" points="42.93 14.1 42.91 13.75 44.38 13.67 44.4 14.02 42.93 14.1"/><polygon class="cls-1" points="36.94 9.16 37.61 12.6 35.54 12.4 36.94 9.16"/><path class="cls-3" d="M36.18,10.32c-1.67-1.24-2.82-.88-3.63.56A2.79,2.79,0,0,0,36.18,10.32Z" transform="translate(5.67)"/><g class="cls-8"><circle class="cls-6" cx="39.24" cy="10.3" r="1.15"/></g><path class="cls-6" d="M31.21,14.66a4,4,0,0,1-1.67-.28l.15-.32a5,5,0,0,0,2.36.21l0,.35C31.77,14.64,31.48,14.66,31.21,14.66Z" transform="translate(5.67)"/><path class="cls-4" d="M15.57,2.63,29.75,0a74.53,74.53,0,0,1,1.14,7.74c.34,4.78-1,9.67-6,10.35S17.5,15,16.65,10.45C16,6.9,15.57,2.63,15.57,2.63Z" transform="translate(5.67)"/><path class="cls-6" d="M21.6,12.22l5.24-1.07a3.63,3.63,0,0,1-2.58,2.08A2.36,2.36,0,0,1,21.6,12.22Z" transform="translate(5.67)"/><path class="cls-6" d="M28.91,6.24A4.74,4.74,0,0,1,25,8.76Q25.31,5.07,28.91,6.24Z" transform="translate(5.67)"/><path class="cls-6" d="M18.05,8.08a4.74,4.74,0,0,0,4.51,1.1C21.57,6.92,20.06,6.56,18.05,8.08Z" transform="translate(5.67)"/><path class="cls-6" d="M23.33,8.34l.24,0s1.19,2,1.15,2.06-1.4.24-1.4.24Z" transform="translate(5.67)"/><path class="cls-4" d="M11,26c4.91-1.35,9.74-2.66,13.53-3.45a7.67,7.67,0,0,0,5.18.83c3-.55,3.87-1.69,3.87-1.69C45.22,20.32,47.84,24.05,48.76,30c.46,3,.93,6.64,1.3,10.18l-9.17,7.19H18.7Z" transform="translate(5.67)"/><g class="cls-9"><path class="cls-1" d="M55.07,29.07c3.93-4.13-4.61-6.88-3.66-1.18-.95-5.7-8.42-.73-3.2,2.13-5.22-2.86-6,6.07-.33,3.83-5.67,2.24.84,8.42,2.79,2.65-2,5.77,6.93,4.54,3.8-.53,3.13,5.07,7.7-2.64,2-3.31C62.17,33.33,59,24.94,55.07,29.07Z" transform="translate(5.67)"/><path class="cls-1" d="M24.53,15.42c3.92-4.13-4.62-6.87-3.66-1.18-1-5.69-8.42-.73-3.2,2.13-5.22-2.86-6,6.07-.34,3.83-5.66,2.24.84,8.42,2.79,2.65-1.95,5.77,6.93,4.54,3.81-.53,3.12,5.07,7.7-2.64,2-3.31C31.63,19.68,28.45,11.29,24.53,15.42Z" transform="translate(5.67)"/><path class="cls-1" d="M33.86,29.15C37.78,25,29.24,22.28,30.2,28c-1-5.69-8.42-.73-3.2,2.13-5.22-2.86-6,6.07-.33,3.83-5.67,2.24.83,8.42,2.78,2.65-1.95,5.77,6.93,4.54,3.81-.53,3.12,5.07,7.7-2.64,2-3.31C41,33.41,37.78,25,33.86,29.15Z" transform="translate(5.67)"/><path class="cls-1" d="M28.59,46.48c3.92-4.13-4.61-6.88-3.66-1.18-.95-5.7-8.42-.73-3.2,2.13-5.22-2.86-6,6.07-.33,3.83-5.67,2.24.83,8.42,2.78,2.65-1.95,5.77,6.94,4.54,3.81-.53,3.13,5.07,7.7-2.64,2-3.31C35.69,50.74,32.51,42.35,28.59,46.48Z" transform="translate(5.67)"/></g><polygon class="cls-2" points="20.39 55.34 21.14 62.98 29.77 61.66 28.13 54.32 20.39 55.34"/><path class="cls-1" d="M1,72.5l25.9-3.42-2-9.2-6.07,1c-.66-1.39-1.91-1.67-3.66-1v2.56L3.64,68A4.64,4.64,0,0,0,1,71.78Z" transform="translate(5.67)"/><g class="cls-10"><path class="cls-6" d="M15.5,66.55a.54.54,0,0,1-.44-.23l-2.52-3.68a.53.53,0,1,1,.87-.6l2.53,3.69a.53.53,0,0,1-.14.73A.55.55,0,0,1,15.5,66.55Z" transform="translate(5.67)"/><path class="cls-6" d="M17.54,63.51a.54.54,0,0,1-.25-.06L14,61.71a.53.53,0,1,1,.49-.93l3.3,1.74a.53.53,0,0,1,.23.71A.53.53,0,0,1,17.54,63.51Z" transform="translate(5.67)"/><circle class="cls-6" cx="10.61" cy="70.83" r="7.11"/></g><path class="cls-4" d="M27.84,70.31l.06.49a1.67,1.67,0,0,1-1.46,1.88L1.87,75.61A1.67,1.67,0,0,1,0,74.08H0a1.66,1.66,0,0,1,1.43-1.79L26,68.88A1.68,1.68,0,0,1,27.84,70.31Z" transform="translate(5.67)"/><path class="cls-6" d="M9,60.12l16.07-2.64L17.79,36,5.85,37.88C4,38.69,6.31,49,9,60.12Z" transform="translate(5.67)"/><path class="cls-2" d="M7.21,19l2.87,2.46,3.34-1.35.27-.6a4.39,4.39,0,0,0,3.42-3.37l3.13-2.91-.6-.88-4.56,3.1L15,15.25l5.52-4.41L20.06,10l-6,3.89-.09-.21,6-4.16-.67-.68-6.51,3.67-.17-.15,6.07-3.78-.88-1.15-8,4.08Z" transform="translate(5.67)"/><path class="cls-4" d="M19.76,37.67c-19.85,9.62-18.28-2-12.69-18.83l6.35,1.23L12.8,26Z" transform="translate(5.67)"/><g class="cls-11"><path class="cls-1" d="M9.18,35.48c3.92-4.14-4.62-6.88-3.66-1.18-1-5.7-8.42-.74-3.2,2.13-5.22-2.87-6,6.07-.33,3.83-5.67,2.24.83,8.42,2.78,2.64-1.95,5.78,6.93,4.54,3.81-.53,3.12,5.07,7.7-2.64,2-3.3C16.28,39.73,13.1,31.34,9.18,35.48Z" transform="translate(5.67)"/><path class="cls-1" d="M5.45,15.79C9.37,11.66.83,8.91,1.79,14.61c-1-5.7-8.42-.73-3.2,2.13-5.22-2.86-6,6.07-.33,3.83C-7.41,22.81-.91,29,1,23.22-.91,29,8,27.76,4.85,22.69c3.12,5.07,7.7-2.64,2-3.31C12.55,20.05,9.37,11.66,5.45,15.79Z" transform="translate(5.67)"/></g><path class="cls-2" d="M33.83,52.12l-3,3.8c-4,0-5.72,1.49-8,6L24.1,63l3.26-3.08.17.09-5.09,6.53,1.07,1,5.31-5.46.11.09-5.52,6.44,1,.75,5.91-5.78.13.12-5.48,6,.92.67,6-5.49.12.1-3.83,4.39.83,1c3.81-3,7.15-6.13,7.45-10.26l2.75-3.07Z" transform="translate(5.67)"/><path class="cls-4" d="M38.71,35.49c4.32,2.69,8.41,4.91,11.35,4.68,0,0,.86,6.36-1.68,9.35S37.5,59.64,37.5,59.64L31.77,53l8.6-7.57Z" transform="translate(5.67)"/><g class="cls-12"><path class="cls-1" d="M42.42,42.53c3.93-4.13-4.61-6.88-3.66-1.18-.95-5.7-8.42-.74-3.2,2.13-5.22-2.87-6,6.07-.33,3.83-5.67,2.24.83,8.42,2.79,2.64-2,5.78,6.93,4.55,3.8-.52,3.13,5.07,7.7-2.65,2-3.31C49.52,46.78,46.35,38.4,42.42,42.53Z" transform="translate(5.67)"/></g><polygon class="cls-6" points="17.9 33.45 17.55 33.41 18.65 22.62 19 22.65 17.9 33.45"/><polygon class="cls-6" points="45.87 45.48 44.21 34.41 44.56 34.36 46.22 45.42 45.87 45.48"/><polygon class="cls-6" points="38.42 8.21 38.24 9.01 41.12 9.1 42.02 9.4 42.17 8.99 41.22 8.49 38.42 8.21"/></g></g></svg>