<svg xmlns="http://www.w3.org/2000/svg" viewBox="0 0 72.15 77.59"><defs><style>.cls-1{fill:#00c2ff;}.cls-2{fill:#fff;}.cls-3{fill:#ff0068;}</style></defs><g id="Capa_2" data-name="Capa 2"><g id="Iconos"><path class="cls-1" d="M44.11,66.94l28-47.17a3.09,3.09,0,0,1-1.07-4.23L68.52,14a3.08,3.08,0,1,1-5.3-3.15L60.66,9.35a3.09,3.09,0,0,1-5.31-3.16L52.8,4.67a3.09,3.09,0,0,1-5.31-3.15L44.93,0a3.08,3.08,0,0,1-4.22,1.08l-28,47.17a3.07,3.07,0,0,1,1.08,4.22L16.3,54a3.09,3.09,0,0,1,5.3,3.16l2.56,1.52a3.08,3.08,0,1,1,5.3,3.15L32,63.34a3.08,3.08,0,0,1,5.3,3.15L39.88,68A3.08,3.08,0,0,1,44.11,66.94Z"/><path class="cls-2" d="M44.31,57.49,64,24.46a3.07,3.07,0,0,1-1.08-4.22L44.73,9.45a3.09,3.09,0,0,1-4.23,1.07l-19.63,33a3.09,3.09,0,0,1,1.07,4.23L40.08,58.57A3.09,3.09,0,0,1,44.31,57.49Z"/><rect class="cls-1" x="48.53" y="13.21" width="0.56" height="20.08" transform="matrix(0.51, -0.86, 0.86, 0.51, 3.88, 53.32)"/><rect class="cls-1" x="44.21" y="20.46" width="0.56" height="20.08" transform="matrix(0.51, -0.86, 0.86, 0.51, -4.46, 53.16)"/><path class="cls-1" d="M43.55,37.84c-1.51,1-4.83-1.12-4.5-2.92-.33,1.8-4.21,2.62-5.25,1.11,1,1.51-1.12,4.83-2.92,4.5,1.8.33,2.62,4.21,1.11,5.24,1.51-1,4.83,1.13,4.5,2.93.33-1.8,4.21-2.62,5.25-1.12-1-1.5,1.12-4.83,2.92-4.49C42.86,42.75,42,38.88,43.55,37.84Z"/><circle class="cls-1" cx="46.78" cy="26.96" r="3.12"/><circle class="cls-1" cx="52.93" cy="30.61" r="0.98"/><path class="cls-1" d="M42.42,22.81c2.14-.6-.17-3.22-1-1.12.82-2.1-2.67-1.92-1.49.08-1.18-2-3.22.84-.88,1.21-2.34-.37-1.39,3,.41,1.44-1.8,1.55,1.42,2.9,1.38.58,0,2.32,3.1.65,1.31-.71C44,25.65,44.56,22.21,42.42,22.81Z"/><path class="cls-1" d="M56,25.81a3.24,3.24,0,0,1-1.34-2.29,3.49,3.49,0,0,1-4.54-2.29,4.22,4.22,0,0,1-4.63-2.94,3.18,3.18,0,0,1-2.43-.18l.28-.48a2.67,2.67,0,0,0,2,.11c0-.13,0-.27,0-.4A2.69,2.69,0,0,1,46.53,15a1.26,1.26,0,0,1,1.3,0,.94.94,0,0,1,.53.86c0,.72-.81,1.42-1.56,1.84a5.06,5.06,0,0,1-.74.35A3.43,3.43,0,0,0,47.7,20.2a3.33,3.33,0,0,0,2.33.49,3.8,3.8,0,0,1,.39-2.48,1.2,1.2,0,0,1,1.72-.58,1.24,1.24,0,0,1,.62,1.1,2.74,2.74,0,0,1-1.5,2.11,4,4,0,0,1-.56.25,2.92,2.92,0,0,0,3.93,1.85c0-.15,0-.3,0-.45,0-.89.25-2,.89-2.34a.89.89,0,0,1,.94.05,1,1,0,0,1,.54.93,2.77,2.77,0,0,1-1.6,2.07l-.16.09a2.81,2.81,0,0,0,1.1,2Zm-.11-5.21a.3.3,0,0,0-.15,0,2.34,2.34,0,0,0-.6,1.86v.18a2.3,2.3,0,0,0,1.25-1.55.47.47,0,0,0-.26-.45A.48.48,0,0,0,55.93,20.6ZM51.54,18a.83.83,0,0,0-.64.47,3.24,3.24,0,0,0-.32,2.05,3.8,3.8,0,0,0,.4-.19,2.21,2.21,0,0,0,1.22-1.62.69.69,0,0,0-.35-.62A.57.57,0,0,0,51.54,18Zm-4.39-2.59a.81.81,0,0,0-.35.1A2.16,2.16,0,0,0,46,17.35a1.41,1.41,0,0,0,0,.2c.19-.08.37-.17.54-.26.75-.42,1.28-1,1.28-1.36,0-.1,0-.24-.26-.38A.74.74,0,0,0,47.15,15.43Z"/><path class="cls-3" d="M59.27,58,31.59,10.65a3.09,3.09,0,0,1-4.22-1.11L24.8,11a3.09,3.09,0,1,1-5.33,3.11L16.9,15.66a3.08,3.08,0,0,1-5.32,3.11L9,20.27a3.08,3.08,0,1,1-5.32,3.11l-2.57,1.5A3.09,3.09,0,0,1,0,29.1L27.68,76.49a3.08,3.08,0,0,1,4.22,1.1l2.57-1.5A3.09,3.09,0,1,1,39.8,73l2.57-1.5a3.08,3.08,0,1,1,5.32-3.11l2.57-1.5a3.09,3.09,0,0,1,5.33-3.12l2.57-1.5A3.09,3.09,0,0,1,59.27,58Z"/><path class="cls-2" d="M51.1,53.28,31.72,20.1A3.09,3.09,0,0,1,27.5,19L9.28,29.64a3.1,3.1,0,0,1-1.11,4.22L27.55,67a3.08,3.08,0,0,1,4.22,1.1L50,57.5A3.09,3.09,0,0,1,51.1,53.28Z"/><rect class="cls-3" x="13.28" y="32.48" width="20.08" height="0.56" transform="translate(-13.32 16.2) rotate(-30.24)"/><rect class="cls-3" x="17.54" y="39.77" width="20.08" height="0.56" transform="translate(-16.42 19.34) rotate(-30.24)"/><path class="cls-3" d="M33.24,41.36c.26,2.62-4.78,5.3-6.81,3.62,2,1.68.36,7.14-2.26,7.39,2.62-.25,5.3,4.79,3.62,6.82,1.68-2,7.14-.36,7.39,2.26-.25-2.62,4.79-5.3,6.82-3.63-2-1.67-.37-7.13,2.25-7.38-2.62.25-5.29-4.79-3.62-6.82C39,45.65,33.5,44,33.24,41.36Z"/><circle class="cls-3" cx="25.58" cy="36.32" r="3.12"/><circle class="cls-3" cx="31.76" cy="32.71" r="0.98"/><path class="cls-3" d="M19.85,38.13c.51-2.16-2.9-1.41-1.46.32-1.44-1.73-3,1.41-.66,1.35-2.32.06-.83,3.22.64,1.35-1.47,1.87,1.93,2.67,1.46.34.47,2.33,3.22.17,1.17-.92,2.05,1.09,2.07-2.4,0-1.5C23.07,38.17,20.36,36,19.85,38.13Z"/><path class="cls-3" d="M16.06,35.26l-.28-.48A2.66,2.66,0,0,0,16.87,33a3,3,0,0,1-.36-.18A2.66,2.66,0,0,1,15,30.77a1.27,1.27,0,0,1,.65-1.12,1,1,0,0,1,1,0c.62.35.84,1.4.85,2.26a5.73,5.73,0,0,1-.06.81,3.43,3.43,0,0,0,2.61-.42,3.35,3.35,0,0,0,1.56-1.8,3.78,3.78,0,0,1-2-1.55A1.19,1.19,0,0,1,20,27.12a1.41,1.41,0,0,1,2,.72,3.33,3.33,0,0,1,.37,2.21,2.9,2.9,0,0,0,3.52-2.54l-.39-.2c-.78-.45-1.62-1.19-1.62-1.92a.89.89,0,0,1,.5-.8,1,1,0,0,1,1.08,0,2.82,2.82,0,0,1,1,2.4v.19a2.78,2.78,0,0,0,2.31,0l.28.48a3.21,3.21,0,0,1-2.65.06,3.53,3.53,0,0,1-1.68,2.47,3.44,3.44,0,0,1-2.51.4,3.94,3.94,0,0,1-1.83,2.13,3.91,3.91,0,0,1-3,.49A3.13,3.13,0,0,1,16.06,35.26Zm.2-5.22a.58.58,0,0,0-.29.09.7.7,0,0,0-.37.64,2.15,2.15,0,0,0,1.19,1.61l.17.09a4.22,4.22,0,0,0,0-.6,2.28,2.28,0,0,0-.57-1.78A.29.29,0,0,0,16.26,30Zm4.4-2.54a.76.76,0,0,0-.36.1c-.44.26-.31.7-.12,1a3.17,3.17,0,0,0,1.63,1.28,2.77,2.77,0,0,0-.31-1.78C21.4,28,21.1,27.5,20.66,27.5ZM24.92,25a.63.63,0,0,0-.28.08c-.2.12-.22.24-.22.32,0,.33.46.93,1.33,1.43l.16.09a2.28,2.28,0,0,0-.75-1.85A.44.44,0,0,0,24.92,25Z"/></g></g></svg>