<svg xmlns="http://www.w3.org/2000/svg" xmlns:xlink="http://www.w3.org/1999/xlink" viewBox="0 0 216.84 311.3"><defs><style>.cls-1{fill:#010f70;}.cls-2{fill:#00c3ff;}.cls-3{clip-path:url(#clip-path);}.cls-4{fill:#ff0068;}.cls-5{fill:#ffec00;}.cls-6{clip-path:url(#clip-path-2);}.cls-7{clip-path:url(#clip-path-3);}.cls-8{clip-path:url(#clip-path-4);}.cls-9{clip-path:url(#clip-path-5);}</style><clipPath id="clip-path"><polygon class="cls-1" points="81.49 263.2 141.03 263.2 68.03 302.83 0 302.83 81.49 263.2"/></clipPath><clipPath id="clip-path-2"><circle class="cls-1" cx="134.37" cy="82.47" r="75.47"/></clipPath><clipPath id="clip-path-3"><path class="cls-2" d="M75.25,86.34V98.72a2.52,2.52,0,0,0,2.52,2.52H99.49a11.47,11.47,0,0,1,22.73,0H155a11.47,11.47,0,0,1,22.73,0H191a2.52,2.52,0,0,0,2.52-2.52V86.34A2.52,2.52,0,0,0,191,83.82H77.77A2.52,2.52,0,0,0,75.25,86.34Z"/></clipPath><clipPath id="clip-path-4"><rect class="cls-2" x="89.07" y="209.61" width="55.66" height="81.42"/></clipPath><clipPath id="clip-path-5"><rect class="cls-1" x="99.42" y="228.68" width="34.95" height="62.35"/></clipPath></defs><g id="Capa_2" data-name="Capa 2"><g id="Espacios"><polygon class="cls-1" points="81.49 263.2 141.03 263.2 68.03 302.83 0 302.83 81.49 263.2"/><g class="cls-3"><polygon class="cls-4" points="78.19 263.2 70.64 267.31 134.73 267.31 144.97 263.2 78.19 263.2"/><polygon class="cls-4" points="70.29 275.23 59.63 279.34 122.25 279.34 132.49 275.23 70.29 275.23"/><polygon class="cls-4" points="59.87 287.25 47.27 291.36 109.89 291.36 120.13 287.25 59.87 287.25"/><rect class="cls-5" x="70.63" y="267.31" width="64.09" height="7.91"/><rect class="cls-5" x="59.63" y="279.34" width="62.63" height="7.91"/><rect class="cls-5" x="47.27" y="291.36" width="62.63" height="7.91"/><polygon class="cls-4" points="48.27 299.28 35.67 303.39 98.29 303.39 108.53 299.28 48.27 299.28"/><rect class="cls-5" x="35.67" y="303.39" width="62.63" height="7.91"/></g><path class="cls-2" d="M0,302.83V275.66a18.92,18.92,0,0,1,11.45-17.38L70.5,232.92a8.07,8.07,0,0,1,11.26,7.47l-.19,22.69Z"/><circle class="cls-1" cx="134.37" cy="82.47" r="75.47"/><g class="cls-6"><polygon class="cls-4" points="165.78 61.98 165.78 48.6 149.89 48.6 149.89 41.15 133.83 41.15 133.83 33.19 120.34 33.19 120.34 24.1 107.38 24.1 107.38 14.74 57.87 14.74 57.87 78.41 70.83 78.41 70.83 87.77 84.32 87.77 84.32 96.86 100.38 96.86 100.38 104.82 116.27 104.82 116.27 112.27 125.19 112.27 125.14 121.75 174.64 121.75 174.97 61.98 165.78 61.98"/><rect class="cls-5" x="54.39" y="78.4" width="155.45" height="83.6"/></g><polygon class="cls-2" points="134.37 187.61 120.83 160.52 147.92 160.52 134.37 187.61"/><polygon class="cls-2" points="162.14 59.83 112.79 59.83 99.24 86.15 177.95 85.45 162.14 59.83"/><polygon class="cls-1" points="105.99 86.15 116.45 65.83 158.79 65.83 171.32 86.15 105.99 86.15"/><rect class="cls-2" x="136.29" y="63.5" width="4.74" height="29.8"/><circle class="cls-1" cx="110.86" cy="102.79" r="9.48"/><circle class="cls-1" cx="166.4" cy="102.79" r="9.48"/><path class="cls-2" d="M75.25,86.34V98.72a2.52,2.52,0,0,0,2.52,2.52H99.49a11.47,11.47,0,0,1,22.73,0H155a11.47,11.47,0,0,1,22.73,0H191a2.52,2.52,0,0,0,2.52-2.52V86.34A2.52,2.52,0,0,0,191,83.82H77.77A2.52,2.52,0,0,0,75.25,86.34Z"/><g class="cls-7"><path class="cls-1" d="M110.86,117.27a14.48,14.48,0,1,1,14.48-14.48A14.5,14.5,0,0,1,110.86,117.27Z"/><path class="cls-1" d="M166.4,117.27a14.48,14.48,0,1,1,14.48-14.48A14.5,14.5,0,0,1,166.4,117.27Z"/><rect class="cls-1" x="138.16" y="92.14" width="1" height="13.55"/><path class="cls-1" d="M188.36,87.76h11.42a0,0,0,0,1,0,0v5.54a0,0,0,0,1,0,0H188.36a1.16,1.16,0,0,1-1.16-1.16V88.93A1.16,1.16,0,0,1,188.36,87.76Z"/><path class="cls-1" d="M70.12,87.76H81.54a0,0,0,0,1,0,0v5.54a0,0,0,0,1,0,0H70.12A1.16,1.16,0,0,1,69,92.14V88.93A1.16,1.16,0,0,1,70.12,87.76Z" transform="translate(150.51 181.07) rotate(180)"/></g><path class="cls-2" d="M110.86,106.27a3.49,3.49,0,1,1,3.48-3.48A3.48,3.48,0,0,1,110.86,106.27Z"/><path class="cls-2" d="M166.4,106.27a3.49,3.49,0,1,1,3.48-3.48A3.49,3.49,0,0,1,166.4,106.27Z"/><path class="cls-1" d="M131.37,87.76h4.91a0,0,0,0,1,0,0v0a2.15,2.15,0,0,1-2.15,2.15h-.61a2.15,2.15,0,0,1-2.15-2.15v0A0,0,0,0,1,131.37,87.76Z"/><rect class="cls-5" x="77.14" y="26.54" width="9.48" height="55.92"/><rect class="cls-5" x="182.12" y="26.54" width="9.48" height="55.92"/><path class="cls-2" d="M134.37,164.94a82.47,82.47,0,1,1,82.47-82.47A82.57,82.57,0,0,1,134.37,164.94Zm0-150.94a68.47,68.47,0,1,0,68.47,68.47A68.55,68.55,0,0,0,134.37,14Z"/><rect class="cls-2" x="89.07" y="209.61" width="55.66" height="81.42"/><g class="cls-8"><rect class="cls-4" x="77.96" y="217.31" width="79.34" height="73.72"/></g><rect class="cls-1" x="111.32" y="210.43" width="11.15" height="3.1" rx="1.37"/><rect class="cls-1" x="99.42" y="228.68" width="34.95" height="62.35"/><g class="cls-9"><rect class="cls-5" x="117.66" y="222.59" width="1" height="68.45"/></g><polygon class="cls-1" points="89.06 209.61 119.75 202.61 166.7 202.93 144.72 209.52 89.06 209.61"/><polygon class="cls-5" points="144.72 209.61 166.7 202.93 167.49 279.53 144.72 291.03 144.72 209.61"/><polygon class="cls-4" points="144.72 209.61 144.72 217.31 166.78 210.43 166.7 202.93 144.72 209.61"/></g></g></svg>