<svg xmlns="http://www.w3.org/2000/svg" xmlns:xlink="http://www.w3.org/1999/xlink" viewBox="0 0 150.63 136.79"><defs><style>.cls-1{fill:#ff0068;}.cls-2{fill:#010f70;}.cls-3{fill:#00c2ff;}.cls-4{clip-path:url(#clip-path);}.cls-5{fill:#ffeb00;}.cls-6{clip-path:url(#clip-path-2);}.cls-7{clip-path:url(#clip-path-3);}.cls-8{clip-path:url(#clip-path-4);}.cls-9{clip-path:url(#clip-path-5);}.cls-10{clip-path:url(#clip-path-6);}</style><clipPath id="clip-path"><path class="cls-1" d="M102,66.44H67.15V47.56A4.84,4.84,0,0,1,72,42.72h30Z"/></clipPath><clipPath id="clip-path-2"><polygon class="cls-2" points="30.83 118.59 53.35 118.59 25.74 133.59 0 133.59 30.83 118.59"/></clipPath><clipPath id="clip-path-3"><circle class="cls-2" cx="50.83" cy="50.22" r="28.55"/></clipPath><clipPath id="clip-path-4"><path class="cls-3" d="M28.47,51.69v4.68a.94.94,0,0,0,1,1h8.22a4.34,4.34,0,0,1,8.6,0H58.65a4.34,4.34,0,0,1,8.6,0h5a1,1,0,0,0,1-1V51.69a1,1,0,0,0-1-.95H29.42A.94.94,0,0,0,28.47,51.69Z"/></clipPath><clipPath id="clip-path-5"><rect class="cls-3" x="33.69" y="98.32" width="21.06" height="30.8"/></clipPath><clipPath id="clip-path-6"><rect class="cls-2" x="37.61" y="105.54" width="13.22" height="23.59"/></clipPath></defs><g id="Capa_2" data-name="Capa 2"><g id="Iconos"><path class="cls-2" d="M84.58,114.2a1.08,1.08,0,0,1-1.08-1.08V69.23a1.08,1.08,0,0,1,2.16,0v43.89A1.08,1.08,0,0,1,84.58,114.2Z"/><path class="cls-2" d="M108.36,111.41a1.09,1.09,0,0,1-1-.59L86.57,69.72a1.08,1.08,0,0,1,1.93-1l20.82,41.1a1.08,1.08,0,0,1-1,1.57Z"/><path class="cls-2" d="M60.8,111.41a1.08,1.08,0,0,1-1-1.57l20.83-41.1a1.08,1.08,0,0,1,1.92,1l-20.83,41.1A1.09,1.09,0,0,1,60.8,111.41Z"/><polygon class="cls-3" points="84.58 56.53 76.26 77.03 92.9 77.03 84.58 56.53"/><path class="cls-1" d="M102,66.44H67.15V47.56A4.84,4.84,0,0,1,72,42.72h30Z"/><g class="cls-4"><rect class="cls-3" x="91.43" y="34.59" width="10.58" height="33.3"/></g><path class="cls-5" d="M150.63,53.13c-.3-3.32-3.74-3-4-6.33s3.14-3.63,2.84-6.95-3.74-3-4-6.34,3.14-3.63,2.84-6.95-3.74-3-4-6.33,3.14-3.63,2.84-7-3.73-3-4-6.33,3.14-3.63,2.84-6.95L95,44.06,95.63,51Z"/><circle class="cls-2" cx="97.95" cy="46.88" r="7.57"/><path class="cls-5" d="M98,51a4.12,4.12,0,1,1,4.12-4.12A4.12,4.12,0,0,1,98,51Z"/><circle class="cls-2" cx="134.13" cy="21.78" r="1.44"/><circle class="cls-2" cx="135.35" cy="34.44" r="4.33"/><path class="cls-2" d="M124.48,30c-1.3,1.17-4.73-.47-4.64-2.22-.09,1.75-3.67,3-4.84,1.71,1.17,1.3-.47,4.73-2.22,4.63,1.75.1,3,3.68,1.71,4.85,1.3-1.17,4.73.47,4.63,2.22.1-1.75,3.68-3,4.85-1.71-1.17-1.3.47-4.73,2.22-4.64C124.44,34.71,123.18,31.13,124.48,30Z"/><path class="cls-2" d="M139.15,49a8.44,8.44,0,0,1-5.36-1.51,9.57,9.57,0,0,1-4.57,1.13,6.26,6.26,0,0,1-4.68-1.45c-1.92,1.31-5,2.1-9,1.18l.3-1.26c3.55.82,6.24.17,7.9-.92l-.07-.13a3.1,3.1,0,0,1-.08-3.2,1.79,1.79,0,0,1,1.79-.77,1.64,1.64,0,0,1,1.39,1,3.07,3.07,0,0,1-.92,3l-.26.28a5.16,5.16,0,0,0,3.61,1,8.74,8.74,0,0,0,3.69-.79,3.89,3.89,0,0,1-.72-1.9,1.93,1.93,0,0,1,1.51-2.28,1.76,1.76,0,0,1,1.63.77,2.68,2.68,0,0,1,.11,2.73,3.84,3.84,0,0,1-.54.79,8.18,8.18,0,0,0,4.92,1.06l0,1.29Zm-5.31-5.37h0c-.25,0-.41.41-.37.89a2.41,2.41,0,0,0,.48,1.21,2,2,0,0,0,.32-.47,1.38,1.38,0,0,0,0-1.4A.49.49,0,0,0,133.84,43.64Zm-8.78-.28a.48.48,0,0,0-.43.22,1.85,1.85,0,0,0,.1,1.76l.12-.13c.62-.71.79-1.34.68-1.63,0,0-.07-.17-.36-.21Z"/><polygon class="cls-2" points="30.83 118.59 53.35 118.59 25.74 133.59 0 133.59 30.83 118.59"/><g class="cls-6"><polygon class="cls-1" points="29.58 118.59 26.72 120.15 50.97 120.15 54.84 118.59 29.58 118.59"/><polygon class="cls-1" points="26.59 123.14 22.56 124.7 46.25 124.7 50.12 123.14 26.59 123.14"/><polygon class="cls-1" points="22.65 127.69 17.88 129.25 41.57 129.25 45.45 127.69 22.65 127.69"/><rect class="cls-5" x="26.72" y="120.15" width="24.25" height="2.99"/><rect class="cls-5" x="22.56" y="124.7" width="23.69" height="2.99"/><rect class="cls-5" x="17.88" y="129.25" width="23.69" height="2.99"/><polygon class="cls-1" points="18.26 132.24 13.49 133.8 37.19 133.8 41.06 132.24 18.26 132.24"/><rect class="cls-5" x="13.49" y="133.8" width="23.69" height="2.99"/></g><path class="cls-3" d="M0,133.59V123.31a7.16,7.16,0,0,1,4.33-6.58l22.34-9.59A3.05,3.05,0,0,1,30.93,110l-.07,8.58Z"/><circle class="cls-2" cx="50.83" cy="50.22" r="28.55"/><g class="cls-7"><polygon class="cls-1" points="62.72 42.47 62.72 37.41 56.7 37.41 56.7 34.59 50.63 34.59 50.63 31.58 45.52 31.58 45.52 28.14 40.62 28.14 40.62 24.6 21.89 24.6 21.89 48.69 26.8 48.69 26.8 52.23 31.9 52.23 31.9 55.67 37.98 55.67 37.98 58.68 43.99 58.68 43.99 61.5 47.36 61.5 47.34 65.08 66.07 65.08 66.19 42.47 62.72 42.47"/><rect class="cls-5" x="20.57" y="48.69" width="58.81" height="31.62"/></g><polygon class="cls-3" points="50.83 90 45.71 79.75 55.96 79.75 50.83 90"/><polygon class="cls-3" points="61.34 41.66 42.67 41.66 37.54 51.62 67.32 51.35 61.34 41.66"/><polygon class="cls-2" points="40.1 51.62 44.05 43.93 60.07 43.93 64.81 51.62 40.1 51.62"/><rect class="cls-3" x="51.56" y="43.05" width="1.79" height="11.27"/><circle class="cls-2" cx="41.94" cy="57.91" r="3.59"/><circle class="cls-2" cx="62.95" cy="57.91" r="3.59"/><path class="cls-3" d="M28.47,51.69v4.68a.94.94,0,0,0,1,1h8.22a4.34,4.34,0,0,1,8.6,0H58.65a4.34,4.34,0,0,1,8.6,0h5a1,1,0,0,0,1-1V51.69a1,1,0,0,0-1-.95H29.42A.94.94,0,0,0,28.47,51.69Z"/><g class="cls-8"><path class="cls-2" d="M41.94,63.39a5.48,5.48,0,1,1,5.48-5.48A5.49,5.49,0,0,1,41.94,63.39Z"/><path class="cls-2" d="M63,63.39a5.48,5.48,0,1,1,5.48-5.48A5.49,5.49,0,0,1,63,63.39Z"/><rect class="cls-2" x="52.26" y="53.88" width="0.38" height="5.12"/><path class="cls-2" d="M71.26,52.23h4.32a0,0,0,0,1,0,0v2.1a0,0,0,0,1,0,0H71.26a.44.44,0,0,1-.44-.44V52.67A.44.44,0,0,1,71.26,52.23Z"/><path class="cls-2" d="M26.53,52.23h4.32a0,0,0,0,1,0,0v2.1a0,0,0,0,1,0,0H26.53a.44.44,0,0,1-.44-.44V52.67A.44.44,0,0,1,26.53,52.23Z" transform="translate(56.94 106.55) rotate(180)"/></g><path class="cls-3" d="M41.94,59.23a1.32,1.32,0,1,1,1.32-1.32A1.32,1.32,0,0,1,41.94,59.23Z"/><path class="cls-3" d="M63,59.23a1.32,1.32,0,1,1,1.32-1.32A1.32,1.32,0,0,1,63,59.23Z"/><path class="cls-2" d="M49.7,52.23h1.86a0,0,0,0,1,0,0v0a.81.81,0,0,1-.81.81h-.23a.81.81,0,0,1-.81-.81v0A0,0,0,0,1,49.7,52.23Z"/><rect class="cls-5" x="29.18" y="29.07" width="3.59" height="21.16"/><rect class="cls-5" x="68.9" y="29.07" width="3.59" height="21.16"/><path class="cls-3" d="M50.83,81.42A31.2,31.2,0,1,1,82,50.22,31.23,31.23,0,0,1,50.83,81.42Zm0-57.1a25.91,25.91,0,1,0,25.91,25.9A25.93,25.93,0,0,0,50.83,24.32Z"/><rect class="cls-3" x="33.69" y="98.32" width="21.06" height="30.8"/><g class="cls-9"><rect class="cls-1" x="29.49" y="101.23" width="30.01" height="27.89"/></g><rect class="cls-2" x="42.11" y="98.63" width="4.22" height="1.17" rx="0.52"/><rect class="cls-2" x="37.61" y="105.54" width="13.22" height="23.59"/><g class="cls-10"><rect class="cls-5" x="44.51" y="103.23" width="0.38" height="25.89"/></g><polygon class="cls-2" points="33.69 98.32 45.3 95.67 63.06 95.79 54.75 98.29 33.69 98.32"/><polygon class="cls-5" points="54.75 98.32 63.06 95.79 63.36 124.77 54.75 129.12 54.75 98.32"/><polygon class="cls-1" points="54.75 98.32 54.75 101.23 63.09 98.63 63.06 95.79 54.75 98.32"/></g></g></svg>