<svg xmlns="http://www.w3.org/2000/svg" xmlns:xlink="http://www.w3.org/1999/xlink" viewBox="-20 0 288.72 224.63"><defs><style>.cls-1{fill:#ffec00;}.cls-2{fill:#ff0068;}.cls-3{clip-path:url(#clip-path);}.cls-4{fill:#010f70;}.cls-5{fill:#00c3ff;}</style><clipPath id="clip-path" transform="translate(21.93)"><rect class="cls-1" y="63.01" width="258.53" height="138.62"/></clipPath></defs><g id="Capa_2" data-name="Capa 2"><g id="Espacios"><path class="cls-2" d="M21.91,5.22H18.86l-.28,1.14A17.28,17.28,0,0,1,16.07,12L15,13.6H25.77L24.69,12a17.71,17.71,0,0,1-2.51-5.65Z" transform="translate(21.93)"/><path class="cls-2" d="M26.58,32.11H14.18l.2-.43a22.3,22.3,0,0,0,2-9.24h8a22.46,22.46,0,0,0,2,9.24Z" transform="translate(21.93)"/><circle class="cls-2" cx="42.31" cy="19.59" r="2.85"/><circle class="cls-2" cx="42.31" cy="2.85" r="2.85"/><path class="cls-2" d="M35.94,12.19H48.69a0,0,0,0,1,0,0v0a4.55,4.55,0,0,1-4.55,4.55H40.49a4.55,4.55,0,0,1-4.55-4.55v0A0,0,0,0,1,35.94,12.19Z"/><path class="cls-2" d="M115,5.22h-3l-.28,1.14a17.47,17.47,0,0,1-2.5,5.65l-1.09,1.59h10.79L117.78,12a17.47,17.47,0,0,1-2.5-5.65Z" transform="translate(21.93)"/><path class="cls-2" d="M119.67,32.11H107.28l.19-.43a22.31,22.31,0,0,0,2-9.24h8a22.31,22.31,0,0,0,2,9.24Z" transform="translate(21.93)"/><circle class="cls-2" cx="135.41" cy="19.59" r="2.85"/><circle class="cls-2" cx="135.41" cy="2.85" r="2.85"/><path class="cls-2" d="M129,12.19h12.75a0,0,0,0,1,0,0v0a4.55,4.55,0,0,1-4.55,4.55h-3.65A4.55,4.55,0,0,1,129,12.19v0A0,0,0,0,1,129,12.19Z"/><rect class="cls-2" x="21.93" y="40.89" width="258.53" height="9.8"/><path class="cls-1" d="M110.66,30a14.21,14.21,0,0,1-10-4.21c-4.52-4.51-8.68-5.05-12.5-2V14h-6c0-5.91-4.7-10.7-15.3-10.74h-.11c-10.6,0-15.3,4.83-15.3,10.74h-6v9.9c-3.82-3.09-8-2.55-12.5,2A14.19,14.19,0,0,1,23,30H13.67V56.85H119.94V30Z" transform="translate(21.93)"/><rect class="cls-1" x="21.93" y="48.18" width="258.53" height="17.35"/><rect class="cls-1" x="21.93" y="63.01" width="258.53" height="138.62"/><g class="cls-3"><rect class="cls-2" x="222.41" y="115.97" width="66.31" height="88.03"/><rect class="cls-2" y="183.83" width="222.8" height="38.44"/><path class="cls-4" d="M147.85,145.9h0a6.71,6.71,0,0,0-6.71,6.71V163.7h13.42V152.61A6.7,6.7,0,0,0,147.85,145.9Z" transform="translate(21.93)"/><path class="cls-4" d="M166.23,145.9h0a6.7,6.7,0,0,0-6.7,6.71V163.7h13.41V152.61A6.7,6.7,0,0,0,166.23,145.9Z" transform="translate(21.93)"/><path class="cls-4" d="M184.62,145.9h0a6.7,6.7,0,0,0-6.71,6.71V163.7h13.42V152.61A6.71,6.71,0,0,0,184.62,145.9Z" transform="translate(21.93)"/><path class="cls-4" d="M252.47,144.09h0a19,19,0,0,1,19,19v54.57a0,0,0,0,1,0,0H233.5a0,0,0,0,1,0,0V163.06A19,19,0,0,1,252.47,144.09Z"/><path class="cls-5" d="M216.57,163.06a14,14,0,1,1,27.93,0Z" transform="translate(21.93)"/><rect class="cls-5" x="238.5" y="165.99" width="8.42" height="8.42"/><rect class="cls-5" x="238.5" y="177.93" width="8.42" height="8.42"/><rect class="cls-5" x="238.5" y="189.86" width="8.42" height="8.42"/><rect class="cls-5" x="258.02" y="165.99" width="8.42" height="8.42"/><rect class="cls-5" x="258.02" y="177.93" width="8.42" height="8.42"/><rect class="cls-5" x="258.02" y="189.86" width="8.42" height="8.42"/><path class="cls-2" d="M76.47,224.63V163.06a26,26,0,1,1,51.92,0v61.57Z" transform="translate(21.93)"/><path class="cls-4" d="M124.36,144.09h0a19,19,0,0,1,19,19v54.57a0,0,0,0,1,0,0H105.4a0,0,0,0,1,0,0V163.06A19,19,0,0,1,124.36,144.09Z"/><path class="cls-5" d="M88.47,163.06a14,14,0,1,1,27.93,0Z" transform="translate(21.93)"/><rect class="cls-5" x="110.4" y="165.99" width="8.42" height="8.42"/><rect class="cls-5" x="110.4" y="177.93" width="8.42" height="8.42"/><rect class="cls-5" x="110.4" y="189.86" width="8.42" height="8.42"/><rect class="cls-5" x="129.91" y="165.99" width="8.42" height="8.42"/><rect class="cls-5" x="129.91" y="177.93" width="8.42" height="8.42"/><rect class="cls-5" x="129.91" y="189.86" width="8.42" height="8.42"/><path class="cls-2" d="M10.43,224.63V163.06a26,26,0,0,1,51.93,0v61.57Z" transform="translate(21.93)"/><path class="cls-4" d="M58.33,144.09h0a19,19,0,0,1,19,19v54.57a0,0,0,0,1,0,0H39.36a0,0,0,0,1,0,0V163.06A19,19,0,0,1,58.33,144.09Z"/><path class="cls-5" d="M22.43,163.06a14,14,0,1,1,27.93,0Z" transform="translate(21.93)"/><rect class="cls-5" x="44.36" y="165.99" width="8.42" height="8.42"/><rect class="cls-5" x="44.36" y="177.93" width="8.42" height="8.42"/><rect class="cls-5" x="44.36" y="189.86" width="8.42" height="8.42"/><rect class="cls-5" x="63.87" y="165.99" width="8.42" height="8.42"/><rect class="cls-5" x="63.87" y="177.93" width="8.42" height="8.42"/><rect class="cls-5" x="63.87" y="189.86" width="8.42" height="8.42"/></g><rect class="cls-4" x="34.48" y="112.87" width="108.62" height="21.67"/><path class="cls-1" d="M48.79,129.15H17.21V118.28H48.79Zm-30.58-1H47.79v-8.87H18.21Z" transform="translate(21.93)"/><path class="cls-1" d="M82.65,129.15H51.08V118.28H82.65Zm-30.57-1H81.65v-8.87H52.08Z" transform="translate(21.93)"/><path class="cls-1" d="M116.51,129.15H84.94V118.28h31.57Zm-30.57-1h29.57v-8.87H85.94Z" transform="translate(21.93)"/><path class="cls-2" d="M50.39,72.2h0a8.71,8.71,0,0,1,8.71,8.71v13a0,0,0,0,1,0,0H41.68a0,0,0,0,1,0,0v-13A8.71,8.71,0,0,1,50.39,72.2Z"/><path class="cls-4" d="M23.75,89.88v-9a4.71,4.71,0,0,1,9.42,0v9Z" transform="translate(21.93)"/><path class="cls-2" d="M56.37,93.88H39v-13a8.71,8.71,0,0,1,8.71-8.71h0a8.71,8.71,0,0,1,8.71,8.71Z" transform="translate(21.93)"/><path class="cls-4" d="M43,89.88v-9a4.71,4.71,0,0,1,9.42,0v9Z" transform="translate(21.93)"/><path class="cls-2" d="M75.57,93.88H58.15v-13a8.71,8.71,0,0,1,8.71-8.71h0a8.71,8.71,0,0,1,8.71,8.71Z" transform="translate(21.93)"/><path class="cls-4" d="M62.15,89.88v-9a4.71,4.71,0,0,1,9.42,0v9Z" transform="translate(21.93)"/><path class="cls-2" d="M94.77,93.88H77.36v-13a8.71,8.71,0,0,1,8.7-8.71h0a8.71,8.71,0,0,1,8.71,8.71Z" transform="translate(21.93)"/><path class="cls-4" d="M81.36,89.88v-9a4.71,4.71,0,1,1,9.41,0v9Z" transform="translate(21.93)"/><path class="cls-2" d="M127.2,72.2h0a8.71,8.71,0,0,1,8.71,8.71v13a0,0,0,0,1,0,0H118.49a0,0,0,0,1,0,0v-13A8.71,8.71,0,0,1,127.2,72.2Z"/><path class="cls-4" d="M100.56,89.88v-9a4.71,4.71,0,0,1,9.42,0v9Z" transform="translate(21.93)"/><rect class="cls-2" x="40.93" y="88.88" width="95.72" height="6.45"/><rect class="cls-4" x="230.82" y="75.96" width="17.22" height="23.03"/><rect class="cls-4" x="252.3" y="75.96" width="17.22" height="23.03"/><rect class="cls-2" x="227.72" y="97.8" width="44.89" height="4"/><path class="cls-2" d="M258.53,65.72h-165l-1-3.77,1.65-.9a5.71,5.71,0,0,0,2.64-5.5,5.48,5.48,0,0,0-2.55-4.21,6.11,6.11,0,0,0-5.4-.25l-1.67.66-2.2-1.51V43.39H77.52l0-2.53V34.42H70.4v-3a3.78,3.78,0,0,0-3.48-3.74H66.8a3.77,3.77,0,0,0-3.47,3.74v3h-7.1v8.94l-2.53,0h-5v6.84L46.5,51.74l-1.7-.65a6.12,6.12,0,0,0-5.5.25,5.53,5.53,0,0,0-2.46,4.42,5.59,5.59,0,0,0,2.31,5.05l1.44,1-1.05,3.48H0v-5H32.64a10.44,10.44,0,0,1,11-14.68V38.41l2.52,0h5V29.45l2.53,0h4.8a8.82,8.82,0,0,1,6.74-6.58l.13-.17,1.21,0h1.65l.16.19a8.82,8.82,0,0,1,6.72,6.58h7.3l0,2.53v6.44H90l0,2.52v4.77a10.58,10.58,0,0,1,6.84,1.37,10.46,10.46,0,0,1,5,7.9,10.68,10.68,0,0,1-.92,5.77H258.53Z" transform="translate(21.93)"/><rect class="cls-4" x="81.54" y="51.79" width="14.51" height="15.58"/><rect class="cls-5" x="57.51" y="165.2" width="2" height="36.43"/><rect class="cls-5" x="123.36" y="165.2" width="2" height="36.43"/><rect class="cls-5" x="251.63" y="165.2" width="2" height="36.43"/><path class="cls-2" d="M107.73,32.26a16.78,16.78,0,0,1-8.82-4.67c-4.49-4.47-7.15-3.42-9.16-1.79l-1.25,1-2.83-1.4V16.46h-6V14c0-5.21-4.67-8.21-12.8-8.24h-.1C58.62,5.75,54,8.75,54,14v2.5h-6v8.88L45.3,26.76l-1.44-1c-2-1.63-4.67-2.68-9.15,1.79a16.81,16.81,0,0,1-8.42,4.59l-1-4.89a11.89,11.89,0,0,0,5.92-3.24c4.64-4.63,8.71-5.12,11.76-4.28V11.46H49.2C50.27,6.15,54.94,1.18,65.39.75l0,0h2.68l0,0c10.53.39,15.23,5.38,16.3,10.71h6.26v8.3c3-.83,7.11-.34,11.76,4.29a11.88,11.88,0,0,0,6.2,3.3Z" transform="translate(21.93)"/></g></g></svg>