<svg xmlns="http://www.w3.org/2000/svg" xmlns:xlink="http://www.w3.org/1999/xlink" viewBox="0 0 109.22 84.98"><defs><style>.cls-1{fill:#ffeb00;}.cls-2{fill:#ff0068;}.cls-3{clip-path:url(#clip-path);}.cls-4{fill:#010f70;}.cls-5{fill:#00c2ff;}</style><clipPath id="clip-path" transform="translate(8.3)"><rect class="cls-1" y="23.84" width="97.8" height="52.44"/></clipPath></defs><g id="Capa_2" data-name="Capa 2"><g id="Iconos"><path class="cls-2" d="M8.29,2H7.13L7,2.41a6.69,6.69,0,0,1-1,2.13l-.41.61H9.75l-.41-.61a6.69,6.69,0,0,1-.95-2.13Z" transform="translate(8.3)"/><path class="cls-2" d="M10.06,12.15H5.37L5.44,12a8.48,8.48,0,0,0,.76-3.5h3A8.48,8.48,0,0,0,10,12Z" transform="translate(8.3)"/><circle class="cls-2" cx="16.01" cy="7.41" r="1.08"/><circle class="cls-2" cx="16.01" cy="1.08" r="1.08"/><path class="cls-2" d="M13.6,4.61h4.82a0,0,0,0,1,0,0v0A1.72,1.72,0,0,1,16.7,6.33H15.32A1.72,1.72,0,0,1,13.6,4.61v0a0,0,0,0,1,0,0Z"/><path class="cls-2" d="M43.5,2H42.35l-.1.44a6.69,6.69,0,0,1-1,2.13l-.41.61H45l-.41-.61a6.69,6.69,0,0,1-1-2.13Z" transform="translate(8.3)"/><path class="cls-2" d="M45.27,12.15H40.58l.08-.16a8.47,8.47,0,0,0,.75-3.5h3A8.48,8.48,0,0,0,45.2,12Z" transform="translate(8.3)"/><circle class="cls-2" cx="51.22" cy="7.41" r="1.08"/><circle class="cls-2" cx="51.22" cy="1.08" r="1.08"/><path class="cls-2" d="M48.81,4.61h4.82a0,0,0,0,1,0,0v0a1.72,1.72,0,0,1-1.72,1.72H50.53a1.72,1.72,0,0,1-1.72-1.72v0A0,0,0,0,1,48.81,4.61Z"/><rect class="cls-2" x="8.3" y="15.47" width="97.8" height="3.71"/><path class="cls-1" d="M41.86,11.36a5.39,5.39,0,0,1-3.78-1.59C36.37,8.06,34.8,7.86,33.35,9V5.28H31.08c0-2.24-1.78-4.05-5.78-4.06h-.05c-4,0-5.78,1.82-5.78,4.06H17.19V9c-1.44-1.17-3-1-4.73.74a5.37,5.37,0,0,1-3.78,1.59H5.17V21.51h40.2V11.36Z" transform="translate(8.3)"/><rect class="cls-1" x="8.3" y="18.23" width="97.8" height="6.56"/><rect class="cls-1" x="8.3" y="23.84" width="97.8" height="52.44"/><g class="cls-3"><rect class="cls-2" x="84.14" y="43.87" width="25.09" height="33.3"/><rect class="cls-2" y="69.54" width="84.29" height="14.54"/><path class="cls-4" d="M55.93,55.19h0a2.54,2.54,0,0,0-2.54,2.54v4.2h5.08v-4.2A2.54,2.54,0,0,0,55.93,55.19Z" transform="translate(8.3)"/><path class="cls-4" d="M62.89,55.19h0a2.54,2.54,0,0,0-2.54,2.54v4.2h5.07v-4.2A2.54,2.54,0,0,0,62.89,55.19Z" transform="translate(8.3)"/><path class="cls-4" d="M69.84,55.19h0a2.54,2.54,0,0,0-2.54,2.54v4.2h5.08v-4.2A2.54,2.54,0,0,0,69.84,55.19Z" transform="translate(8.3)"/><path class="cls-4" d="M95.51,54.51h0a7.17,7.17,0,0,1,7.17,7.17V82.33a0,0,0,0,1,0,0H88.34a0,0,0,0,1,0,0V61.69A7.17,7.17,0,0,1,95.51,54.51Z"/><path class="cls-5" d="M81.93,61.69a5.29,5.29,0,1,1,10.57,0Z" transform="translate(8.3)"/><rect class="cls-5" x="90.23" y="62.8" width="3.18" height="3.18"/><rect class="cls-5" x="90.23" y="67.31" width="3.18" height="3.18"/><rect class="cls-5" x="90.23" y="71.82" width="3.18" height="3.18"/><rect class="cls-5" x="97.61" y="62.8" width="3.18" height="3.18"/><rect class="cls-5" x="97.61" y="67.31" width="3.18" height="3.18"/><rect class="cls-5" x="97.61" y="71.82" width="3.18" height="3.18"/><path class="cls-2" d="M28.93,85V61.69a9.82,9.82,0,1,1,19.64,0V85Z" transform="translate(8.3)"/><path class="cls-4" d="M47,54.51h0a7.17,7.17,0,0,1,7.17,7.17V82.33a0,0,0,0,1,0,0H39.87a0,0,0,0,1,0,0V61.69A7.17,7.17,0,0,1,47,54.51Z"/><path class="cls-5" d="M33.47,61.69a5.28,5.28,0,1,1,10.56,0Z" transform="translate(8.3)"/><rect class="cls-5" x="41.76" y="62.8" width="3.18" height="3.18"/><rect class="cls-5" x="41.76" y="67.31" width="3.18" height="3.18"/><rect class="cls-5" x="41.76" y="71.82" width="3.18" height="3.18"/><rect class="cls-5" x="49.15" y="62.8" width="3.18" height="3.18"/><rect class="cls-5" x="49.15" y="67.31" width="3.18" height="3.18"/><rect class="cls-5" x="49.15" y="71.82" width="3.18" height="3.18"/><path class="cls-2" d="M4,85V61.69a9.82,9.82,0,1,1,19.64,0V85Z" transform="translate(8.3)"/><path class="cls-4" d="M22.07,54.51h0a7.17,7.17,0,0,1,7.17,7.17V82.33a0,0,0,0,1,0,0H14.89a0,0,0,0,1,0,0V61.69A7.17,7.17,0,0,1,22.07,54.51Z"/><path class="cls-5" d="M8.49,61.69a5.28,5.28,0,1,1,10.56,0Z" transform="translate(8.3)"/><rect class="cls-5" x="16.78" y="62.8" width="3.18" height="3.18"/><rect class="cls-5" x="16.78" y="67.31" width="3.18" height="3.18"/><rect class="cls-5" x="16.78" y="71.82" width="3.18" height="3.18"/><rect class="cls-5" x="24.16" y="62.8" width="3.18" height="3.18"/><rect class="cls-5" x="24.16" y="67.31" width="3.18" height="3.18"/><rect class="cls-5" x="24.16" y="71.82" width="3.18" height="3.18"/></g><rect class="cls-4" x="13.04" y="42.7" width="41.09" height="8.2"/><path class="cls-1" d="M18.46,48.86h-12V44.74h12ZM6.89,48.48H18.08V45.12H6.89Z" transform="translate(8.3)"/><path class="cls-1" d="M31.27,48.86H19.32V44.74h12ZM19.7,48.48H30.89V45.12H19.7Z" transform="translate(8.3)"/><path class="cls-1" d="M44.08,48.86H32.13V44.74H44.08Zm-11.57-.38H43.7V45.12H32.51Z" transform="translate(8.3)"/><path class="cls-2" d="M19.06,27.31h0a3.29,3.29,0,0,1,3.29,3.29v4.9a0,0,0,0,1,0,0H15.77a0,0,0,0,1,0,0v-4.9a3.29,3.29,0,0,1,3.29-3.29Z"/><path class="cls-4" d="M9,34V30.61a1.79,1.79,0,0,1,3.57,0V34Z" transform="translate(8.3)"/><path class="cls-2" d="M21.32,35.51H14.74v-4.9A3.29,3.29,0,0,1,18,27.31h0a3.29,3.29,0,0,1,3.29,3.3Z" transform="translate(8.3)"/><path class="cls-4" d="M16.25,34V30.61a1.78,1.78,0,1,1,3.56,0V34Z" transform="translate(8.3)"/><path class="cls-2" d="M28.59,35.51H22v-4.9a3.29,3.29,0,0,1,3.29-3.3h0a3.3,3.3,0,0,1,3.3,3.3Z" transform="translate(8.3)"/><path class="cls-4" d="M23.51,34V30.61a1.79,1.79,0,0,1,3.57,0V34Z" transform="translate(8.3)"/><path class="cls-2" d="M35.85,35.51H29.26v-4.9a3.3,3.3,0,0,1,3.3-3.3h0a3.29,3.29,0,0,1,3.29,3.3Z" transform="translate(8.3)"/><path class="cls-4" d="M30.78,34V30.61a1.78,1.78,0,0,1,3.56,0V34Z" transform="translate(8.3)"/><path class="cls-2" d="M48.12,27.31h0a3.29,3.29,0,0,1,3.29,3.29v4.9a0,0,0,0,1,0,0H44.82a0,0,0,0,1,0,0v-4.9A3.29,3.29,0,0,1,48.12,27.31Z"/><path class="cls-4" d="M38,34V30.61a1.78,1.78,0,0,1,3.56,0V34Z" transform="translate(8.3)"/><rect class="cls-2" x="15.48" y="33.62" width="36.21" height="2.44"/><rect class="cls-4" x="87.32" y="28.74" width="6.52" height="8.71"/><rect class="cls-4" x="95.45" y="28.74" width="6.52" height="8.71"/><rect class="cls-2" x="86.15" y="37" width="16.98" height="1.51"/><path class="cls-2" d="M97.8,24.86H35.37L35,23.4l.67-.33A2.14,2.14,0,0,0,36.65,21a2.09,2.09,0,0,0-1-1.59,2.3,2.3,0,0,0-2-.09l-.62.24L32.18,19V16.41H29.33V13H26.63V11.88a1.42,1.42,0,0,0-1.31-1.41h-.05A1.41,1.41,0,0,0,24,11.88V13H21.27V16.4H18.42V19l-.86.57L17,19.33a2.32,2.32,0,0,0-2.08.09,2.13,2.13,0,0,0-.94,1.67A2.15,2.15,0,0,0,14.81,23l.11.09.45.45-.48,1.17H0V22.83H12.34a4.16,4.16,0,0,1-.29-1.89,3.88,3.88,0,0,1,4.48-3.66V14.53h2.85V11.14h2.77a3.33,3.33,0,0,1,2.54-2.49l0-.06h1l.06.06a3.35,3.35,0,0,1,2.6,2.5H31.2v3.39h2.84v2.76a4,4,0,0,1,2.59.52,4,4,0,0,1,1.87,3A4.14,4.14,0,0,1,38.18,23H97.8Z" transform="translate(8.3)"/><rect class="cls-4" x="30.85" y="19.59" width="5.49" height="5.89"/><rect class="cls-5" x="21.76" y="62.5" width="0.76" height="13.78"/><rect class="cls-5" x="46.67" y="62.5" width="0.76" height="13.78"/><rect class="cls-5" x="95.19" y="62.5" width="0.76" height="13.78"/><path class="cls-2" d="M40.75,12.21a6.46,6.46,0,0,1-3.33-1.77c-1.7-1.69-2.71-1.3-3.47-.68l-.43.35-1.11-.46V6.23H30.14v-1c0-2-1.77-3.11-4.85-3.12h-.1c-3,0-4.78,1.15-4.78,3.12v1H18.14V9.55l-.9.55-.65-.34c-.76-.62-1.76-1-3.46.68A6.5,6.5,0,0,1,10,12.18l-.4-1.85A4.59,4.59,0,0,0,11.8,9.1c1.75-1.75,3.29-1.94,4.45-1.62V4.33h2.36C19,2.25,20.92.3,25.2.27h.07c4.34,0,6.24,2,6.66,4.06H34.3V7.48c1.16-.32,2.69-.13,4.45,1.62a4.58,4.58,0,0,0,2.35,1.25Z" transform="translate(8.3)"/></g></g></svg>