<svg xmlns="http://www.w3.org/2000/svg" xmlns:xlink="http://www.w3.org/1999/xlink" viewBox="0 0 464.95 162.81"><defs><style>.cls-1{fill:#010f70;}.cls-2{fill:#00c3ff;}.cls-3{fill:#ff0068;}.cls-4{clip-path:url(#clip-path);}.cls-5{clip-path:url(#clip-path-2);}.cls-6{clip-path:url(#clip-path-3);}.cls-7{clip-path:url(#clip-path-4);}.cls-8{clip-path:url(#clip-path-5);}.cls-9{clip-path:url(#clip-path-6);}.cls-10{clip-path:url(#clip-path-7);}.cls-11{clip-path:url(#clip-path-8);}.cls-12{clip-path:url(#clip-path-9);}.cls-13{clip-path:url(#clip-path-10);}.cls-14{clip-path:url(#clip-path-11);}.cls-15{clip-path:url(#clip-path-12);}.cls-16{clip-path:url(#clip-path-13);}.cls-17{clip-path:url(#clip-path-14);}.cls-18{fill:#ffec00;}.cls-19{clip-path:url(#clip-path-15);}.cls-20{clip-path:url(#clip-path-16);}.cls-21{clip-path:url(#clip-path-17);}.cls-22{clip-path:url(#clip-path-18);}</style><clipPath id="clip-path" transform="translate(11.35)"><rect class="cls-1" x="360.8" y="47.09" width="24.58" height="37.35" transform="translate(746.19 131.52) rotate(-180)"/></clipPath><clipPath id="clip-path-2" transform="translate(11.35)"><rect class="cls-1" x="325.39" y="47.09" width="24.58" height="37.35" transform="translate(675.36 131.52) rotate(-180)"/></clipPath><clipPath id="clip-path-3" transform="translate(11.35)"><rect class="cls-3" x="323.91" y="82.05" width="104.24" height="75.08" transform="translate(752.06 239.18) rotate(-180)"/></clipPath><clipPath id="clip-path-4" transform="translate(11.35)"><path class="cls-2" d="M383.25,102.05c0-7.1,34.45-7.1,34.45,0v18.86H383.25Z"/></clipPath><clipPath id="clip-path-5" transform="translate(11.35)"><path class="cls-2" d="M341.07,102.05c0-7.1,34.44-7.1,34.44,0v18.86H341.07Z"/></clipPath><clipPath id="clip-path-6" transform="translate(11.35)"><rect class="cls-1" x="42.77" y="47.09" width="24.58" height="37.35"/></clipPath><clipPath id="clip-path-7" transform="translate(11.35)"><rect class="cls-1" x="78.18" y="47.09" width="24.58" height="37.35"/></clipPath><clipPath id="clip-path-8" transform="translate(11.35)"><rect class="cls-3" y="82.05" width="104.24" height="75.08"/></clipPath><clipPath id="clip-path-9" transform="translate(11.35)"><path class="cls-2" d="M44.89,102.05c0-7.1-34.44-7.1-34.44,0v18.86H44.89Z"/></clipPath><clipPath id="clip-path-10" transform="translate(11.35)"><path class="cls-2" d="M87.08,102.05c0-7.1-34.44-7.1-34.44,0v18.86H87.08Z"/></clipPath><clipPath id="clip-path-11" transform="translate(11.35)"><path class="cls-2" d="M299.9,72.28H266.35V47.09q17.94-18.78,33.55,0Z"/></clipPath><clipPath id="clip-path-12" transform="translate(11.35)"><path class="cls-2" d="M253,72.28H219.48V47.09q17.94-18.78,33.54,0Z"/></clipPath><clipPath id="clip-path-13" transform="translate(11.35)"><path class="cls-2" d="M206.15,72.28H172.61V47.09q17.94-18.78,33.54,0Z"/></clipPath><clipPath id="clip-path-14" transform="translate(11.35)"><path class="cls-2" d="M159.28,72.28H125.73V47.09q17.94-18.78,33.55,0Z"/></clipPath><clipPath id="clip-path-15" transform="translate(11.35)"><polygon class="cls-2" points="150.67 90.69 150.67 81.62 144.3 77.08 137.93 81.62 137.93 90.69 144.3 95.22 150.67 90.69"/></clipPath><clipPath id="clip-path-16" transform="translate(11.35)"><polygon class="cls-2" points="287.7 90.69 287.7 81.62 281.33 77.08 274.96 81.62 274.96 90.69 281.33 95.22 287.7 90.69"/></clipPath><clipPath id="clip-path-17" transform="translate(11.35)"><polygon class="cls-2" points="243.28 90.69 243.28 81.62 236.91 77.08 230.53 81.62 230.53 90.69 236.91 95.22 243.28 90.69"/></clipPath><clipPath id="clip-path-18" transform="translate(11.35)"><polygon class="cls-2" points="195.97 90.69 195.97 81.62 189.59 77.08 183.22 81.62 183.22 90.69 189.59 95.22 195.97 90.69"/></clipPath></defs><g id="Capa_2" data-name="Capa 2"><g id="Espacios"><path class="cls-1" d="M423.69,139.39h29.9a10.31,10.31,0,0,0-4-7.25c-3.78-2.79-7.94-.39-11-1.84s-1.21-12.48-13-10.71c-5.79.87-4.16,4-7.93,6.93s-7.9.71-10.81,4-2.06,8.87-2.06,8.87Z" transform="translate(11.35)"/><rect class="cls-2" x="296.56" y="33.28" width="101.92" height="75.08" transform="translate(706.39 141.65) rotate(-180)"/><polygon class="cls-3" points="296.82 33.28 409.83 33.28 398.73 20.9 296.82 20.9 296.82 33.28"/><rect class="cls-1" x="360.8" y="47.09" width="24.58" height="37.35" transform="translate(757.54 131.52) rotate(-180)"/><g class="cls-4"><rect class="cls-2" x="383.45" y="43.22" width="2" height="50.51"/><rect class="cls-2" x="368.4" y="54.02" width="32.1" height="2"/></g><rect class="cls-1" x="325.39" y="47.09" width="24.58" height="37.35" transform="translate(686.71 131.52) rotate(-180)"/><g class="cls-5"><rect class="cls-2" x="348.03" y="43.22" width="2" height="50.51"/><rect class="cls-2" x="332.98" y="54.02" width="32.1" height="2"/></g><rect class="cls-3" x="323.91" y="82.05" width="104.24" height="75.08" transform="translate(763.41 239.18) rotate(-180)"/><g class="cls-6"><rect class="cls-2" x="315.14" y="131.07" width="124.36" height="31.74" transform="translate(765.99 293.88) rotate(-180)"/></g><path class="cls-2" d="M383.25,102.05c0-7.1,34.45-7.1,34.45,0v18.86H383.25Z" transform="translate(11.35)"/><g class="cls-7"><rect class="cls-1" x="418.04" y="93.14" width="2" height="32.12"/><rect class="cls-1" x="404.1" y="93.14" width="2" height="32.12"/><rect class="cls-1" x="392.14" y="105.21" width="39.38" height="2"/></g><path class="cls-2" d="M341.07,102.05c0-7.1,34.44-7.1,34.44,0v18.86H341.07Z" transform="translate(11.35)"/><g class="cls-8"><rect class="cls-1" x="375.85" y="93.14" width="2" height="32.12"/><rect class="cls-1" x="361.92" y="93.14" width="2" height="32.12"/><rect class="cls-1" x="349.95" y="105.21" width="39.38" height="2"/></g><rect class="cls-2" x="41.02" y="33.28" width="101.92" height="75.08"/><polygon class="cls-3" points="154.04 33.28 41.02 33.28 52.12 20.9 154.04 20.9 154.04 33.28"/><rect class="cls-1" x="54.12" y="47.09" width="24.58" height="37.35"/><g class="cls-9"><rect class="cls-2" x="65.41" y="43.22" width="2" height="50.51"/><rect class="cls-2" x="50.36" y="54.02" width="32.1" height="2"/></g><rect class="cls-1" x="89.53" y="47.09" width="24.58" height="37.35"/><g class="cls-10"><rect class="cls-2" x="100.82" y="43.22" width="2" height="50.51"/><rect class="cls-2" x="85.77" y="54.02" width="32.1" height="2"/></g><rect class="cls-3" x="11.35" y="82.05" width="104.24" height="75.08"/><g class="cls-11"><rect class="cls-2" y="131.07" width="124.36" height="31.74"/></g><path class="cls-2" d="M44.89,102.05c0-7.1-34.44-7.1-34.44,0v18.86H44.89Z" transform="translate(11.35)"/><g class="cls-12"><rect class="cls-1" x="30.82" y="93.14" width="2" height="32.12"/><rect class="cls-1" x="44.75" y="93.14" width="2" height="32.12"/><rect class="cls-1" x="19.34" y="105.21" width="39.38" height="2"/></g><path class="cls-2" d="M87.08,102.05c0-7.1-34.44-7.1-34.44,0v18.86H87.08Z" transform="translate(11.35)"/><g class="cls-13"><rect class="cls-1" x="73" y="93.14" width="2" height="32.12"/><rect class="cls-1" x="86.93" y="93.14" width="2" height="32.12"/><rect class="cls-1" x="61.52" y="105.21" width="39.38" height="2"/></g><rect class="cls-3" x="123.23" y="11.87" width="201.87" height="120.75"/><path class="cls-2" d="M299.9,72.28H266.35V47.09q17.94-18.78,33.55,0Z" transform="translate(11.35)"/><g class="cls-14"><rect class="cls-1" x="293.48" y="36.15" width="2" height="40.35"/><rect class="cls-1" x="275" y="46.09" width="37.64" height="2"/></g><path class="cls-2" d="M253,72.28H219.48V47.09q17.94-18.78,33.54,0Z" transform="translate(11.35)"/><g class="cls-15"><rect class="cls-1" x="246.6" y="36.15" width="2" height="40.35"/><rect class="cls-1" x="228.12" y="46.09" width="37.64" height="2"/></g><path class="cls-2" d="M206.15,72.28H172.61V47.09q17.94-18.78,33.54,0Z" transform="translate(11.35)"/><g class="cls-16"><rect class="cls-1" x="199.73" y="36.15" width="2" height="40.35"/><rect class="cls-1" x="181.25" y="46.09" width="37.64" height="2"/></g><path class="cls-2" d="M159.28,72.28H125.73V47.09q17.94-18.78,33.55,0Z" transform="translate(11.35)"/><g class="cls-17"><rect class="cls-1" x="152.86" y="36.15" width="2" height="40.35"/><rect class="cls-1" x="134.38" y="46.09" width="37.64" height="2"/></g><path class="cls-1" d="M146.44,18.64h0a5.08,5.08,0,0,1,5.08,5.08v10.4a0,0,0,0,1,0,0H141.36a0,0,0,0,1,0,0V23.72A5.08,5.08,0,0,1,146.44,18.64Z"/><path class="cls-1" d="M161.28,18.64h0a5.08,5.08,0,0,1,5.08,5.08v10.4a0,0,0,0,1,0,0H156.2a0,0,0,0,1,0,0V23.72A5.08,5.08,0,0,1,161.28,18.64Z"/><path class="cls-1" d="M287.06,18.64h0a5.08,5.08,0,0,1,5.08,5.08v10.4a0,0,0,0,1,0,0H282a0,0,0,0,1,0,0V23.72A5.08,5.08,0,0,1,287.06,18.64Z"/><path class="cls-1" d="M301.9,18.64h0A5.08,5.08,0,0,1,307,23.72v10.4a0,0,0,0,1,0,0H296.82a0,0,0,0,1,0,0V23.72A5.08,5.08,0,0,1,301.9,18.64Z"/><rect class="cls-18" x="101.82" y="69.41" width="244.7" height="63.21"/><polygon class="cls-2" points="309.19 0 139.15 0 123.23 11.87 325.1 11.87 309.19 0"/><path class="cls-1" d="M137.93,138.43H101.16V109a18.38,18.38,0,0,1,18.38-18.38h0A18.38,18.38,0,0,1,137.93,109Z" transform="translate(11.35)"/><path class="cls-1" d="M184.56,138.43H147.79V109a18.39,18.39,0,0,1,18.39-18.38h0A18.38,18.38,0,0,1,184.56,109Z" transform="translate(11.35)"/><path class="cls-1" d="M231.2,138.43H194.43V109a18.38,18.38,0,0,1,18.38-18.38h0A18.38,18.38,0,0,1,231.2,109Z" transform="translate(11.35)"/><path class="cls-1" d="M277.83,138.43H241.07V109a18.38,18.38,0,0,1,18.38-18.38h0A18.38,18.38,0,0,1,277.83,109Z" transform="translate(11.35)"/><path class="cls-1" d="M324.47,138.43H287.7V109a18.38,18.38,0,0,1,18.39-18.38h0A18.38,18.38,0,0,1,324.47,109Z" transform="translate(11.35)"/><rect class="cls-3" x="97.03" y="131.07" width="254.27" height="9.72"/><rect class="cls-1" x="87.37" y="140.79" width="273.59" height="9.72"/><rect class="cls-3" x="81.69" y="150.51" width="284.95" height="9.72"/><path class="cls-1" d="M3.87,160.23H75.6s-2.13-7.74-6.26-10.19-7.09-.33-8.45-1.1-.71-2.64-4.45-4.39-9,1.36-12.13.52-7.48-8.26-15-7.29-7.48,7-9.35,8.52-8.45,1.09-12.71,5.22A10.17,10.17,0,0,0,3.87,160.23Z" transform="translate(11.35)"/><polygon class="cls-2" points="162.02 90.69 162.02 81.62 155.65 77.08 149.28 81.62 149.28 90.69 155.65 95.22 162.02 90.69"/><g class="cls-19"><rect class="cls-1" x="151.25" y="79.66" width="2" height="12.9"/><rect class="cls-1" x="158.05" y="79.66" width="2" height="12.9"/><rect class="cls-1" x="147.1" y="74.7" width="17.09" height="6.92"/><rect class="cls-1" x="147.1" y="90.63" width="17.09" height="6.92"/></g><polygon class="cls-2" points="299.06 90.69 299.06 81.62 292.68 77.08 286.31 81.62 286.31 90.69 292.68 95.22 299.06 90.69"/><g class="cls-20"><rect class="cls-1" x="288.28" y="79.66" width="2" height="12.9"/><rect class="cls-1" x="295.09" y="79.66" width="2" height="12.9"/><rect class="cls-1" x="284.14" y="74.7" width="17.09" height="6.92"/><rect class="cls-1" x="284.14" y="90.63" width="17.09" height="6.92"/></g><polygon class="cls-2" points="254.63 90.69 254.63 81.62 248.26 77.08 241.89 81.62 241.89 90.69 248.26 95.22 254.63 90.69"/><g class="cls-21"><rect class="cls-1" x="243.86" y="79.66" width="2" height="12.9"/><rect class="cls-1" x="250.66" y="79.66" width="2" height="12.9"/><rect class="cls-1" x="239.71" y="74.7" width="17.09" height="6.92"/><rect class="cls-1" x="239.71" y="90.63" width="17.09" height="6.92"/></g><polygon class="cls-2" points="207.32 90.69 207.32 81.62 200.95 77.08 194.57 81.62 194.57 90.69 200.95 95.22 207.32 90.69"/><g class="cls-22"><rect class="cls-1" x="196.54" y="79.66" width="2" height="12.9"/><rect class="cls-1" x="203.35" y="79.66" width="2" height="12.9"/><rect class="cls-1" x="192.4" y="74.7" width="17.09" height="6.92"/><rect class="cls-1" x="192.4" y="90.63" width="17.09" height="6.92"/></g><rect class="cls-1" x="191.1" y="17.03" width="15.64" height="15.64"/><rect class="cls-1" x="241.6" y="17.03" width="15.64" height="15.64"/><path class="cls-1" d="M354.51,160.12h58.25s-2.35-7.26-8-11.32-8.21-.48-11.12-.87-6.38-12-14.51-12-9,8.61-12,10.84-6.67,1.93-10.06,5.32A9.66,9.66,0,0,0,354.51,160.12Z" transform="translate(11.35)"/></g></g></svg>