<svg xmlns="http://www.w3.org/2000/svg" xmlns:xlink="http://www.w3.org/1999/xlink" viewBox="0 0 375.03 171.76"><defs><style>.cls-1{fill:#ffec00;}.cls-2{fill:#00c3ff;}.cls-3{fill:#010f70;}.cls-4{clip-path:url(#clip-path);}.cls-5{clip-path:url(#clip-path-2);}.cls-6{clip-path:url(#clip-path-3);}.cls-7{clip-path:url(#clip-path-4);}.cls-8{clip-path:url(#clip-path-5);}.cls-9{clip-path:url(#clip-path-6);}.cls-10{clip-path:url(#clip-path-7);}</style><clipPath id="clip-path" transform="translate(2.5)"><rect class="cls-1" x="48.61" y="26.81" width="114.46" height="121.97"/></clipPath><clipPath id="clip-path-2" transform="translate(2.5)"><rect class="cls-2" y="112.54" width="163.07" height="36.24"/></clipPath><clipPath id="clip-path-3" transform="translate(2.5)"><rect class="cls-1" x="206.95" y="26.81" width="114.46" height="121.97" transform="translate(528.36 175.59) rotate(-180)"/></clipPath><clipPath id="clip-path-4" transform="translate(2.5)"><rect class="cls-2" x="206.95" y="112.54" width="163.07" height="36.24" transform="translate(576.97 261.32) rotate(-180)"/></clipPath><clipPath id="clip-path-5" transform="translate(2.5)"><polygon class="cls-2" points="223.72 148.78 145.61 148.78 160.03 112.54 212.34 112.54 223.72 148.78"/></clipPath><clipPath id="clip-path-6" transform="translate(2.5)"><rect class="cls-2" x="150.03" y="46.03" width="13.04" height="66.51"/></clipPath><clipPath id="clip-path-7" transform="translate(2.5)"><rect class="cls-2" x="206.96" y="46.03" width="13.04" height="66.51"/></clipPath></defs><g id="Capa_2" data-name="Capa 2"><g id="Espacios"><rect class="cls-3" x="127.93" y="15.2" width="12.11" height="69.1" transform="translate(74.1 178.33) rotate(-84.49)"/><path class="cls-3" d="M48.61,26.81c-24.3,5.45-31.68,37.5-38.16,43S0,75.86,0,75.86v44.19H48.61Z" transform="translate(2.5)"/><rect class="cls-3" x="162.47" y="57.3" width="53.51" height="55.83"/><polygon class="cls-3" points="162.47 28.85 153.15 28.85 155.19 19.57 160.43 19.57 162.47 28.85"/><circle class="cls-3" cx="157.81" cy="17.09" r="2.49"/><polygon class="cls-3" points="178.49 20.02 169.17 20.02 171.21 10.73 176.45 10.73 178.49 20.02"/><circle class="cls-3" cx="173.83" cy="8.25" r="2.49"/><polygon class="cls-3" points="196.14 17.38 178.88 17.38 180.71 7.44 194.32 7.44 196.14 17.38"/><circle class="cls-3" cx="187.51" cy="3.72" r="3.72"/><rect class="cls-1" x="51.11" y="26.81" width="114.46" height="121.97"/><g class="cls-4"><rect class="cls-2" x="41.39" y="17.09" width="124.18" height="28.95"/></g><path class="cls-3" d="M78.84,60.84h0A20.55,20.55,0,0,1,99.39,81.39v42a0,0,0,0,1,0,0H58.3a0,0,0,0,1,0,0v-42A20.55,20.55,0,0,1,78.84,60.84Z"/><path class="cls-3" d="M126.79,60.84h0a20.55,20.55,0,0,1,20.55,20.55v42a0,0,0,0,1,0,0h-41.1a0,0,0,0,1,0,0v-42a20.55,20.55,0,0,1,20.55-20.55Z"/><rect class="cls-2" x="2.5" y="112.54" width="163.07" height="36.24"/><g class="cls-5"><rect class="cls-1" y="102.52" width="51.11" height="69.23"/></g><rect class="cls-1" x="206.95" y="26.81" width="114.46" height="121.97" transform="translate(530.87 175.59) rotate(-180)"/><g class="cls-6"><rect class="cls-2" x="206.95" y="17.09" width="124.18" height="28.95" transform="translate(540.59 63.12) rotate(-180)"/></g><path class="cls-3" d="M321.41,26.81c24.3,5.45,31.68,37.5,38.16,43s10.45,6,10.45,6v44.19H321.41Z" transform="translate(2.5)"/><path class="cls-3" d="M273.13,60.84h41.1a0,0,0,0,1,0,0v42a20.55,20.55,0,0,1-20.55,20.55h0a20.55,20.55,0,0,1-20.55-20.55v-42a0,0,0,0,1,0,0Z" transform="translate(589.86 184.2) rotate(-180)"/><path class="cls-3" d="M225.18,60.84h41.1a0,0,0,0,1,0,0v42a20.55,20.55,0,0,1-20.55,20.55h0a20.55,20.55,0,0,1-20.55-20.55v-42a0,0,0,0,1,0,0Z" transform="translate(493.97 184.2) rotate(-180)"/><rect class="cls-2" x="206.95" y="112.54" width="163.07" height="36.24" transform="translate(579.48 261.32) rotate(-180)"/><g class="cls-7"><rect class="cls-1" x="321.41" y="102.52" width="51.11" height="69.23" transform="translate(696.44 274.28) rotate(-180)"/></g><polygon class="cls-2" points="226.22 148.78 148.12 148.78 162.53 112.54 214.84 112.54 226.22 148.78"/><g class="cls-8"><rect class="cls-1" x="113.98" y="121.12" width="145.83" height="2.28"/><rect class="cls-1" x="120.72" y="130.18" width="132.35" height="2.28"/><rect class="cls-1" x="127.46" y="139.24" width="118.88" height="2.28"/></g><polygon class="cls-3" points="153.86 148.78 140.82 148.78 152.53 112.54 165.57 112.54 153.86 148.78"/><polygon class="cls-3" points="221.17 148.78 234.21 148.78 222.49 112.54 209.46 112.54 221.17 148.78"/><polygon class="cls-3" points="212.56 28.85 221.88 28.85 219.85 19.57 214.6 19.57 212.56 28.85"/><circle class="cls-3" cx="217.22" cy="17.09" r="2.49"/><polygon class="cls-3" points="196.54 20.02 205.86 20.02 203.83 10.73 198.58 10.73 196.54 20.02"/><circle class="cls-3" cx="201.2" cy="8.25" r="2.49"/><path class="cls-2" d="M202.43,33H167.6C165.21,41,159,44.37,150,44.34V68.05h13a39.86,39.86,0,0,1,21.79-5.45h.31c7.56-.41,14.8,1.57,21.79,5.45h13V44.34C211,44.37,204.81,41,202.43,33Z" transform="translate(2.5)"/><path class="cls-3" d="M202.43,15.47H167.6c-2.39,8-8.59,11.38-17.57,11.34V50.53h13a39.79,39.79,0,0,1,21.79-5.46h.31c7.56-.41,14.8,1.57,21.79,5.46h13V26.81C211,26.85,204.81,23.48,202.43,15.47Z" transform="translate(2.5)"/><circle class="cls-1" cx="215.98" cy="36.13" r="3.87"/><ellipse class="cls-1" cx="187.52" cy="30.17" rx="4.61" ry="5.96"/><rect class="cls-2" x="152.53" y="46.03" width="13.04" height="66.51"/><g class="cls-9"><rect class="cls-3" x="150.55" y="49.49" width="19.55" height="21.21"/><rect class="cls-3" x="150.55" y="74.98" width="19.55" height="26.37"/><rect class="cls-2" x="148.11" y="56.42" width="20.33" height="4.42"/><rect class="cls-2" x="155.04" y="72.11" width="2.28" height="32.7"/><rect class="cls-2" x="160.78" y="72.11" width="2.28" height="32.7"/></g><rect class="cls-2" x="209.46" y="46.03" width="13.04" height="66.51"/><g class="cls-10"><rect class="cls-3" x="207.47" y="49.49" width="19.55" height="21.21"/><rect class="cls-3" x="207.47" y="74.98" width="19.55" height="26.37"/><rect class="cls-2" x="205.04" y="56.42" width="20.33" height="4.42"/><rect class="cls-2" x="211.97" y="72.11" width="2.28" height="32.7"/><rect class="cls-2" x="217.71" y="72.11" width="2.28" height="32.7"/></g><circle class="cls-1" cx="159.05" cy="36.13" r="3.87"/><path class="cls-1" d="M192.44,23.72l-4.14-1.94a7.73,7.73,0,0,0-6.58,0l-4.14,1.94V18.3h14.86Z" transform="translate(2.5)"/><ellipse class="cls-1" cx="172.84" cy="40.32" rx="2.07" ry="2.46"/><path class="cls-1" d="M185,43.13h-.07c-2.33-.14-4.31-1.51-6.41-3-2.76-1.91-5.63-3.88-9.82-3.66l-.12-2.28c5-.26,8.45,2.14,11.24,4.06,1.88,1.3,3.51,2.43,5.18,2.56,1.67-.13,3.3-1.26,5.18-2.56,2.8-1.92,6.27-4.32,11.25-4.06l-.13,2.28c-4.22-.23-7.05,1.75-9.82,3.66-2.1,1.45-4.08,2.82-6.41,3Z" transform="translate(2.5)"/><ellipse class="cls-1" cx="202.19" cy="40.32" rx="2.07" ry="2.46"/><rect class="cls-1" x="54.66" y="104.5" width="97.87" height="8.05"/><rect class="cls-1" x="222.5" y="104.5" width="97.87" height="8.05"/></g></g></svg>