<svg xmlns="http://www.w3.org/2000/svg" xmlns:xlink="http://www.w3.org/1999/xlink" viewBox="0 0 141.87 64.98"><defs><style>.cls-1{fill:#ffeb00;}.cls-2{fill:#00c2ff;}.cls-3{fill:#010f70;}.cls-4{clip-path:url(#clip-path);}.cls-5{clip-path:url(#clip-path-2);}.cls-6{clip-path:url(#clip-path-3);}.cls-7{clip-path:url(#clip-path-4);}.cls-8{clip-path:url(#clip-path-5);}.cls-9{clip-path:url(#clip-path-6);}.cls-10{clip-path:url(#clip-path-7);}</style><clipPath id="clip-path" transform="translate(0.95)"><rect class="cls-1" x="18.39" y="10.14" width="43.3" height="46.14"/></clipPath><clipPath id="clip-path-2" transform="translate(0.95)"><rect class="cls-2" y="42.57" width="61.69" height="13.71"/></clipPath><clipPath id="clip-path-3" transform="translate(0.95)"><rect class="cls-1" x="78.29" y="10.14" width="43.3" height="46.14" transform="translate(199.88 66.42) rotate(-180)"/></clipPath><clipPath id="clip-path-4" transform="translate(0.95)"><rect class="cls-2" x="78.29" y="42.57" width="61.69" height="13.71" transform="translate(218.27 98.86) rotate(-180)"/></clipPath><clipPath id="clip-path-5" transform="translate(0.95)"><polygon class="cls-2" points="84.63 56.28 55.09 56.28 60.54 42.57 80.33 42.57 84.63 56.28"/></clipPath><clipPath id="clip-path-6" transform="translate(0.95)"><rect class="cls-2" x="56.76" y="17.41" width="4.93" height="25.16"/></clipPath><clipPath id="clip-path-7" transform="translate(0.95)"><rect class="cls-2" x="78.29" y="17.41" width="4.93" height="25.16"/></clipPath></defs><g id="Capa_2" data-name="Capa 2"><g id="Iconos"><rect class="cls-3" x="48.39" y="5.75" width="4.58" height="26.14" transform="translate(28.03 67.46) rotate(-84.49)"/><path class="cls-3" d="M18.39,10.14C9.19,12.2,6.4,24.33,4,26.41S0,28.7,0,28.7V45.42H18.39Z" transform="translate(0.95)"/><rect class="cls-3" x="61.46" y="21.68" width="20.24" height="21.12"/><polygon class="cls-3" points="61.46 10.91 57.94 10.91 58.71 7.41 60.69 7.41 61.46 10.91"/><circle class="cls-3" cx="59.7" cy="6.46" r="0.94"/><polygon class="cls-3" points="67.52 7.57 64 7.57 64.77 4.06 66.75 4.06 67.52 7.57"/><circle class="cls-3" cx="65.76" cy="3.12" r="0.94"/><polygon class="cls-3" points="74.2 6.58 67.67 6.58 68.36 2.81 73.51 2.81 74.2 6.58"/><circle class="cls-3" cx="70.94" cy="1.41" r="1.41"/><rect class="cls-1" x="19.34" y="10.14" width="43.3" height="46.14"/><g class="cls-4"><rect class="cls-2" x="15.66" y="6.46" width="46.98" height="10.95"/></g><path class="cls-3" d="M29.83,23h0a7.77,7.77,0,0,1,7.77,7.77V46.67a0,0,0,0,1,0,0H22.05a0,0,0,0,1,0,0V30.79A7.77,7.77,0,0,1,29.83,23Z"/><path class="cls-3" d="M48,23h0a7.77,7.77,0,0,1,7.77,7.77V46.67a0,0,0,0,1,0,0H40.19a0,0,0,0,1,0,0V30.79A7.77,7.77,0,0,1,48,23Z"/><rect class="cls-2" x="0.95" y="42.57" width="61.69" height="13.71"/><g class="cls-5"><rect class="cls-1" y="38.78" width="19.34" height="26.19"/></g><rect class="cls-1" x="78.29" y="10.14" width="43.3" height="46.14" transform="translate(200.83 66.42) rotate(-180)"/><g class="cls-6"><rect class="cls-2" x="78.29" y="6.46" width="46.98" height="10.95" transform="translate(204.51 23.88) rotate(-180)"/></g><path class="cls-3" d="M121.59,10.14c9.19,2.06,12,14.19,14.44,16.27S140,28.7,140,28.7V45.42H121.59Z" transform="translate(0.95)"/><path class="cls-3" d="M103.33,23h15.55a0,0,0,0,1,0,0V38.9a7.77,7.77,0,0,1-7.77,7.77h0a7.77,7.77,0,0,1-7.77-7.77V23a0,0,0,0,1,0,0Z" transform="translate(223.15 69.68) rotate(-180)"/><path class="cls-3" d="M85.19,23h15.55a0,0,0,0,1,0,0V38.9A7.77,7.77,0,0,1,93,46.67h0a7.77,7.77,0,0,1-7.77-7.77V23A0,0,0,0,1,85.19,23Z" transform="translate(186.87 69.68) rotate(-180)"/><rect class="cls-2" x="78.29" y="42.57" width="61.69" height="13.71" transform="translate(219.22 98.86) rotate(-180)"/><g class="cls-7"><rect class="cls-1" x="121.59" y="38.78" width="19.34" height="26.19" transform="translate(263.46 103.76) rotate(-180)"/></g><polygon class="cls-2" points="85.58 56.28 56.03 56.28 61.49 42.57 81.28 42.57 85.58 56.28"/><g class="cls-8"><rect class="cls-3" x="43.12" y="45.82" width="55.17" height="0.86"/><rect class="cls-3" x="45.67" y="49.25" width="50.07" height="0.86"/><rect class="cls-3" x="48.22" y="52.67" width="44.97" height="0.86"/></g><polygon class="cls-3" points="58.2 56.28 53.27 56.28 57.7 42.57 62.64 42.57 58.2 56.28"/><polygon class="cls-3" points="83.67 56.28 88.6 56.28 84.17 42.57 79.24 42.57 83.67 56.28"/><polygon class="cls-3" points="80.41 10.91 83.94 10.91 83.17 7.41 81.18 7.41 80.41 10.91"/><circle class="cls-3" cx="82.18" cy="6.46" r="0.94"/><polygon class="cls-3" points="74.35 7.57 77.88 7.57 77.11 4.06 75.12 4.06 74.35 7.57"/><circle class="cls-3" cx="76.12" cy="3.12" r="0.94"/><path class="cls-2" d="M76.58,12.48H63.4c-.9,3-3.25,4.31-6.64,4.29v9h4.93a15,15,0,0,1,8.24-2.07h.12a15,15,0,0,1,8.24,2.07h4.93v-9C79.83,16.79,77.48,15.51,76.58,12.48Z" transform="translate(0.95)"/><path class="cls-3" d="M76.58,5.85H63.4c-.9,3-3.25,4.31-6.64,4.29v9h4.93a15,15,0,0,1,8.24-2.06h.12a15,15,0,0,1,8.24,2.06h4.93v-9C79.83,10.16,77.48,8.88,76.58,5.85Z" transform="translate(0.95)"/><circle class="cls-1" cx="81.71" cy="13.67" r="1.46"/><ellipse class="cls-1" cx="70.94" cy="11.41" rx="1.74" ry="2.25"/><rect class="cls-2" x="57.7" y="17.41" width="4.93" height="25.16"/><g class="cls-9"><rect class="cls-3" x="56.95" y="18.72" width="7.4" height="8.02"/><rect class="cls-3" x="56.95" y="28.36" width="7.4" height="9.97"/><rect class="cls-2" x="56.03" y="21.34" width="7.69" height="1.67"/><rect class="cls-2" x="58.65" y="27.28" width="0.86" height="12.37"/><rect class="cls-2" x="60.82" y="27.28" width="0.86" height="12.37"/></g><rect class="cls-2" x="79.24" y="17.41" width="4.93" height="25.16"/><g class="cls-10"><rect class="cls-3" x="78.49" y="18.72" width="7.4" height="8.02"/><rect class="cls-3" x="78.49" y="28.36" width="7.4" height="9.97"/><rect class="cls-2" x="77.57" y="21.34" width="7.69" height="1.67"/><rect class="cls-2" x="80.19" y="27.28" width="0.86" height="12.37"/><rect class="cls-2" x="82.36" y="27.28" width="0.86" height="12.37"/></g><circle class="cls-1" cx="60.17" cy="13.67" r="1.46"/><path class="cls-1" d="M72.8,9l-1.57-.73a2.91,2.91,0,0,0-2.48,0L67.18,9V6.92H72.8Z" transform="translate(0.95)"/><ellipse class="cls-1" cx="65.38" cy="15.25" rx="0.78" ry="0.93"/><path class="cls-1" d="M70,16.32a5,5,0,0,1-2.48-1.12,5.7,5.7,0,0,0-3.72-1.39l0-.86A6.61,6.61,0,0,1,68,14.49a4.23,4.23,0,0,0,2,1,4.28,4.28,0,0,0,1.93-1A6.57,6.57,0,0,1,76.2,13l0,.86a5.74,5.74,0,0,0-3.72,1.39A5,5,0,0,1,70,16.32Z" transform="translate(0.95)"/><ellipse class="cls-1" cx="76.49" cy="15.25" rx="0.78" ry="0.93"/><rect class="cls-1" x="20.68" y="39.53" width="37.03" height="3.04"/><rect class="cls-1" x="84.17" y="39.53" width="37.03" height="3.04"/></g></g></svg>