<svg id="Layer_1" data-name="Layer 1" xmlns="http://www.w3.org/2000/svg" viewBox="0 0 554 124.33"><defs><style>.cls-1{fill:#21211f;}.cls-2{fill:#e75d72;}.cls-3{fill:#b41c1a;}.cls-4{fill:#d22637;}.cls-5{fill:#d8de92;}.cls-6{fill:#a7c74d;}.cls-7{fill:#f9f4ec;}.cls-8{fill:#6c2618;}.cls-9{fill:#fbf2e9;}</style></defs><title>BESOS</title><path class="cls-1" d="M413.69,80c-1.47,1-2.59,3.1-4.79,1.87-2.81-1.57-3.23-4.3-2.85-8-1.89,2-3.17,3.59-4.7,4.91-2.39,2.07-4.5,1.29-5.28-1.79-1.14-4.51,2.7-12.85,6.83-14.77.58-.27,1.57-.71,1.83-.48,2.22,2.06,4.3,3.58,7.8,2.84,1.28-.27,1.08,2.27.39,3.66a21.34,21.34,0,0,0-2.14,10c1.72.4,2.26-1,2.77-1.86,2.4-4.32,7.13-7.35,7-13.15a3,3,0,0,1,3.43-2.71c2.22.48,1,2.14.63,3.52-.67,2.56.62,5,.88,7.48.17,1.61,1.2,1.31,2.33.71,3.68-1.94,7.32-3.78,8.24-8.51.42-2.18,1.52-4.22,2.4-6.58-3.54-.47-6.88,1.1-10.48-.74a15.19,15.19,0,0,1,7-1.09c3.15.15,5.12-.76,6.25-4,.82-2.33,2.47-4.38,3.8-6.53a3.31,3.31,0,0,1,2.9-1.83c1,0,2.27-.29,2.89.82s-.35,1.8-.89,2.48a38,38,0,0,0-5,8.51h6.84c-1.62,2.43-3.76,1.69-5.49,2-1.13.18-2.45-.35-3.06,1.18-3.19,7.89-6.45,15.76-8.09,24.16-.08.42.19.92.47,2.12,5.27-5.86,10-11.32,13.75-17.61,1.23-2.07,2.37-4.22,4.53-5.48s4.15-1.26,5.89.48.73,3.77-.49,5.37a14.35,14.35,0,0,1-5.53,4.5c-.93.42-2,.68-2,2.11,0,2-2,4.74-.08,5.92s3.8-1.39,5.07-2.92c3.64-4.37,7.52-8.56,9.08-14.37a60,60,0,0,1,9.72-20c1.14-1.55,2.31-3.83,4.71-2.74s3,3.47,2.28,6.12c-1.93,7.43-6.61,13.35-11,19.34-3.75,5.13-5.09,10.71-5.31,16.79,0,1.14-.39,2.65,1.06,3.13s2.22-.69,3-1.61a101,101,0,0,0,10.68-16.39,15.2,15.2,0,0,1,4.1-5.35c2.19-1.58,4.57-1.86,6.51.17s.52,4-.89,5.66a12.24,12.24,0,0,1-4.25,3.56c-2.6,1-3.22,2.9-3.41,5.22-.11,1.25-1,2.86.51,3.62,1.18.61,2.31-.59,3.06-1.41,3.51-3.83,7.93-7.06,8.75-12.78a3.91,3.91,0,0,1,2.11-2.79,2.12,2.12,0,0,1,2.27,0c1,.62.51,1.35,0,2-1.85,2.58-.13,2.94,1.9,3,3.41.08,3.26,1.71,2.11,4.18a44.81,44.81,0,0,0-3.11,8.92,26.47,26.47,0,0,0,9.36-11.79,18.88,18.88,0,0,1,1.42-3.69c.89-1.36,2.35-1.08,3.59-.42,1.47.78.61,1.7,0,2.63a8.23,8.23,0,0,0-1.15,2.53c-.31,1.54-2.43,3.46-.5,4.52,1.36.75,3.12-1.28,4.11-2.57,1.69-2.2,2.84-4.81,4.45-7.08,2.89-4.06,5.18-4.2,8.15-.38.82,1,1.11.65,1.73.19,1.15-.87,2.3-1.43,3.52-.13s.47,2.43-.13,3.65a22.73,22.73,0,0,0-2.05,10.34c3.11-1.6,4.29-4.35,5.87-6.68.88-1.28,1.73-2.35,3.33-2.58l-.1.07c-1.85,3.43-3.33,7.09-6,10-1.23,1.35-2.38,3.22-4.56,2.54s-2.67-2.8-2.92-4.84c-.13-1.12-.16-2.25-.25-3.69-2.91,2.28-3.78,6.8-8.07,6.12-1.94-.3-2.05-2.55-2.4-4.64-2.5,2.63-5,4.17-7.73.52-1.06-1.42-1.52.17-2,.76-1.91,2.58-3.83,5.14-6.55,6.95-1.2.79-2.46,1.87-4,.74a4.37,4.37,0,0,1-1.71-4.24c.31-2.57,1.76-4.72,2.59-7.1.29-.83,1.67-2,.31-2.6-1.14-.53-2.71-1-3.88.72-1.74,2.52-3.77,4.83-5.65,7.25-4.88,6.28-8.13,6-12-1.25a66.13,66.13,0,0,1-7.15,9.16c-1.56,1.57-3.34,2.88-5.68,2-2.15-.78-2.64-2.83-3-4.83-.66-3.22.64-6.31.7-9.91-3.33,2-4.57,5.63-7.29,7.79-1.72,1.37-3.46,2.06-5.45.69-1.83-1.26-3.34-2.7-2.44-5.29a16.87,16.87,0,0,0,.2-3.18c-3.1,4-5.38,7.32-8,10.29-1.58,1.8-2.6,5.38-6.08,3.72s-2.52-4.84-1.93-7.74c.45-2.19.89-4.38,1.44-7.11-3.82,1.79-6.71,3-6.22,8a6.88,6.88,0,0,1-7.3,7.68c-4.39-.14-6-2.46-4.85-6.85.24-.39.93-.63.51-1.24S414.09,79.6,413.69,80Zm58.07-21.67c3.84-1.85,8.66-12,7.69-16.23C475.38,46.9,474.24,52.79,471.76,58.32ZM400.91,76.2c1.76-2.41,3.59-4.77,5.27-7.23a3.72,3.72,0,0,0-.64-4.66c-1.58-.94-2.21,1.27-2.78,2.48C401.42,69.63,400,72.47,400.91,76.2Zm122-.19c2.2-3.14,6.25-5.1,5.76-9.72-.09-.81.31-2.06-1-2.25-.91-.13-1.4.71-1.76,1.4C524.15,68.73,522.51,72,522.87,76ZM420.13,69.44c-1.59,2.75-3.12,5.37-4.63,8-.26.45-.58.91,0,1.41s.92.16,1.41-.06C422,76.5,422.49,75.08,420.13,69.44Zm1.6,8.81c-1.25.88-2.44,1.65-3.56,2.51A4.75,4.75,0,0,0,416,84c-.1.91.73.92,1.38.94A3.75,3.75,0,0,0,421,83C421.82,81.59,422.51,80.19,421.73,78.25ZM489,62.34c-2.19,1.89-2.19,1.89-4,6.37C488.9,67.3,489.75,65.95,489,62.34Zm-35.12,6.41c2.11-1.55,4.64-2.84,3.76-6.53C454.92,64.27,454.9,64.3,453.91,68.75Z"/><path class="cls-2" d="M68.3,21.19c4.1-1.76,8.12-3.62,9.79-8.26a1.38,1.38,0,0,0,1.54-.52L83.3,8.86A1.5,1.5,0,0,0,84,8.73c3.66-2.08,7.33-3.61,11.33-.7a2.48,2.48,0,0,0,2.89.19c5.86-3.85,10.1-.72,14.18,3.23,5.86,5.68,12.1,10.85,19.65,14.2l5.26,2.64c2.35,2.42,2.19,4.95.16,7.39-6.8,8.18-14.29,15.84-23.16,21.59-10.67,6.91-22.32,6.14-33.74,1-1.61-1.24-3.31-2.37-4.81-3.73-6-5.46-12-11-17.95-16.5-1.54-.35-2-1.78-2.84-2.82.55-2.77-.83-6.25,2.87-7.87l2.52-1.15C63.16,24.79,66.38,24,68.3,21.19ZM57.89,31.31c-.43,2.28,1.58,2.63,2.85,3.25q36.42,17.79,72.79-.21c1.07-.53,3.14-.7,2.3-2.91a216.16,216.16,0,0,1-25.59-6.25A47.86,47.86,0,0,0,90,24C79.07,25.47,68.9,30.26,57.89,31.31Z"/><path class="cls-3" d="M76.94,98.17c2,6.72-5.19,17.4-12.15,19.07-8.81,2.12-16.92-2.75-20.92-13.05-4.06,4.88-8.82,8.1-15.32,7.07a15.65,15.65,0,0,1-9.67-5.41c-5.61-6.56-5.1-15.63,1.18-22.56a30.83,30.83,0,0,0,7.32,3.2,41.05,41.05,0,0,1,9.68,4.6c4.83,3.12,7.27,2.49,10.2-1.88a4.48,4.48,0,0,1,2.58-2.38c1.87,3.53,5.69,2,8.45,3.23C64.47,92.84,70.71,95.48,76.94,98.17Z"/><path class="cls-1" d="M295.9,74.1c-.7.61-1.38,1.25-2.12,1.81-1.27,1-2.56,2.12-4.32,1.46-1.93-.73-2.39-2.36-1.92-4.41l-1-.58c-1.39,1.67-2.7,3.41-4.21,5a3.26,3.26,0,0,1-4,.93C277,77.55,277,76,277.06,74.7c.36-4.52,2.3-8.44,4.86-12.07a2.44,2.44,0,0,1,3.54-.71c1.34.93.44,2.16-.2,3.14-1.95,3-3,6.31-4.47,10.37,3.8-1.49,5.06-4.22,6.84-6.38,1.1-1.33,2-2.83,3.19-4.08a2.07,2.07,0,0,1,2.9-.27c1,.76.42,1.58.19,2.49-.58,2.28-1.91,4.39-1.73,7.26,3.29-2.42,5.74-4.93,6.85-8.72,2.36-8.08,5.36-15.91,10.37-22.78,1.32-1.81,2.47-4.83,5.46-3.36s2.65,4.35,1.8,7c-2.12,6.73-6.27,12.37-10.43,17.86-3.94,5.19-5.22,10.93-5.63,17.11-.08,1.17-.26,2.6,1,3.17s2.23-.6,3-1.5a83.21,83.21,0,0,0,11.12-17.48c1-2.18,2.09-4.34,4.05-5.86,1.62-1.26,3.46-2,4.9,0s1.92,4.42,0,6.57a1.77,1.77,0,0,1-1.43.51c-.84-.2-.67-1-.53-1.63.26-1.25,1.21-2.43,0-4.49-3.26,5.68-5.41,11.21-5.11,17.43.12,2.61,1.92,1.64,3.07.68A50.09,50.09,0,0,0,330.79,66.7c1.28-2,2.38-4.21,4.51-5.52s4.46-1.41,6.17.57.53,3.86-.82,5.4c-1.22,1.39-2.58,3.06-4.21,3.59-3.75,1.21-3.32,4.37-3.94,7.06A2.2,2.2,0,0,0,333,79.6c.73.67,1.4,0,2.1-.43a19.75,19.75,0,0,0,6.54-6.84c1.88-2.93,5.56-4.73,5.33-9.1a2.92,2.92,0,0,1,3.4-2.68c2.26.53.88,2.22.64,3.55-.47,2.56.56,5,1,7.44.29,1.73,1.21,1.27,2.26.64,2.38-1.43,4.8-2.8,7.4-4.31.74,2.83-1.55,3.54-3,4.42-3.51,2.08-6.34,4-5.72,9.08.4,3.28-2.13,6-5.8,6.57-2.6.39-5.16,0-6.48-2.78s.53-4.24,2.18-5.84a5,5,0,0,1,1.22-1c4.12-1.92,5.2-4.82,2.51-9.23-2.85,3.54-5.59,7.15-8.56,10.56-3.27,3.75-6.14,3.63-8.94.15-1.4-1.74-.65-3.42-.27-5.93-2.42,2.47-4.32,4.55-6.38,6.46-1.86,1.73-4,3.74-6.67,2.63s-2.75-4-2.83-7.08c-2.48,3.16-4.65,6.05-6.95,8.83-1.72,2.08-3.69,4.36-6.71,3.21s-3.22-4.3-3.11-7.16c.07-2,.38-4,.59-5.95.23-.46.44-.94-.07-1.31C296.58,73.44,296.16,73.88,295.9,74.1Zm18.38-31.59c-4.53,4.66-5.81,10.83-7.79,16.68C310.31,54.22,313.7,49,314.29,42.51ZM348.78,78.1a15.78,15.78,0,0,0-5.59,4.23,1.82,1.82,0,0,0-.41,2.17c.5.72,1.47.5,2.22.29C348.17,83.88,348.49,81.32,348.78,78.1Zm-9.56-16.37a12.9,12.9,0,0,0-4.42,8C337.39,67.56,340.1,66.1,339.22,61.72Z"/><path class="cls-1" d="M200.48,73c-4.19,1.23-5.39,3.66-5.28,7.73a7,7,0,0,1-9.25,7c-3.58-1.15-4.57-4.27-2.2-7.13a8.25,8.25,0,0,1,2.63-2.42c4.39-2,4.67-5,2.45-9.26-3,3.71-5.76,7.37-8.77,10.81s-5.69,3.54-8.1.76a4,4,0,0,1-1.22-2.42c.57-5.61.82-11.37,5.26-15.72a6.74,6.74,0,0,1,3.41-2,4.18,4.18,0,0,1,4.32,1.41c1.13,1.44.62,3.05-.27,4.47-1.15,1.84-2.66,3.65-4.62,4.29-3.44,1.12-3.65,3.81-4.08,6.56-.14.91-.4,1.91.61,2.5s1.77-.28,2.49-.76c3.42-2.28,5.34-5.9,7.88-9,1.5-1.8,3.75-3.15,3.16-6.19-.21-1.1,1.09-2.06,2.06-2.76.63-.46,1.35-.88,2.19-.32s.75,1.35.55,2.13c-.25,1-1.09,2-.67,3.05.85,2.22,0,6.15,1.8,6.53,2.66.56,5.83-1.66,7.32-4,2.41-3.76,7-5.2,8.9-9.39a3.07,3.07,0,0,1,4.15-1.45c2.08.89,3.61,2.45,3.59,4.83A44.32,44.32,0,0,1,218,68.1c2.79.1,5.55.55,4.79-3.93-.22-1.31,1-2.42,2.1-3.22a1.88,1.88,0,0,1,2.22-.26,1.52,1.52,0,0,1,.61,2.06,8,8,0,0,0-.47,1.1c-.6,3-.32,6.66,1.39,8.32s4.2-1.65,6.39-2.7c1-.46,1.86-2.35,2.91-.92.79,1.08-.77,2-1.66,2.77a11.44,11.44,0,0,1-1.65,1.12c-3.33,1.92-6,3.65-5.67,8.62.31,5.3-4.8,8.3-9.39,6.6-3.31-1.23-4.18-4.16-2-6.94a19.41,19.41,0,0,1,5.23-4.3c1.1-.68,2-1.34,1.38-2.83s-.37-4.37-1.63-4.17c-2.14.35-4.89-.06-6.49,2.33a38.87,38.87,0,0,1-3.51,4.33c-1.89,2.1-3.93,4.1-7.13,3.44C202.73,79,201.46,77.2,200.48,73Zm4.32,1.62c-.24,3,.8,3.32,2.8,2.31a12.81,12.81,0,0,0,4.93-5.08c.33-.53.64-1-.08-1.69-3.42-3.23-4.88-2.92-6.67,1.58C205.33,72.87,205,74,204.8,74.66ZM216,62.13c-.16-1.25.31-2.57-1.22-2.81s-4.24,4.62-4.38,7.47c-.08,1.59.58,2.35,2,2.05C216.47,68,214.63,64.11,216,62.13Zm8.71,16c-2.41,1.27-4.42,2.47-5.71,4.61-1,1.6-.3,2.32,1.33,2.09C224.13,84.36,224.74,81.66,224.75,78.17Zm-33.57-.37c-2.67,1.68-4.61,2.77-5.88,4.68a2.41,2.41,0,0,0-.41,1.83c.34.92,1.33.66,2.07.51C190.33,84.16,190.49,81.42,191.19,77.8Zm-13.92-9.1c2.74-1.25,5-2.8,4-6.93C178.82,63.76,178.12,66.28,177.26,68.71Z"/><path class="cls-1" d="M148.33,66.74a75.81,75.81,0,0,1,14.5-21.85c1.6-1.65,3.17-4.12,6-2.64s2.95,4.19,2.61,7c-.54,4.49-3,7.9-6.28,10.77-1,.85-2,1.61-3.15,2.49,5.77,2.61,7,5.76,4.57,11.43-3.83,9-18.26,15.73-26.92,11.93a41,41,0,0,0,16.71-7.22,19.12,19.12,0,0,0,6-6.79,4.7,4.7,0,0,0,0-4.94c-1.07-1.61-2.58-1.29-4.28-.93-2.19.46-4.39.3-3.79-3,5.89-2.73,9.41-7.61,11.89-13.36.44-1,.93-2.65-.11-3.36-1.28-.86-2.07.71-2.83,1.51A70.68,70.68,0,0,0,153.17,62c-3.46,4.67-5.11,10.14-6.77,15.59-.48,1.59-.26,3.94-2.69,3.63-2.23-.28-2.65-2.42-2.61-4.36a63.59,63.59,0,0,1,4.71-22.46c1.68-4.15,3-8.56,6.61-11.67.9-.78,1.76-1.84,3.07-.73s1,2.32.09,3.5c-4.65,6.06-6.65,13.18-8.24,20.46,0,.67-1.32,1.22-.5,1.81S148.11,67.51,148.33,66.74Z"/><path class="cls-1" d="M259,63.76c4.32-6.9,8.89-13.62,14.61-19.47,1.09-1.11,2.15-2.65,4-2s1.76,2.49,2.17,4c.7,2.54.12,5.11-.3,7.54-1.7,9.83-5.09,19.05-11.89,26.57-4.09,4.52-7.92,3.71-11.13-1.85,5.62,2.6,6,2.45,9.36-3.47A99.36,99.36,0,0,0,275.69,49a20.66,20.66,0,0,0,.29-2.67c-1.54-.55-2.16.54-2.78,1.28-9,10.81-16.94,22.26-20.26,36.25-.33,1.41-.88,2.22-2.39,1.95-2.23-.4-2.64-2-2.39-3.9a101.63,101.63,0,0,1,3.22-14.78,87.19,87.19,0,0,1,8.71-21.33c.81-1.36,1.68-3.48,3.95-1.88,1.94,1.37,1,2.91.13,4.54a78,78,0,0,0-6.06,14.31c-.26.62-.89,1.26-.06,1.86C258.12,64.72,258.68,64.08,259,63.76Z"/><path class="cls-1" d="M385.23,55.86c2-.39,2.73-2.27,3.68-3.67a49,49,0,0,1,5.53-6.29c1.31-1.37,2.8-2.81,4.86-1.82S402.22,47,402,49.4c-.58,6.72-4.21,11.79-9.23,15.72-3.37,2.64-6.82,5.68-11.57,5.76-1.67,0-1.79,1.41-2.16,2.44a72.88,72.88,0,0,0-2.41,7.6c-.42,1.74-1.27,2.72-3,2.39-1.91-.36-1.92-1.84-1.59-3.43a112.51,112.51,0,0,1,8.65-26c1.31-2.75,2.18-5.73,4.16-8.15.75-.92.87-3,2.72-1.81,1.47.95,1.1,2.54.41,4-.94,1.9-1.94,3.78-2.81,5.72C384.9,54.22,384.23,55,385.23,55.86Zm-1.08.7c-.47.44-1,1.12-.42,1.53s.88-.51,1.22-.95.85-1,0-1.38C384.47,55.53,384.24,56.09,384.15,56.57Zm-2.39,11.34c7.49-1.53,16.18-13.26,14.73-20.24A59.58,59.58,0,0,0,381.76,67.91Z"/><path class="cls-4" d="M47.25,89.21c-2.93,4.37-5.37,5-10.2,1.88a41.05,41.05,0,0,0-9.68-4.6,30.83,30.83,0,0,1-7.32-3.2c5.31-4.72,8.59-4.92,13.71.05,1.73,1.68,3.2.42,4.65.65C42.24,84.58,44.15,87.79,47.25,89.21Z"/><path class="cls-4" d="M76.94,98.17c-6.22-2.69-12.47-5.33-18.66-8.11-2.76-1.24-6.58.3-8.45-3.23,3.43-2.7,6.9-2.5,10.38-.11a3.2,3.2,0,0,0,3,1.6l.78.19c2.93,2.71,6.27,1.08,9.47.88C75.88,91.83,77.84,94.44,76.94,98.17Z"/><path class="cls-5" d="M58.32,64,55.75,52.59c-1.1,2.56-1.8,4.3-2.6,6-.43.91-1.1,1.89-2.26,1.37s-.83-1.5-.3-2.51c.79-1.51,1.35-3.14,2-4.71,2-4.57,4.25-9.1,1.87-14.28A2.53,2.53,0,0,1,55,35.26c.85,1,1.3,2.47,2.84,2.82-.88,9.24-.65,18.34,3.29,27-.09,1.1,0,2.82-1.32,2.65C57.72,67.46,59.21,65.1,58.32,64Z"/><path class="cls-6" d="M63.25,88.32a3.2,3.2,0,0,1-3-1.6c1.41-5.69-1.54-11.33-.06-17.06C63.29,75.54,62.91,82,63.25,88.32Z"/><path class="cls-6" d="M49,61.35c3.86.16.19,2.46,1,3.49-6.7,12.81-6.7,12.81-9.74,13.65L46,67.65C47.15,65.61,48.61,63.73,49,61.35Z"/><path class="cls-1" d="M519.18,55.92a35.66,35.66,0,0,0-2,3.18c-.76,1.55-1.81,3.84-3.39,3-2-1,.39-2.61.77-4a9.93,9.93,0,0,0,.52-3.08c0-1.38.93-1.81,2.16-1.56A2.29,2.29,0,0,1,519.18,55.92Z"/><path class="cls-2" d="M73.5,89.39c-3.2.2-6.54,1.83-9.47-.88C67.39,86.64,70.6,86.33,73.5,89.39Z"/><path class="cls-1" d="M542.33,69.41l0,.13s-.1,0-.09-.05Z"/><path class="cls-7" d="M413.69,80c.4-.39.85-.62,1.24-.05s-.26.86-.51,1.24Z"/><path class="cls-8" d="M135.83,31.44c.84,2.21-1.22,2.38-2.3,2.91q-36.32,17.94-72.79.21c-1.27-.62-3.28-1-2.85-3.25,3.45.91,7,.53,10.41.29,14.37-1,28.74-1.82,43.15-1C119.57,31.13,127.66,32.44,135.83,31.44Z"/><path class="cls-9" d="M135.83,31.44c-8.16,1-16.26-.3-24.37-.79-14.42-.87-28.78,0-43.15,1-3.46.24-7,.62-10.41-.29C68.9,30.26,79.07,25.47,90,24a47.86,47.86,0,0,1,20.28,1.21A216.16,216.16,0,0,0,135.83,31.44Z"/><path class="cls-7" d="M295.9,74.1c.26-.22.68-.66.74-.62.51.37.3.85.07,1.31Z"/><path class="cls-7" d="M259,63.76c-.34.32-.9,1-1,.91-.83-.6-.21-1.23.06-1.86Z"/></svg>