<svg xmlns="http://www.w3.org/2000/svg" viewBox="0 0 600 185.5"><defs><style>.cls-1{fill:#fefefe;}.cls-2{fill:#fdce12;}.cls-3{fill:#111112;}.cls-4{fill:#090a0a;}.cls-5{fill:#face21;}.cls-6{fill:#6e6d6d;}.cls-7{fill:#f4d43c;}.cls-8{fill:#1b1c1c;}.cls-9{fill:#fcf9e6;}.cls-10{fill:#fbfcf1;}.cls-11{fill:#f0dc6c;}.cls-12{fill:#f9f5d3;}.cls-13{fill:#fbfbfb;}.cls-14{fill:#ececec;}</style></defs><g id="Capa_2" data-name="Capa 2"><g id="Capa_1-2" data-name="Capa 1"><path class="cls-1" d="M300,.05Q151.18.05,2.34,0C.46,0,0,.4,0,2.31Q.09,92.87,0,183.42c0,1.71.32,2.08,2.07,2.08q297.93-.08,595.84,0c1.72,0,2.09-.32,2.09-2.06q-.09-90.55,0-181.11C600,.46,599.6,0,597.67,0Q448.84.09,300,.05ZM594.89,176.87c-.35.66-.77,1-1.46.37l-.6.09c-2.45.71-4.29-1-6.41-1.61-1.38,1.49-2.8,1.69-4.25.1a4.59,4.59,0,0,0-2.15-1.06c-1.47-.49-3.65-.47-3.41-3-1.44,0-3.36.61-3-2a6.35,6.35,0,0,0-3-1.12c-.08.9,0,1.84-.88,2.47-.42.28-.93.78-1.09,0-.35-1.7-2-1.94-3-2.13-2.14-.41-2.2-1.66-2.16-3.23v0c-.9.15-2.41-.38-2.61.32-.76,2.61-2.18,1-3.31.68-1.34-.34-2.49-1.29-4-1-.81.14-1.23-.39-1.24-1.21s0-1.84,0-2.77c-4.44-1.38-9.09-2.16-13.21-4.49-.75.53-1.24,1.66-2.4,1.28-.94-.31-.5-1.24-.61-1.91-2.9-1-5.75-2.19-8.72-2.92-7.65-1.88-15.09-4.47-22.77-6.28-4.67-1.1-9.29-2.44-13.93-3.67a55.86,55.86,0,0,0-11.42-2.3c0,.55.23,1,.85,1.05,1,.12,1.41.71.94,1.54s-1.07.42-1.74.1c-1.73-.84-2.76-2.43-4.13-3.65l-4.62-1.15c-3.91-1-8-1.3-11.81-2.73-1.28-.49-2.95.41-3.91-1.13h0c-3.92.41-7.73-.75-11.4-1.57-6.31-1.41-12.68-2.35-19-3.52a5.45,5.45,0,0,0-2.3.66c-2,1.11-3.55.32-3.79-1.68h0c-1.36-.28-3.05.91-4.08-.89a31.31,31.31,0,0,1-3.52-.36,159.62,159.62,0,0,0-19.41-2.75c-3.86-.3-7.67-.91-11.47-1.42-7.48-1-15-1.79-22.5-2.58-4.93-.52-9.86-1.41-14.86-1.25-.61,0-1.21,0-1.38-.78v0c-5.79-.26-11.57-.22-17.38-.82-7.16-.74-14.42-.66-21.63-1.22-1.69-.13-3.38-.08-5.07-.11H259.88v0c.19,1.44-.31,2.17-1.91,2.05a30,30,0,0,0-4.24,0c-1.57.12-2.13-.55-2-2l-6.58,0c.23,1.72,2.15.31,3,2h-4.53c-.16,1.22-1.11,1-1.91,1-2.07,0-4.14,0-6.21,0-1.08,1.93-2.41.82-3.68.51,1.18-.75,2.45-.4,3.68-.51.17-1.22,1.12-1,1.91-1,2.07,0,4.14,0,6.21,0-.47-1.74-1.91-.73-2.9-1-1.71-.48-3.78,1-5.22-.93l-3-.14-.5.11a1.12,1.12,0,0,1-1.28.93l-11.1-.12c-8.25-.17-16.42,1.52-24.69,1.17h0c-.22.87-.92.83-1.59.81-5.6-.15-11.14.61-16.68,1.21-1.5,1.8-3.54,2.59-5.62,1.71a14.84,14.84,0,0,0-3.56-.73c-6.92,0-13.7,1.48-20.53,2.27-2.76.32-5.61.55-8.39,1.13-4.84,1-9.72,1.82-14.61,2.54-2.16.31-4.48.66-6.55-.07-3.57-1.27-7.31-1.77-10.93-2.77-5.16-1.42-10.34-2.79-15.58-3.86-4.83-1-9.41-3-14.38-3.42A22.11,22.11,0,0,1,72,116.84c-.64-.2-1.29-.56-1.13-1.42s.64-1,1.42-1.13c6.12-.9,12.21-2,18.31-2.87,9-1.37,18.15-2.2,27.22-3.26.31-2,1.8-2.81,3.72-1.68a5.15,5.15,0,0,0,4.6.45c3.89-1.68,8-.77,12-1.54,5.22-1,10.77-.27,16.17-.28l.52,0c2.4-1,4.67-2.77,7.45-1.54a3.44,3.44,0,0,0,2.1.53c3.4-.79,6.8.24,10.2-.07.18-.67-.14-1.92.89-1.77,1.89.26,3.32-1.36,5-1.09,3.63.57,7.12-.57,10.84-.25C204.1,102,217,100,229.76,102c4.62.72,9.18-1.68,13.89-1a8.66,8.66,0,0,0,4.17.49c1.57-.23,4.05-.33,5.49,1.53,2.34.19,5-.73,6.62,2l0,.09,11.62.12c.69,0,1.36,0,1.68.8,6.42-.41,12.74,1.18,19.14,1.09,4.45.24,8.95-.84,13.34.85a4,4,0,0,0,3.11-.39c1.94-1,3.89-.91,4.94,1.51,5,.64,10.11,1.35,15.16,1.82,7.09.67,14.13,1.84,21.23,2.44,5.25.44,10.36,2,15.69,1.89h1.46c2-.44,4.06-.21,6.16-.74a22.87,22.87,0,0,1,11,0,8.61,8.61,0,0,0,5.69,0,10.41,10.41,0,0,1,6.5.14c-3.16.48-6.1,2-9.41,1.56a4.65,4.65,0,0,0-4.47,1.94c2.55-.14,4.86,1.3,7.41,1.15,1.67,0,3.47-.4,5,.08,1.34.44,2.25.87,3.59,0,.72-.48,2.6-.52,2.79.12.56,2,2.62,1.53,3.57,2.69,4.76.31,9.33,1.71,14,2.46a65.09,65.09,0,0,1,7.33,1.29,71.89,71.89,0,0,0,12.12,2.44c1.48-1.74,2.53-1.5,4.1.93,1.36.3,2.83.18,4.07,1l2,.13c2-2.83,2,.76,3.07.9l1,.15c.25-1.53,1.48-1.32,2.32-1a55.73,55.73,0,0,0,6.95,2.12c1.23.29,3.21,0,4,1.79,1.45,0,2.73.68,4.1,1q5.9,1.52,11.8,3c3.78.95,7.52,2.24,11.32,2.87,6.29,1,12.18,3.35,18.3,4.87,4.41,1.09,8.78,2.31,13.16,3.48,2,.08,3.8-2.11,6-.73-.11.94-1.36.31-1.4,1.25.42.64,1.77.19,1.73,1.4,5,1.12,9.61,3.46,14.67,4.62,7,1.6,13.62,4.41,20.28,7.05a4.93,4.93,0,0,1,4-.72c2.27.31,4,.14,2.72,3.12l11.08,4.16c1,0,2,0,3-.05,2.15-.23,1.88.74,1.09,2l.18.09.2,0c.48-.12,1.11-.09,1.41-.39,1.65-1.71,2.86.14,3.9.71,1.24.68-.54,1.6-.56,2.51l0,.13,1.93.08c1.32-.27,2.53.12,2.74,1.43.12.76-1,.4-1.65.49ZM336,80.8l0,0c-.14,3.29-2.66,1.86-4.16,1.86-2.7,0-5-3.81-3.95-6.18,1.66-3.86,3-4.15,7.25-2.92,2.63.76,1.89,3,2.75,4.48C338.52,79.23,337.25,80.29,336,80.8Zm15.21-49c-2.45,7.15-4.77,13.61-6.84,20.13-.57,1.78-1.36,2.15-3.13,2.29-2.83.22-4.45-.49-4.84-3.48a20.26,20.26,0,0,0-1.2-3.57c-1.61-4.9-3.2-9.81-4.81-14.72C329,38.26,328.19,44,327.21,49.7c-.79,4.54-.87,4.43-5.55,4.49-1.79,0-2.08-.5-1.8-2.13,1.68-9.68,3.26-19.38,4.9-29.08.8-4.8.82-4.73,5.7-4.78,1.44,0,2.11.39,2.49,1.77.6,2.18,1.37,4.32,2.09,6.47,1.79,5.37,3.59,10.73,5.6,16.74,2.43-7.24,4.62-13.81,6.82-20.37,1.61-4.8,1.61-4.77,6.71-4.59,1.08,0,1.6.2,1.76,1.46.44,3.41,1.09,6.8,1.66,10.2,1.26,7.46,2.5,14.92,3.78,22.37.22,1.3.12,1.94-1.54,2-4.84,0-4.84.11-5.69-4.57-.1-.58-.21-1.16-.31-1.74C353,42.76,352.15,37.63,351.2,31.81ZM249.6,31.6l-.51.11V49.33c0,5,0,4.94-5.11,4.86-1.54,0-1.78-.6-1.77-1.93,0-10.76,0-21.53,0-32.3,0-.56-.21-1.22.33-1.66,1.06-.86,6.34.1,7.14,1.3q3.78,5.67,7.53,11.36,3.31,5,6.64,10c.51-6.07.51-12,.51-17.92,0-5.23,0-5.19,5.28-4.91,1.09.06,1.43.32,1.43,1.42,0,11.11,0,22.21,0,33.31,0,.46.18,1-.43,1.3-1.7.84-6.25-.39-7.34-2Zm188.74,9.46.54-.28V22.93c0-4.8,0-4.75,4.91-4.72,1.38,0,1.89.3,1.88,1.79-.06,10.85,0,21.7,0,32.54,0,.48.19,1-.25,1.43-.88.79-6.49-.06-7.19-1.12-2.87-4.35-5.72-8.71-8.6-13.06-1.81-2.74-3.66-5.45-5.63-8.37-.26.57-.38.72-.38.86q0,8.72-.05,17.41c0,4.47,0,4.33-4.41,4.52-2.17.09-2.41-.73-2.4-2.56.08-9.5,0-19,0-28.51,0-5.09,0-5.05,5-4.92A2.38,2.38,0,0,1,424,19.46c2.28,3.54,4.63,7,7,10.52ZM214.57,55a18.59,18.59,0,0,1-19-18.47c-.2-10.42,8-18.79,18.76-19.1,9.8-.27,18.5,8.45,18.66,18.73A18.56,18.56,0,0,1,214.57,55ZM516.62,36.6c.1,9.6-8.11,18.11-17.36,18.5-11.72.49-19.66-8.13-20-18.23a18.85,18.85,0,0,1,19.2-19.4C508.35,17.48,516.5,26.07,516.62,36.6ZM95.57,54c-.22-.54.09-1,.27-1.43l11.69-30.27c1.62-4.16,1.64-4,6.17-4.18,1.89-.07,2.59.62,3.19,2.27,1.8,5,3.79,9.87,5.7,14.8l7.2,18.72a2.25,2.25,0,0,1-.45.18c-6.31.45-6.36.47-8.58-5.53a2.57,2.57,0,0,0-3-2c-3.45.14-6.92.12-10.38,0a2.56,2.56,0,0,0-2.91,2c-2.32,6-2.39,5.92-8.7,5.48A.7.7,0,0,1,95.57,54Zm218.84.16h-2.05c-5.17,0-5.28,0-6.88-4.79-.72-2.2-1.83-3.07-4.14-2.77-1.57.21-3.2,0-4.81.05-2.26.1-5-.88-6.65.43-1.44,1.12-1.73,3.69-2.49,5.64-.27.7-.34,1.48-1.4,1.46-2.05,0-4.09,0-6.33,0,2.15-5.53,4.17-10.67,6.16-15.82s4.07-10.48,6-15.75c1.63-4.33,1.59-4.23,6.24-4.38,1.87-.06,2.58.64,3.19,2.26,2.47,6.6,5.09,13.15,7.65,19.71Zm-159-29.87a11.42,11.42,0,0,0-4.49.68c-4.49,1.86-7.32,5-7.73,10s1,9.31,5.7,11.71S158.48,49.13,163,46c3.52-2.45,3.49-2.5,6.51.65a.77.77,0,0,0,.17.19c1.46,1,.91,1.81-.17,2.73-3.61,3.09-7.58,5.24-12.47,5.49-7.36.37-13.7-1.84-17.71-8.14-4.32-6.79-4.23-14.08,0-21,5.51-9,18.6-11.06,28-4.63,4.3,3,4.2,2.87.68,6.52-1.37,1.43-2.11,1.23-3.4.05A12.93,12.93,0,0,0,155.42,24.27ZM546,63v.56H15.91V63ZM387.75,36.21c0-5.29.05-10.59,0-15.89,0-1.55.29-2.18,2-2.12,4.22.15,8.45.05,12.67.05,5.1,0,5.05,0,4.81,5.14-.06,1.27-.51,1.52-1.65,1.49-3.12-.06-6.25,0-9.37,0-.68,0-1.72-.36-1.75.83,0,1.75-.38,3.71.29,5.19.45,1,2.48.27,3.8.36s2.53,0,3.8,0c5,0,5,0,4.88,5,0,1.55-.62,1.75-1.93,1.72-3-.08-6.09,0-9.13,0-1.26,0-1.84.23-1.78,1.63.1,2.1.1,4.21,0,6.31-.07,1.38.49,1.7,1.77,1.64,2.1-.09,4.22,0,6.33,0,4.81,0,4.71,0,4.75,4.74,0,1.66-.55,1.91-2,1.89q-7.86-.13-15.72,0c-1.46,0-1.81-.41-1.79-1.81C387.8,47,387.76,41.6,387.75,36.21Zm-372,.08c0-5.38.08-10.77-.05-16.15,0-1.73.53-2.07,2.13-2,4.13.11,8.28,0,12.42,0,5.21,0,5.15,0,5,5.23,0,1.24-.42,1.54-1.59,1.51-3-.07-5.92.09-8.87-.07-1.89-.1-2.44.43-2.37,2.36.15,4.09,0,4.09,4.12,4.09,1.27,0,2.54,0,3.8,0,5.06,0,5,0,4.92,5,0,1.55-.61,1.76-1.92,1.73-3-.08-5.92,0-8.88-.06-1.45,0-2.17.22-2,1.9.19,2.41-.78,5.57.43,7.08s4.58.34,7,.52h.51c5,0,5,0,4.9,5,0,1.29-.3,1.71-1.66,1.69-5.32-.08-10.65-.12-16,0-1.7,0-1.89-.57-1.87-2C15.78,46.89,15.73,41.59,15.74,36.29Zm42.92-8.52c-1.44-1.43-2.54-3.21-4.81-3.48a2.84,2.84,0,0,0-3.21,1.43c-.62,1.15-.14,2.1.74,2.92s1.58,1.51,2.37,2.27c2.74,2.61,6.12,4.51,8.42,7.6A9.92,9.92,0,0,1,63.57,49c-3,6.91-13.08,8.3-18.6,2.64-3.71-3.81-3.66-4.05.76-6.76C47,44,48,43.5,48.85,45.38A5.21,5.21,0,0,0,51,47.5c1.82,1.17,4.87.94,6-.62,1.47-2,.5-3.62-1-5.07-.79-.76-1.61-1.48-2.44-2.19A55.69,55.69,0,0,1,46,32.52c-2.45-3.07-3.29-6.46-1.25-10.07C48,16.64,56.06,15.76,61,20.6c2.71,2.65,2.71,2.65,0,5.13ZM533.49,55.11c-1.69.11-4.35-.88-6.62-2.76-1.57-1.3-3.15-3-3.32-4.89-.12-1.38,2.42-1.66,3.62-2.65.06-.05.14-.08.21-.13.94-.72,1.65-.86,2.41.39a9.39,9.39,0,0,0,2.43,2.52,4.56,4.56,0,0,0,5.8-.5c1.72-1.89.86-3.56-.6-5.07a33.25,33.25,0,0,0-3-2.71,44.38,44.38,0,0,1-7.3-6.93c-3.26-4.21-2.84-9.22,1.05-12.59,4.27-3.7,10.2-2.84,15.14,1.92,1.44,1.39,1.37,2.18-.07,3.29-1.12.86-2,2.16-3.29,2.6-.5.18-1.59-1.48-2.5-2.19-1.83-1.44-4.18-1.54-5.26-.17-1.62,2.06.2,3.26,1.41,4.4,2.82,2.65,5.85,5.08,8.62,7.77,3.53,3.42,4.41,7.62,2.55,11.68C542.86,53.32,539.32,55,533.49,55.11Zm-67-15.6v9.83c0,4.91,0,4.83-4.83,4.84-1.59,0-1.94-.44-1.93-2,.09-8.41,0-16.81.08-25.21,0-1.58-.33-2.2-2.07-2.19-4.48,0-4.48-.07-4.43-4.49a4.34,4.34,0,0,0,0-.51c-.15-1.19.33-1.61,1.56-1.6,5.49.06,11,.07,16.46,0,1.4,0,1.64.51,1.66,1.76.1,4.72.15,4.8-4.59,4.84-1.66,0-1.95.64-1.93,2.08C466.57,31.1,466.52,35.31,466.52,39.51ZM76.7,39.63c0-4.21-.06-8.42,0-12.62,0-1.53-.2-2.22-2-2.19-4.49.08-4.49,0-4.38-4.53a2.9,2.9,0,0,0,0-.51c-.19-1.39.51-1.67,1.78-1.66q8.11.09,16.24,0c1.24,0,1.51.41,1.56,1.58.18,5,.23,5.12-4.5,5.11-1.84,0-2,.78-2,2.27.06,7.4,0,14.81,0,22.22,0,5,0,5-5,4.89-1.58,0-1.73-.64-1.71-1.93C76.74,48.05,76.7,43.84,76.7,39.63ZM186.12,36v13.6c0,4.59,0,4.47-4.58,4.64-2,.07-2.34-.56-2.32-2.38.09-9.66,0-19.32,0-29,0-4.83,0-4.76,4.94-4.76,1.58,0,2,.46,2,2C186.07,25.37,186.13,30.67,186.12,36Zm183.72.47V22.81c0-4.58,0-4.45,4.52-4.62,2.05-.07,2.3.66,2.29,2.43-.09,9.58,0,19.16,0,28.74,0,4.87,0,4.77-4.86,4.84-1.81,0-1.95-.69-1.93-2.14C369.88,46.85,369.84,41.64,369.84,36.43Zm83,44.33.55-.08c1.1-3.24,2.27-6.46,3.27-9.74.38-1.26,1.13-1.48,2.24-1.49s1.58.64,1.74,1.69c.73,4.56,1.52,9.12,2.24,13.68.12.75.53,1.79-.89,1.86-1.12,0-2.07.16-2.24-1.53-.28-2.74-.92-5.44-1.4-8.16a56.07,56.07,0,0,0-2.86,7.15c-.42,1.15-.34,2.66-2.41,2.61s-1.8-1.49-2.19-2.55c-.86-2.37-1.59-4.78-2.37-7.18a38.94,38.94,0,0,0-1.81,8.21c-.19,1.73-1.28,1.48-2.34,1.43-1.47-.07-.92-1.09-.8-1.85.68-4.4,1.35-8.81,2.07-13.2.15-.9-.12-2.11,1.51-2.14,1.35,0,2.15.29,2.57,1.73C450.68,74.41,451.81,77.58,452.86,80.76ZM248.53,78.07h0V75.54c0-6.64.57-7.1,7.22-5.73,4.16.85,6.44,4.4,6.19,9.61-.2,4.18-2.75,6.83-7,7.17-1.43.11-2.88,0-4.3.11-1.64.16-2.28-.37-2.17-2.08C248.64,82.44,248.53,80.25,248.53,78.07ZM409,79.88l-.62.13c0,1.62-.05,3.25,0,4.87.05,1.2-.21,1.85-1.64,1.85s-1.67-.62-1.65-1.83c.06-3.28,0-6.55.05-9.82.06-1.8-.9-4.35.47-5.23,1.72-1.09,4.28-.42,6.4.08,3.33.79,4.89,5.41,2.3,7.61-2,1.71-1.35,2.94-.48,4.56.55,1,1.07,2.09,1.64,3.11s.17,1.43-1,1.48a2.28,2.28,0,0,1-2.59-1.43C411.06,83.41,410,81.67,409,79.88ZM179.61,69.58c1.41-.37,1.8.57,2.19,1.56,1.77,4.54,3.5,9.1,5.35,13.61.65,1.57.43,2.06-1.35,2A1.94,1.94,0,0,1,183.74,85c-.24-.92-.33-2.2-1.78-2-2.61.31-6.08-1.55-7.08,3-.29,1.32-2,.94-2.87.57s-.12-1.31.11-1.93c1.71-4.47,3.49-8.93,5.21-13.4C177.75,70.06,178.22,69.15,179.61,69.58ZM90.45,86.42c.21-.65.34-1.13.52-1.59,1.77-4.64,3.61-9.26,5.29-13.92.45-1.25,1.2-1.39,2.3-1.42a2,2,0,0,1,2.2,1.55c1.68,4.58,3.41,9.15,5.23,13.67.82,2-.21,2.06-1.73,2-1.14-.07-1.41-.93-1.58-1.69-.4-1.77-1.46-2.26-3.13-2a14.45,14.45,0,0,1-2.79,0c-1.25-.09-2.14.2-2.38,1.61C94,86.8,92.55,87.08,90.45,86.42Zm278-16.88c1.27-.25,1.76.46,2.17,1.54,1.73,4.54,3.58,9,5.29,13.58.21.55,1.25,1.45.12,1.87-.91.35-2.2.62-2.93-.6-.33-.58-.51-1.24-.8-1.85-.2-.44-.28-1.07-.9-1.08a45,45,0,0,0-5.81,0c-1.38.15-1.11,1.7-1.5,2.63-.6,1.46-1.87,1.14-2.8,1-1.47-.29-.42-1.36-.2-2,1.69-4.56,3.49-9.08,5.18-13.64C366.72,69.92,367.26,69.3,368.49,69.54Zm130.1,0c1.29-.28,1.88.36,2.3,1.45,1.77,4.63,3.54,9.26,5.43,13.85.77,1.89-.21,1.92-1.6,1.91s-1.39-1-1.78-1.79-.3-1.85-1.39-1.9a30.45,30.45,0,0,0-5.81.06c-1.25.18-1,1.77-1.44,2.72-.67,1.4-2,1-2.89.77-1.29-.31-.25-1.28-.05-1.82,1.68-4.58,3.44-9.13,5.17-13.69C496.9,70.08,497.27,69.14,498.59,69.51ZM290.87,78.24V76.73c0-7.63,0-7.61,7.6-7.19,1.1.07,1.69.24,1.68,1.54s-.4,1.84-1.74,1.7c-.92-.09-1.86,0-2.79,0s-1.62.1-1.59,1.33.29,1.78,1.56,1.7c1,0,2,0,3,0s1.54.31,1.5,1.42,0,1.88-1.42,1.75c-.92-.08-1.87.06-2.79,0-1.44-.13-1.83.47-1.92,1.87-.13,2,.4,3,2.61,2.67a15.27,15.27,0,0,1,2.53,0c1,0,1,.73,1,1.41s.34,1.76-.83,1.76c-2.69,0-5.69.87-7.95-.38-1.36-.74-.29-3.59-.44-5.48C290.81,79.93,290.87,79.09,290.87,78.24ZM16,78.31V75c0-5.93.91-6.61,6.81-5.15,2.37.59,3.55,2.2,3.51,4.83,0,2.24-1.5,4.52-3.65,4.41-3.65-.19-3.62,1.8-3.37,4.3,0,.58-.05,1.18,0,1.76.14,1.32-.59,1.5-1.68,1.53s-1.68-.39-1.65-1.59C16,82.85,16,80.58,16,78.31Zm122.47,5.13c1.4,0,2.41.07,3.41,0,1.31-.11,2,.16,2,1.71s-.76,1.59-1.9,1.57c-2.11,0-4.23-.13-6.33,0-1.8.1-1.76-.59-1.19-1.9,1.21-2.77,2.36-5.57,3.51-8.38,1.41-3.46,1.4-3.5-2.33-3.62-1.07,0-1.75-.11-1.71-1.46,0-1.2.19-1.89,1.64-1.82a60.94,60.94,0,0,0,6.34,0c1.79-.1,2.51.07,1.54,2.12C141.7,75.38,140.2,79.29,138.45,83.44ZM539.4,87a5.57,5.57,0,0,1-4.49-1.83c-1.56-1.66-.41-2.19.87-2.9s1.4.55,2,1a2.08,2.08,0,0,0,3,.15c1-.91.43-1.9-.31-2.64-1.3-1.31-2.75-2.49-4-3.81-2-2-2.2-4.18-.61-6a4.45,4.45,0,0,1,6.53-.52c.64.51,2.07.91,1.1,2.29-.82,1.17-1.65,1.52-2.81.3a1.44,1.44,0,0,0-2.25-.1c-.87,1,0,1.68.67,2.31,1.36,1.25,2.82,2.41,4.11,3.74a4.54,4.54,0,0,1,1,5.33C543.18,86.34,541.54,87,539.4,87Zm-23.74,17.08c0,2.64.08,4.53,0,6.42-.06.85.8,2.24-1.23,2.32s-1.32-1.31-1.34-2.19c-.07-3-.07-6,0-9.07,0-.81-.65-2,.57-2.4s2.15.22,2.85,1.42c1.37,2.33,2.92,4.55,4.78,7.4v-7.23c0-.84-.15-1.64,1.2-1.68s1.41.72,1.4,1.72c0,3.28,0,6.55,0,9.83,0,.7.63,1.81-.6,2.1a2.22,2.22,0,0,1-2.73-1.15C519.15,109.2,517.57,107,515.66,104.06Zm-34,3.46c0,1.2,0,2.24,0,3.29s.28,2-1.41,2-1.23-1-1.23-1.88c0-2.6,0-5.21,0-7.82,0-4.61,0-4.61,4.66-3.87a5.79,5.79,0,0,1,1.23.29c2.24.83,3.53,4.06,1.79,5.54-2.37,2-1.08,3.39-.11,5.14.42.76,1.19,1.41,1.09,2.46C483.39,113.62,484.18,108.91,481.64,107.52Zm50.87,5c1.58-4.16,3.14-8.23,4.67-12.3.29-.79.71-1.28,1.66-1.17.72.09,1.47-.12,1.84.88,1.54,4.2,3.16,8.37,4.79,12.66-1.74.29-3,.38-3.36-1.51s-2.2-1-3.38-1.16-2.49-.59-2.88,1.15S534.28,113,532.51,112.54Zm-120.16,0c1.59-4.17,3.12-8.16,4.61-12.16a1.66,1.66,0,0,1,1.82-1.3,1.7,1.7,0,0,1,1.87,1.24c1.5,4.08,3.07,8.13,4.61,12.21-1.72.61-2.75.32-3.35-1.49-.69-2.07-2.61-.85-4-1.1-1-.19-2.05-.1-2.33,1.26C415.25,113,414,113,412.35,112.51ZM211.25,77.76A4.51,4.51,0,0,1,216,72.9c2.32,0,5.06,2.73,5,5s-2.94,4.79-5.25,4.8S211.26,80.36,211.25,77.76Zm285.23,28.08c0-7.18,0-7.18,6-6.76h.25c1-.1,1.27.42,1.29,1.35s-.38,1.33-1.33,1.28-1.69,0-2.53,0-1,.67-1.06,1.38.4,1,1.08,1c.93,0,1.86,0,2.79,0s1,.55,1.05,1.3-.18,1.3-1.09,1.28-1.53.07-2.28,0c-1.54-.17-1.51.78-1.56,1.88s.21,1.77,1.5,1.64c.67-.07,1.36,0,2,0,1.15-.1,1.37.45,1.4,1.49,0,1.24-.75,1.09-1.5,1.1a32.14,32.14,0,0,0-3.54,0c-1.91.22-2.79-.33-2.53-2.41A40.23,40.23,0,0,0,496.48,105.84Zm-34,.06c0-7.24,0-7.24,5.95-6.82a1.13,1.13,0,0,0,.26,0c1-.06,1.32.35,1.34,1.34s-.32,1.35-1.31,1.28-1.69,0-2.53,0-1,.55-1.11,1.3c-.08,1,.39,1.14,1.19,1.11s1.69,0,2.53,0c1.08-.07,1.22.49,1.22,1.39s-.25,1.24-1.14,1.19c-.67,0-1.36.07-2,0-1.51-.18-1.77.55-1.8,1.89s.51,1.75,1.76,1.62c.67-.06,1.35,0,2,0,1.09-.06,1.19.56,1.19,1.43s-.35,1.09-1.19,1.19c-6.11.74-6.36.54-6.36-5.37Zm-13.22-7.05.66.09c1.39.26,3,.89,2.78,2.31-.27,1.58-1.68,1.41-2.86.37a1,1,0,0,0-1.4.2c-.42.55-.08,1.1.4,1.52,1.08,1,2.21,1.84,3.21,2.86a4,4,0,0,1,.43,5.67,4.41,4.41,0,0,1-5.78.34c-.72-.57-2-1.21-1.19-2.36s1.67-1,2.63.13a1.56,1.56,0,0,0,2.46-.07c.55-.75.08-1.59-.61-2.21-1.18-1.08-2.42-2.1-3.49-3.28a3.06,3.06,0,0,1-.45-3.74A3.55,3.55,0,0,1,449.22,98.85Zm-394-20.57c0-2.35,0-4.71,0-7.06,0-1,.13-1.76,1.47-1.76s1.76.51,1.73,1.81c-.07,3,.12,6.06-.07,9.07-.14,2.26.26,3.58,2.92,3.12,1.13-.2,1.91.07,1.91,1.56s-.54,1.75-1.81,1.69c-1.52-.08-3-.07-4.56,0-1.21,0-1.63-.42-1.6-1.61C55.28,82.82,55.23,80.55,55.23,78.28Zm343.18,27.77h0c0-1.77,0-3.54,0-5.3,0-.86-.11-1.64,1.22-1.69,1.48,0,1.4.81,1.4,1.78,0,2.27.09,4.55,0,6.81-.11,1.81.18,3,2.37,2.53,1-.19,1.31.31,1.3,1.27s-.17,1.42-1.25,1.32a15.44,15.44,0,0,0-3,0c-1.52.17-2.14-.32-2-1.93S398.41,107.65,398.41,106.05ZM283.91,120.5V121H260.26v-.51Zm186.43,10.94c2.21,2,5.21,2,8.22,2.13.53,0,.64.72.46,1.24a.8.8,0,0,1-1.22.48c-1.48-1.21-3.2-.94-4.83-.81-1.43.1-2.24-1.06-3.48-1.27-.41-.07-.47-.64-.38-1.08S469.58,131.48,470.34,131.44ZM251.45,99.29v.5H244l0-.5Zm-23.69.52v-.5h7.42v.5Zm190.86,23.26v-.51H426v.51ZM170.21,101.26v.51H162.8l0-.51Zm8.13-2,0,.48h-7.39l0-.48Zm63.95-1.62a11.46,11.46,0,0,1-6.41-.13A11,11,0,0,1,242.29,97.62Zm-55.83-.08a9.21,9.21,0,0,1-5.89,0A9.21,9.21,0,0,1,186.46,97.54Zm-89.31,9.13a7.28,7.28,0,0,1-5.39-.12A8.64,8.64,0,0,1,97.15,106.67Zm281.18,19.1c-1.43.84-2.91.53-4.39.17A5.19,5.19,0,0,1,378.33,125.77Zm-50.08-17.1a5.75,5.75,0,0,1,4.94.1A7.13,7.13,0,0,1,328.25,108.67Z"/><path class="cls-2" d="M117.79,108.16c-9.07,1.06-18.19,1.89-27.22,3.26-6.1.92-12.19,2-18.31,2.87-.78.12-1.28.38-1.42,1.13s.49,1.22,1.13,1.42a22.11,22.11,0,0,0,4.56,1.26c5,.45,9.55,2.43,14.38,3.42,5.24,1.07,10.42,2.44,15.58,3.86,3.62,1,7.36,1.5,10.93,2.77,2.07.73,4.39.38,6.55.07,4.89-.72,9.77-1.53,14.61-2.54,2.78-.58,5.63-.81,8.39-1.13,6.83-.79,13.61-2.28,20.53-2.27,1.93-1,4-.9,6.11-1.09,1.56-1.31,3-2.79,5.31-1.24a2,2,0,0,0,2.36,0,4.08,4.08,0,0,1,2.62-.62h11c.09-.55.33-1,.95-1,3.14-.16,6.26.06,9.38-.94,2.13-.69,4.65.46,6.82-1,.53-.36,1.41-.07,2.14.35a5.06,5.06,0,0,0,5,0,4.43,4.43,0,0,1,2.16-.49l14.17,0,8.09,0c.41-1.67,1.77-1,2.71-1,14.42,0,28.84,0,43.26-.05.92,0,2.17.55,2.67-.74.91-2.37,2.47-.84,3.91-.79-1.4.5-3.25.34-2.81,2.59l3,0,20.37-.05v-2l-6.85,0c-.66,0-1.18-.2-1.19-1s.5-1,1.16-1c1.44,0,2.88.06,4.31,0s2.42.47,2.57,2h15.92c-2.69,2.11-5.37,2.8-8.36,1.19a3.32,3.32,0,0,0-3.18.06c-1.42.93-2.89.72-4.38.77.24,1.41,1.39,1.08,2.2,1,5-.63,9.91,1.19,14.86,0a1.38,1.38,0,0,1,1,.08c1.93,1.54,4.2.69,6.31.91.06-.87-.24-2.06,1.21-2s3.32-.71,4.54.63c.75.83-.05,1.32-1,1.34-1.6,0-3.19,0-4.79,0l-.06,1.09v0H355.5c-2.28-2.48-6.33-.73-6.65-4.77-.05-.54-1.21-.31-1.87-.33-1.76-.06-3.75.42-5.26-.21-5-2.11-10.32-1-15.42-1.8a1.73,1.73,0,0,0-1.39.44c-1.14.9-2.14.83-2.89-.54a3.54,3.54,0,0,0-.67-.67c-1.3,2.4-2.28-.2-3.41-.21-3.33,0-6.43-1.56-9.85-1.12a61.78,61.78,0,0,1-7.58.06c.09.7-.28,1.57.67,2,.52.22,1,.54.66,1.1s-1,.26-1.33,0c-1.49-1.31-3.28-1-5-1-.94,0-1.95.25-3-.4a13.42,13.42,0,0,1,8-1.61,10,10,0,0,0-7.07-1.83c-2.72.25-5.3-.45-7.95-.2a6.8,6.8,0,0,1-2.47-.34c-4.71-1.37-9.55-.74-14.29-.47-2.87.16-5.59-.58-8.4-.44-.11,0-.25-.56-.37-.85l-.07-.88,0-.09c-5.44,0-10.91.27-16.28-1l-3-.06-61.89.07a200.91,200.91,0,0,1-23.91,1l-.52,0a4.58,4.58,0,0,1-2.45.35c-4.76.35-9.52.79-14.28,1C131,106.8,124.46,108.45,117.79,108.16Zm166.48,3.53c-2.28-.21-4.46.82-6.75.51-.74-.1-1.37-.2-1.29-1.13.07-.78.66-.88,1.28-.88,1.85,0,3.7,0,5.55,0,1.07,0,1.22.68,1.21,1.5.61,0,1.19.21,1.31.9.07.4-.31.59-.65.52C284.14,112.93,284.32,112.25,284.27,111.69Z"/><path class="cls-3" d="M351.2,31.81c.95,5.82,1.79,11,2.63,16.08.1.58.21,1.16.31,1.74.85,4.68.85,4.59,5.69,4.57,1.66,0,1.76-.65,1.54-2-1.28-7.45-2.52-14.91-3.78-22.37-.57-3.4-1.22-6.79-1.66-10.2-.16-1.26-.68-1.42-1.76-1.46-5.1-.18-5.1-.21-6.71,4.59-2.2,6.56-4.39,13.13-6.82,20.37-2-6-3.81-11.37-5.6-16.74-.72-2.15-1.49-4.29-2.09-6.47-.38-1.38-1.05-1.78-2.49-1.77-4.88.05-4.9,0-5.7,4.78-1.64,9.7-3.22,19.4-4.9,29.08-.28,1.63,0,2.16,1.8,2.13,4.68-.06,4.76.05,5.55-4.49,1-5.71,1.82-11.44,3.17-17.24,1.61,4.91,3.2,9.82,4.81,14.72a20.26,20.26,0,0,1,1.2,3.57c.39,3,2,3.7,4.84,3.48,1.77-.14,2.56-.51,3.13-2.29C346.43,45.42,348.75,39,351.2,31.81Z"/><path class="cls-3" d="M249.6,31.6l13.7,20.5c1.09,1.64,5.64,2.87,7.34,2,.61-.31.43-.84.43-1.3,0-11.1,0-22.2,0-33.31,0-1.1-.34-1.36-1.43-1.42-5.28-.28-5.28-.32-5.28,4.91,0,5.92,0,11.85-.51,17.92q-3.31-5-6.64-10-3.77-5.68-7.53-11.36c-.8-1.2-6.08-2.16-7.14-1.3-.54.44-.33,1.1-.33,1.66,0,10.77,0,21.54,0,32.3,0,1.33.23,1.9,1.77,1.93,5.11.08,5.11.16,5.11-4.86V31.71Z"/><path class="cls-4" d="M438.34,41.06,431,30c-2.33-3.5-4.68-7-7-10.52a2.38,2.38,0,0,0-2.22-1.24c-5-.13-5-.17-5,4.92,0,9.51,0,19,0,28.51,0,1.83.23,2.65,2.4,2.56,4.4-.19,4.4-.05,4.41-4.52q0-8.7.05-17.41c0-.14.12-.29.38-.86,2,2.92,3.82,5.63,5.63,8.37,2.88,4.35,5.73,8.71,8.6,13.06.7,1.06,6.31,1.91,7.19,1.12.44-.4.25-.95.25-1.43,0-10.84,0-21.69,0-32.54,0-1.49-.5-1.78-1.88-1.79-4.91,0-4.91-.08-4.91,4.72V40.78Z"/><path class="cls-3" d="M214.57,55A18.56,18.56,0,0,0,233,36.2c-.16-10.28-8.86-19-18.66-18.73-10.74.31-19,8.68-18.76,19.1A18.59,18.59,0,0,0,214.57,55Zm-.23-6.88c-7.05,0-12.06-4.77-12.17-11.65a11.77,11.77,0,0,1,12-12.23c6.89,0,12,5.17,12,12.21C226.18,43.22,221.21,48.13,214.34,48.16Z"/><path class="cls-3" d="M516.62,36.6c-.12-10.53-8.27-19.12-18.16-19.13a18.85,18.85,0,0,0-19.2,19.4c.34,10.1,8.28,18.72,20,18.23C508.51,54.71,516.72,46.2,516.62,36.6ZM497.68,24.27a12.08,12.08,0,1,1,.41,24.16A11.85,11.85,0,0,1,486,36.53,11.81,11.81,0,0,1,497.68,24.27Z"/><path class="cls-5" d="M260,106.05c.12.29.26.85.37.85,2.81-.14,5.53.6,8.4.44,4.74-.27,9.58-.9,14.29.47a6.8,6.8,0,0,0,2.47.34c2.65-.25,5.23.45,7.95.2a10,10,0,0,1,7.07,1.83h0a61.78,61.78,0,0,0,7.58-.06c3.42-.44,6.52,1.11,9.85,1.12,1.13,0,2.11,2.61,3.41.21a3.54,3.54,0,0,1,.67.67c.75,1.37,1.75,1.44,2.89.54a1.73,1.73,0,0,1,1.39-.44c5.1.83,10.41-.31,15.42,1.8,1.51.63,3.5.15,5.26.21.66,0,1.82-.21,1.87.33.32,4,4.37,2.29,6.65,4.77H341c.17.77.77.8,1.38.78,5-.16,9.93.73,14.86,1.25,7.5.79,15,1.57,22.5,2.58,3.8.51,7.61,1.12,11.47,1.42a159.62,159.62,0,0,1,19.41,2.75,31.31,31.31,0,0,0,3.52.36,6.1,6.1,0,0,1,4.08.89h0l4,0A59,59,0,0,1,438,131.28a32.14,32.14,0,0,0,7.06,1.29,19.11,19.11,0,0,1,6,1.15c1.17.42,3.22-.2,3.75,1.75h7.62l0,0c-.33-1.5-1.57-.83-2.45-1s-2,.41-2.05-1.09h0a23,23,0,0,1-2.75,0c-.86-.09-2.15.59-2.33-1h0c-2.32.17-4.62.28-6.13-2-1.24-.79-2.71-.67-4.07-1s-3,.61-4.1-.93A71.89,71.89,0,0,1,426.41,126a65.09,65.09,0,0,0-7.33-1.29c-4.69-.75-9.26-2.15-14-2.46-3,0-5.79-.87-8.62-1.51-2.09-.47-4.42.08-6.3-1.36-2.55.15-4.86-1.29-7.41-1.15-3.29.2-6.4-.91-9.56-1.48-2-.36-4.25.26-5.91-1.42h-.57a.58.58,0,0,1-.89,0c-5.33.13-10.44-1.45-15.69-1.89-7.1-.6-14.14-1.77-21.23-2.44-5.05-.47-10.11-1.18-15.16-1.82a36.63,36.63,0,0,1-8.75-.53c-4.18-.77-8.52-.17-12.64-1.44-6.4.09-12.72-1.5-19.14-1.09Z"/><path class="cls-4" d="M95.57,54a.7.7,0,0,0,.23.08c6.31.44,6.38.47,8.7-5.48a2.56,2.56,0,0,1,2.91-2c3.46.11,6.93.13,10.38,0a2.57,2.57,0,0,1,3,2c2.22,6,2.27,6,8.58,5.53a2.25,2.25,0,0,0,.45-.18l-7.2-18.72c-1.91-4.93-3.9-9.83-5.7-14.8-.6-1.65-1.3-2.34-3.19-2.27-4.53.15-4.55,0-6.17,4.18L95.84,52.55C95.66,53,95.35,53.44,95.57,54Zm21.8-14h-8.05c-.73,0-1.46,0-1-1.06,1.38-3.49,2.78-7,4.39-10.95Z"/><path class="cls-4" d="M314.41,54.14l-5.47-14c-2.56-6.56-5.18-13.11-7.65-19.71-.61-1.62-1.32-2.32-3.19-2.26-4.65.15-4.61.05-6.24,4.38-2,5.27-4,10.5-6,15.75s-4,10.29-6.16,15.82c2.24,0,4.28,0,6.33,0,1.06,0,1.13-.76,1.4-1.46.76-2,1.05-4.52,2.49-5.64,1.67-1.31,4.39-.33,6.65-.43,1.61-.06,3.24.16,4.81-.05,2.31-.3,3.42.57,4.14,2.77,1.6,4.84,1.71,4.8,6.88,4.79ZM292.26,39.93c1.64-4.12,3.12-7.82,4.79-12,1.55,3.9,2.84,7.24,4.2,10.56.44,1.08.27,1.52-1,1.49C297.73,39.89,295.2,39.93,292.26,39.93Z"/><path class="cls-3" d="M155.42,24.27a12.93,12.93,0,0,1,9.16,3.59c1.29,1.18,2,1.38,3.4-.05,3.52-3.65,3.62-3.56-.68-6.52-9.36-6.43-22.45-4.37-28,4.63-4.21,6.89-4.3,14.18,0,21,4,6.3,10.35,8.51,17.71,8.14,4.89-.25,8.86-2.4,12.47-5.49,1.08-.92,1.63-1.73.17-2.73a.77.77,0,0,1-.17-.19c-3-3.15-3-3.1-6.51-.65-4.55,3.16-9.42,3.11-14.13.68s-6.11-6.72-5.7-11.71,3.24-8.13,7.73-10A11.42,11.42,0,0,1,155.42,24.27Z"/><path class="cls-6" d="M546,63H15.91v.56H546.05Z"/><path class="cls-4" d="M387.76,36.21c0,5.39,0,10.77,0,16.15,0,1.4.33,1.84,1.79,1.81q7.86-.12,15.72,0c1.46,0,2-.23,2-1.89,0-4.74.06-4.74-4.75-4.74-2.11,0-4.23-.07-6.33,0-1.28.06-1.84-.26-1.77-1.64.1-2.1.1-4.21,0-6.31-.06-1.4.52-1.66,1.78-1.63,3,.07,6.09,0,9.13,0,1.31,0,1.9-.17,1.93-1.72.09-5,.16-5-4.88-5-1.27,0-2.54.07-3.8,0s-3.35.65-3.8-.36c-.67-1.48-.33-3.44-.29-5.19,0-1.19,1.07-.82,1.75-.83,3.12,0,6.25-.06,9.37,0,1.14,0,1.59-.22,1.65-1.49.24-5.14.29-5.14-4.81-5.14-4.22,0-8.45.1-12.67-.05-1.75-.06-2.06.57-2,2.12C387.8,25.62,387.75,30.92,387.76,36.21Z"/><path class="cls-4" d="M15.73,36.29c0,5.3,0,10.6,0,15.9,0,1.43.17,2,1.87,2,5.32-.13,10.65-.09,16,0,1.36,0,1.65-.4,1.66-1.69.07-5,.12-5-4.9-5h-.51c-2.41-.18-5.72,1.08-7-.52s-.24-4.67-.43-7.08c-.13-1.68.59-1.95,2-1.9,3,.1,5.92,0,8.88.06,1.31,0,1.9-.18,1.92-1.73.06-5,.14-5-4.92-5-1.26,0-2.53,0-3.8,0-4.1,0-4,0-4.12-4.09-.07-1.93.48-2.46,2.37-2.36,3,.16,5.91,0,8.87.07,1.17,0,1.55-.27,1.59-1.51.19-5.23.25-5.23-5-5.23-4.14,0-8.29.07-12.42,0-1.6,0-2.17.3-2.13,2C15.82,25.52,15.74,30.91,15.73,36.29Z"/><path class="cls-7" d="M457.93,133.34c.07,1.5,1.25.94,2.05,1.09s2.12-.51,2.45,1c.34.19.34.36,0,.54l-.23.1.21-.13c0-.16,0-.32,0-.47h-7.63c1,1.54,2.63.64,3.91,1.13,3.81,1.43,7.9,1.71,11.81,2.73l4.62,1.15c1.38.24,3-.57,4.08,1a55.86,55.86,0,0,1,11.42,2.3c4.64,1.23,9.26,2.57,13.93,3.67,7.68,1.81,15.12,4.4,22.77,6.28,3,.73,5.82,1.94,8.72,2.92,1,.09,2.15-.26,3,.63,4.12,2.33,8.77,3.11,13.21,4.49a65.11,65.11,0,0,1,11.19,4v0c2.52.62,5.08,1.13,7.13,2.9a6.35,6.35,0,0,1,3,1.12,5.08,5.08,0,0,1,4.1,1.55.18.18,0,0,1,0,.28l1,.28c2.73,1,5.6,1.79,7.79,3.88,2.12.63,4,2.32,6.41,1.61l0-2.49,0-.13-4.75-2.83-.2,0-.18-.09c-1.66-.08-2.85-1.11-4.13-2l-11.08-4.16-6.68-2.4c-6.66-2.64-13.32-5.45-20.28-7.05-5.06-1.16-9.65-3.5-14.67-4.62a10,10,0,0,1-6.28-1.92c-4.38-1.17-8.75-2.39-13.16-3.48-6.12-1.52-12-3.82-18.3-4.87-3.8-.63-7.54-1.92-11.32-2.87q-5.91-1.49-11.8-3c-1.37-.35-2.65-1-4.11-1C463.19,134.76,460.71,132.93,457.93,133.34Z"/><path class="cls-3" d="M58.66,27.77l2.3-2c2.76-2.48,2.76-2.48,0-5.13-4.95-4.84-13-4-16.28,1.85-2,3.61-1.2,7,1.25,10.07a55.69,55.69,0,0,0,7.54,7.1c.83.71,1.65,1.43,2.44,2.19,1.52,1.45,2.49,3.09,1,5.07-1.14,1.56-4.19,1.79-6,.62a5.21,5.21,0,0,1-2.12-2.12C48,43.5,47,44,45.73,44.84c-4.42,2.71-4.47,2.95-.76,6.76,5.52,5.66,15.59,4.27,18.6-2.64a9.92,9.92,0,0,0-1.4-10.45c-2.3-3.09-5.68-5-8.42-7.6-.79-.76-1.57-1.53-2.37-2.27s-1.36-1.77-.74-2.92a2.84,2.84,0,0,1,3.21-1.43C56.12,24.56,57.22,26.34,58.66,27.77Z"/><path class="cls-3" d="M533.49,55.11c5.83-.09,9.37-1.79,11.3-6,1.86-4.06,1-8.26-2.55-11.68-2.77-2.69-5.8-5.12-8.62-7.77-1.21-1.14-3-2.34-1.41-4.4,1.08-1.37,3.43-1.27,5.26.17.91.71,2,2.37,2.5,2.19,1.25-.44,2.17-1.74,3.29-2.6,1.44-1.11,1.51-1.9.07-3.29-4.94-4.76-10.87-5.62-15.14-1.92-3.89,3.37-4.31,8.38-1.05,12.59a44.38,44.38,0,0,0,7.3,6.93,33.25,33.25,0,0,1,3,2.71c1.46,1.51,2.32,3.18.6,5.07a4.56,4.56,0,0,1-5.8.5,9.39,9.39,0,0,1-2.43-2.52c-.76-1.25-1.47-1.11-2.41-.39-.07,0-.15.08-.21.13-1.2,1-3.74,1.27-3.62,2.65.17,1.85,1.75,3.59,3.32,4.89C529.14,54.23,531.8,55.22,533.49,55.11Z"/><path class="cls-4" d="M466.52,39.51c0-4.2.05-8.41,0-12.61,0-1.44.27-2.07,1.93-2.08,4.74,0,4.69-.12,4.59-4.84,0-1.25-.26-1.78-1.66-1.76-5.48.07-11,.06-16.46,0-1.23,0-1.71.41-1.56,1.6a4.34,4.34,0,0,1,0,.51c0,4.42,0,4.51,4.43,4.49,1.74,0,2.08.61,2.07,2.19-.07,8.4,0,16.8-.08,25.21,0,1.52.34,2,1.93,2,4.83,0,4.83.07,4.83-4.84Z"/><path class="cls-4" d="M76.7,39.63c0,4.21,0,8.42,0,12.63,0,1.29.13,1.91,1.71,1.93,5.06.06,5.06.14,5-4.89,0-7.41,0-14.82,0-22.22,0-1.49.18-2.27,2-2.27,4.73,0,4.68-.09,4.5-5.11,0-1.17-.32-1.59-1.56-1.58q-8.11.09-16.24,0c-1.27,0-2,.27-1.78,1.66a2.9,2.9,0,0,1,0,.51c-.11,4.5-.11,4.61,4.38,4.53,1.82,0,2.05.66,2,2.19C76.64,31.21,76.7,35.42,76.7,39.63Z"/><path class="cls-8" d="M186.13,36c0-5.29-.06-10.59,0-15.87,0-1.54-.39-2-2-2-4.94,0-4.94-.07-4.94,4.76,0,9.65.05,19.31,0,29,0,1.82.32,2.45,2.32,2.38,4.58-.17,4.58-.05,4.58-4.64S186.12,40.49,186.13,36Z"/><path class="cls-4" d="M369.84,36.43c0,5.21,0,10.42,0,15.63,0,1.45.12,2.17,1.93,2.14,4.86-.07,4.86,0,4.86-4.84,0-9.58-.05-19.16,0-28.74,0-1.77-.24-2.5-2.29-2.43-4.51.17-4.52,0-4.52,4.62Z"/><path class="cls-6" d="M452.86,80.76c-1.05-3.18-2.18-6.35-3.12-9.56-.42-1.44-1.22-1.75-2.57-1.73-1.63,0-1.36,1.24-1.51,2.14-.72,4.39-1.39,8.8-2.07,13.2-.12.76-.67,1.78.8,1.85,1.06,0,2.15.3,2.34-1.43A38.94,38.94,0,0,1,448.54,77c.78,2.4,1.51,4.81,2.37,7.18.39,1.06.25,2.5,2.19,2.55s2-1.46,2.41-2.61A56.07,56.07,0,0,1,458.37,77c.48,2.72,1.12,5.42,1.4,8.16.17,1.69,1.12,1.58,2.24,1.53,1.42-.07,1-1.11.89-1.86-.72-4.56-1.51-9.12-2.24-13.68-.16-1-.54-1.7-1.74-1.69s-1.86.23-2.24,1.49c-1,3.28-2.17,6.5-3.27,9.74Z"/><path class="cls-9" d="M178.74,104.13l61.89-.07c.08-.87.71-1,1.4-1,1.59.14,1.71-.83,1.62-2-4.71-.73-9.27,1.67-13.89,1-12.78-2-25.66-.05-38.42-1.15-3.72-.32-7.21.82-10.84.25-1.71-.27-3.14,1.35-5,1.09-1-.15-.71,1.1-.89,1.77Z"/><path class="cls-6" d="M248.53,78.07c0,2.18.11,4.37,0,6.55-.11,1.71.53,2.24,2.17,2.08,1.42-.13,2.87,0,4.3-.11,4.24-.34,6.79-3,7-7.17.25-5.21-2-8.76-6.19-9.61-6.65-1.37-7.22-.91-7.22,5.73v2.53Zm3.09.06a25.47,25.47,0,0,0,0-3.27c-.24-1.91.68-2.36,2.33-2.07,2,.35,3.76,1,4.53,3.09a6.23,6.23,0,0,1-.77,6.21c-1.31,1.7-3.38,1.61-5.15,1.24s-.64-2.09-.89-3.19A9.63,9.63,0,0,1,251.62,78.13Z"/><path class="cls-6" d="M409,79.88c1,1.79,2.08,3.53,2.94,5.38a2.28,2.28,0,0,0,2.59,1.43c1.13,0,1.62-.32,1-1.48s-1.09-2.07-1.64-3.11c-.87-1.62-1.54-2.85.48-4.56,2.59-2.2,1-6.82-2.3-7.61-2.12-.5-4.68-1.17-6.4-.08-1.37.88-.41,3.43-.47,5.23-.1,3.27,0,6.54-.05,9.82,0,1.21.22,1.84,1.65,1.83s1.69-.65,1.64-1.85c-.07-1.62,0-3.25,0-4.87Zm.34-7.19c1.72.17,2.93.42,2.91,2s-1.17,1.57-2.32,1.67c-1.35.11-1.75-.47-1.68-1.74C408.29,73.49,408.26,72.5,409.32,72.69Z"/><path class="cls-6" d="M179.61,69.58c-1.39-.43-1.86.48-2.28,1.6-1.72,4.47-3.5,8.93-5.21,13.4-.23.62-1.11,1.52-.11,1.93s2.58.75,2.87-.57c1-4.51,4.47-2.65,7.08-3,1.45-.17,1.54,1.11,1.78,2a1.94,1.94,0,0,0,2.06,1.73c1.78.07,2-.42,1.35-2-1.85-4.51-3.58-9.07-5.35-13.61C181.41,70.15,181,69.21,179.61,69.58Zm2.2,10.29c-1.66-.18-3.57.6-3.92-.46-.52-1.57.76-3.14,1.87-5C180.51,76.42,181.1,78,181.81,79.87Z"/><path class="cls-6" d="M90.45,86.42c2.1.66,3.56.38,3.93-1.87.24-1.41,1.13-1.7,2.38-1.61a14.45,14.45,0,0,0,2.79,0c1.67-.21,2.73.28,3.13,2,.17.76.44,1.62,1.58,1.69,1.52.09,2.55.06,1.73-2-1.82-4.52-3.55-9.09-5.23-13.67a2,2,0,0,0-2.2-1.55c-1.1,0-1.85.17-2.3,1.42-1.68,4.66-3.52,9.28-5.29,13.92C90.79,85.29,90.66,85.77,90.45,86.42Zm8-12.2c.69,1.53,1,2.45,1.5,3.32,1,1.78.61,2.43-1.55,2.38-1.87,0-2.22-.59-1.46-2.17C97.37,76.78,97.76,75.78,98.42,74.22Z"/><path class="cls-6" d="M368.49,69.54c-1.23-.24-1.77.38-2.18,1.49-1.69,4.56-3.49,9.08-5.18,13.64-.22.59-1.27,1.66.2,2,.93.19,2.2.51,2.8-1,.39-.93.12-2.48,1.5-2.63a45,45,0,0,1,5.81,0c.62,0,.7.64.9,1.08.29.61.47,1.27.8,1.85.73,1.22,2,.95,2.93.6,1.13-.42.09-1.32-.12-1.87-1.71-4.55-3.56-9-5.29-13.58C370.25,70,369.76,69.29,368.49,69.54Zm0,4.67c.73,1.63,1.15,2.69,1.67,3.71.8,1.55.32,2-1.36,2s-2.83-.17-1.71-2.26C367.52,76.76,367.81,75.79,368.45,74.21Z"/><path class="cls-6" d="M498.59,69.51c-1.32-.37-1.69.57-2.06,1.56-1.73,4.56-3.49,9.11-5.17,13.69-.2.54-1.24,1.51.05,1.82.92.23,2.22.63,2.89-.77.44-1,.19-2.54,1.44-2.72a30.45,30.45,0,0,1,5.81-.06c1.09,0,1.06,1.18,1.39,1.9s.52,1.77,1.78,1.79,2.37,0,1.6-1.91c-1.89-4.59-3.66-9.22-5.43-13.85C500.47,69.87,499.88,69.23,498.59,69.51Zm0,5c1,1,1.1,2.21,1.65,3.21,1,1.87.45,2.38-1.56,2.3-1.53-.07-2.26-.32-1.49-2C497.66,77,498,75.88,498.57,74.49Z"/><path class="cls-6" d="M290.87,78.24c0,.85-.06,1.69,0,2.53.15,1.89-.92,4.74.44,5.48,2.26,1.25,5.26.39,7.95.38,1.17,0,.77-1.08.83-1.76s0-1.4-1-1.41a15.27,15.27,0,0,0-2.53,0c-2.21.34-2.74-.65-2.61-2.67.09-1.4.48-2,1.92-1.87.92.09,1.87,0,2.79,0,1.42.13,1.39-.76,1.42-1.75s-.42-1.49-1.5-1.42-2,0-3,0c-1.27.08-1.53-.59-1.56-1.7s.64-1.36,1.59-1.33,1.87-.08,2.79,0c1.34.14,1.73-.39,1.74-1.7s-.58-1.47-1.68-1.54c-7.6-.42-7.6-.44-7.6,7.19Z"/><path class="cls-6" d="M16,78.31c0,2.27,0,4.54,0,6.81,0,1.2.45,1.63,1.65,1.59s1.82-.21,1.68-1.53c-.07-.58,0-1.18,0-1.76-.25-2.5-.28-4.49,3.37-4.3,2.15.11,3.62-2.17,3.65-4.41,0-2.63-1.14-4.24-3.51-4.83C16.89,68.42,16,69.1,16,75Zm3.31-3.74c0-.95-.19-2,1.3-1.8,1.19.14,2.44.14,2.39,1.87s-1.29,1.47-2.34,1.63C19.18,76.5,19.25,75.51,19.29,74.57Z"/><path class="cls-6" d="M138.45,83.44c1.75-4.15,3.25-8.06,5-11.83,1-2,.25-2.22-1.54-2.12a60.94,60.94,0,0,1-6.34,0c-1.45-.07-1.61.62-1.64,1.82,0,1.35.64,1.43,1.71,1.46,3.73.12,3.74.16,2.33,3.62-1.15,2.81-2.3,5.61-3.51,8.38-.57,1.31-.61,2,1.19,1.9,2.1-.12,4.22,0,6.33,0,1.14,0,1.93,0,1.9-1.57s-.74-1.82-2-1.71C140.86,83.51,139.85,83.44,138.45,83.44Z"/><path class="cls-6" d="M539.4,87c2.14.06,3.78-.64,4.69-2.72a4.54,4.54,0,0,0-1-5.33c-1.29-1.33-2.75-2.49-4.11-3.74-.69-.63-1.54-1.29-.67-2.31a1.44,1.44,0,0,1,2.25.1c1.16,1.22,2,.87,2.81-.3,1-1.38-.46-1.78-1.1-2.29a4.45,4.45,0,0,0-6.53.52c-1.59,1.86-1.41,4,.61,6,1.3,1.32,2.75,2.5,4,3.81.74.74,1.34,1.73.31,2.64a2.08,2.08,0,0,1-3-.15c-.55-.45-.73-1.69-2-1s-2.43,1.24-.87,2.9A5.57,5.57,0,0,0,539.4,87Z"/><path class="cls-8" d="M515.66,104.06c1.91,2.91,3.49,5.14,4.85,7.49a2.22,2.22,0,0,0,2.73,1.15c1.23-.29.59-1.4.6-2.1.07-3.28,0-6.55,0-9.83,0-1,0-1.77-1.4-1.72s-1.2.84-1.2,1.68V108c-1.86-2.85-3.41-5.07-4.78-7.4-.7-1.2-1.59-1.83-2.85-1.42s-.55,1.59-.57,2.4c-.09,3-.09,6,0,9.07,0,.88-.7,2.26,1.34,2.19s1.17-1.47,1.23-2.32C515.74,108.59,515.66,106.7,515.66,104.06Z"/><path class="cls-8" d="M481.64,107.52c2.54,1.39,1.75,6.1,6,5.13.1-1.05-.67-1.7-1.09-2.46-1-1.75-2.26-3.13.11-5.14,1.74-1.48.45-4.71-1.79-5.54a5.79,5.79,0,0,0-1.23-.29c-4.66-.74-4.66-.74-4.66,3.87,0,2.61,0,5.22,0,7.82,0,.85-.35,1.84,1.23,1.88s1.4-1,1.41-2S481.64,108.72,481.64,107.52Zm3.08-4.37c-.11,1-.84,1.21-1.74,1.32s-1.44-.22-1.38-1.22c0-.72-.18-1.59,1-1.57C483.64,101.69,484.49,101.87,484.72,103.15Z"/><path class="cls-8" d="M532.51,112.54c1.77.49,3,.31,3.34-1.45s1.85-1.26,2.88-1.15,2.94-.85,3.38,1.16,1.62,1.8,3.36,1.51c-1.63-4.29-3.25-8.46-4.79-12.66-.37-1-1.12-.79-1.84-.88-1-.11-1.37.38-1.66,1.17C535.65,104.31,534.09,108.38,532.51,112.54Zm8.16-5.42c-1.29.12-2.76.49-2.94-.11-.38-1.27.63-2.46,1.25-4.27Z"/><path class="cls-8" d="M412.35,112.51c1.67.48,2.9.45,3.27-1.34.28-1.36,1.3-1.45,2.33-1.26,1.35.25,3.27-1,4,1.1.6,1.81,1.63,2.1,3.35,1.49-1.54-4.08-3.11-8.13-4.61-12.21a1.7,1.7,0,0,0-1.87-1.24,1.66,1.66,0,0,0-1.82,1.3C415.47,104.35,413.94,108.34,412.35,112.51Zm6.41-9.7c2,4.63,2,4.63-1.56,4.24Z"/><path class="cls-7" d="M211.25,77.76c0,2.6,2.18,5,4.56,4.94S221,80,221.06,77.9s-2.71-5-5-5A4.51,4.51,0,0,0,211.25,77.76Z"/><path class="cls-8" d="M496.48,105.84a40.23,40.23,0,0,1,0,4.53c-.26,2.08.62,2.63,2.53,2.41a32.14,32.14,0,0,1,3.54,0c.75,0,1.53.14,1.5-1.1,0-1-.25-1.59-1.4-1.49-.67.06-1.36,0-2,0-1.29.13-1.54-.51-1.5-1.64s0-2.05,1.56-1.88c.75.09,1.52,0,2.28,0s1.11-.48,1.09-1.28-.09-1.33-1.05-1.3-1.86,0-2.79,0c-.68,0-1.13-.18-1.08-1s.12-1.37,1.06-1.38,1.69,0,2.53,0,1.36-.26,1.33-1.28-.27-1.45-1.29-1.35h-.25C496.47,98.66,496.47,98.66,496.48,105.84Z"/><path class="cls-8" d="M462.44,105.9v1.51c0,5.91.25,6.11,6.36,5.37.84-.1,1.19-.3,1.19-1.19s-.1-1.49-1.19-1.43c-.68,0-1.36,0-2,0-1.25.13-1.8-.2-1.76-1.62s.29-2.07,1.8-1.89c.67.08,1.36,0,2,0,.89,0,1.14-.32,1.14-1.19s-.14-1.46-1.22-1.39c-.84.06-1.69,0-2.53,0S465,104,465,103c.06-.75.15-1.33,1.11-1.3s1.69-.06,2.53,0,1.33-.27,1.31-1.28-.38-1.4-1.34-1.34a1.13,1.13,0,0,1-.26,0C462.44,98.66,462.44,98.66,462.44,105.9Z"/><path class="cls-8" d="M449.22,98.85a3.55,3.55,0,0,0-3.21,1.83,3.06,3.06,0,0,0,.45,3.74c1.07,1.18,2.31,2.2,3.49,3.28.69.62,1.16,1.46.61,2.21a1.56,1.56,0,0,1-2.46.07c-1-1.14-1.91-1.17-2.63-.13s.47,1.79,1.19,2.36a4.41,4.41,0,0,0,5.78-.34,4,4,0,0,0-.43-5.67c-1-1-2.13-1.91-3.21-2.86-.48-.42-.82-1-.4-1.52a1,1,0,0,1,1.4-.2c1.18,1,2.59,1.21,2.86-.37.25-1.42-1.39-2-2.78-2.31Z"/><path class="cls-6" d="M55.23,78.28c0,2.27.05,4.54,0,6.81,0,1.19.39,1.66,1.6,1.61,1.52-.06,3-.07,4.56,0,1.27.06,1.8-.33,1.81-1.69s-.78-1.76-1.91-1.56c-2.66.46-3.06-.86-2.92-3.12.19-3,0-6,.07-9.07,0-1.3-.41-1.81-1.73-1.81s-1.49.71-1.47,1.76C55.25,73.57,55.23,75.93,55.23,78.28Z"/><path class="cls-5" d="M341.05,119.35l.06-1.09h0c-2.11-.22-4.38.63-6.31-.91a1.38,1.38,0,0,0-1-.08c-4.95,1.14-9.9-.68-14.86,0-.81.1-2,.43-2.2-1h0l-20.37.05.59.91c1.69,0,3.38,0,5.07.11,7.21.56,14.47.48,21.63,1.22C329.48,119.13,335.26,119.09,341.05,119.35Z"/><path class="cls-10" d="M367.26,115.32c1.66,1.68,3.95,1.06,5.91,1.42,3.16.57,6.27,1.68,9.56,1.48a4.65,4.65,0,0,1,4.47-1.94c3.31.42,6.25-1.08,9.41-1.56a10.41,10.41,0,0,0-6.5-.14,8.61,8.61,0,0,1-5.69,0,22.87,22.87,0,0,0-11,0C371.32,115.11,369.28,114.88,367.26,115.32Z"/><path class="cls-11" d="M297,117.2l-.59-.91-3,0-49.74,0-8.09,0c-.82,1-2.23,0-3.06.91l3,.14h9.66l6.58,0,8.11,0v0c.21-.12.42-.36.63-.36q12.09,0,24.16,0c.22,0,.44.21.67.32Z"/><path class="cls-7" d="M232.51,117.19c.83-.93,2.24.08,3.06-.91l-14.17,0a4.43,4.43,0,0,0-2.16.49,5.06,5.06,0,0,1-5,0c-.73-.42-1.61-.71-2.14-.35-2.17,1.47-4.69.32-6.82,1-3.12,1-6.24.78-9.38.94-.62,0-.86.43-.95,1,8.27.35,16.44-1.34,24.69-1.17a2.42,2.42,0,0,1,2.05-.75L232,117.3Z"/><path class="cls-7" d="M454.77,135.47c-.53-1.95-2.58-1.33-3.75-1.75a19.11,19.11,0,0,0-6-1.15,32.14,32.14,0,0,1-7.06-1.29,59,59,0,0,0-15.69-1.89c.47.79,1.55.3,2.08,1,6.33,1.17,12.7,2.11,19,3.52C447,134.72,450.85,135.88,454.77,135.47Z"/><path class="cls-11" d="M336,80.8c1.26-.51,2.53-1.57,1.86-2.72-.86-1.47-.12-3.72-2.75-4.48-4.26-1.23-5.59-.94-7.25,2.92-1,2.37,1.25,6.17,3.95,6.18,1.5,0,4,1.43,4.16-1.86-1.09.07-2.16.2-3.24.36a3.2,3.2,0,0,1-3.81-3c-.12-1.78,1.65-4.27,3.07-4.3,1.74,0,4,2,4.09,3.66C336.11,78.62,336,79.71,336,80.8Z"/><path class="cls-3" d="M398.41,106.05c0,1.6.1,3.21,0,4.79s.48,2.1,2,1.93a15.44,15.44,0,0,1,3,0c1.08.1,1.25-.42,1.25-1.32s-.31-1.46-1.3-1.27c-2.19.43-2.48-.72-2.37-2.53.13-2.26,0-4.54,0-6.81,0-1,.08-1.83-1.4-1.78-1.33,0-1.22.83-1.22,1.69,0,1.76,0,3.53,0,5.3Z"/><path class="cls-12" d="M117.79,108.16c6.67.29,13.17-1.36,19.79-1.68,4.76-.23,9.52-.67,14.28-1a4.58,4.58,0,0,0,2.45-.35c-5.4,0-10.95-.71-16.17.28-4,.77-8.14-.14-12,1.54a5.15,5.15,0,0,1-4.6-.45C119.59,105.35,118.1,106.19,117.79,108.16Z"/><path class="cls-10" d="M563.43,165.73a65.11,65.11,0,0,0-11.19-4c0,.93,0,1.85,0,2.77s.43,1.35,1.24,1.21c1.53-.27,2.68.68,4,1,1.13.28,2.55,1.93,3.31-.68C561,165.35,562.53,165.88,563.43,165.73Z"/><path class="cls-12" d="M178.74,104.13l-4.16-.13c-3.4.31-6.8-.72-10.2.07a3.44,3.44,0,0,1-2.1-.53c-2.78-1.23-5.05.58-7.45,1.54A200.91,200.91,0,0,0,178.74,104.13Z"/><path class="cls-7" d="M195,119.28h-11a4.08,4.08,0,0,0-2.62.62,2,2,0,0,1-2.36,0c-2.26-1.55-3.75-.07-5.31,1.24l3.07.11c5.54-.6,11.08-1.36,16.68-1.21C194,120.11,194.73,120.15,195,119.28Z"/><path class="cls-10" d="M283.91,120.5H260.26V121H283.9Z"/><path class="cls-13" d="M243.65,101.09c.09,1.18,0,2.15-1.62,2-.69-.06-1.32.09-1.4,1l3,.06c3.22-.31,6.57.55,9.66-1-1.44-1.86-3.92-1.76-5.49-1.53A8.66,8.66,0,0,1,243.65,101.09Z"/><path class="cls-12" d="M292.33,107.18c4.12,1.27,8.46.67,12.64,1.44a36.63,36.63,0,0,0,8.75.53c-1.05-2.42-3-2.48-4.94-1.51a4,4,0,0,1-3.11.39C301.28,106.34,296.78,107.42,292.33,107.18Z"/><path class="cls-9" d="M586.42,175.72c-2.19-2.09-5.06-2.86-7.79-3.88-.1.33-.06.86-.62.7s-.31-.62-.35-1a.18.18,0,0,0,0-.28,1.17,1.17,0,0,0-1.08.49c-.24,2.52,1.94,2.5,3.41,3a4.59,4.59,0,0,1,2.15,1.06C583.62,177.41,585,177.21,586.42,175.72Z"/><path class="cls-12" d="M253.31,103.11c-3.09,1.56-6.44.7-9.66,1,5.37,1.23,10.84.93,16.28,1C258.33,102.38,255.65,103.3,253.31,103.11Z"/><path class="cls-9" d="M570.57,168.61c-2.05-1.77-4.61-2.28-7.13-2.9,0,1.57,0,2.82,2.16,3.23,1,.19,2.65.43,3,2.13.16.79.67.29,1.09,0C570.62,170.45,570.49,169.51,570.57,168.61Z"/><path class="cls-9" d="M390.14,119.37c1.88,1.44,4.21.89,6.3,1.36,2.83.64,5.66,1.5,8.62,1.51-.95-1.16-3-.72-3.57-2.69-.19-.64-2.07-.6-2.79-.12-1.34.89-2.25.46-3.59,0C393.61,119,391.81,119.36,390.14,119.37Z"/><path class="cls-9" d="M457.93,133.34c2.78-.41,5.26,1.42,8,1.08-.75-1.75-2.73-1.5-4-1.79a55.73,55.73,0,0,1-6.95-2.12c-.84-.32-2.07-.53-2.32,1,0,.28.07.55.1.82h0c1.68.43,3.69-.82,5.08,1Z"/><path class="cls-10" d="M470.34,131.44c-.76,0-1.13.19-1.23.69s0,1,.38,1.08c1.24.21,2.05,1.37,3.48,1.27,1.63-.13,3.35-.4,4.83.81a.8.8,0,0,0,1.22-.48c.18-.52.07-1.22-.46-1.24C475.55,133.47,472.55,133.47,470.34,131.44Z"/><path class="cls-10" d="M259.89,117.24l-8.11,0c-.17,1.47.39,2.14,2,2a30,30,0,0,1,4.24,0C259.58,119.41,260.08,118.68,259.89,117.24Z"/><path class="cls-10" d="M245.2,117.32h-9.66c1.44,2,3.51.45,5.22.93,1,.28,2.43-.73,2.9,1h4.53C247.35,117.63,245.43,119,245.2,117.32Z"/><path class="cls-9" d="M565.88,163.27l6.68,2.4c1.27-3-.45-2.81-2.72-3.12A4.93,4.93,0,0,0,565.88,163.27Z"/><path class="cls-11" d="M260,106.05l13.23,0c-.32-.78-1-.8-1.68-.8l-11.62-.12C259.91,105.46,259.93,105.76,260,106.05Z"/><path class="cls-12" d="M285.34,117.2c-.23-.11-.45-.32-.67-.32q-12.07,0-24.16,0c-.21,0-.42.24-.63.36Z"/><path class="cls-9" d="M479.18,141.44c-1.08-1.53-2.7-.72-4.08-1,1.37,1.22,2.4,2.81,4.13,3.65.67.32,1.34.62,1.74-.1s0-1.42-.94-1.54C479.41,142.41,479.2,142,479.18,141.44Z"/><path class="cls-12" d="M176.68,121.3l-3.07-.11c-2.07.19-4.18.13-6.11,1.09a14.84,14.84,0,0,1,3.56.73C173.14,123.89,175.18,123.1,176.68,121.3Z"/><path class="cls-12" d="M232,117.3l-10.33.06a2.42,2.42,0,0,0-2.05.75l11.1.12A1.12,1.12,0,0,0,232,117.3Z"/><path class="cls-9" d="M588.15,171.88l4.75,2.83c0-.91,1.8-1.83.56-2.51-1-.57-2.25-2.42-3.9-.71C589.26,171.79,588.63,171.76,588.15,171.88Z"/><path class="cls-9" d="M524.65,149.68a10,10,0,0,0,6.28,1.92c0-1.21-1.31-.76-1.73-1.4,0-.94,1.29-.31,1.4-1.25C528.45,147.57,526.66,149.76,524.65,149.68Z"/><path class="cls-9" d="M424.36,130.38c-.53-.69-1.61-.2-2.08-1l-4,0c.24,2,1.8,2.79,3.79,1.68A5.45,5.45,0,0,1,424.36,130.38Z"/><path class="cls-10" d="M243.66,119.27c-2.07,0-4.14,0-6.21,0-.79,0-1.74-.22-1.91,1h0c2.07,0,4.14,0,6.21,0,.8,0,1.75.21,1.91-1Z"/><path class="cls-10" d="M251.45,99.29H244l0,.5h7.43Z"/><path class="cls-10" d="M227.76,99.81h7.43v-.5h-7.42Z"/><path class="cls-10" d="M418.62,123.07H426v-.51h-7.4Z"/><path class="cls-10" d="M170.21,101.26h-7.39l0,.51h7.42Z"/><path class="cls-10" d="M178.34,99.24H171l0,.48h7.39Z"/><path class="cls-13" d="M242.29,97.62a11,11,0,0,0-6.41-.13A11.46,11.46,0,0,0,242.29,97.62Z"/><path class="cls-12" d="M438.53,128.43c1.09,1.54,2.72.71,4.1.93C441.06,126.93,440,126.69,438.53,128.43Z"/><path class="cls-10" d="M186.46,97.54a9.21,9.21,0,0,0-5.89,0A9.21,9.21,0,0,0,186.46,97.54Z"/><path class="cls-7" d="M452.83,132.33c0-.27-.07-.54-.1-.82l-1-.15c-1.11,0-2.31.29-3.07-.9l-2-.13C448.21,132.61,450.51,132.5,452.83,132.33Z"/><path class="cls-9" d="M583.64,169.83c1.28.87,2.47,1.9,4.13,2,.79-1.29,1.06-2.26-1.09-2C585.68,169.88,584.66,169.82,583.64,169.83Z"/><path class="cls-12" d="M576.61,171.77a1.17,1.17,0,0,1,1.08-.49,5.08,5.08,0,0,0-4.1-1.55C573.25,172.38,575.17,171.73,576.61,171.77Z"/><path class="cls-9" d="M97.15,106.67a8.64,8.64,0,0,0-5.39-.12A7.28,7.28,0,0,0,97.15,106.67Z"/><path class="cls-11" d="M592.85,174.84l0,2.49.6-.09c.41-.43,1-.32,1.46-.37l1,0c.18-.94-1.11-1.07-1.09-1.92Z"/><path class="cls-9" d="M378.33,125.77a5.19,5.19,0,0,0-4.39.17C375.42,126.3,376.9,126.61,378.33,125.77Z"/><path class="cls-9" d="M328.25,108.67a7.13,7.13,0,0,0,4.94.1A5.75,5.75,0,0,0,328.25,108.67Z"/><path class="cls-12" d="M539,157.24c-.86-.89-2-.54-3-.63.11.67-.33,1.6.61,1.91C537.79,158.9,538.28,157.77,539,157.24Z"/><path class="cls-10" d="M235.54,120.28c-1.23.11-2.5-.24-3.68.51,1.27.31,2.6,1.42,3.68-.51Z"/><path class="cls-9" d="M448.68,130.46c.76,1.19,2,.89,3.07.9C450.68,131.22,450.64,127.63,448.68,130.46Z"/><path class="cls-12" d="M594.78,174.92c0,.85,1.27,1,1.09,1.92.6-.09,1.77.27,1.65-.49C597.31,175,596.1,174.65,594.78,174.92Z"/><path class="cls-9" d="M418.26,129.36a6.1,6.1,0,0,0-4.08-.89C415.21,130.27,416.9,129.08,418.26,129.36Z"/><path class="cls-7" d="M594.89,176.87c-.5,0-1-.06-1.46.37C594.12,177.9,594.54,177.53,594.89,176.87Z"/><path class="cls-10" d="M365.8,115.3a.58.58,0,0,0,.89,0Z"/><path class="cls-5" d="M243.66,116.25l49.74,0c-.44-2.25,1.41-2.09,2.81-2.59-1.44-.05-3-1.58-3.91.79-.5,1.29-1.75.73-2.67.74-14.42,0-28.84,0-43.26.05C245.43,115.26,244.07,114.58,243.66,116.25Z"/><path class="cls-5" d="M316.75,114.22v2h0c1.49,0,3,.16,4.38-.77a3.32,3.32,0,0,1,3.18-.06c3,1.61,5.67.92,8.36-1.19Z"/><path class="cls-5" d="M300.51,110.18a13.42,13.42,0,0,0-8,1.61c1.05.65,2.06.36,3,.4,1.73.07,3.52-.27,5,1,.32.28,1,.6,1.33,0s-.14-.88-.66-1.1c-.95-.4-.58-1.27-.67-2Z"/><path class="cls-5" d="M316.75,114.22c-.15-1.57-1-2.15-2.57-2s-2.87,0-4.31,0c-.66,0-1.17.23-1.16,1s.53,1,1.19,1l6.85,0Z"/><path class="cls-5" d="M284.27,111.69c0-.82-.14-1.51-1.21-1.5-1.85,0-3.7,0-5.55,0-.62,0-1.21.1-1.28.88-.08.93.55,1,1.29,1.13,2.29.31,4.47-.72,6.75-.51Z"/><path class="cls-5" d="M341.11,118.26c1.6,0,3.19,0,4.79,0,.91,0,1.71-.51,1-1.34-1.22-1.34-3-.54-4.54-.63s-1.15,1.11-1.21,2Z"/><path class="cls-5" d="M284.27,111.69c.05.56-.13,1.24.66,1.42.34.07.72-.12.65-.52-.12-.69-.7-.85-1.31-.9Z"/><path class="cls-13" d="M214.34,48.16c6.87,0,11.84-4.94,11.81-11.67,0-7-5.1-12.21-12-12.21a11.77,11.77,0,0,0-12,12.23C202.28,43.39,207.29,48.19,214.34,48.16Z"/><path class="cls-13" d="M497.68,24.27A11.81,11.81,0,0,0,486,36.53a11.85,11.85,0,0,0,12.09,11.9,12.08,12.08,0,1,0-.41-24.16Z"/><path class="cls-7" d="M457.91,133.35c-1.39-1.83-3.4-.58-5.08-1,.18,1.64,1.47,1,2.33,1A23,23,0,0,0,457.91,133.35Z"/><path class="cls-14" d="M117.37,39.93l-4.71-12c-1.61,4-3,7.46-4.39,10.95-.41,1.05.32,1.07,1,1.06Z"/><path class="cls-14" d="M292.26,39.93c2.94,0,5.47,0,8,0,1.26,0,1.43-.41,1-1.49-1.36-3.32-2.65-6.66-4.2-10.56C295.38,32.11,293.9,35.81,292.26,39.93Z"/><path class="cls-1" d="M577.66,171.56c0,.36-.12.84.35,1s.52-.37.62-.7Z"/><path class="cls-5" d="M462.39,135.46c0,.15,0,.31,0,.47l0,0c.35-.18.35-.35,0-.54Z"/><path class="cls-5" d="M462.4,135.93l-.21.13.23-.1Z"/><path class="cls-13" d="M251.62,78.13a9.63,9.63,0,0,0,0,2c.25,1.1-.84,2.84.89,3.19s3.84.46,5.15-1.24a6.23,6.23,0,0,0,.77-6.21c-.77-2.12-2.55-2.74-4.53-3.09-1.65-.29-2.57.16-2.33,2.07A25.47,25.47,0,0,1,251.62,78.13Z"/><path class="cls-14" d="M409.32,72.69c-1.06-.19-1,.8-1.09,1.89-.07,1.27.33,1.85,1.68,1.74,1.15-.1,2.3-.22,2.32-1.67S411,72.86,409.32,72.69Z"/><path class="cls-14" d="M181.81,79.87c-.71-1.91-1.3-3.45-2.05-5.46-1.11,1.86-2.39,3.43-1.87,5C178.24,80.47,180.15,79.69,181.81,79.87Z"/><path class="cls-14" d="M98.42,74.22c-.66,1.56-1,2.56-1.51,3.53-.76,1.58-.41,2.12,1.46,2.17,2.16,0,2.5-.6,1.55-2.38C99.46,76.67,99.11,75.75,98.42,74.22Z"/><path class="cls-14" d="M368.45,74.21c-.64,1.58-.93,2.55-1.4,3.42-1.12,2.09-.12,2.27,1.71,2.26s2.16-.42,1.36-2C369.6,76.9,369.18,75.84,368.45,74.21Z"/><path class="cls-14" d="M498.57,74.49c-.55,1.39-.91,2.49-1.4,3.54-.77,1.65,0,1.9,1.49,2,2,.08,2.61-.43,1.56-2.3C499.67,76.7,499.56,75.48,498.57,74.49Z"/><path class="cls-13" d="M19.29,74.57c0,.94-.11,1.93,1.35,1.7,1.05-.16,2.29,0,2.34-1.63s-1.2-1.73-2.39-1.87C19.1,72.61,19.25,73.62,19.29,74.57Z"/><path class="cls-14" d="M484.72,103.15c-.23-1.28-1.08-1.46-2.08-1.47-1.22,0-1,.85-1,1.57-.06,1,.41,1.34,1.38,1.22S484.61,104.11,484.72,103.15Z"/><path class="cls-14" d="M540.67,107.12,539,102.74c-.62,1.81-1.63,3-1.25,4.27C537.91,107.61,539.38,107.24,540.67,107.12Z"/><path class="cls-14" d="M418.76,102.81l-1.56,4.24C420.78,107.44,420.78,107.44,418.76,102.81Z"/><path class="cls-5" d="M336,80.8c0-1.09.12-2.18.08-3.27-.07-1.7-2.35-3.7-4.09-3.66-1.42,0-3.19,2.52-3.07,4.3a3.2,3.2,0,0,0,3.81,3c1.08-.16,2.15-.29,3.24-.36Z"/></g></g></svg>