<svg xmlns="http://www.w3.org/2000/svg" viewBox="0 0 315.66 287.92"><defs><style>.cls-1{fill:#4f4c4d;}</style></defs><g id="Capa_2" data-name="Capa 2"><g id="Capa_1-2" data-name="Capa 1"><path class="cls-1" d="M147.24,56.33h-2.09V45.53h3.48c2.13,0,3.86,1,3.86,3.25a3.35,3.35,0,0,1-2.05,3.1c.75,1.51,1.53,2.95,2.29,4.45h-2.47l-1.78-4.08c-.48,0-.8,0-1.24,0Zm1-9.17h-1v3.46h1c1.38,0,2-.63,2-1.86S149.56,47.16,148.29,47.16Z"/><path class="cls-1" d="M155.46,53a1.78,1.78,0,0,0,2,1.94,5.27,5.27,0,0,0,2.3-.66l.4,1.47a6.44,6.44,0,0,1-3,.77c-2.42,0-3.86-1.5-3.86-4.1,0-2.41,1.17-4.06,3.68-4.06s3.3,1.76,3.3,3.73V53Zm1.47-3.11c-1,0-1.47,1-1.47,1.88h2.86C158.32,50.73,158,49.86,156.93,49.86Z"/><path class="cls-1" d="M169.19,48.49l0,1.55a6.32,6.32,0,0,1-1.48-.27,2.07,2.07,0,0,1,.79,1.23c0,1.92-1.91,2.69-3.23,2.69a4.54,4.54,0,0,1-1-.14c-.24.08-.39.22-.39.43,0,.85,5-.15,5,2.8,0,1.84-1.76,2.85-3.73,2.85-1.65,0-3.31-.72-3.31-2.16,0-1,.8-1.54,2.08-1.73-1-.11-2-.42-2-1.33,0-.66.61-1.14,1.48-1.2A2.41,2.41,0,0,1,162,51c0-2.08,2-2.67,3.23-2.67C166.07,48.33,167.83,48.47,169.19,48.49Zm-4.27,7.39c-.74.07-1.2.48-1.2,1.15a1.31,1.31,0,0,0,1.47,1.19c.94,0,1.57-.48,1.57-1.3S166.15,56,164.92,55.88ZM166.61,51c0-.93-.78-1.17-1.39-1.17s-1.41.24-1.41,1.17.75,1.23,1.41,1.23S166.61,52,166.61,51Z"/><path class="cls-1" d="M171.35,56.33V50l-.92-.19V48.49h3v7.84Zm-.07-11h2.12v1.9h-2.12Z"/><path class="cls-1" d="M182.53,52.39c0,2.68-1.34,4.1-3.68,4.1s-3.68-1.41-3.68-4.1c0-2.3,1.28-4.06,3.68-4.06S182.53,50.09,182.53,52.39Zm-5.61-5.12-.21-1.2,4-1.14.27,1.54Zm3.47,5.12c0-1.89-.56-2.54-1.54-2.54s-1.52.67-1.52,2.54.5,2.56,1.52,2.56S180.39,54.27,180.39,52.39Z"/><path class="cls-1" d="M189.12,56.33V51.67c0-1.18-.44-1.74-1.4-1.74a2.54,2.54,0,0,0-1.38.48v5.92h-2.1V48.49h1.44l.32.89a3.28,3.28,0,0,1,2.48-1.05c2,0,2.77,1.17,2.77,3.15v4.85Z"/><path class="cls-1" d="M201.88,49.1a4.77,4.77,0,0,1-.2-1.44V45.29h2.08v11h-1.69l-.24-.86a2.53,2.53,0,0,1-2.08,1c-1.78,0-3.2-1.28-3.2-4.08,0-2.59,1.47-4.08,3.37-4.08A2.58,2.58,0,0,1,201.88,49.1Zm-.2,1.18a2.8,2.8,0,0,0-1.42-.38c-1,0-1.62.67-1.62,2.49s.59,2.58,1.59,2.58a2.07,2.07,0,0,0,1.45-.67Z"/><path class="cls-1" d="M207.6,53a1.78,1.78,0,0,0,2,1.94,5.27,5.27,0,0,0,2.3-.66l.4,1.47a6.4,6.4,0,0,1-3,.77c-2.41,0-3.85-1.5-3.85-4.1,0-2.41,1.16-4.06,3.68-4.06,2.37,0,3.29,1.76,3.29,3.73V53Zm1.47-3.11c-1,0-1.47,1-1.47,1.88h2.87C210.47,50.73,210.16,49.86,209.07,49.86Z"/><path class="cls-1" d="M222.34,56.49c-3,0-4.68-2-4.68-5.62,0-3.36,1.62-5.5,4.68-5.5a6.79,6.79,0,0,1,3.68.91l-.8,1.7a4.48,4.48,0,0,0-2.66-.76c-1.79,0-2.69,1.27-2.69,3.64s.9,3.77,2.66,3.77a5,5,0,0,0,2.85-1l.67,1.7A6.43,6.43,0,0,1,222.34,56.49Z"/><path class="cls-1" d="M234.11,52.39c0,2.68-1.34,4.1-3.68,4.1s-3.68-1.41-3.68-4.1c0-2.3,1.28-4.06,3.68-4.06S234.11,50.09,234.11,52.39Zm-2.14,0c0-1.89-.56-2.54-1.54-2.54s-1.52.67-1.52,2.54.5,2.56,1.52,2.56S232,54.27,232,52.39Z"/><path class="cls-1" d="M240.72,59.37V56.54l.15-1.06a2.58,2.58,0,0,1-2.1,1c-1.76,0-3.19-1.3-3.19-4.08,0-2.59,1.48-4.08,3.38-4.08a3.43,3.43,0,0,1,2.23.78l.36-.62h1.25V59.37Zm0-9a2.16,2.16,0,0,0-1.39-.46c-1,0-1.65.67-1.65,2.49s.59,2.58,1.59,2.58a2.09,2.09,0,0,0,1.45-.67Z"/><path class="cls-1" d="M250.32,56.33l-.32-1a3.09,3.09,0,0,1-2.45,1.12c-2,0-2.85-1.09-2.85-3.25V48.49h2.08v4.77c0,1.2.44,1.63,1.38,1.63a2.58,2.58,0,0,0,1.41-.46V48.49h2.13v7.84Z"/><path class="cls-1" d="M254.24,56.33V50l-.91-.19V48.49h3v7.84Zm-.06-11h2.11v1.9h-2.11Z"/><path class="cls-1" d="M265.31,51.48v4.85H263.2V51.67c0-1.18-.43-1.74-1.41-1.74a2.4,2.4,0,0,0-1.33.48v5.92h-2.09V48.49h1.41l.35.91a3,3,0,0,1,2.32-1.07,2.51,2.51,0,0,1,2.45,1.1,3.06,3.06,0,0,1,2.37-1.1c2.24,0,2.89,1.17,2.89,3.15v4.85H268V51.67c0-1.18-.5-1.74-1.48-1.74a2.46,2.46,0,0,0-1.33.48A5.17,5.17,0,0,1,265.31,51.48Z"/><path class="cls-1" d="M274,49.29a2.76,2.76,0,0,1,2.08-1c1.84,0,3.17,1.31,3.17,4.06s-1.6,4.1-3.42,4.1a2.59,2.59,0,0,1-2.28-1.1l-.38.94H272v-11h2.1V48Zm.15,4.86a1.86,1.86,0,0,0,1.42.8c.91,0,1.58-.67,1.58-2.56s-.59-2.53-1.55-2.53a2.19,2.19,0,0,0-1.45.63Z"/><path class="cls-1" d="M288,52.39c0,2.68-1.34,4.1-3.68,4.1s-3.68-1.41-3.68-4.1c0-2.3,1.28-4.06,3.68-4.06S288,50.09,288,52.39Zm-2.14,0c0-1.89-.56-2.54-1.54-2.54s-1.52.67-1.52,2.54.5,2.56,1.52,2.56S285.84,54.27,285.84,52.39Z"/><path class="cls-1" d="M310.75,0H0V287.92H315.66V0ZM4.9,4.9H127.75V283H4.91ZM310.76,283H132.66V4.9H310.75Z"/><path class="cls-1" d="M70.18,43a1.23,1.23,0,0,0,.38-1.67c-.22-.44-.81-.48-.55-.54,3.14-.74,4.82-5.32,4.72-7.08,1.62,1.49,5.24,1.92,7.87-.32,1.7-1.63,2.52-5.93-.39-8.08a5.1,5.1,0,0,0-5.76.08,2.92,2.92,0,0,0-2.4-1.51,5.77,5.77,0,0,0-1.19-3.72c-1.57-1.71-6-1.84-7.59,0-3.17-.79-7.29.67-7.06,5.64a9.31,9.31,0,0,0-4.68-.79,5.51,5.51,0,0,0-3.1,1.78A7.47,7.47,0,0,0,49.74,28a5.18,5.18,0,0,0,1.78,6.66,8.29,8.29,0,0,0,4.82.71,3.55,3.55,0,0,0,2-1.09c.2-.21.35-.54.65-.54a3.88,3.88,0,0,0,2.49,4c0,.11,0,.22.08.39.84,3.28,3,2.87,3.08,3.1a1.26,1.26,0,0,0-.33,1.9,10.85,10.85,0,0,1,2.94-.53A11,11,0,0,1,70.18,43Z"/><path class="cls-1" d="M77.63,52.93a9.78,9.78,0,0,1,2.24-5.86.88.88,0,0,0,.25-.7.75.75,0,0,0-.33-.52c-.63-.43-2.05-1.3-2.05-1.3l-.12-.1H77.5c-.15,0-.27.09-.47.24a3.66,3.66,0,0,1-2.4.87,5.62,5.62,0,0,1-.7-.05,8.07,8.07,0,0,1-1.79-.67c-.37-.19-.82-.39-1-.47l-.08,0a9.23,9.23,0,0,0-7.65,0l-.09,0-.46.21-1.11.53a4.06,4.06,0,0,1-1.93.45,3.71,3.71,0,0,1-2.4-.87c-.2-.15-.32-.24-.46-.24h-.12l-.06,0s-1.46.9-2.06,1.31a.79.79,0,0,0-.38.55.88.88,0,0,0,.25.7A9.84,9.84,0,0,1,56.82,53c.06.37.22,2.36-1.47,5.27-.08.15-1.93,3.54.1,6.52,0,0,1.53,2.8,6,2.8.36,0,3.64.06,4.76,2.15,0,.08.58.92.79,1.33l.25.51.25-.51c.22-.4.73-1.23.81-1.35,1.11-2.07,4.39-2.13,4.75-2.13,4.38,0,5.94-2.76,5.94-2.76,2.08-3.05.14-6.54.12-6.56C77.41,55.34,77.57,53.35,77.63,52.93Zm-1.72,0L70.18,57l2.2,6.48-5.5-4.17-5.5,4.17L63.57,57l-5.72-4.1h7l2-6.55,2,6.55h7Z"/><path class="cls-1" d="M78.92,43.92l.41.32Z"/><path class="cls-1" d="M81.1,45.61l-.73-.56c.26.21.5.39.73.56Z"/><path class="cls-1" d="M79.56,44.43l.68.53Z"/><path class="cls-1" d="M116,80.15c-.72-.87-2.63-.44-2.63-.44a2.82,2.82,0,0,0-1.79-3.86,2.49,2.49,0,0,0-2.1.22l0,0s0,0,0,0a1.66,1.66,0,0,0-.21.16,1.51,1.51,0,0,0-.41,1,1.47,1.47,0,0,0,1.47,1.46,1.52,1.52,0,0,0,.84-.26,1.49,1.49,0,0,0,.58-.87,1.4,1.4,0,0,1,.54.68c.82,2.6-2.1,3.53-2.1,3.53-6.44,1.94-10.39-1.39-10.39-1.39l1.13-.61a2.54,2.54,0,0,1,1-.22,1.11,1.11,0,0,0,0,.19,1.28,1.28,0,0,0,2.56,0,1.2,1.2,0,0,0-.26-.78c-.75-1.14-3.36-.38-3.36-.38a4.68,4.68,0,0,0,.09-3.68c-1.2-2.46-4-1.69-4-1.69a1.76,1.76,0,0,0-1.2,1.18c-.38,2,1.24,2.12,1.24,2.12,1.16.06,1.18-.89,1.18-.89.15-.91-1.14-1-1.14-1,1.08-1.92,4.51,1.22,2.27,4-.23.28-.45.1-.45.1a45.59,45.59,0,0,1-7-4c-.09-1.09-1-1.64-.87-1.93.16-.07.73.22,1-.26a31.35,31.35,0,0,0,.6-3.13,11.33,11.33,0,0,0,7.19.94.84.84,0,0,0,.57-.82c.06-1.35-3.45-9.31-3.55-12.12,1.66.82,2.68-1.73,3-2.51,2.23,1,3,21.66,4.71,22.35.85.35,1.19-1,1.27-1.31a68,68,0,0,0,2.67-21.17A58.19,58.19,0,0,0,106.57,42c-.7-2.39-2-7.26-5.2-7.92a2.24,2.24,0,0,0-2.57,2.29c0,1.07.77,1.59.44,2.64a8.66,8.66,0,0,0-1,2.2c-.19.77.49,1.08.27,1.9-1-.15-1.5.72-3.06.32,1-.47,1-3.38-.22-3.88-.19-.08-.4-.11-.43-.27a4.1,4.1,0,0,0,.6-.85,3.87,3.87,0,0,0,.14-3.75c.52,0,1.06-.91,1.13-1.67h0V33h0A3.35,3.35,0,0,1,97,31.49a.41.41,0,0,0-.18-.53.4.4,0,0,0-.52.2c-.3.65-1,.29-.73-.37a.4.4,0,0,0-.18-.52.39.39,0,0,0-.51.19c-.29.63-1,.28-.71-.35a.38.38,0,1,0-.69-.32c-.3.64-1,.28-.74-.36a.4.4,0,0,0-.17-.53.39.39,0,0,0-.51.19,3.16,3.16,0,0,1-.9,1.25c-.7.12-.51.92-.43,1.46a1.88,1.88,0,0,0-2.32,1.6h-.15c-1.08,0-2.11.59-2,1.58a1.75,1.75,0,0,0,1,1.27c.12,0-.06-.59.5-.63a1.49,1.49,0,0,1,1.37.89c.11.55-.34,1.89,1.41,2.08,0,0,0,.27,0,.56a4.9,4.9,0,0,0-1.43,0c-1.11.18-2.63.8-3,1.9a2.24,2.24,0,0,0-.07.84c0,.22.23.5.2.78a1.53,1.53,0,0,1-.34.5,3.42,3.42,0,0,1-2.08,1,2.53,2.53,0,0,1-2-1c-1.12-1.5.33-4.1.31-5.07-.07-2.58-3.33-1-4.61-.37a12.65,12.65,0,0,0-3.8,3.39A10.88,10.88,0,0,0,72.1,43.5a.3.3,0,0,1-.32.15,7.77,7.77,0,0,0,2.74.74,4.37,4.37,0,0,0,3.09-.83.69.69,0,0,1,.94,0s.18.15.37.31l.41.32.23.19.68.53.13.09.73.56h0c.26.2.51.39.66.48v0a.29.29,0,0,1,.11.18.46.46,0,0,1-.12.32,4.6,4.6,0,0,0-.35.41A13.31,13.31,0,0,0,79.7,50c.6,1.06,1.63,2.32,3.09,2.33A1.61,1.61,0,0,0,84.61,51l.09.1c.15-.13.79,3.36,1.64,4.31-.8.37-2,1.62-1.36,5.07a30.28,30.28,0,0,1-2.44-2,3.72,3.72,0,0,0-3-2.56,15.28,15.28,0,0,0,1.32,2.92,8.39,8.39,0,0,1,.83,4.7c.82-.84.69-3.13.69-3.13a.71.71,0,0,1,.18-.08c.17,0,1,1.58,2.4,1.92a18.34,18.34,0,0,0,5.91,6.41c0,.76.06,2.57-.43,2.57-1.58.35-3-.71-4.42-.64l-.24-.11c-6-2.88-13.84,3.3-15.15,4.49-.69.64-1.49-.23-1.49-.23a2.2,2.2,0,0,0-3.38,0s-.81.87-1.5.23c-1.24-1.13-8.37-6.65-14.2-4.77,0-.32-.8-.48-1-.56a6.41,6.41,0,0,1-1.16-.64,7.81,7.81,0,0,0-2.39-.21,2.84,2.84,0,0,1-.92-.34A8.92,8.92,0,0,1,42,66.26c-.09-.14-.33-.45-.37-.51A3.71,3.71,0,0,1,41,64.52c-.31-1.15.18-2.39.35-3.56.12-.86.1-.91.17-1.84a11,11,0,0,0,6.08-5.53c.08-.11.31-.58.31-.58l.51,0c1.48,0,2.47-.82,4.09-.62,0,.09.22.77,1.27,1.2a6.51,6.51,0,0,0,.51,2.76c.09.15.2.27.28.39a11.06,11.06,0,0,0,.9-3.84.69.69,0,0,1-.12-.32,3.45,3.45,0,0,0-2-2.75,9.25,9.25,0,0,1-1.2-.55,4.5,4.5,0,0,1-1.57-1.56,5.76,5.76,0,0,0,.4-.43,9.05,9.05,0,0,0,1.92-4.42c.8-1.08,3-.66,3.83-.51a1.94,1.94,0,0,1,.75.24c.23.16.29.54.62.68a2.52,2.52,0,0,0,1.16,0,3.9,3.9,0,0,1,.35.64,2.3,2.3,0,0,0,.33.43,8.43,8.43,0,0,0,3-.85.57.57,0,0,1-.16-.14,3.4,3.4,0,0,0-1.8-1.34c-.82-.14-1-.87-1.77-1A3,3,0,0,0,58,41c-1.74.23-3-.43-4.58-.55s-1.59,1-2.15,1.82a5.88,5.88,0,0,1-.71,1c-.43.41-.92.43-1.43.82l-.24-.64a5.12,5.12,0,0,0-.69-1.61A5.51,5.51,0,0,0,44.59,39a2,2,0,0,1-.65-.35.32.32,0,0,1,0-.55c.53-.3,1.44-.2,2.05-.47,1.48-.69.95-1.95.38-2A14,14,0,0,1,44,34.92c-.36-.23-1-1.36-1.57-1.64s-.43-1.24-1-1.47a2,2,0,0,0-1.06.3c0-.22-.19-1.43-.85-1.83-.5-.28-.68.16-.66.45s.73.61.86,1.75l-.36.23a2.25,2.25,0,0,0-.79-1.49c-.5-.28-.68.16-.65.45s.64.57.83,1.53l-.42.37c-1-.27-1.26-1-1.51-1s-.74.08-.51.6a2.35,2.35,0,0,0,1.45,1l-.28.32c-1.15-.23-1.44-1-1.69-1s-.75.09-.51.61c.34.74,1.64,1,1.77,1a1.25,1.25,0,0,0-.26.81c-.9-.11-2.5.38-2.2,1.44.3.21,1.36-.66,2.34-.17a3.49,3.49,0,0,0,1.91,1.22c.36.29.42.8.58,1.27A10.39,10.39,0,0,0,40.8,42c.55.84,1.13,1.73,1.71,2.46a1.55,1.55,0,0,1,.1.72c-.66,1-2.64,2.27-3.45,3s-8.56,6.66-9.53,9.23a5.37,5.37,0,0,0-.3,2.08c-.48.25-1.51.66-1.84.19-.6-.83.57-1.45.31-2.26a.61.61,0,0,0-.85-.31,2.6,2.6,0,0,0,.28,4.39c1.34.55,1.53-.89,2.57-.3.25.14,2.7,2.33,2.29,4.06a1.86,1.86,0,0,1-.17.41c-.54.66-1.43,1.18-2,1.81-1.28.81,1.21,5.9,1,8.51-.14,1,.83.88,1.42,2.43a1.79,1.79,0,0,0-1.5.62,1.14,1.14,0,0,0-.26.78,1.28,1.28,0,0,0,2.55,0,1.15,1.15,0,0,0,0-.19,2.51,2.51,0,0,1,1,.22l1.13.61s-3.95,3.33-10.39,1.39c0,0-2.92-.93-2.1-3.53a1.4,1.4,0,0,1,.54-.68,1.49,1.49,0,0,0,.58.87,1.52,1.52,0,0,0,.84.26,1.46,1.46,0,0,0,1.05-2.48,1.08,1.08,0,0,0-.2-.16,0,0,0,0,0,0,0l0,0a2.47,2.47,0,0,0-2.11-.23,2.82,2.82,0,0,0-1.79,3.86s-1.9-.43-2.62.44a1.07,1.07,0,0,0-.22.72h0v0a1.64,1.64,0,0,0,.2.62,1.12,1.12,0,0,0,.91.47,1.15,1.15,0,0,0,.86-.4v0c.08-.09.31-.23.66.13,4.27,4.45,11.24,2.61,15.1-.37A23.34,23.34,0,0,1,41,77.85c.93.4,1.91.7,2.87,1.05a9.27,9.27,0,0,0,1.77,5.68,2.09,2.09,0,0,1-2.93.9,1.51,1.51,0,0,1-.21-2.3s.78-.65,1.11.16a.75.75,0,0,0-.71.75.74.74,0,0,0,.74.74.75.75,0,0,0,.75-.7,1.87,1.87,0,0,0-.61-1.64,2,2,0,0,0-1.7-.46c-1.62.26-2.54,3.65.67,5,0,0,2.51,1.15,3.81-.73,0,0,0-.27.47.2,2.66,2.58,8.61,1.83,11,.07a13.65,13.65,0,0,1,1.25-.69,1.85,1.85,0,1,0,2.18-1.87,3.92,3.92,0,0,0-3,.7,12.45,12.45,0,0,1-1.72,1,10.59,10.59,0,0,0,1.26-3.66c2.59.29,5.25.48,8,.54a7.79,7.79,0,0,1-.45,2.53s-1,.4-1,1.09c0,0-.11.5.76,1.19a4.69,4.69,0,0,1,.81,1.24s0,.76,1.09.76l.2,0,.2,0c1,0,1.09-.76,1.09-.76a4.69,4.69,0,0,1,.81-1.24c.86-.69.76-1.19.76-1.19,0-.69-1-1.09-1-1.09a7.79,7.79,0,0,1-.45-2.53c2.75-.06,5.42-.25,8-.53a10.4,10.4,0,0,0,1.26,3.65,12.45,12.45,0,0,1-1.72-1,3.92,3.92,0,0,0-3-.7,1.85,1.85,0,1,0,2.17,1.87,13.06,13.06,0,0,1,1.26.69c2.35,1.76,8.31,2.51,11-.07.49-.47.47-.2.47-.2,1.3,1.88,3.82.73,3.82.73,3.19-1.4,2.27-4.79.66-5a2,2,0,0,0-1.7.46,1.84,1.84,0,0,0-.61,1.64.75.75,0,1,0,.78-.79c.33-.81,1.11-.16,1.11-.16a1.51,1.51,0,0,1-.21,2.3,2.09,2.09,0,0,1-2.93-.9A9.38,9.38,0,0,0,91,78.91c1-.35,1.95-.65,2.88-1a23.26,23.26,0,0,1,4.52,3.47c3.86,3,10.83,4.82,15.1.37.35-.36.58-.22.65-.13s0,0,0,0a1.15,1.15,0,0,0,.86.4,1.13,1.13,0,0,0,.91-.47,1.64,1.64,0,0,0,.2-.62h0v0A1.07,1.07,0,0,0,116,80.15ZM36.2,78.81s-.21.18-.44-.1c-2.25-2.76,1.18-5.9,2.27-4,0,0-1.29,0-1.14,1,0,0,0,.95,1.18.89,0,0,1.62-.17,1.24-2.12a1.76,1.76,0,0,0-1.21-1.18s-2.83-.77-4,1.69a4.9,4.9,0,0,0-.28,1.49,2.52,2.52,0,0,0-1.1-.54c-.53-.56-1.46-5.08-.87-7.41A7.51,7.51,0,0,0,37.69,63a2.39,2.39,0,0,1,1.43,1.72c.07.59-.2,1.2.14,1.68a9.94,9.94,0,0,0,2.32,1.81c.24.15,3.42,2.61,3.82,2.69s.74-.24,1.13-.17a.87.87,0,0,1,.35.22,4.94,4.94,0,0,0,.55.46A29.4,29.4,0,0,0,44.07,74S43,75.46,36.2,78.81Zm10.66,3.08a6.61,6.61,0,0,1-.49,1.45,9.63,9.63,0,0,1-1-3.92c.72.23,1.43.48,2.16.69A12.74,12.74,0,0,0,46.86,81.89Zm8.49,4s-4.53,1.78-7.64-1.42a17.59,17.59,0,0,1,1.06-4.11,65,65,0,0,0,7.86,1.48C56.45,83.61,56.07,85.83,55.35,85.93Zm-4.48-8.8a5.11,5.11,0,0,1,3.51-1.44,2.54,2.54,0,0,1,2.39,2.5C54.57,77.88,52.57,77.52,50.87,77.13Zm4.52-2.87a10,10,0,0,0-5.68,2.58c-1.36-.34-2.59-.68-3.55-1a6.61,6.61,0,0,1,.7-1.14s3.84-4.65,10.73-2C57.72,72.73,57.28,73.84,55.39,74.26Zm3.16,4.18c.28-2.75.49-5.06,1.48-5a1.68,1.68,0,0,1,1.21.69c.86,1.2,3.19,2.63,4.26,4.81C63,78.82,60.65,78.68,58.55,78.44Zm10.89.45c1.06-2.18,3.39-3.61,4.26-4.81a1.68,1.68,0,0,1,1.21-.69c1,0,1.2,2.3,1.48,5C74.28,78.68,71.93,78.83,69.44,78.89Zm7.91-6.21c6.89-2.61,10.73,2,10.73,2a6.68,6.68,0,0,1,.7,1.15c-1,.3-2.19.64-3.55,1a10,10,0,0,0-5.68-2.59C77.66,73.84,77.21,72.73,77.35,72.68Zm3.21,3a5.06,5.06,0,0,1,3.51,1.45c-1.7.39-3.7.75-5.9,1.06C78.54,75.66,80.56,75.69,80.56,75.69Zm-1,10.24c-.72-.1-1.1-2.32-1.28-4a66.65,66.65,0,0,0,7.86-1.48,17.45,17.45,0,0,1,1.06,4.1C84.12,87.71,79.59,85.93,79.59,85.93Zm9-2.59a6.61,6.61,0,0,1-.49-1.45,12.15,12.15,0,0,0-.64-1.77c.73-.21,1.44-.46,2.16-.69A9.55,9.55,0,0,1,88.57,83.34Z"/><path class="cls-1" d="M158.77,231l-.29-11.78h-.09c-.24,1.49-.49,2.56-.68,3.37l-2,8.41h-4l-1.9-8.41c-.19-.81-.43-1.88-.7-3.37h-.08L148.87,231h-2.48l.54-14h4.65s1.53,7,2.33,11.53H154c.93-4.48,2.75-11.53,2.75-11.53h4.57l.53,14Z"/><path class="cls-1" d="M165,231v-8.18l-1.17-.25v-1.7h3.86V231Zm-.08-14.26h2.73v2.46H164.9Z"/><path class="cls-1" d="M176.41,231v-6c0-1.53-.58-2.26-1.82-2.26a3.31,3.31,0,0,0-1.78.62V231h-2.7V220.86H172l.42,1.16a4.2,4.2,0,0,1,3.2-1.36c2.56,0,3.57,1.51,3.57,4.07V231Z"/><path class="cls-1" d="M182.19,231v-8.18l-1.18-.25v-1.7h3.87V231Zm-.08-14.26h2.72v2.46h-2.72Z"/><path class="cls-1" d="M189.67,223.53c0,1.57,4.38,1.09,4.38,4.4,0,1.84-1.37,3.26-4,3.26a6.5,6.5,0,0,1-3-.74l.56-1.88a4.74,4.74,0,0,0,2.4.7c.89,0,1.49-.49,1.49-1.11,0-1.82-4.32-1.22-4.32-4.67,0-1.49,1.13-2.83,3.86-2.83a8.05,8.05,0,0,1,2.85.49l-.37,2a6,6,0,0,0-2.44-.52C190.12,222.6,189.67,223,189.67,223.53Z"/><path class="cls-1" d="M199.91,231.19c-1.79,0-3-.84-3-3.38v-5h-1.51v-1.93h1.51v-1.75l2.66-.87v2.62h2.71v1.93H199.6v5a1,1,0,0,0,1.08,1.16,3.58,3.58,0,0,0,1.55-.37l.41,2A5.82,5.82,0,0,1,199.91,231.19Z"/><path class="cls-1" d="M206.17,226.65a2.3,2.3,0,0,0,2.61,2.5,6.71,6.71,0,0,0,3-.85l.52,1.9a8.24,8.24,0,0,1-3.82,1c-3.12,0-5-1.94-5-5.28,0-3.12,1.51-5.25,4.75-5.25,3.06,0,4.25,2.27,4.25,4.81v1.18Zm1.9-4c-1.34,0-1.9,1.22-1.9,2.42h3.7C209.87,223.76,209.48,222.64,208.07,222.64Z"/><path class="cls-1" d="M220.26,223.12A4.27,4.27,0,0,0,219,223a3,3,0,0,0-1.82.68V231H214.5V220.86h1.88l.29,1.37h.06a2.7,2.7,0,0,1,2.42-1.55,4.64,4.64,0,0,1,1.17.14Z"/><path class="cls-1" d="M222.72,231v-8.18l-1.18-.25v-1.7h3.87V231Zm-.08-14.26h2.72v2.46h-2.72Z"/><path class="cls-1" d="M237,225.91c0,3.45-1.73,5.28-4.75,5.28s-4.75-1.81-4.75-5.28c0-3,1.65-5.25,4.75-5.25S237,222.93,237,225.91Zm-2.76,0c0-2.44-.73-3.29-2-3.29s-2,.87-2,3.29.64,3.3,2,3.3S234.19,228.32,234.19,225.91Z"/><path class="cls-1" d="M250.07,221.65a6.44,6.44,0,0,1-.25-1.86v-3.06h2.69V231h-2.19l-.31-1.12a3.27,3.27,0,0,1-2.69,1.32c-2.29,0-4.13-1.65-4.13-5.26,0-3.35,1.9-5.27,4.36-5.27A3.28,3.28,0,0,1,250.07,221.65Zm-.25,1.53a3.56,3.56,0,0,0-1.83-.5c-1.29,0-2.09.87-2.09,3.23s.76,3.32,2,3.32a2.63,2.63,0,0,0,1.88-.87Z"/><path class="cls-1" d="M257.26,226.65a2.3,2.3,0,0,0,2.6,2.5,6.71,6.71,0,0,0,3-.85l.52,1.9a8.29,8.29,0,0,1-3.83,1c-3.12,0-5-1.94-5-5.28,0-3.12,1.51-5.25,4.76-5.25,3.05,0,4.25,2.27,4.25,4.81v1.18Zm1.9-4c-1.34,0-1.9,1.22-1.9,2.42H261C261,223.76,260.57,222.64,259.16,222.64Z"/><path class="cls-1" d="M270.17,228.3V216.73h2.67v11.43c0,.84.51,1,1.63,1V231a8.82,8.82,0,0,1-1.49.16C270.91,231.19,270.17,230.1,270.17,228.3Z"/><path class="cls-1" d="M282.46,231l-.37-1.2a3.64,3.64,0,0,1-2.95,1.4,3.14,3.14,0,0,1-3.39-3.24c0-1.88,1.38-3,3.82-3h2.13v-.51c0-1.3-.75-1.72-1.78-1.72a7.21,7.21,0,0,0-3,.69l-.68-1.93a10.34,10.34,0,0,1,4-.82c2.87,0,4.11,1.32,4.11,3.9V231Zm-.76-4.42H280c-1.12,0-1.64.53-1.64,1.3a1.35,1.35,0,0,0,1.51,1.49,3,3,0,0,0,1.8-.69Z"/><path class="cls-1" d="M289,223.53c0,1.57,4.38,1.09,4.38,4.4,0,1.84-1.36,3.26-4,3.26a6.42,6.42,0,0,1-3-.74l.55-1.88a4.74,4.74,0,0,0,2.4.7c.89,0,1.49-.49,1.49-1.11,0-1.82-4.32-1.22-4.32-4.67,0-1.49,1.14-2.83,3.86-2.83a8.05,8.05,0,0,1,2.85.49l-.37,2a6,6,0,0,0-2.44-.52C289.44,222.6,289,223,289,223.53Z"/><path class="cls-1" d="M152.24,252.25c-3.93,0-6-2.6-6-7.25,0-4.34,2.09-7.11,6-7.11a8.7,8.7,0,0,1,4.75,1.18l-1,2.19a5.85,5.85,0,0,0-3.43-1c-2.32,0-3.47,1.63-3.47,4.69,0,3.22,1.15,4.87,3.43,4.87a6.47,6.47,0,0,0,3.67-1.28l.87,2.19A8.23,8.23,0,0,1,152.24,252.25Z"/><path class="cls-1" d="M165.42,252,165,250.8a4,4,0,0,1-3.16,1.45c-2.52,0-3.67-1.4-3.67-4.19v-6.14h2.68v6.16c0,1.55.56,2.1,1.78,2.1a3.19,3.19,0,0,0,1.82-.6v-7.66h2.74V252Z"/><path class="cls-1" d="M169.26,249.36V237.79h2.66v11.42c0,.85.52,1,1.64,1v1.9a8.32,8.32,0,0,1-1.49.17C170,252.25,169.26,251.15,169.26,249.36Z"/><path class="cls-1" d="M178.84,252.25c-1.79,0-3-.85-3-3.39v-5h-1.51v-1.92h1.51v-1.76l2.66-.86v2.62h2.71v1.92h-2.71v5a1,1,0,0,0,1.08,1.16,3.58,3.58,0,0,0,1.55-.38l.41,2A5.82,5.82,0,0,1,178.84,252.25Z"/><path class="cls-1" d="M190.17,252l-.42-1.24a4,4,0,0,1-3.16,1.45c-2.52,0-3.68-1.4-3.68-4.19v-6.14h2.69v6.16c0,1.55.56,2.1,1.78,2.1a3.19,3.19,0,0,0,1.82-.6v-7.66h2.74V252Z"/><path class="cls-1" d="M199.73,244.17a4.71,4.71,0,0,0-1.26-.16,3,3,0,0,0-1.82.68V252H194V241.92h1.88l.29,1.36h.06a2.72,2.72,0,0,1,2.41-1.55,4.63,4.63,0,0,1,1.18.15Z"/><path class="cls-1" d="M207.19,252l-.37-1.19a3.64,3.64,0,0,1-3,1.4,3.14,3.14,0,0,1-3.39-3.24c0-1.88,1.39-3,3.83-3h2.12v-.52c0-1.3-.74-1.71-1.77-1.71a7.37,7.37,0,0,0-3,.68l-.68-1.92a10.24,10.24,0,0,1,4-.83c2.88,0,4.12,1.33,4.12,3.91V252Zm-.77-4.42h-1.67c-1.12,0-1.63.54-1.63,1.3a1.35,1.35,0,0,0,1.51,1.49,3,3,0,0,0,1.79-.68Z"/><path class="cls-1" d="M213.51,244.59c0,1.56,4.38,1.09,4.38,4.4,0,1.83-1.37,3.26-4,3.26a6.47,6.47,0,0,1-3-.74l.56-1.88a4.74,4.74,0,0,0,2.4.7c.89,0,1.48-.5,1.48-1.12,0-1.82-4.31-1.22-4.31-4.67,0-1.48,1.13-2.83,3.86-2.83a8.08,8.08,0,0,1,2.85.5l-.37,2a6,6,0,0,0-2.44-.51C214,243.66,213.51,244,213.51,244.59Z"/><path class="cls-1" d="M219.56,249.13h2.73v3.08c0,1.73-1,2.46-2.73,2.64v-1.4c.37-.08.64-.44.64-1.41l-.64-.31Z"/><path class="cls-1" d="M228.63,249.36V237.79h2.67v11.42c0,.85.51,1,1.63,1v1.9a8.32,8.32,0,0,1-1.49.17C229.37,252.25,228.63,251.15,228.63,249.36Z"/><path class="cls-1" d="M240.71,252l-.37-1.19a3.62,3.62,0,0,1-3,1.4A3.14,3.14,0,0,1,234,249c0-1.88,1.38-3,3.82-3H240v-.52c0-1.3-.74-1.71-1.78-1.71a7.32,7.32,0,0,0-3,.68l-.69-1.92a10.33,10.33,0,0,1,4-.83c2.87,0,4.11,1.33,4.11,3.91V252Zm-.76-4.42h-1.67c-1.12,0-1.63.54-1.63,1.3a1.34,1.34,0,0,0,1.5,1.49,3.06,3.06,0,0,0,1.8-.68Z"/><path class="cls-1" d="M247,244.59c0,1.56,4.38,1.09,4.38,4.4,0,1.83-1.37,3.26-4,3.26a6.47,6.47,0,0,1-3-.74l.56-1.88a4.71,4.71,0,0,0,2.4.7c.88,0,1.48-.5,1.48-1.12,0-1.82-4.31-1.22-4.31-4.67,0-1.48,1.13-2.83,3.86-2.83a8.08,8.08,0,0,1,2.85.5l-.37,2a6,6,0,0,0-2.44-.51C247.49,243.66,247,244,247,244.59Z"/><path class="cls-1" d="M259.37,252h-2.65l3.78-13.94H265L268.66,252h-3l-.73-3.14h-4.79Zm2.77-11.57-1.53,6.24h3.8L263,240.47Z"/><path class="cls-1" d="M275.69,244.17a4.71,4.71,0,0,0-1.26-.16,3,3,0,0,0-1.82.68V252h-2.69V241.92h1.88l.29,1.36h.07a2.7,2.7,0,0,1,2.41-1.55,4.63,4.63,0,0,1,1.18.15Z"/><path class="cls-1" d="M280.85,252.25c-1.79,0-3-.85-3-3.39v-5h-1.51v-1.92h1.51v-1.76l2.66-.86v2.62h2.71v1.92h-2.71v5a1,1,0,0,0,1.08,1.16,3.65,3.65,0,0,0,1.55-.38l.41,2A5.82,5.82,0,0,1,280.85,252.25Z"/><path class="cls-1" d="M286.91,247.7a2.29,2.29,0,0,0,2.6,2.5,6.87,6.87,0,0,0,3-.84l.51,1.9a8.37,8.37,0,0,1-3.82,1c-3.12,0-5-1.94-5-5.29,0-3.12,1.51-5.25,4.75-5.25,3.06,0,4.26,2.28,4.26,4.82v1.17Zm1.9-4c-1.35,0-1.9,1.22-1.9,2.41h3.7C290.61,244.81,290.21,243.7,288.81,243.7Z"/><path class="cls-1" d="M297.38,244.59c0,1.56,4.38,1.09,4.38,4.4,0,1.83-1.36,3.26-4,3.26a6.42,6.42,0,0,1-3-.74l.55-1.88a4.74,4.74,0,0,0,2.4.7c.89,0,1.49-.5,1.49-1.12,0-1.82-4.32-1.22-4.32-4.67,0-1.48,1.13-2.83,3.86-2.83a8,8,0,0,1,2.85.5l-.37,2a6,6,0,0,0-2.44-.51C297.83,243.66,297.38,244,297.38,244.59Z"/><path class="cls-1" d="M150.38,272.87l-1.88.33-3-10.23h3l2.15,8.5h0l2.17-8.5h2.68l-3.12,10.38c-.86,2.91-2.33,4-4.42,4a5.28,5.28,0,0,1-2.85-1l.85-1.84h.25a3.42,3.42,0,0,0,1.88.73c1.07,0,1.77-.75,2.14-2Z"/><path class="cls-1" d="M163.87,268.76a2.3,2.3,0,0,0,2.6,2.5,6.75,6.75,0,0,0,3-.85l.51,1.9a8.23,8.23,0,0,1-3.82,1c-3.12,0-5-1.95-5-5.29,0-3.12,1.51-5.25,4.75-5.25,3.06,0,4.26,2.27,4.26,4.81v1.18Zm1.9-4c-1.35,0-1.9,1.22-1.9,2.42h3.69C167.56,265.87,167.17,264.75,165.77,264.75Z"/><path class="cls-1" d="M172.23,270.41V258.84h2.67v11.43c0,.84.51,1,1.63,1v1.9a8.32,8.32,0,0,1-1.49.17C173,273.31,172.23,272.21,172.23,270.41Z"/><path class="cls-1" d="M187.13,268.24H185.6v4.86h-2.71v-14h4.24c2.85,0,5.31,1.37,5.31,4.36C192.44,266.2,190.41,268.24,187.13,268.24Zm-.07-6.79H185.6v4.66h1.46a2.3,2.3,0,0,0,2.5-2.5C189.56,262.19,188.61,261.45,187.06,261.45Z"/><path class="cls-1" d="M199.77,273.1l-.37-1.2a3.65,3.65,0,0,1-3,1.41,3.14,3.14,0,0,1-3.38-3.25c0-1.88,1.38-3,3.82-3H199v-.51c0-1.3-.75-1.72-1.78-1.72a7.21,7.21,0,0,0-3,.69l-.68-1.93a10.3,10.3,0,0,1,4-.82c2.87,0,4.11,1.32,4.11,3.9v6.43Zm-.76-4.42h-1.68c-1.11,0-1.63.53-1.63,1.3a1.35,1.35,0,0,0,1.51,1.49,3,3,0,0,0,1.8-.69Z"/><path class="cls-1" d="M207.7,273.31c-1.8,0-3-.85-3-3.39v-5h-1.51V263h1.51v-1.75l2.66-.87V263h2.71v1.93h-2.71v5a1,1,0,0,0,1.08,1.16,3.65,3.65,0,0,0,1.55-.37l.41,2A5.81,5.81,0,0,1,207.7,273.31Z"/><path class="cls-1" d="M217.91,265.23a4.32,4.32,0,0,0-1.26-.17,2.91,2.91,0,0,0-1.82.68v7.36h-2.69V263H214l.29,1.37h.06a2.7,2.7,0,0,1,2.42-1.55,4.74,4.74,0,0,1,1.18.14Z"/><path class="cls-1" d="M220.36,273.1v-8.18l-1.17-.25V263h3.86V273.1Zm-.08-14.26H223v2.46h-2.73Z"/><path class="cls-1" d="M234.45,266.84v6.26h-2.72v-6c0-1.53-.56-2.26-1.82-2.26a3.11,3.11,0,0,0-1.72.62v7.65h-2.7V263h1.82l.45,1.18a3.81,3.81,0,0,1,3-1.38c1.65,0,2.64.49,3.16,1.42a4,4,0,0,1,3.05-1.42c2.9,0,3.74,1.51,3.74,4.07v6.26H238v-6c0-1.53-.64-2.26-1.9-2.26a3.13,3.13,0,0,0-1.72.62A7.57,7.57,0,0,1,234.45,266.84Z"/><path class="cls-1" d="M252,268c0,3.45-1.73,5.29-4.75,5.29s-4.75-1.82-4.75-5.29c0-3,1.65-5.25,4.75-5.25S252,265,252,268Zm-2.77,0c0-2.44-.72-3.29-2-3.29s-2,.87-2,3.29.64,3.3,2,3.3S249.22,270.43,249.22,268Z"/><path class="cls-1" d="M260.3,273.1v-6c0-1.53-.58-2.26-1.82-2.26a3.31,3.31,0,0,0-1.78.62v7.65H254V263h1.86l.42,1.16a4.2,4.2,0,0,1,3.2-1.36c2.56,0,3.57,1.51,3.57,4.07v6.26Z"/><path class="cls-1" d="M266.08,273.1v-8.18l-1.18-.25V263h3.87V273.1ZM266,258.84h2.72v2.46H266Z"/><path class="cls-1" d="M280.31,268c0,3.45-1.73,5.29-4.75,5.29s-4.75-1.82-4.75-5.29c0-3,1.65-5.25,4.75-5.25S280.31,265,280.31,268Zm-2.77,0c0-2.44-.72-3.29-2-3.29s-2,.87-2,3.29.64,3.3,2,3.3S277.54,270.43,277.54,268Z"/><path class="cls-1" d="M150.2,34.9a9.26,9.26,0,0,1-5.5-1.8L146,30.52a7.22,7.22,0,0,0,4.29,1.63,2.34,2.34,0,0,0,2.6-2.22c0-3.58-7.79-1.8-7.79-7.75,0-2.55,2-4.65,5.94-4.65a10.62,10.62,0,0,1,5,1.15l-1.1,2.62a8.3,8.3,0,0,0-4-.92c-1.52,0-2.52.5-2.52,1.75,0,3,7.85,1.85,7.85,7.6C156.27,32.4,154,34.9,150.2,34.9Z"/><path class="cls-1" d="M159.49,34.65V17.78h10.38v2.77h-7.1V24.7h5.42l-.25,2.9h-5.17v4.32h7.1v2.73Z"/><path class="cls-1" d="M176.34,34.65H173.1V17.78h5.42c3.32,0,6,1.55,6,5.07a5.21,5.21,0,0,1-3.2,4.85c1.18,2.35,2.4,4.6,3.58,7h-3.85l-2.78-6.37c-.75,0-1.25,0-1.95,0ZM178,20.33h-1.65v5.4H178c2.15,0,3-1,3-2.9S180,20.33,178,20.33Z"/><path class="cls-1" d="M187.74,34.65V17.78h10.38v2.77H191V24.7h5.42l-.25,2.9H191v4.32h7.1v2.73Z"/><path class="cls-1" d="M216,34.65l-.35-14.25h-.1c-.3,1.8-.6,3.1-.82,4.08l-2.4,10.17h-4.83l-2.3-10.17c-.22-1-.52-2.28-.85-4.08h-.1L204,34.65h-3l.65-16.87h5.62s1.85,8.5,2.83,14h.07c1.13-5.43,3.33-13.95,3.33-13.95H219l.65,16.87Z"/><path class="cls-1" d="M223.62,34.65V17.78h3.27V34.65Z"/></g></g></svg>