<svg xmlns="http://www.w3.org/2000/svg" viewBox="0 0 174.25 144.15"><defs><style>.cls-1{fill:#900;}</style></defs><g id="Capa_2" data-name="Capa 2"><g id="Capa_1-2" data-name="Capa 1"><path class="cls-1" d="M45.51,0V64a41.68,41.68,0,1,0,83.35,0V0S50.56.05,45.51,0m73.61,61.41c0,13.73-7.92,25.51-19.23,30.55a30,30,0,0,1-12.26,2.61c-17.41,0-31.52-14.86-31.52-33.18V10.79c4,0,63,0,63,0Z"/><path class="cls-1" d="M117.27,47.69v0h0V47H109.9A21.33,21.33,0,0,1,114,37.42c.67-.88-.12-1.11-.44-1.11h-.39c.93-.68,1.65-1.49,1.67-2.11a2,2,0,0,0-.94-1.58,1,1,0,0,1,.21-1.22l.92-.77-1.26.4a3,3,0,0,0-2.33,2.51,1.41,1.41,0,0,0,.18.66h-1.67a1.77,1.77,0,0,0,.41-1.13c0-1.1-1.59-1.87-1.59-3.09,0,1-1.48,2.15-1.48,3.09a1.58,1.58,0,0,0,.27,1.13h-2.7a1.77,1.77,0,0,0,.41-1.13c0-1.1-1.6-1.87-1.6-3.09,0,1-1.48,2.15-1.48,3.09a1.61,1.61,0,0,0,.28,1.13h-1.57a1.44,1.44,0,0,0,.2-.71A3,3,0,0,0,98.75,31l-1.26-.41.93.77a1,1,0,0,1,.2,1.22,2,2,0,0,0-.94,1.58,3.7,3.7,0,0,0,1.62,2.16h-.39c-.31,0-1.1.23-.44,1.11a19.47,19.47,0,0,1,3.37,6.72l-7.15,0V32.24h0c0-1,.31-3,1-3.44,1.61-.94,2.45-1.91,2.49-2.9a2.56,2.56,0,0,0-1.21-2,1.3,1.3,0,0,1,.27-1.56l1.18-1-1.61.52c-2,.63-3,2.09-3,3.21a2,2,0,0,0,.49,1.23l-3.11,0a2.23,2.23,0,0,0,.91-1.79c0-1.39-2-2.36-2-3.9,0,1.31-1.86,2.71-1.86,3.9A1.76,1.76,0,0,0,89,26.27l-4.23,0a2.26,2.26,0,0,0,.87-1.77c0-1.39-2-2.36-2-3.9,0,1.31-1.87,2.71-1.87,3.9a1.77,1.77,0,0,0,.77,1.76h-3A1.93,1.93,0,0,0,80.07,25c0-1.12-1-2.58-3-3.21l-1.61-.51,1.18,1a1.29,1.29,0,0,1,.26,1.56,2.59,2.59,0,0,0-1.2,2c0,1,.86,2,2.43,3,.85.51,1.52,2.48,1.52,3.59v.68h0v11H72.23a19.48,19.48,0,0,1,3.37-6.7c.67-.88-.13-1.11-.44-1.11H74.7a.55.55,0,0,0-.18,0h0c.92-.68,1.62-1.48,1.64-2.09a2,2,0,0,0-.94-1.58,1,1,0,0,1,.2-1.22l.93-.77-1.26.4a3,3,0,0,0-2.33,2.51,1.3,1.3,0,0,0,.18.66H71.23a1.7,1.7,0,0,0,.42-1.13c0-1.1-1.6-1.87-1.6-3.09,0,1-1.47,2.15-1.47,3.09a1.58,1.58,0,0,0,.29,1.13H66.14a1.75,1.75,0,0,0,.42-1.13C66.56,32,65,31.2,65,30c0,1-1.48,2.15-1.48,3.09a1.61,1.61,0,0,0,.3,1.13H62.19a1.44,1.44,0,0,0,.2-.71A3,3,0,0,0,60.06,31l-1.26-.41.92.77a1,1,0,0,1,.21,1.22A2,2,0,0,0,59,34.15a3.67,3.67,0,0,0,1.59,2.14h-.11c-.11,0-.17,0-.2.06-.34.1-.7.38-.18,1.07A21.33,21.33,0,0,1,64.17,47H57.92v.68h6.37c.14.84.24,1.73.31,2.67H57.92v1.36h6.74c0,.28,0,.56,0,.86,0,8.71-2,14.18-2.55,15.42-.61,0-.92.19-.92.68v.76a.84.84,0,0,0-.42.48v.88a.93.93,0,0,0-.45.77v.93H75.08v-.93c0-.46-.16-.77-.38-.77v-.61a.7.7,0,0,0-.24-.61l-.08-.06v-.84c0-.47-.34-.68-.81-.68,0-.11-.11-.26-.19-.46h27.25l-.15.45a1.18,1.18,0,0,0-.78.73v.79a.27.27,0,0,0-.08.07.71.71,0,0,0-.24.58v.64c-.29.08-.4.31-.4.77v.93h14.76c0-.54,0-1,0-1a.61.61,0,0,0-.42-.69v-.89a.86.86,0,0,0-.43-.48v-.76c0-.42-.25-.68-.9-.68-.41-1-2.56-6.38-2.56-15.42,0-.3,0-.58,0-.86h7.86v-.47c0-.15,0-.29,0-.43h0v-.46h-7.8c.07-.94.17-1.83.31-2.67ZM89.92,53.4H84.45a2.26,2.26,0,0,0-2.27,2.26v7.51h-10c-.21-1-.41-1.94-.59-2.86A51.51,51.51,0,0,1,71,52.58c0-.78,0-1.52.09-2.24H103c0,.72.09,1.46.09,2.24A48.94,48.94,0,0,1,102,63.17H92.19V55.66A2.26,2.26,0,0,0,89.92,53.4Zm1.18,2.26v7.51H87.73V54.48h2.19A1.18,1.18,0,0,1,91.1,55.66Zm-4.38-1.18v8.69H83.27V55.66a1.18,1.18,0,0,1,1.18-1.18ZM63,38.79h9.77A27.77,27.77,0,0,0,69,53.19,51.79,51.79,0,0,0,71.5,67.91H64.18a51.79,51.79,0,0,0,2.46-14.72A31.09,31.09,0,0,0,66,46.57c0-.1,0-.22,0-.32a6.22,6.22,0,0,0-.19-.7A25.24,25.24,0,0,0,63,38.79Zm44.47,14.4a51.43,51.43,0,0,0,2.46,14.72h-7.32A51.86,51.86,0,0,0,105,53.19a27.86,27.86,0,0,0-3.66-14.38H111a18.33,18.33,0,0,0-1,2.12A29.05,29.05,0,0,0,107.43,53.19Zm4.66-18.28-.51,1.38h-1.36l-.51-1.38Zm-4.22,0-.41,1.38h-2.33l-.51-1.38Zm-5.09,0-.41,1.38h-1.43l-.48-1.38ZM94.62,27,94,28.57H92L91.38,27Zm-5.69,0-.47,1.58H85.53L85,27Zm3.9,5V44.12H81.53V32ZM79.34,27H82.5L82,28.57H79.89ZM102.07,44.9a26.36,26.36,0,0,1,.74,3.76H71.25A27.92,27.92,0,0,1,72,44.91Zm-28.67-10-.51,1.38H71.53L71,34.91Zm-4.22,0-.41,1.38H66.44l-.51-1.38Zm-5.09,0-.41,1.38H62.25l-.48-1.38Zm10,35.25v.48H61.39V70a.38.38,0,0,1,.34-.24h12C74.09,69.8,74.1,70,74.1,70.16Zm-1.39-4.65c-.11-.35-.22-.74-.32-1.16h29.29c-.11.42-.21.81-.31,1.16Zm40,4.5v.63H100v-.5a.33.33,0,0,1,.09-.26.45.45,0,0,1,.29-.11h12A.4.4,0,0,1,112.69,70Z"/><polygon class="cls-1" points="0 114.42 6.6 114.42 6.6 138.12 18.23 138.12 18.23 143.67 0 143.67 0 114.42"/><path class="cls-1" d="M38.67,138.55a27.45,27.45,0,0,0,.35,5.12h-6l-.39-2.12h-.13a7.65,7.65,0,0,1-6.07,2.6,6.51,6.51,0,0,1-6.86-6.51c0-5.52,4.95-8.12,12.46-8.12v-.26c0-1.17-.61-2.78-3.87-2.78a11.92,11.92,0,0,0-5.86,1.61l-1.21-4.26a17.44,17.44,0,0,1,8.24-1.91c7.08,0,9.29,4.17,9.29,9.2Zm-6.38-4.91c-3.47,0-6.16.83-6.16,3.35a2.36,2.36,0,0,0,2.6,2.51,3.63,3.63,0,0,0,3.43-2.43,4.55,4.55,0,0,0,.13-1.13Z"/><path class="cls-1" d="M51,136.85a16.6,16.6,0,0,0,7.34,1.83c3,0,4.64-1.26,4.64-3.17s-1.39-2.87-4.9-4.08C53.17,129.69,50,127,50,122.75c0-5,4.2-8.77,11.06-8.77a17.07,17.07,0,0,1,7.47,1.48L67,120.75a13.72,13.72,0,0,0-6.07-1.39c-2.87,0-4.26,1.35-4.26,2.82,0,1.87,1.61,2.7,5.43,4.13,5.16,1.91,7.55,4.6,7.55,8.72,0,4.91-3.73,9.08-11.76,9.08a19,19,0,0,1-8.29-1.83Z"/><path class="cls-1" d="M78.25,135.16c.17,2.74,2.91,4,6,4a17.71,17.71,0,0,0,5.86-.91l.87,4.47a20.11,20.11,0,0,1-7.69,1.35c-7.2,0-11.32-4.17-11.32-10.81C72,127.91,75.3,122,82.68,122c6.85,0,9.46,5.34,9.46,10.59a15.1,15.1,0,0,1-.22,2.6ZM86,130.65c0-1.61-.69-4.3-3.73-4.3-2.78,0-3.91,2.56-4.08,4.3Z"/><path class="cls-1" d="M95,129.43c0-3.12,0-5.16-.17-7h5.64l.26,3.9h.17a6.2,6.2,0,0,1,5.73-4.43,7,7,0,0,1,1.39.13v6.21a9.59,9.59,0,0,0-1.78-.17,4.24,4.24,0,0,0-4.51,3.34,7.45,7.45,0,0,0-.13,1.47v10.77H95Z"/><path class="cls-1" d="M115.14,135.16c.17,2.74,2.91,4,6,4a17.71,17.71,0,0,0,5.86-.91l.87,4.47a20.11,20.11,0,0,1-7.69,1.35c-7.2,0-11.32-4.17-11.32-10.81,0-5.39,3.34-11.33,10.72-11.33,6.86,0,9.46,5.34,9.46,10.59a15.1,15.1,0,0,1-.22,2.6Zm7.77-4.51c0-1.61-.69-4.3-3.73-4.3-2.78,0-3.91,2.56-4.08,4.3Z"/><path class="cls-1" d="M131.89,129.22c0-2.65-.09-4.86-.17-6.77h5.73l.3,3h.13a7.63,7.63,0,0,1,6.56-3.43c4.34,0,7.59,2.91,7.59,9.15v12.55h-6.6V131.91c0-2.74-1-4.6-3.34-4.6a3.62,3.62,0,0,0-3.39,2.47,4.83,4.83,0,0,0-.21,1.65v12.24h-6.6Z"/><path class="cls-1" d="M173.9,138.55a27.45,27.45,0,0,0,.35,5.12h-5.94l-.39-2.12h-.14a7.65,7.65,0,0,1-6.07,2.6,6.51,6.51,0,0,1-6.86-6.51c0-5.52,5-8.12,12.46-8.12v-.26c0-1.17-.61-2.78-3.87-2.78a11.92,11.92,0,0,0-5.86,1.61l-1.21-4.26a17.44,17.44,0,0,1,8.24-1.91c7.08,0,9.29,4.17,9.29,9.2Zm-6.38-4.91c-3.47,0-6.16.83-6.16,3.35A2.37,2.37,0,0,0,164,139.5a3.63,3.63,0,0,0,3.42-2.43,4.55,4.55,0,0,0,.13-1.13Z"/></g></g></svg>