<svg xmlns="http://www.w3.org/2000/svg" viewBox="0 0 600 339.4"><defs><style>.cls-1{fill-rule:evenodd;}.cls-2{fill:none;}</style></defs><g id="Capa_2" data-name="Capa 2"><g id="Capa_1-2" data-name="Capa 1"><g id="Forma_1" data-name="Forma 1"><polygon class="cls-1" points="236.95 98.86 228.68 97.29 224.59 89.89 220.54 97.31 212.28 98.93 218.05 105.09 217.03 113.49 224.64 109.88 232.28 113.45 231.21 105.06 236.95 98.86"/></g><g id="Forma_1_copia" data-name="Forma 1 copia"><polygon class="cls-1" points="290.67 86.66 282.39 85.09 278.31 77.69 274.26 85.11 265.99 86.72 271.76 92.89 270.74 101.29 278.36 97.67 285.99 101.25 284.93 92.85 290.67 86.66"/></g><g id="Forma_1_copia_2" data-name="Forma 1 copia 2"><polygon class="cls-1" points="340.02 86.53 331.75 84.96 327.66 77.56 323.61 84.98 315.35 86.6 321.12 92.76 320.1 101.16 327.71 97.55 335.35 101.12 334.28 92.73 340.02 86.53"/></g><g id="Forma_1_copia_3" data-name="Forma 1 copia 3"><polygon class="cls-1" points="384.48 98.49 376.2 96.91 372.12 89.51 368.07 96.93 359.8 98.55 365.58 104.71 364.55 113.11 372.17 109.5 379.8 113.07 378.74 104.68 384.48 98.49"/></g><g id="Forma_1_copia_4" data-name="Forma 1 copia 4"><polygon class="cls-1" points="236.38 262.06 228.11 260.48 224.02 253.08 219.97 260.5 211.71 262.12 217.48 268.29 216.45 276.68 224.07 273.07 231.71 276.64 230.64 268.25 236.38 262.06"/></g><g id="Forma_1_copia_4-2" data-name="Forma 1 copia 4"><polygon class="cls-1" points="291.25 273.99 282.98 272.41 278.89 265.01 274.85 272.43 266.58 274.05 272.35 280.21 271.33 288.61 278.94 285 286.58 288.57 285.51 280.18 291.25 273.99"/></g><g id="Forma_1_copia_4-3" data-name="Forma 1 copia 4"><polygon class="cls-1" points="340.61 273.86 332.34 272.28 328.25 264.88 324.2 272.31 315.94 273.92 321.71 280.08 320.68 288.48 328.3 284.87 335.94 288.44 334.87 280.05 340.61 273.86"/></g><g id="Forma_1_copia_4-4" data-name="Forma 1 copia 4"><polygon class="cls-1" points="384.46 261.68 376.18 260.11 372.09 252.71 368.05 260.13 359.78 261.75 365.55 267.91 364.53 276.31 372.14 272.69 379.78 276.27 378.71 267.87 384.46 261.68"/></g><path d="M600,168.94q.07,28.37-11.85,50.1t-32,27.9l0,16.7-73.54.18q-45,38.51-90.38,57T300.15,339.4q-46.24.12-92.24-18.12t-90.12-56.53l-73,.19,0-16.69a58.08,58.08,0,0,1-17.58-11.36,74,74,0,0,1-14-17.77,104.64,104.64,0,0,1-9.53-22.79A92.37,92.37,0,0,1,0,170.47,84.85,84.85,0,0,1,3.56,145.7a99.57,99.57,0,0,1,9.69-22.28A86.5,86.5,0,0,1,27.41,105.3,68.92,68.92,0,0,1,44.37,93l0-17.25,73-.18q43.91-38.51,89.82-57T299.29,0q46.8-.12,92.8,18.13t90.12,56.52l73.54-.19,0,16.69a61,61,0,0,1,17,11.37,80.52,80.52,0,0,1,14.25,17.76,89.69,89.69,0,0,1,9.53,22.79A99.73,99.73,0,0,1,600,168.94Zm-5.57,0a85.09,85.09,0,0,0-3.69-24.75,102.36,102.36,0,0,0-9.52-21.95,66.51,66.51,0,0,0-14-16.94,56.55,56.55,0,0,0-17-10.25l0-15.58-69.64.18Q437,41.38,391.27,23.14T299.3,5q-45.12.12-90.76,18.59T119,80.58l-69.08.18,0,15.58q-19.49,5.61-32,26.23T5.57,170.45A84.65,84.65,0,0,0,9.25,195.2a96.21,96.21,0,0,0,9.53,21.68,68,68,0,0,0,14,16.65,54.31,54.31,0,0,0,17.58,10.25l0,15.58,69.08-.17q43.54,38.28,89.28,56.52t91.41,18.13q45.67-.12,90.76-18.32T481,258.26l69.64-.17,0-15.58q18.36-5.61,31.12-26.23T594.43,169Zm-5,0a84.05,84.05,0,0,1-3.55,25,91.91,91.91,0,0,1-9.42,21.17,56.53,56.53,0,0,1-13.89,15.61,40.31,40.31,0,0,1-17,7.84l0,14.46-66.85.17q-43.92,38.5-88.72,57t-89.92,18.59q-45.13.12-90-18.13t-88.45-56.53l-66.29.17,0-14.46a42.12,42.12,0,0,1-17.57-7.47,56.3,56.3,0,0,1-14.24-15.27A77.11,77.11,0,0,1,14,195.75a93.94,93.94,0,0,1-3.41-25.31,86.89,86.89,0,0,1,3.56-25.33A84.7,84.7,0,0,1,23.56,124a58.13,58.13,0,0,1,13.89-15.34A40.22,40.22,0,0,1,55,100.78l0-14.47,66.29-.17q43.36-37.93,88.16-57T299.31,10q45.13-.12,90.3,18.41t88.73,56.8l66.85-.17,0,14.47a35.16,35.16,0,0,1,17,7.19,61,61,0,0,1,14.24,15.54,77.6,77.6,0,0,1,9.53,21.4A93.47,93.47,0,0,1,589.41,169Zm-6.12,0a80.72,80.72,0,0,0-3.41-23.36,67.11,67.11,0,0,0-9.24-19.45,47.45,47.45,0,0,0-14-13.32,31.78,31.78,0,0,0-17-5l0-13.91-61.84.15q-86-76-178.47-75.77Q208,18.6,121.81,95L60,95.2l0,13.91q-17.83.6-30.59,18.44T16.71,170.42q.08,25,12.93,42.81t30.68,18.29l0,13.91,61.84-.16q43,37.72,87.88,56.53t90,18.69q91.35-.24,178.08-76.13L540,244.2l0-13.91a31.77,31.77,0,0,0,17-5,47.48,47.48,0,0,0,13.89-13.39A67.2,67.2,0,0,0,580,192.36,80.81,80.81,0,0,0,583.29,169Zm-5.58,0q.06,22.83-12.43,39T534.4,224.74l0,13.91-58.5.15q-86.16,76.45-175.85,76.68-44,.11-88.35-18.69T124.41,239.7l-58.49.15,0-13.91a33.11,33.11,0,0,1-17-4.69,48.57,48.57,0,0,1-14-12.2,63.2,63.2,0,0,1-9.52-17.51,61.72,61.72,0,0,1-3.67-21.13,63.71,63.71,0,0,1,13-39.26,48.73,48.73,0,0,1,13.89-12.28,33.26,33.26,0,0,1,17-4.77l0-13.91,58.49-.15q42.81-37.38,87.05-56.69t88.25-19.42q44.56-.12,88.91,18.69t87.33,56.53L534.08,99l0,13.91q18.39.51,31,16.61T577.71,169Zm-5,0q0-20.58-12.9-35.3t-30.68-15.23l0-14.46-55.15.14q-43-37.72-87.05-56.53t-87.52-18.7q-43.46.12-87.14,19.42t-86.48,56.7l-55.15.14,0,14.46Q52.79,120.27,40,135T27.3,170.4q0,20.58,12.9,35.29t30.68,15.23l0,13.91,55.15-.14q43,37.72,86.77,56.53t87.24,18.69q87.45-.21,174.18-76.11l55.15-.14,0-13.91q17.83-.6,30.61-15.38T572.7,169Z"/><path d="M99,121.11a3.29,3.29,0,0,1-1.33-.27,3.52,3.52,0,0,1-1.08-.74,3.73,3.73,0,0,1-.75-1.08,3.26,3.26,0,0,1-.27-1.33,3.3,3.3,0,0,1,.27-1.31,3.42,3.42,0,0,1,1.82-1.84,3.11,3.11,0,0,1,1.33-.28,3.33,3.33,0,0,1,1.33.27,3.52,3.52,0,0,1,1.08.74,3.45,3.45,0,0,1,.74,1.09,3.16,3.16,0,0,1,.28,1.32,3.29,3.29,0,0,1-.27,1.33,3.56,3.56,0,0,1-1.82,1.82A3.11,3.11,0,0,1,99,121.11Zm6.53-.89a2.54,2.54,0,0,1-2.56-2.55,2.52,2.52,0,0,1,.19-1,2.38,2.38,0,0,1,.55-.81,2.57,2.57,0,0,1,.8-.54,2.51,2.51,0,0,1,1-.19,2.36,2.36,0,0,1,1,.19,2.32,2.32,0,0,1,.81.53,2.4,2.4,0,0,1,.54.81,2.67,2.67,0,0,1,0,2,2.32,2.32,0,0,1-.53.81,2.24,2.24,0,0,1-.81.55A2.53,2.53,0,0,1,105.48,120.22Zm75.88-5.32a2.5,2.5,0,0,1,1,.2,2.62,2.62,0,0,1,.82.55,2.51,2.51,0,0,1,.55.82,2.46,2.46,0,0,1,.21,1,2.74,2.74,0,0,1-.2,1,2.55,2.55,0,0,1-1.37,1.37,2.46,2.46,0,0,1-1,.21c-.15,0-.4,0-.76,0l-1.3-.09-3.67,3.27L162.89,118l-51.11.13a1.67,1.67,0,0,1-.58.81,1.51,1.51,0,0,1-1,.31,1.54,1.54,0,0,1-1.13-.46,1.56,1.56,0,0,1-.47-1.15,1.59,1.59,0,0,1,1.59-1.59,1.49,1.49,0,0,1,1,.31,1.69,1.69,0,0,1,.58.81l49.52-.13,14-5.82.27-.11L180,115C180.65,114.93,181.11,114.9,181.36,114.9Zm-5.92-2.65-11.59,4.8h.52v.52l11.09,4.5,2.54-2.26-2.22-.24c-.78-.09-1.56-.19-2.33-.31s-1.51-.23-2.22-.36-1.35-.27-1.89-.42A9.5,9.5,0,0,1,168,118q-.48-.24-.48-.51c0-.18.18-.36.53-.52a8.8,8.8,0,0,1,1.44-.49c.61-.15,1.29-.3,2.06-.44s1.56-.27,2.38-.39,1.64-.23,2.46-.32l2.23-.25Z"/><path d="M99.22,225.11a3.29,3.29,0,0,1-1.33-.27A3.63,3.63,0,0,1,96.06,223a3.48,3.48,0,0,1-.28-1.33,3.16,3.16,0,0,1,.28-1.32,3.47,3.47,0,0,1,.73-1.1,3.52,3.52,0,0,1,1.08-.74,3.34,3.34,0,0,1,1.33-.28,3.26,3.26,0,0,1,1.33.27,3.45,3.45,0,0,1,1.09.74,3.38,3.38,0,0,1,.74,1.1,3.12,3.12,0,0,1,.28,1.31,3.26,3.26,0,0,1-.27,1.33,3.69,3.69,0,0,1-.74,1.09,3.52,3.52,0,0,1-1.08.74A3.27,3.27,0,0,1,99.22,225.11Zm6.52-.9a2.51,2.51,0,0,1-2.55-2.54,2.53,2.53,0,0,1,.19-1,2.35,2.35,0,0,1,.54-.81,2.73,2.73,0,0,1,.81-.54,2.7,2.7,0,0,1,1-.19,2.53,2.53,0,0,1,1,.19,2.47,2.47,0,0,1,.81.53,2.5,2.5,0,0,1,.54.81,2.7,2.7,0,0,1,0,2,2.7,2.7,0,0,1-.53.81,2.38,2.38,0,0,1-.81.55A2.53,2.53,0,0,1,105.74,224.21Zm75.89-5.32a2.62,2.62,0,0,1,1,.2,2.67,2.67,0,0,1,.83.55,2.62,2.62,0,0,1,.55.82,2.49,2.49,0,0,1,.21,1,2.53,2.53,0,0,1-.21,1,2.48,2.48,0,0,1-.54.83,2.62,2.62,0,0,1-.82.55,2.66,2.66,0,0,1-1,.2c-.15,0-.4,0-.76,0l-1.3-.09-3.67,3.27L163.16,222l-51.11.13a1.63,1.63,0,0,1-.58.81,1.6,1.6,0,0,1-2.08-.14,1.6,1.6,0,0,1-.47-1.16,1.53,1.53,0,0,1,.46-1.12,1.61,1.61,0,0,1,2.09-.16,1.67,1.67,0,0,1,.57.81l49.53-.13,14.05-5.82.27-.11,4.37,3.86C180.92,218.92,181.38,218.89,181.63,218.89Zm-5.93-2.64-11.58,4.8h.52v.52l11.09,4.49,2.54-2.25-2.22-.24c-.79-.09-1.56-.2-2.33-.31s-1.51-.24-2.22-.37a16.61,16.61,0,0,1-1.9-.42,8.54,8.54,0,0,1-1.3-.46c-.32-.15-.48-.32-.48-.5s.18-.36.53-.53a10,10,0,0,1,1.44-.48c.6-.16,1.29-.31,2.06-.45l2.38-.39c.82-.12,1.64-.22,2.45-.32l2.24-.25Z"/><path d="M420.22,120.06a2.35,2.35,0,0,1-1-.2,2.75,2.75,0,0,1-.82-.55,2.62,2.62,0,0,1-.55-.82,2.71,2.71,0,0,1-.2-1,2.52,2.52,0,0,1,.2-1,2.71,2.71,0,0,1,.54-.83,2.65,2.65,0,0,1,.82-.56,2.49,2.49,0,0,1,1-.21l.75,0,1.3.1,3.66-3.29,12.74,5.23,51-.13a1.55,1.55,0,0,1,.57-.81,1.46,1.46,0,0,1,.95-.32,1.52,1.52,0,0,1,1.13.46,1.58,1.58,0,0,1,.46,1.16,1.5,1.5,0,0,1-.46,1.13,1.53,1.53,0,0,1-1.12.47,1.55,1.55,0,0,1-1-.31,1.66,1.66,0,0,1-.57-.82l-49.41.13-14,5.85-.28.11L421.59,120C420.94,120,420.48,120.06,420.22,120.06Zm5.92,2.66,11.56-4.82h-.52v-.53l-11.07-4.52-2.53,2.27,2.21.24c.79.09,1.56.2,2.33.31s1.5.24,2.22.37,1.34.27,1.89.42a8.42,8.42,0,0,1,1.3.47q.48.22.48.51c0,.18-.18.36-.54.52a8.32,8.32,0,0,1-1.43.49c-.6.16-1.29.31-2.05.45s-1.56.27-2.38.39-1.64.23-2.45.32l-2.23.25Zm69.8-8a2.4,2.4,0,0,1,1.81.74,2.47,2.47,0,0,1,.74,1.81,2.62,2.62,0,0,1-.19,1,2.35,2.35,0,0,1-.54.81,2.73,2.73,0,0,1-.81.54,2.48,2.48,0,0,1-1,.2,2.71,2.71,0,0,1-1-.19,2.5,2.5,0,0,1-.81-.54,2.32,2.32,0,0,1-.53-.81,2.57,2.57,0,0,1-.2-1,2.53,2.53,0,0,1,.19-1,2.77,2.77,0,0,1,.53-.81,2.4,2.4,0,0,1,.81-.56A2.48,2.48,0,0,1,495.94,114.72Zm6.51-.9a3.29,3.29,0,0,1,1.33.27,3.52,3.52,0,0,1,1.08.74,3.56,3.56,0,0,1,.74,1.09,3.14,3.14,0,0,1,.28,1.33,3.4,3.4,0,0,1-.27,1.33,3.49,3.49,0,0,1-.74,1.1,3.34,3.34,0,0,1-1.07.75,3.35,3.35,0,0,1-2.66,0,3.7,3.7,0,0,1-1.08-.74,3.54,3.54,0,0,1-.74-1.11,3.16,3.16,0,0,1-.28-1.32,3.34,3.34,0,0,1,.27-1.34,3.69,3.69,0,0,1,.74-1.09,3.47,3.47,0,0,1,1.07-.74A3.17,3.17,0,0,1,502.45,113.82Z"/><path d="M421,223.46a2.63,2.63,0,0,1-1.82-.76,2.62,2.62,0,0,1-.55-.82,2.5,2.5,0,0,1-.21-1,2.7,2.7,0,0,1,.2-1,2.67,2.67,0,0,1,.55-.83,2.62,2.62,0,0,1,.82-.55,2.46,2.46,0,0,1,1-.21c.14,0,.39,0,.75,0l1.3.09,3.66-3.29,12.73,5.23,51-.13a1.67,1.67,0,0,1,.57-.81,1.54,1.54,0,0,1,1-.32,1.52,1.52,0,0,1,1.12.46,1.6,1.6,0,0,1,.47,1.16,1.59,1.59,0,0,1-1.58,1.6,1.51,1.51,0,0,1-1-.31,1.63,1.63,0,0,1-.58-.81l-49.41.12-14,5.86-.27.11-4.36-3.88C421.74,223.43,421.29,223.46,421,223.46Zm5.92,2.66,11.56-4.83H438v-.52l-11.07-4.52-2.54,2.26,2.22.25c.79.09,1.56.19,2.33.31s1.5.24,2.21.36a18.64,18.64,0,0,1,1.89.43,8.16,8.16,0,0,1,1.3.46q.48.24.48.51c0,.18-.17.36-.53.53a9.42,9.42,0,0,1-1.43.48c-.6.16-1.29.31-2.06.45s-1.55.27-2.38.39-1.63.23-2.44.32l-2.23.26Zm69.8-8a2.45,2.45,0,0,1,1.81.74,2.48,2.48,0,0,1,.74,1.82,2.53,2.53,0,0,1-.19,1,2.5,2.5,0,0,1-.54.81,2.73,2.73,0,0,1-.81.54,2.48,2.48,0,0,1-1,.2,2.52,2.52,0,0,1-1-.19,2.4,2.4,0,0,1-.81-.54,2.5,2.5,0,0,1-.54-.81,2.53,2.53,0,0,1-.19-1,2.56,2.56,0,0,1,.19-1,2.52,2.52,0,0,1,.53-.81,2.27,2.27,0,0,1,.8-.56A2.53,2.53,0,0,1,496.75,218.11Zm6.51-.9a3.25,3.25,0,0,1,1.32.27,3.56,3.56,0,0,1,1.09.74,3.69,3.69,0,0,1,.74,1.09,3.35,3.35,0,0,1,0,2.66,3.66,3.66,0,0,1-.74,1.11,3.52,3.52,0,0,1-1.08.74,3.11,3.11,0,0,1-1.33.28,3.25,3.25,0,0,1-1.32-.27,3.48,3.48,0,0,1-1.83-1.84,3.39,3.39,0,0,1-.27-1.32,3.15,3.15,0,0,1,.27-1.34,3.42,3.42,0,0,1,.73-1.09,3.38,3.38,0,0,1,1.08-.75A3.11,3.11,0,0,1,503.26,217.21Z"/><path d="M89.45,200.33a20.81,20.81,0,0,1-8.86,2.23q-9.07,0-14.45-7.89T60.73,175A40.82,40.82,0,0,1,63,161.17a22.61,22.61,0,0,1,7.09-10.41,17.07,17.07,0,0,1,11-3.92,20.26,20.26,0,0,1,8.22,2l0,12.34a9.18,9.18,0,0,0-6.56-3q-4.37,0-6.88,4.43c-1.67,2.94-2.51,7.2-2.49,12.77q0,7.16,2.55,11.47c1.7,2.87,3.93,4.3,6.71,4.29,2,0,4.28-1,6.74-2.92Z"/><path d="M96.11,147.7l12.65,0,.14,54-12.65,0Z"/><path d="M115.94,147.64l12.49,0,.1,35.75a13.58,13.58,0,0,0,1.19,6.4,3.79,3.79,0,0,0,3.53,2.14,4,4,0,0,0,3.68-2,11.24,11.24,0,0,0,1.2-5.87L138,147.59l12.58,0,.09,37.18q0,8.43-4.58,13t-13,4.64q-8.11,0-12.61-4.42c-3-3-4.51-7.35-4.53-13.18Z"/><path d="M157.75,147.54l15.7,0a19.73,19.73,0,0,1,11.74,3.29,18.1,18.1,0,0,1,6.68,9.47,44.07,44.07,0,0,1,2,13.57q0,12.51-5.56,20.06t-16.44,7.59l-14,0ZM170.32,158l.08,32.93h.89q9.75,0,9.71-17.75,0-6.85-2.13-11A7.16,7.16,0,0,0,172,158Z"/><path d="M207.45,147.41l12.48,0,14.3,53.94-13.65,0-1.94-10.71-10.32,0-1.94,10.72-12.84,0Zm6,14.73L210.07,181l6.82,0Z"/><path d="M238.18,147.33l15.71,0a19.72,19.72,0,0,1,11.73,3.3,18.07,18.07,0,0,1,6.68,9.46,43.83,43.83,0,0,1,2,13.58q0,12.5-5.56,20.05t-16.43,7.59l-14,0Zm12.57,10.46.08,32.92h.89q9.77,0,9.72-17.75,0-6.84-2.14-11a7.14,7.14,0,0,0-6.89-4.16Z"/><path d="M327.51,199.73a20.79,20.79,0,0,1-8.87,2.22q-9.06,0-14.45-7.89t-5.41-19.72A41.11,41.11,0,0,1,301,160.56a22.76,22.76,0,0,1,7.09-10.41,17.1,17.1,0,0,1,11-3.91,20.11,20.11,0,0,1,8.23,1.95l0,12.34a9.24,9.24,0,0,0-6.57-3c-2.9,0-5.19,1.48-6.87,4.43s-2.51,7.2-2.5,12.77q0,7.16,2.56,11.47c1.69,2.87,3.93,4.3,6.7,4.3,2,0,4.28-1,6.75-2.92Z"/><path d="M344.52,147.06,357,147,371.3,201l-13.66,0-1.94-10.71-10.32,0L343.45,201l-12.85,0Zm6,14.73-3.41,18.85,6.82,0Z"/><path d="M374.78,147l19.18,0q7.44,0,11.54,4t4.12,11.35a23.08,23.08,0,0,1-1.33,7.68,13.46,13.46,0,0,1-5.66,6.71,19.45,19.45,0,0,1-10.87,2.87h-4.24l.06,21.4-12.66,0Zm12.69,10.38,0,11.57h2.77a7.12,7.12,0,0,0,4.9-1.62,5.7,5.7,0,0,0,1.81-4.51,5.53,5.53,0,0,0-1.41-4.1,5.89,5.89,0,0,0-4.22-1.34Z"/><path d="M414.83,146.88l12.65,0,.14,54-12.66,0Z"/><path d="M433.35,146.84l34-.09,0,10.95-10.92,0,.11,43-12.54,0-.11-43-10.53,0Z"/><path d="M478.15,146.72l12.47,0,14.3,53.94-13.65,0L489.33,190,479,190l-1.93,10.72-12.85,0Zm6,14.73-3.41,18.85,6.82,0Z"/><path d="M508.88,146.64l12.57,0,.11,42.95,17.29-.05,0,11-29.85.08Z"/><path class="cls-2" d="M367.26,220a3.73,3.73,0,0,0,2.53-.84,2.61,2.61,0,0,0,.83-1.36,2.52,2.52,0,0,0,.05-.48,2.32,2.32,0,0,0-.69-1.84,3,3,0,0,0-2.06-.61h-2.14V220Z"/><path class="cls-2" d="M296.25,220a3.72,3.72,0,0,0,2.53-.84,2.69,2.69,0,0,0,.84-1.36,3.73,3.73,0,0,0,0-.48,2.32,2.32,0,0,0-.69-1.84,3,3,0,0,0-2.06-.61h-2.13V220Z"/><path class="cls-2" d="M346.31,216.2a2.68,2.68,0,0,0-2.27-1.56,2.75,2.75,0,0,0-2.62,1.8,8.18,8.18,0,0,0-.57,1.81,14.94,14.94,0,0,0-.19,2.52,9.49,9.49,0,0,0,.87,4.41,2.7,2.7,0,0,0,2.44,1.65,2.74,2.74,0,0,0,2.47-1.7,7.24,7.24,0,0,0,.61-1.74,14.08,14.08,0,0,0,.2-2.46A9.45,9.45,0,0,0,346.31,216.2Z"/><polygon class="cls-2" points="207.5 215.37 205.96 221.64 209.06 221.64 207.5 215.37"/><path class="cls-2" d="M233.87,216.34a3,3,0,0,0-2.75-1.48h-1.89v11.83h2a2.91,2.91,0,0,0,2.78-1.62,6.7,6.7,0,0,0,.56-1.64,16.6,16.6,0,0,0,.21-2.81A8.52,8.52,0,0,0,233.87,216.34Z"/><polygon class="cls-2" points="314.04 215.37 312.5 221.64 315.61 221.64 314.04 215.37"/><path d="M200.16,221.88a3.41,3.41,0,0,0-1.07-1.23,9.1,9.1,0,0,0-1.69-.85,9.14,9.14,0,0,1-2.4-1.3,2,2,0,0,1-.66-1.61,2.85,2.85,0,0,1,0-.29,2.41,2.41,0,0,1,.63-1.07,2.44,2.44,0,0,1,1.84-.77,2.69,2.69,0,0,1,1.27.32,8.09,8.09,0,0,1,1.52,1.18v-.48l.08.08v-1.92a4.93,4.93,0,0,0-2.82-1,3.91,3.91,0,0,0-2.85,1.17,3.8,3.8,0,0,0-1.14,2.2,3.9,3.9,0,0,0-.13,1q0,2.58,3.35,3.85a6.21,6.21,0,0,1,2.3,1.29,2.4,2.4,0,0,1,.59,1.66,3.14,3.14,0,0,1,0,.45,2.58,2.58,0,0,1-.78,1.3,3,3,0,0,1-2.06.83,3.33,3.33,0,0,1-1.43-.34,10.63,10.63,0,0,1-1.84-1.27v.46l-.08-.06v1.85a5.77,5.77,0,0,0,3.3,1.22,4.28,4.28,0,0,0,3.11-1.29,4.22,4.22,0,0,0,1.26-2.43,4.79,4.79,0,0,0,.14-1.16A3.7,3.7,0,0,0,200.16,221.88Z"/><path d="M208.31,213.17H206.9l-4.07,14.77h0l-.11.4h1.56l1.26-5.1h3.92l1.25,5.1h1.61l-.11-.4h.19Zm-.81,2.2,1.57,6.27H206Z"/><path d="M222.2,213.57h-.08v8.31c0,.08,0,1.26.1,3.49L221.17,223l-4.37-9.83h-1.46v.4h-.08v14.77h1.28v-.4h.08v-8.56l0-.63v-1.64l0-1.14.46,1.18c.33.87.56,1.44.68,1.71l4.23,9.48h1.44v-.4h.08V213.17H222.2Z"/><path d="M235.05,215.09a4.31,4.31,0,0,0-3.85-1.92h-3.41v.4h-.08v14.77h3.41a4.63,4.63,0,0,0,2.77-.87,5,5,0,0,0,1.77-2.6,10.59,10.59,0,0,0,.33-1.26,12.55,12.55,0,0,0,.33-2.94A10.11,10.11,0,0,0,235.05,215.09Zm-1.07,10a2.91,2.91,0,0,1-2.78,1.62h-2V214.86h1.89a3,3,0,0,1,2.75,1.48,8.52,8.52,0,0,1,.88,4.28,16.6,16.6,0,0,1-.21,2.81A6.7,6.7,0,0,1,234,225.07Z"/><path d="M248.78,213.57h0l-1.39,9-.42,3-.47-3.37-1.52-9h-1.4l-.07.4h0l-1.38,8.75c0,.25-.09.58-.13,1l-.29,2.18c-.11-.7-.18-1.22-.21-1.54-.11-.94-.19-1.55-.24-1.82l-1.37-9h-1.58l.07.4h-.15l2.71,14.77h1.38l.06-.4h0l1.36-8.39c.15-.89.32-2.13.52-3.7l.35,2.65,1.57,9.84h1.39l.07-.4h0l2.69-14.77h-1.49Z"/><polygon points="253.41 213.57 253.33 213.57 253.33 228.34 254.77 228.34 254.77 227.94 254.85 227.94 254.85 213.17 253.41 213.17 253.41 213.57"/><path d="M260,215a8.73,8.73,0,0,0-1.15,3.15,14.41,14.41,0,0,0,.26,6.56,5.73,5.73,0,0,0,1.65,2.8,3.85,3.85,0,0,0,2.66,1,5.36,5.36,0,0,0,2.78-.91v-.35l.08-.05v-1.74a4.22,4.22,0,0,1-2.69,1.34,2.78,2.78,0,0,1-2.51-1.73,9.22,9.22,0,0,1-.92-4.35,15.68,15.68,0,0,1,.21-2.61,7.13,7.13,0,0,1,.66-1.83,2.88,2.88,0,0,1,2.57-1.7,4,4,0,0,1,2.6,1.3v-.47a.27.27,0,0,1,.08.07v-1.72a4.74,4.74,0,0,0-2.65-.9A4.11,4.11,0,0,0,260,215Z"/><polygon points="276.36 213.57 276.28 213.57 276.28 219.58 271.16 219.58 271.16 213.17 269.72 213.17 269.72 213.57 269.64 213.57 269.64 228.34 271.08 228.34 271.08 227.94 271.16 227.94 271.16 221.23 276.28 221.23 276.28 228.34 277.72 228.34 277.72 227.94 277.8 227.94 277.8 213.17 276.36 213.17 276.36 213.57"/><polygon points="282.19 213.57 282.11 213.57 282.11 228.34 289.29 228.34 289.29 227.94 289.37 227.94 289.37 226.71 283.63 226.71 283.63 221.24 288.97 221.24 288.97 220.84 289.05 220.84 289.05 219.62 283.63 219.62 283.63 214.82 289.29 214.82 289.29 214.42 289.37 214.42 289.37 213.17 282.19 213.17 282.19 213.57"/><path d="M300.53,223.54a5,5,0,0,0-.78-2,2.57,2.57,0,0,0-1.07-.78,4.18,4.18,0,0,0,1.7-1.28,3.83,3.83,0,0,0,.69-1.76,4.64,4.64,0,0,0,.12-1,3.17,3.17,0,0,0-1.17-2.7,5,5,0,0,0-3.09-.88h-3.56v.4h-.08v14.77h1.4v-.4h.09v-6.36h1.51a2.49,2.49,0,0,1,1.95.75,5,5,0,0,1,.95,2.45l.59,3.56h1.53l-.08-.4h.16Zm-3.62-8.68a3,3,0,0,1,2.06.61,2.32,2.32,0,0,1,.69,1.84,3.73,3.73,0,0,1,0,.48,2.69,2.69,0,0,1-.84,1.36,3.72,3.72,0,0,1-2.53.84h-1.47v-5.13Z"/><polygon points="304.92 213.57 304.83 213.57 304.83 228.34 306.27 228.34 306.27 227.94 306.36 227.94 306.36 213.17 304.92 213.17 304.92 213.57"/><polygon points="306.23 209.04 304.64 212.14 304.76 212.14 304.56 212.54 305.45 212.54 307.74 209.44 307.52 209.44 307.82 209.04 306.23 209.04"/><path d="M314.85,213.17h-1.41l-4.07,14.77h0l-.12.4h1.57l1.26-5.1H316l1.25,5.1h1.61l-.11-.4H319Zm-.81,2.2,1.57,6.27H312.5Z"/><path d="M331.94,221h-.09v1.25h2.71V224a4.49,4.49,0,0,1,0,.64,3.57,3.57,0,0,1-.56,1.29,2,2,0,0,1-1.64,1c-.89,0-1.63-.59-2.2-1.77a9.58,9.58,0,0,1-.86-4.26,13.92,13.92,0,0,1,.2-2.44,7,7,0,0,1,.75-2,3.09,3.09,0,0,1,2.74-1.77,4.18,4.18,0,0,1,2.76,1.36v-.47l.08.07v-1.77a5,5,0,0,0-2.72-.91,4.43,4.43,0,0,0-3.81,2.13,8,8,0,0,0-1.27,3.29,13,13,0,0,0-.28,2.76,13.67,13.67,0,0,0,.5,3.68,5.91,5.91,0,0,0,1.56,2.79,3.29,3.29,0,0,0,2.28,1,2.45,2.45,0,0,0,1.39-.42,3.77,3.77,0,0,0,1.12-1.26l.53,1.45H336v-.4h.09v-7.39h-4.15Z"/><path d="M347.52,215a4,4,0,0,0-7,0,8.27,8.27,0,0,0-1.05,2.82,14.57,14.57,0,0,0-.34,3.26,9.7,9.7,0,0,0,1.35,5.5,4,4,0,0,0,7,0,7.81,7.81,0,0,0,1.19-3.11,12.83,12.83,0,0,0,.26-2.66A10.73,10.73,0,0,0,347.52,215Zm-1.08,10.14a2.74,2.74,0,0,1-2.47,1.7,2.7,2.7,0,0,1-2.44-1.65,9.49,9.49,0,0,1-.87-4.41,14.94,14.94,0,0,1,.19-2.52,8.18,8.18,0,0,1,.57-1.81,2.75,2.75,0,0,1,2.62-1.8,2.68,2.68,0,0,1,2.27,1.56,9.45,9.45,0,0,1,.94,4.73,14.08,14.08,0,0,1-.2,2.46A7.24,7.24,0,0,1,346.44,225.13Z"/><path d="M358.83,213.57h-.08V224.2a4.88,4.88,0,0,1,0,.68,2.82,2.82,0,0,1-.57,1.22,2.33,2.33,0,0,1-1.85.8,2.28,2.28,0,0,1-1.88-.84,3.48,3.48,0,0,1-.67-2.26V213.17H352.3v.4h-.08v10.32a5.22,5.22,0,0,0,1,3.41,3.56,3.56,0,0,0,2.91,1.27,3.77,3.77,0,0,0,2.91-1.18,4.2,4.2,0,0,0,1-2.33,6.31,6.31,0,0,0,.14-1.26V213.17h-1.44Z"/><path d="M371.53,223.54a4.84,4.84,0,0,0-.77-2,2.6,2.6,0,0,0-1.08-.78,4,4,0,0,0,1.7-1.28,3.74,3.74,0,0,0,.7-1.76,4.64,4.64,0,0,0,.12-1,3.17,3.17,0,0,0-1.17-2.7,5,5,0,0,0-3.1-.88h-3.55v.4h-.09v14.77h1.41v-.4h.08v-6.36h1.52a2.47,2.47,0,0,1,1.94.75,4.93,4.93,0,0,1,1,2.45l.58,3.56h1.54l-.08-.4h.16Zm-3.61-8.68a3,3,0,0,1,2.06.61,2.32,2.32,0,0,1,.69,1.84,2.52,2.52,0,0,1-.05.48,2.61,2.61,0,0,1-.83,1.36,3.73,3.73,0,0,1-2.53.84h-1.48v-5.13Z"/><path d="M380.86,221.3l-3.18-8.13h-1.75v.4h-.08v14.77h1.37v-.4h.08v-7.77c0-.33,0-1.88-.12-4.63.54,1.49,1,2.75,1.42,3.77l2.18,5.64,2.58-6.7q.63-1.67,1-3.12c0,.6,0,1.06,0,1.36v11.85h1.3v-.4h.08V213.17H384Z"/><polygon points="390.16 213.57 390.08 213.57 390.08 228.34 397.26 228.34 397.26 227.94 397.34 227.94 397.34 226.71 391.6 226.71 391.6 221.24 396.94 221.24 396.94 220.84 397.02 220.84 397.02 219.62 391.6 219.62 391.6 214.82 397.26 214.82 397.26 214.42 397.34 214.42 397.34 213.17 390.16 213.17 390.16 213.57"/><polygon points="408.45 213.17 400.16 213.17 400.16 213.57 400.08 213.57 400.08 214.82 403.49 214.82 403.49 228.34 404.9 228.34 404.9 227.94 404.98 227.94 404.98 214.82 408.37 214.82 408.37 214.42 408.45 214.42 408.45 213.17"/></g></g></svg>