<svg xmlns="http://www.w3.org/2000/svg" xmlns:xlink="http://www.w3.org/1999/xlink" viewBox="0 0 98.16 101.43"><defs><style>.cls-1{fill:#ff0068;}.cls-2{fill:#ffeb00;}.cls-3{fill:#010f70;}.cls-4{clip-path:url(#clip-path);}.cls-5{clip-path:url(#clip-path-2);}.cls-6{clip-path:url(#clip-path-3);}.cls-7{clip-path:url(#clip-path-4);}</style><clipPath id="clip-path"><rect class="cls-1" x="55.26" y="50.96" width="42.9" height="46.07"/></clipPath><clipPath id="clip-path-2"><rect class="cls-1" x="1.33" y="50.96" width="55.83" height="46.85"/></clipPath><clipPath id="clip-path-3"><path class="cls-2" d="M25.54,45.25V39.67a3.88,3.88,0,1,1,7.76,0v5.58Z"/></clipPath><clipPath id="clip-path-4"><rect class="cls-2" x="26.49" y="61.71" width="5.51" height="5.51" transform="translate(93.71 35.22) rotate(90)"/></clipPath></defs><g id="Capa_2" data-name="Capa 2"><g id="Iconos"><polygon class="cls-3" points="98.16 50.96 55.26 54.14 55.26 46.28 87.03 46.28 98.16 50.96"/><rect class="cls-1" x="55.26" y="50.96" width="42.9" height="46.07"/><g class="cls-4"><rect class="cls-2" x="63.41" y="61.41" width="6.15" height="40.02"/><rect class="cls-2" x="74.29" y="61.41" width="6.15" height="40.02"/><rect class="cls-2" x="85.18" y="61.41" width="6.15" height="40.02"/></g><rect class="cls-1" x="1.33" y="50.96" width="55.83" height="46.85"/><g class="cls-5"><rect class="cls-3" x="0.16" y="88.35" width="58.17" height="12.1"/><path class="cls-3" d="M29.25,72.14h0A10.47,10.47,0,0,1,39.72,82.61v17.84a0,0,0,0,1,0,0H18.78a0,0,0,0,1,0,0V82.61A10.47,10.47,0,0,1,29.25,72.14Z"/><path class="cls-2" d="M21.05,100.45V82.61a8.2,8.2,0,1,1,16.4,0v17.84Z"/></g><rect class="cls-2" x="17.73" y="31.34" width="23.04" height="13.86"/><path class="cls-3" d="M29.25,6.16h0a14.64,14.64,0,0,1-6.5,8.16l-1.31.77H37.06l-1.31-.77a14.6,14.6,0,0,1-6.5-8.16Z"/><rect class="cls-2" x="20.9" y="17.78" width="16.69" height="13.86"/><circle class="cls-3" cx="29.25" cy="6.45" r="0.77"/><rect class="cls-3" x="28.87" width="0.76" height="6.45"/><rect class="cls-3" x="27.25" y="1.17" width="4" height="0.76"/><rect class="cls-3" x="23.31" y="16.84" width="2.27" height="12.23"/><rect class="cls-3" x="32.92" y="16.84" width="2.27" height="12.23"/><rect class="cls-3" x="19.39" y="14.8" width="19.72" height="2.98"/><rect class="cls-3" x="26.83" y="20.51" width="4.83" height="8.15"/><polygon class="cls-3" points="29.25 18.82 26.83 20.51 31.66 20.51 29.25 18.82"/><polygon class="cls-3" points="40.77 31.34 17.73 31.34 20.16 28.12 38.34 28.12 40.77 31.34"/><rect class="cls-3" x="17.73" y="31.34" width="2.59" height="14.45"/><rect class="cls-3" x="38.18" y="31.34" width="2.59" height="14.45"/><path class="cls-3" d="M29.42,34.27h0a5.39,5.39,0,0,1,5.39,5.39v7.1a0,0,0,0,1,0,0H24a0,0,0,0,1,0,0v-7.1A5.39,5.39,0,0,1,29.42,34.27Z"/><path class="cls-2" d="M25.54,45.25V39.67a3.88,3.88,0,1,1,7.76,0v5.58Z"/><g class="cls-6"><rect class="cls-3" x="29.04" y="35.1" width="0.76" height="13.47"/><rect class="cls-3" x="22.51" y="39.64" width="13.47" height="0.76"/></g><polygon class="cls-3" points="57.17 50.96 1.32 50.96 0.16 47.69 0.16 44.42 58.33 44.42 58.33 47.69 57.17 50.96"/><rect class="cls-3" x="1.33" y="50.96" width="55.83" height="5.17"/><rect class="cls-2" x="1.33" y="58.87" width="3.42" height="36.21"/><polygon class="cls-2" points="6.08 56.14 0 56.14 1.33 58.87 4.75 58.87 6.08 56.14"/><polygon class="cls-2" points="0 97.82 6.08 97.82 4.75 95.08 1.33 95.08 0 97.82"/><rect class="cls-2" x="12.39" y="58.87" width="3.42" height="36.21"/><polygon class="cls-2" points="17.13 56.14 11.05 56.14 12.38 58.87 15.8 58.87 17.13 56.14"/><polygon class="cls-2" points="11.05 97.82 17.13 97.82 15.8 95.08 12.38 95.08 11.05 97.82"/><rect class="cls-2" x="42.69" y="58.87" width="3.42" height="36.21"/><polygon class="cls-2" points="47.44 56.14 41.36 56.14 42.69 58.87 46.11 58.87 47.44 56.14"/><polygon class="cls-2" points="41.36 97.82 47.44 97.82 46.11 95.08 42.69 95.08 41.36 97.82"/><rect class="cls-2" x="53.75" y="58.87" width="3.42" height="36.21"/><polygon class="cls-2" points="58.49 56.14 52.41 56.14 53.75 58.87 57.16 58.87 58.49 56.14"/><polygon class="cls-2" points="52.41 97.82 58.49 97.82 57.16 95.08 53.75 95.08 52.41 97.82"/><rect class="cls-3" x="25.36" y="60.58" width="7.78" height="7.78"/><rect class="cls-2" x="26.49" y="61.71" width="5.51" height="5.51" transform="translate(93.71 35.22) rotate(90)"/><g class="cls-7"><rect class="cls-3" x="28.87" y="59.89" width="0.76" height="9.15"/><rect class="cls-3" x="24.67" y="64.09" width="9.15" height="0.76"/></g><polygon class="cls-3" points="29.25 57.94 25.36 60.58 33.14 60.58 29.25 57.94"/></g></g></svg>