<svg xmlns="http://www.w3.org/2000/svg" xmlns:xlink="http://www.w3.org/1999/xlink" viewBox="0 0 259.47 268.11"><defs><style>.cls-1{fill:#ff0068;}.cls-2{fill:#ffec00;}.cls-3{fill:#010f70;}.cls-4{clip-path:url(#clip-path);}.cls-5{clip-path:url(#clip-path-2);}.cls-6{clip-path:url(#clip-path-3);}.cls-7{clip-path:url(#clip-path-4);}</style><clipPath id="clip-path"><rect class="cls-1" x="146.07" y="134.72" width="113.4" height="121.78"/></clipPath><clipPath id="clip-path-2"><rect class="cls-1" x="3.52" y="134.72" width="147.59" height="123.85"/></clipPath><clipPath id="clip-path-3"><path class="cls-2" d="M67.51,119.62V104.85a10.26,10.26,0,0,1,20.51,0v14.77Z"/></clipPath><clipPath id="clip-path-4"><rect class="cls-2" x="70.03" y="163.13" width="14.56" height="14.56" transform="translate(247.72 93.1) rotate(90)"/></clipPath></defs><g id="Capa_2" data-name="Capa 2"><g id="Espacios"><polygon class="cls-3" points="259.47 134.72 146.07 143.1 146.07 122.33 230.06 122.33 259.47 134.72"/><rect class="cls-1" x="146.07" y="134.72" width="113.4" height="121.78"/><g class="cls-4"><rect class="cls-2" x="167.62" y="162.32" width="16.26" height="105.79"/><rect class="cls-2" x="196.39" y="162.32" width="16.26" height="105.79"/><rect class="cls-2" x="225.15" y="162.32" width="16.26" height="105.79"/></g><rect class="cls-1" x="3.52" y="134.72" width="147.59" height="123.85"/><g class="cls-5"><rect class="cls-3" x="0.42" y="233.54" width="153.78" height="31.99"/><path class="cls-3" d="M77.31,190.71h0A27.67,27.67,0,0,1,105,218.38v47.15a0,0,0,0,1,0,0H49.64a0,0,0,0,1,0,0V218.38A27.67,27.67,0,0,1,77.31,190.71Z"/><path class="cls-2" d="M55.64,265.53V218.38a21.67,21.67,0,1,1,43.34,0v47.15Z"/></g><rect class="cls-2" x="46.87" y="82.86" width="60.89" height="36.64"/><path class="cls-3" d="M77.31,16.29h0A38.62,38.62,0,0,1,60.13,37.85l-3.46,2H98l-3.46-2A38.66,38.66,0,0,1,77.31,16.29Z"/><rect class="cls-2" x="55.25" y="46.99" width="44.12" height="36.64"/><circle class="cls-3" cx="77.31" cy="17.05" r="2.05"/><rect class="cls-3" x="76.31" width="2" height="17.05"/><rect class="cls-3" x="72.02" y="3.1" width="10.58" height="2"/><rect class="cls-3" x="61.6" y="44.51" width="6" height="32.32"/><rect class="cls-3" x="87.02" y="44.51" width="6" height="32.32"/><rect class="cls-3" x="51.25" y="39.12" width="52.12" height="7.87"/><rect class="cls-3" x="70.93" y="54.22" width="12.77" height="21.54"/><polygon class="cls-3" points="77.31 49.76 70.93 54.22 83.7 54.22 77.31 49.76"/><polygon class="cls-3" points="107.76 82.86 46.87 82.86 53.28 74.34 101.34 74.34 107.76 82.86"/><rect class="cls-3" x="46.87" y="82.86" width="6.84" height="38.19"/><rect class="cls-3" x="100.92" y="82.86" width="6.84" height="38.19"/><path class="cls-3" d="M77.76,90.6h0A14.26,14.26,0,0,1,92,104.85v18.77a0,0,0,0,1,0,0H63.51a0,0,0,0,1,0,0V104.85A14.26,14.26,0,0,1,77.76,90.6Z"/><path class="cls-2" d="M67.51,119.62V104.85a10.26,10.26,0,0,1,20.51,0v14.77Z"/><g class="cls-6"><rect class="cls-3" x="76.76" y="92.79" width="2" height="35.61"/><rect class="cls-3" x="59.51" y="104.77" width="35.61" height="2"/></g><polygon class="cls-3" points="151.13 134.72 3.5 134.72 0.42 126.07 0.42 117.43 154.2 117.43 154.2 126.07 151.13 134.72"/><rect class="cls-3" x="3.52" y="134.72" width="147.59" height="13.67"/><rect class="cls-2" x="3.52" y="155.62" width="9.03" height="95.72"/><polygon class="cls-2" points="16.07 148.39 0 148.39 3.52 155.62 12.55 155.62 16.07 148.39"/><polygon class="cls-2" points="0 258.56 16.07 258.56 12.55 251.34 3.52 251.34 0 258.56"/><rect class="cls-2" x="32.74" y="155.62" width="9.03" height="95.72"/><polygon class="cls-2" points="45.29 148.39 29.22 148.39 32.74 155.62 41.77 155.62 45.29 148.39"/><polygon class="cls-2" points="29.22 258.56 45.29 258.56 41.77 251.34 32.74 251.34 29.22 258.56"/><rect class="cls-2" x="112.85" y="155.62" width="9.03" height="95.72"/><polygon class="cls-2" points="125.4 148.39 109.33 148.39 112.85 155.62 121.88 155.62 125.4 148.39"/><polygon class="cls-2" points="109.33 258.56 125.4 258.56 121.88 251.34 112.85 251.34 109.33 258.56"/><rect class="cls-2" x="142.07" y="155.62" width="9.03" height="95.72"/><polygon class="cls-2" points="154.62 148.39 138.56 148.39 142.07 155.62 151.1 155.62 154.62 148.39"/><polygon class="cls-2" points="138.56 258.56 154.62 258.56 151.1 251.34 142.07 251.34 138.56 258.56"/><rect class="cls-3" x="67.03" y="160.13" width="20.56" height="20.56"/><rect class="cls-2" x="70.03" y="163.13" width="14.56" height="14.56" transform="translate(247.72 93.1) rotate(90)"/><g class="cls-7"><rect class="cls-3" x="76.31" y="158.32" width="2" height="24.19"/><rect class="cls-3" x="65.22" y="169.41" width="24.19" height="2"/></g><polygon class="cls-3" points="77.31 153.16 67.03 160.13 87.59 160.13 77.31 153.16"/></g></g></svg>