<svg xmlns="http://www.w3.org/2000/svg" xmlns:xlink="http://www.w3.org/1999/xlink" viewBox="0 0 109.37 64.82"><defs><style>.cls-1{fill:#010f70;}.cls-2{fill:#00c2ff;}.cls-3{clip-path:url(#clip-path);}.cls-4{fill:#ffeb00;}.cls-5{clip-path:url(#clip-path-2);}.cls-6{clip-path:url(#clip-path-3);}</style><clipPath id="clip-path" transform="translate(0)"><polygon class="cls-1" points="109.37 57.39 73.21 57.39 73.21 0 109.37 8.64 109.37 57.39"/></clipPath><clipPath id="clip-path-2" transform="translate(0)"><polygon class="cls-1" points="0 57.39 36.16 57.39 36.16 0 0 8.64 0 57.39"/></clipPath><clipPath id="clip-path-3" transform="translate(0)"><rect class="cls-2" x="36.16" width="37.04" height="57.39"/></clipPath></defs><g id="Capa_2" data-name="Capa 2"><g id="Iconos"><polygon class="cls-1" points="109.37 57.39 73.21 57.39 73.21 0 109.37 8.64 109.37 57.39"/><g class="cls-3"><polygon class="cls-2" points="109.37 62.23 73.21 62.23 73.21 4.83 109.37 13.47 109.37 62.23"/><polygon class="cls-4" points="85.75 26.86 78.14 25.13 78.14 7.9 85.75 9.64 85.75 26.86"/><polygon class="cls-1" points="86.25 22 77.29 19.95 77.29 18.64 86.25 20.68 86.25 22"/><polygon class="cls-4" points="95.56 29.11 87.94 27.37 87.94 10.14 95.56 11.88 95.56 29.11"/><polygon class="cls-1" points="96.06 24.24 87.1 22.2 87.1 20.88 96.06 22.93 96.06 24.24"/><polygon class="cls-4" points="105.37 31.34 97.75 29.61 97.75 12.38 105.37 14.12 105.37 31.34"/><polygon class="cls-1" points="105.87 26.48 96.91 24.43 96.91 23.12 105.87 25.16 105.87 26.48"/><polygon class="cls-1" points="109.37 58.08 73.21 58.08 73.21 22.4 109.37 31.04 109.37 58.08"/><polygon class="cls-2" points="109.37 61.79 73.21 61.79 73.21 26.11 109.37 34.75 109.37 61.79"/><polygon class="cls-1" points="86.25 59.93 76.79 57.72 76.79 31.34 86.25 33.55 86.25 59.93"/><polygon class="cls-1" points="96.74 62.38 87.27 60.17 87.27 33.79 96.74 36 96.74 62.38"/><polygon class="cls-1" points="107.22 64.82 97.75 62.62 97.75 36.24 107.22 38.45 107.22 64.82"/><rect class="cls-4" x="63.01" y="48.08" width="46.36" height="4.82"/><rect class="cls-2" x="63.01" y="52.22" width="46.36" height="6.2"/></g><polygon class="cls-1" points="0 57.39 36.16 57.39 36.16 0 0 8.64 0 57.39"/><g class="cls-5"><polygon class="cls-2" points="0 62.23 36.16 62.23 36.16 4.83 0 13.47 0 62.23"/><polygon class="cls-4" points="23.62 26.86 31.23 25.13 31.23 7.9 23.62 9.64 23.62 26.86"/><polygon class="cls-1" points="23.11 22 32.08 19.95 32.08 18.64 23.11 20.68 23.11 22"/><polygon class="cls-4" points="13.81 29.11 21.43 27.37 21.43 10.14 13.81 11.88 13.81 29.11"/><polygon class="cls-1" points="13.3 24.24 22.27 22.2 22.27 20.88 13.3 22.93 13.3 24.24"/><polygon class="cls-4" points="4 31.34 11.62 29.61 11.62 12.38 4 14.12 4 31.34"/><polygon class="cls-1" points="3.5 26.48 12.46 24.43 12.46 23.12 3.5 25.16 3.5 26.48"/><polygon class="cls-1" points="0 58.08 36.16 58.08 36.16 22.4 0 31.04 0 58.08"/><polygon class="cls-2" points="0 61.79 36.16 61.79 36.16 26.11 0 34.75 0 61.79"/><polygon class="cls-1" points="23.11 59.93 32.58 57.72 32.58 31.34 23.11 33.55 23.11 59.93"/><polygon class="cls-1" points="2.15 64.82 11.62 62.62 11.62 36.24 2.15 38.45 2.15 64.82"/><rect class="cls-4" y="48.08" width="46.36" height="4.82" transform="translate(46.36 100.99) rotate(-180)"/><rect class="cls-2" y="52.22" width="46.36" height="6.2" transform="translate(46.36 110.64) rotate(-180)"/><polygon class="cls-1" points="12.63 62.38 22.1 60.17 22.1 33.79 12.63 36 12.63 62.38"/></g><rect class="cls-2" x="36.16" width="37.04" height="57.39"/><g class="cls-6"><rect class="cls-1" x="36.16" y="4.83" width="37.04" height="52.56"/><rect class="cls-2" x="47.49" y="6.25" width="14.4" height="14.4"/><rect class="cls-2" x="35.33" y="51.39" width="38.51" height="7.56"/><rect class="cls-4" x="29.89" y="48.08" width="16.01" height="4.14"/><rect class="cls-4" x="62.62" y="48.08" width="16.01" height="4.14"/><rect class="cls-2" x="40.8" y="37.55" width="27.77" height="18.16" transform="translate(101.32 -8.05) rotate(90)"/><rect class="cls-4" x="47.12" y="34.26" width="15.13" height="24.74"/></g><polygon class="cls-4" points="75.13 24.3 73.21 21.91 36.16 21.91 34.24 24.3 34.24 30.16 75.13 30.16 75.13 24.3"/></g></g></svg>